<?xml version="1.0" encoding="utf-8"?>
<!-- Generator: Adobe Illustrator 24.2.1, SVG Export Plug-In . SVG Version: 6.00 Build 0)  -->
<svg version="1.1" id="Layer_1" xmlns="http://www.w3.org/2000/svg" xmlns:xlink="http://www.w3.org/1999/xlink" x="0px" y="0px"
	 width="376px" height="302px" viewBox="0 0 376 302" enable-background="new 0 0 376 302" xml:space="preserve">
<g id="Group_210" transform="translate(-130.267 -48.675)">
	<path id="Rectangle_279" fill="#E4EAF1" d="M192.672,78.123l251.518-4.478c13.258-0.236,24.198,10.321,24.434,23.579l3.26,183.077
		c0.236,13.258-10.321,24.198-23.579,24.434l-251.518,4.478c-13.258,0.236-24.198-10.321-24.434-23.579l-3.26-183.077
		C168.857,89.299,179.414,78.359,192.672,78.123z"/>
	<path id="Path_767" fill="#4491EF" d="M456.699,301.948l-22.4,0.4l-55.171,0.99l-69.868,1.218l-66.5,1.188l-44.921,0.8
		c-2.982,0.059-5.964,0.137-8.952,0.163c-7.9,0.065-13.529-5.755-13.712-13.536c-0.287-12.188-0.436-24.376-0.651-36.563
		l-1.2-67.059l-1.166-64.989c-0.176-10.1-0.586-20.235-0.541-30.34c0.039-8.34,6.6-13.19,14.356-13.327l11.673-0.209l48.66-0.876
		l67.912-1.224l69.012-1.23l52.007-0.931l13.978-0.254c5.364-0.091,10.534,0.378,14.115,5.209c2.884,3.906,2.545,8.464,2.6,13.021
		l0.339,19l1.12,62.7l1.256,68.457l0.748,41.668c0,0.794,0.045,1.589,0.039,2.383c0.096,7.17-5.561,13.099-12.728,13.34
		c-3.392,0.156-3.412,5.449,0,5.293c10.873-0.5,18.132-9.16,17.976-19.76c-0.065-4.616-0.163-9.225-0.247-13.841l-1.04-58.5
		l-1.3-71.375l-0.84-49.142c-0.085-4.557,0.13-9.115-1.895-13.392c-3.5-7.415-10.879-10.514-18.653-10.378l-34.448,0.651
		l-62.736,1.12l-72.021,1.3l-62.448,1.115l-33.249,0.594c-8.62,0.156-16.537,4.811-18.881,13.581
		c-0.976,3.678-0.566,7.767-0.494,11.543l0.9,50.444l1.3,71.194l1.028,57.86c0.078,4.306,0.137,8.607,0.235,12.9
		c0.235,10.417,7.891,18.822,18.587,18.881c8.167,0.052,16.355-0.293,24.519-0.437l57.84-1.035l71.525-1.3l66.584-1.188
		l41.915-0.748l5.86-0.1C460.108,307.157,460.121,301.85,456.699,301.948z"/>
	<ellipse id="Ellipse_34" fill="#4491EF" cx="317.604" cy="341.786" rx="153.949" ry="8.438"/>
	<path id="Path_768" fill="#4491EF" d="M321.843,308.237c-0.345,12.221-0.339,24.844,1.152,36.993c0.449,3.633,6.211,3.672,5.755,0
		c-1.491-12.149-1.5-24.773-1.152-36.993C327.703,304.532,321.947,304.532,321.843,308.237z"/>
	<path id="Path_769" fill="#7695BB" d="M233.351,158.472c1.973-1.084,4.408-0.851,6.14,0.586c0.674,0.476,1.151,1.182,1.341,1.985
		c0.136,0.507,0.589,0.864,1.114,0.879c1.341,0.117,2.689,0.351,4.03,0.527c1.078,0.135,2.126,0.45,3.1,0.931
		c1.665,0.77,2.67,2.501,2.513,4.329c-0.091,2.051-0.235,4.089-0.41,6.133c-0.059,1-0.117,1-1.048,1.172
		c-1.438,0.132-2.774,0.799-3.744,1.869c-1.576,2.1-2.4,4.381-1.458,7.012c0.351,1.011,0.863,1.959,1.517,2.806
		c0.55,0.715,1.304,1.246,2.162,1.524c1.114,0.352,1.114,0.469,0.879,1.576c-0.469,2.044-0.879,4.153-1.3,6.257
		c-0.287,1.341-0.52,2.689-0.872,3.972c-0.275,1.001-1.085,1.766-2.1,1.985c-0.765,0.186-1.558,0.226-2.337,0.117
		c-2.865-0.345-5.67-0.651-8.539-0.99c-1.816-0.235-3.568-0.7-5.378-0.879c-3.978-0.41-7.891-0.938-11.81-1.224
		c-1.954-0.117-3.854-0.352-5.782-0.586c-0.912-0.056-1.795-0.336-2.572-0.817c-0.678-0.372-1.086-1.096-1.055-1.869
		c0.059-1.114,0-2.22,0.059-3.392c-0.028-2.225,0.09-4.45,0.351-6.66c0.059-0.469-0.176-0.7-0.651-0.762
		c-1.357-0.118-2.692-0.413-3.972-0.879c-1.5-0.397-2.808-1.319-3.685-2.6c-1.76-2.4-2.158-5.537-1.055-8.3
		c0.738-1.94,2.209-3.514,4.095-4.381c0.644-0.342,1.375-0.484,2.1-0.41c1.496-0.047,2.981,0.275,4.323,0.938
		c0.7,0.41,0.762,0.351,0.879-0.527c0.293-2.455,1-4.792,1.517-7.161c0.352-1.524,1.524-2.1,2.865-2.4
		c1.318-0.184,2.652-0.224,3.978-0.117c2.689,0.176,5.378,0.651,8.008,0.99c0.479,0.061,0.949,0.179,1.4,0.351
		c0.469,0.084,0.781,0.531,0.7,1c-0.018,0.225-0.151,0.424-0.352,0.527c-0.66,0.656-1.159,1.456-1.458,2.337
		c-0.566,1.378-0.607,2.916-0.117,4.323c0.631,1.584,1.973,2.776,3.62,3.216c3.1,1.055,6.511-1,7.891-3.45
		c0.117-0.176,0.176-0.351,0.293-0.527c1.214-2.218,0.836-4.968-0.931-6.777c-0.293-0.352-0.7-0.651-1-1
		c-0.799-0.988-1.986-1.581-3.255-1.628L233.351,158.472z M233.292,178.655c-0.159-0.13-0.392-0.106-0.522,0.053
		c-0.002,0.002-0.003,0.004-0.005,0.006c-1.716,0.977-3.516,1.799-5.378,2.455c-4.323,1.582-8.588,3.568-13.38,3.568
		c-0.352,0-0.41,0.235-0.293,0.469c0.059,0.223,0.178,0.426,0.345,0.586c0.289,0.269,0.439,0.655,0.41,1.048
		c0.117,0.879,0.117,0.879,0.938,0.817c1.114-0.059,2.22-0.176,3.216-0.176c4.205-0.176,8.418-0.527,12.622-1.114
		c0.527-0.028,0.953-0.439,1-0.965c0.176-0.817,0.287-1.641,0.463-2.4c0.285-1.445,0.481-2.906,0.586-4.375L233.292,178.655z
		 M229.708,191.266c-0.299-0.245-0.669-0.389-1.055-0.41c-2.22-0.352-4.5-0.817-6.777-1.055c-2.112-0.146-4.234-0.028-6.316,0.352
		c-0.651,0.059-0.7,0.235-0.527,0.817c0.496,2.312,2.389,4.065,4.733,4.381c2.411,0.335,4.866-0.095,7.019-1.23
		c1.203-0.687,2.21-1.671,2.923-2.858L229.708,191.266z"/>
	<path id="Path_770" fill="#7695BB" d="M233.527,166.657c-0.103,0.904-0.47,1.758-1.055,2.455c-1.4,2.279-4.148,1.23-4.967-0.469
		s-0.235-3.04,0.762-4.323c0.89-1.044,2.327-1.44,3.626-1c1.222,0.628,1.886,1.984,1.633,3.334L233.527,166.657z M231.366,166.364
		c0.059-0.351-0.176-0.469-0.817-0.586s-1.048,0.235-1.048,0.7c0.039,0.457,0.37,0.836,0.817,0.938
		c0.547-0.078,0.976-0.507,1.055-1.054L231.366,166.364z"/>
	<path id="Path_771" fill="#FFFFFF" d="M233.293,178.638c-0.056,1.475-0.233,2.942-0.527,4.388c-0.176,0.817-0.293,1.633-0.463,2.4
		c-0.06,0.513-0.484,0.908-1,0.931c-4.148,0.586-8.418,0.938-12.622,1.114c-1.114,0-2.22,0.176-3.216,0.176
		c-0.879,0.059-0.879,0-0.938-0.817c0.029-0.393-0.121-0.779-0.41-1.048c-0.134-0.183-0.25-0.38-0.345-0.586
		c-0.117-0.293-0.059-0.469,0.287-0.469c4.8,0,9-2.044,13.386-3.568c1.871-0.634,3.673-1.456,5.378-2.455
		C232.882,178.52,233.058,178.52,233.293,178.638z"/>
	<path id="Path_772" fill="#FFFFFF" d="M229.705,191.265c-0.667,1.209-1.686,2.186-2.923,2.8c-2.145,1.158-4.608,1.59-7.019,1.23
		c-2.747-0.41-4.03-2.044-4.733-4.381c-0.176-0.586-0.117-0.762,0.527-0.817c2.086-0.352,4.204-0.471,6.316-0.352
		c2.279,0.235,4.557,0.7,6.777,1.055C229.03,190.879,229.389,191.038,229.705,191.265z"/>
	<path id="Path_773" fill="#FFFFFF" d="M231.368,166.365c-0.017,0.576-0.479,1.038-1.055,1.055
		c-0.447-0.102-0.778-0.481-0.817-0.938c0-0.41,0.52-0.7,1.048-0.7C231.131,165.877,231.368,166.014,231.368,166.365z"/>
	<path id="Path_774" fill="#4491EF" d="M399.397,230.409c0.038-0.858,0.018-1.717-0.059-2.572c-0.021-0.762,0.018-1.524,0.117-2.279
		c0.267-1.458,1.292-2.662,2.689-3.158c0.468-0.208,0.957-0.365,1.458-0.469c2.528-0.487,5.086-0.798,7.657-0.931
		c1.641-0.059,3.216-0.352,4.8-0.352c0.351,0,0.579-0.293,0.872-0.41c2.101-1.265,4.459-2.044,6.9-2.279
		c1.86-0.243,3.748,0.127,5.378,1.055c0.547,0.257,1.165,0.319,1.752,0.176c1.953-0.117,4.03-0.352,6.022-0.41
		c1.568-0.05,3.101,0.468,4.317,1.458c0.848,0.772,1.369,1.839,1.458,2.982c0.352,2.1,0.651,4.089,1,6.2
		c0.117,0.651,0.117,0.7,0.762,0.463c3.334-0.99,6.074,0.527,7.128,3.978c0.775,2.249,0.692,4.704-0.235,6.895
		c-0.86,2.056-2.712,3.53-4.909,3.906c-0.159-0.009-0.318,0.011-0.469,0.059c-0.469,0-0.651,0.235-0.586,0.651
		c0.059,1.81,0.059,3.678,0.059,5.488c0,2.109,0.059,4.153,0.059,6.257c0.143,1.951-1.322,3.648-3.273,3.792
		c-0.057,0.004-0.114,0.007-0.171,0.008c-3.392,0.4-6.784,0.817-10.172,1.107c-2.168,0.117-4.329,0.117-6.511,0.352
		c-3.744,0.41-7.425,0.651-11.166,1.172c-2.513,0.4-5.143,0.52-7.657,0.817c-0.47,0.049-0.945,0.009-1.4-0.117
		c-1.262-0.114-2.279-1.082-2.455-2.337c-0.468-2.689-1.114-5.378-1.465-8.066c-0.293-1.985-0.7-3.972-0.931-5.957
		c-0.117-0.527-0.352-0.651-0.817-0.527c-1.381,0.204-2.789,0.144-4.148-0.176c-0.984-0.242-1.883-0.748-2.6-1.465
		c-2.121-2.04-3.3-4.869-3.255-7.812c-0.021-4.035,3.102-7.389,7.128-7.657c0.912-0.007,1.823,0.047,2.728,0.163L399.397,230.409z
		 M407.112,259.928c0.4-0.054,0.772-0.239,1.055-0.527c3.156-2.483,6.52-4.691,10.053-6.6c3.908-2.122,8.02-3.845,12.273-5.143
		c0.587-0.106,1.038-0.58,1.114-1.172c0.176-1,0.469-1.985,0.7-2.982c0.176-0.651,0.117-0.755-0.579-0.651
		c-1.844,0.257-3.662,0.668-5.437,1.23c-7.731,2.465-14.644,6.992-19.994,13.093c-0.99,1.114-0.931,1.114-0.176,2.337
		c0.059,0.059,0.059,0.117,0.117,0.235c0.239,0.214,0.576,0.281,0.879,0.176L407.112,259.928z M390.741,237.493
		c1.953-1.465,2.923-1.641,4.678-1c0.849,0.289,1.489,0.996,1.693,1.869c0.279,0.948,0.359,1.943,0.235,2.923
		c-0.141,1.822-1.573,3.278-3.392,3.45c-0.176,0-0.293,0-0.235,0.235c2.6,2.747,7.774,1.224,9.355-1.3
		c2.22-3.45,1.985-8.539-2.168-11.068c-1.368-0.959-3.008-1.45-4.678-1.4c-3.138,0.419-5.484,3.091-5.494,6.257L390.741,237.493z
		 M422.415,231.993c1.123,0.01,2.216-0.362,3.1-1.054c2.47-1.865,3.67-4.967,3.1-8.008c-0.315-2.301-2.186-4.073-4.5-4.264
		c-3.685,0.059-7.774,2.279-8.184,7.128c-0.275,2.778,1.467,5.358,4.147,6.14c0.765,0.195,1.563,0.215,2.337,0.059L422.415,231.993z
		 M431.126,248.009c-0.235-0.117-0.41,0-0.586,0c-2.578,0.818-5.097,1.812-7.539,2.975c-4.479,1.909-8.699,4.376-12.559,7.344
		c-0.235,0.176-0.586,0.287-0.469,0.651c0.114,0.337,0.478,0.52,0.817,0.41c0.293-0.059,0.579-0.059,0.872-0.117
		c2.667-0.555,5.301-1.257,7.891-2.1c3.392-1.049,6.605-2.606,9.531-4.616c0.405-0.202,0.732-0.532,0.931-0.938
		c0.441-1.184,0.813-2.393,1.114-3.62L431.126,248.009z M393.365,240.464c0.061,0.588,0.526,1.053,1.114,1.114
		c0.69-0.18,1.17-0.804,1.166-1.517c-0.162-0.619-0.796-0.99-1.415-0.827c-0.528,0.138-0.888,0.627-0.864,1.172L393.365,240.464z"/>
	<path id="Path_775" fill="#FFFFFF" d="M407.112,259.93c-0.321,0.093-0.664-0.054-0.817-0.352c-0.059-0.059-0.059-0.117-0.117-0.235
		c-0.755-1.3-0.817-1.3,0.176-2.337c5.345-6.098,12.25-10.625,19.974-13.094c1.785-0.523,3.601-0.932,5.437-1.224
		c0.579-0.117,0.7,0,0.579,0.651c-0.228,1-0.52,1.992-0.7,2.982c-0.096,0.582-0.538,1.047-1.114,1.172
		c-4.221,1.385-8.325,3.105-12.273,5.143c-3.541,1.895-6.905,4.104-10.052,6.6c-0.251,0.377-0.652,0.628-1.1,0.691L407.112,259.93z"
		/>
	<path id="Path_776" fill="#FFFFFF" d="M390.745,237.493c-0.006-3.161,2.355-5.826,5.494-6.2c1.671-0.06,3.315,0.432,4.678,1.4
		c4.212,2.513,4.447,7.657,2.168,11.068c-1.582,2.513-6.725,3.978-9.355,1.3c0-0.235,0.117-0.235,0.235-0.235
		c1.81-0.192,3.231-1.637,3.392-3.45c0.126-0.98,0.046-1.976-0.235-2.923c-0.245-0.851-0.87-1.541-1.693-1.869
		C393.609,235.842,392.62,236.021,390.745,237.493z"/>
	<path id="Path_777" fill="#FFFFFF" d="M422.419,231.991c-0.78,0.078-1.568,0.039-2.337-0.117c-2.706-0.746-4.466-3.351-4.148-6.14
		c0.41-4.851,4.5-7.128,8.184-7.128c2.161-0.059,4.148,1.985,4.5,4.264c0.598,3.044-0.608,6.16-3.1,8.008
		c-0.816,0.815-1.952,1.223-3.1,1.114L422.419,231.991z M423.719,226.2c0.023-1.577-1.176-2.903-2.747-3.04
		c-1.834-0.065-3.434,1.235-3.744,3.044c-0.162,0.999,0.003,2.024,0.469,2.923c0.938,1.81,4.03,1.953,5.085,0.651
		c0.643-1.076,0.968-2.311,0.938-3.564L423.719,226.2z"/>
	<path id="Path_778" fill="#FFFFFF" d="M431.136,248.007c-0.275,1.241-0.668,2.453-1.172,3.62c-0.199,0.407-0.526,0.736-0.931,0.938
		c-2.907,2.046-6.127,3.606-9.534,4.618c-2.569,0.82-5.2,1.52-7.891,2.1c-0.293,0.059-0.579,0.059-0.872,0.117
		c-0.334,0.065-0.669-0.104-0.817-0.41c-0.117-0.352,0.235-0.463,0.469-0.651c3.86-2.977,8.082-5.454,12.565-7.37
		c2.452-1.107,4.965-2.098,7.539-2.975c0.213-0.038,0.432-0.035,0.644,0.01L431.136,248.007z"/>
	<path id="Path_779" fill="#FFFFFF" d="M393.375,240.462c-0.111-0.581,0.246-1.148,0.817-1.3h0.117
		c0.593-0.076,1.149,0.301,1.3,0.879c0.026,0.72-0.463,1.357-1.166,1.517c-0.586,0.007-1.067-0.461-1.074-1.047
		c0-0.016,0-0.031,0-0.047L393.375,240.462z"/>
	<path id="Path_780" fill="#4491EF" d="M423.72,226.203c0.052,1.238-0.275,2.463-0.936,3.511c-1,1.3-4.03,1.224-5.085-0.651
		c-0.477-0.895-0.642-1.924-0.469-2.923c0.33-1.796,1.918-3.086,3.744-3.04C422.555,223.266,423.747,224.613,423.72,226.203z
		 M420.386,227.837c0.69-0.037,1.231-0.608,1.23-1.3c-0.068-0.607-0.562-1.077-1.172-1.114c-0.718,0.114-1.242,0.738-1.23,1.465
		c0.051,0.54,0.513,0.948,1.055,0.931L420.386,227.837z"/>
	<path id="Path_781" fill="#FFFFFF" d="M420.381,227.837c-0.531,0.075-1.025-0.288-1.114-0.817v-0.059
		c-0.015-0.728,0.511-1.354,1.23-1.465c0.61,0.037,1.104,0.507,1.172,1.114C421.63,227.294,421.067,227.831,420.381,227.837z"/>
	<path id="Path_782" fill="#4491EF" d="M194.307,107.485c0.156-0.774,0.136-1.572-0.059-2.337c-0.293-2.22-0.117-4.5-0.235-6.719
		c0.016-1.451,0.921-2.743,2.279-3.255c0.722-0.368,1.488-0.642,2.279-0.817c2.747-0.4,5.494-1.166,8.3-1.166
		c0.873-0.065,1.741-0.182,2.6-0.352c0.6-0.077,1.206-0.097,1.81-0.059c0.534-0.014,0.979,0.404,1,0.938
		c-0.004,0.187-0.065,0.369-0.176,0.52c-0.142,0.203-0.26,0.421-0.351,0.651c-0.727,1.422-0.972,3.042-0.7,4.616
		c0.651,3.334,3.685,4.915,6.96,4.212c1.121-0.26,2.139-0.85,2.923-1.693c1.336-1.611,1.591-3.86,0.651-5.729
		c-0.442-0.843-1.013-1.612-1.693-2.279c-0.322-0.283-0.513-0.686-0.527-1.114c-0.059-0.817,0.235-1.23,1.055-1.348
		c4.206-0.579,8.3-1.3,12.565-1.576c1.776-0.103,3.507,0.58,4.733,1.869c0.189,0.244,0.365,0.499,0.527,0.762
		c0.35,0.967,0.605,1.966,0.762,2.982c0.235,1.458,0.52,2.982,0.817,4.44c0.176,0.879,0.235,0.879,1.114,0.7
		c2.013-0.579,4.128-0.719,6.2-0.41c3.176,0.637,5.435,3.462,5.359,6.7c0.069,2.691-0.857,5.312-2.6,7.363
		c-1.048,1.3-2.572,1.81-4.089,2.4c-0.848,0.271-1.718,0.467-2.6,0.586c-0.762,0.117-0.762,0.176-0.817,0.931
		c-0.018,0.839,0.021,1.679,0.117,2.513c0.176,3.04,0.235,6.081,0.41,9.063c0.052,1.132-0.514,2.204-1.478,2.8
		c-0.656,0.47-1.419,0.77-2.22,0.872c-3.334,0.41-6.667,1-10.059,1.406c-2.279,0.235-4.616,0.293-6.895,0.651
		c-4.03,0.579-8.066,0.931-12.038,1.693c-2.344,0.469-4.8,0.7-7.194,1c-0.868,0.109-1.75,0.009-2.572-0.293
		c-0.763-0.254-1.324-0.907-1.458-1.7c-0.817-3.564-1.752-7.128-2.279-10.749c0-0.176-0.059-0.293-0.059-0.469
		c-0.059-0.527-0.293-0.651-0.879-0.527c-2.043,0.52-4.2,0.355-6.14-0.469c-0.458-0.163-0.876-0.423-1.224-0.762
		c-1.073-0.827-2.053-1.767-2.923-2.806c-1.208-1.342-1.838-3.106-1.752-4.909c-0.026-1.557,0.314-3.098,0.99-4.5
		c0.763-1.587,2.168-2.771,3.861-3.255c1.586-0.515,3.281-0.596,4.909-0.235c0.278,0.005,0.555-0.042,0.817-0.137L194.307,107.485z
		 M233.175,124.614c-0.237,0.011-0.472,0.05-0.7,0.117c-1.416,0.514-2.859,0.948-4.323,1.3c-1.641,0.352-3.216,0.7-5.026,1.114
		c1.397,0.989,3.029,1.593,4.733,1.752c0.966,0.052,1.924-0.193,2.747-0.7c1.384-0.703,2.342-2.033,2.572-3.568l0.059-0.059
		L233.175,124.614z M191.15,108.337c-0.733,0.093-1.456,0.25-2.161,0.468c-2.6,1.107-4.329,2.923-4.271,5.905v0.384
		c-0.127,2.888,1.384,5.6,3.906,7.012c1.743,0.905,3.742,1.193,5.67,0.817c1.765-0.24,3.285-1.364,4.03-2.982
		c1.26-2.767,1.26-5.944,0-8.711c-0.224-0.422-0.498-0.816-0.817-1.172c-1.694-1.615-4.095-2.254-6.368-1.693L191.15,108.337z
		 M243.697,115.637c1.008-0.131,1.993-0.406,2.923-0.817c1.587-0.657,2.847-1.92,3.5-3.509c0.643-1.347,0.944-2.832,0.879-4.323
		c-0.235-3.255-1.576-5.026-4.206-5.729c-0.826-0.212-1.666-0.368-2.513-0.468c-0.391-0.038-0.786-0.018-1.172,0.059
		c-0.938,0.293-1.869,0.651-2.747,1c-3.509,1.517-4.03,4.678-3.854,8c0.056,0.361,0.152,0.715,0.287,1.055
		c0.319,0.842,0.796,1.616,1.406,2.279c1.395,1.57,3.393,2.473,5.494,2.481L243.697,115.637z M234.454,117.1
		c-1.883,1.16-4.039,1.805-6.25,1.869c-2.012,0.137-4.033,0.038-6.022-0.293c-2.249-0.343-4.474-0.83-6.66-1.458
		c-0.465-0.186-0.976-0.227-1.465-0.117c-1.1,0.523-1.788,1.647-1.752,2.865c0.468-0.352,0.762-0.879,1.3-1.172
		c0.422,1.243,1.146,2.362,2.109,3.255c0.427,0.543,1.063,0.882,1.752,0.931c2.604,0.459,5.248,0.656,7.891,0.586
		c2.041-0.188,4.058-0.579,6.022-1.166c0.994-0.287,1.939-0.726,2.8-1.3c0.41-0.293,0.938-0.586,0.938-1.224
		c-0.012-0.971-0.234-1.928-0.651-2.806L234.454,117.1z"/>
	<path id="Path_783" fill="#FFFFFF" d="M191.15,108.362c2.202-0.59,4.552,0.057,6.14,1.693c0.372,0.311,0.654,0.716,0.817,1.172
		c1.26,2.767,1.26,5.944,0,8.711c-0.736,1.625-2.261,2.753-4.03,2.982c-1.928,0.373-3.926,0.085-5.67-0.817
		c-2.554-1.38-4.077-4.114-3.906-7.012c0.059-0.117,0-0.235,0-0.351c-0.059-3.04,1.7-4.851,4.271-5.905
		C189.555,108.632,190.349,108.474,191.15,108.362z M198.575,115.257c-0.025-0.258-0.084-0.512-0.176-0.755
		c-0.879-3.158-3.626-3.158-5.378-1.992c-1.349,0.992-1.931,2.723-1.458,4.329c0.361,1.459,1.557,2.563,3.04,2.806
		c1.52,0.307,3.042-0.515,3.62-1.953c0.404-0.753,0.529-1.625,0.351-2.461L198.575,115.257z"/>
	<path id="Path_784" fill="#FFFFFF" d="M243.697,115.667c-2.09,0.02-4.088-0.854-5.494-2.4c-0.597-0.672-1.073-1.443-1.406-2.279
		c-0.173-0.326-0.271-0.686-0.287-1.055c-0.117-3.255,0.4-6.426,3.854-8c0.896-0.385,1.813-0.719,2.747-1
		c0.375-0.139,0.785-0.16,1.172-0.059c0.817,0.176,1.693,0.293,2.513,0.469c2.6,0.7,4.03,2.513,4.205,5.729
		c0.037,1.489-0.264,2.967-0.879,4.323c-0.618,1.612-1.889,2.887-3.5,3.509C245.682,115.278,244.7,115.534,243.697,115.667z
		 M240.891,109.417c0.134,1.986,1.854,3.488,3.84,3.353c0.43-0.029,0.852-0.135,1.245-0.313c2.247-1.077,3.328-3.668,2.513-6.022
		c-0.663-1.647-2.41-2.582-4.148-2.22c-2.281,0.642-3.749,2.858-3.45,5.209L240.891,109.417z"/>
	<path id="Path_785" fill="#FFFFFF" d="M234.461,117.132c0.452,0.905,0.654,1.914,0.586,2.923c0,0.579-0.527,0.931-0.938,1.224
		c-0.855,0.585-1.801,1.024-2.8,1.3c-1.969,0.565-3.984,0.955-6.022,1.166c-2.645,0.187-5.303-0.011-7.891-0.586
		c-0.689-0.051-1.324-0.388-1.753-0.929c-0.91-0.936-1.627-2.042-2.109-3.255c-0.52,0.235-0.817,0.817-1.3,1.172
		c-0.026-1.215,0.659-2.334,1.752-2.865c0.489-0.11,1-0.069,1.465,0.117c2.22,0.579,4.381,1.048,6.66,1.458
		c1.995,0.274,4.01,0.372,6.022,0.293C230.367,118.961,232.53,118.271,234.461,117.132z"/>
	<path id="Path_786" fill="#FFFFFF" d="M233.176,124.612c-0.228,1.55-1.184,2.898-2.572,3.626c-0.84,0.467-1.786,0.708-2.747,0.7
		c-1.702-0.17-3.331-0.773-4.733-1.752c1.81-0.41,3.386-0.762,5.026-1.114c1.466-0.344,2.91-0.778,4.323-1.3
		c0.221-0.1,0.458-0.16,0.7-0.176L233.176,124.612z"/>
	<path id="Path_787" fill="#FFFFFF" d="M233.175,124.613l0.059-0.059L233.175,124.613z"/>
	<path id="Path_788" fill="#4491EF" d="M198.571,115.256c0.178,0.836,0.053,1.708-0.351,2.461c-0.602,1.417-2.105,2.228-3.62,1.953
		c-1.52-0.165-2.754-1.304-3.04-2.806c-0.493-1.606,0.093-3.348,1.458-4.329c1.752-1.224,4.5-1.224,5.378,1.992
		c0.09,0.234,0.149,0.479,0.176,0.729L198.571,115.256z M194.014,116.018c0.059,0.651,0.352,0.817,0.872,0.762
		c0.651-0.059,0.938-0.651,0.879-1.348s-0.351-0.817-1-0.7s-0.872,0.52-0.755,1.3L194.014,116.018z"/>
	<path id="Path_789" fill="#4491EF" d="M240.891,109.416c-0.273-2.364,1.216-4.574,3.509-5.209c1.74-0.376,3.496,0.564,4.148,2.22
		c0.804,2.354-0.274,4.938-2.513,6.022c-1.838,0.83-4.001,0.013-4.831-1.826c-0.172-0.382-0.278-0.791-0.312-1.208L240.891,109.416z
		 M244.283,109.885c0.773,0.001,1.401-0.625,1.401-1.398c0-0.022,0-0.044-0.001-0.066v-0.235c-0.081-0.664-0.685-1.136-1.349-1.055
		c-0.017,0.002-0.034,0.005-0.051,0.007c-0.764,0.095-1.306,0.792-1.211,1.556c0.008,0.066,0.021,0.132,0.039,0.196
		c0.117,0.762,0.469,1.107,1.172,1V109.885z"/>
	<path id="Path_790" fill="#FFFFFF" d="M194.014,116.018c-0.117-0.817,0.117-1.166,0.755-1.224s1,0.059,1,0.7
		c0.164,0.563-0.16,1.151-0.723,1.315c-0.051,0.015-0.104,0.026-0.156,0.033C194.307,116.839,194.073,116.661,194.014,116.018z"/>
	<path id="Path_791" fill="#FFFFFF" d="M244.282,109.885c-0.762,0.111-1.114-0.176-1.172-1c-0.183-0.773,0.296-1.549,1.069-1.732
		c0.034-0.008,0.068-0.015,0.103-0.02c0.667-0.064,1.273,0.39,1.4,1.048c0.144,0.758-0.35,1.49-1.107,1.641
		C244.517,109.937,244.46,109.937,244.282,109.885z"/>
	<path id="Path_792" fill="#4491EF" d="M447.7,171.837c1.445-0.321,2.949-0.249,4.356,0.209c1.499,0.437,2.741,1.492,3.415,2.9
		c0.6,1.244,0.901,2.61,0.879,3.991c0.072,1.598-0.488,3.16-1.559,4.349c-0.775,0.92-1.646,1.754-2.6,2.487
		c-0.313,0.293-0.687,0.515-1.094,0.651c-1.719,0.728-3.629,0.872-5.437,0.41c-0.515-0.1-0.722,0-0.774,0.468
		c0,0.156-0.052,0.261-0.052,0.41c-0.468,3.216-1.3,6.374-2.018,9.531c-0.128,0.699-0.626,1.274-1.3,1.5
		c-0.728,0.268-1.509,0.358-2.279,0.261c-2.123-0.261-4.306-0.468-6.373-0.886c-3.522-0.651-7.1-0.983-10.671-1.5
		c-2.018-0.313-4.089-0.365-6.107-0.573c-3.008-0.358-5.957-0.879-8.91-1.244c-0.704-0.095-1.375-0.361-1.953-0.774
		c-0.853-0.531-1.35-1.483-1.3-2.487c0.156-2.643,0.209-5.332,0.365-8.028c0.052-0.722,0.1-1.5,0.1-2.227s-0.052-0.722-0.722-0.827
		c-0.791-0.103-1.571-0.277-2.331-0.52c-1.376-0.371-2.628-1.104-3.626-2.123c-1.552-1.81-2.382-4.128-2.331-6.511
		c-0.079-2.883,1.936-5.402,4.766-5.957c1.834-0.273,3.705-0.151,5.488,0.358c0.775,0.156,0.827,0.156,0.983-0.651
		c0.261-1.3,0.52-2.643,0.722-3.906c0.131-0.898,0.349-1.781,0.651-2.637c0.143-0.225,0.297-0.442,0.463-0.651
		c1.088-1.143,2.625-1.748,4.2-1.654c3.776,0.254,7.4,0.879,11.133,1.393c0.722,0.1,0.983,0.469,0.931,1.188
		c-0.014,0.379-0.181,0.736-0.463,0.99c-0.601,0.591-1.107,1.272-1.5,2.018c-0.83,1.654-0.608,3.642,0.567,5.072
		c0.695,0.751,1.602,1.274,2.6,1.5c2.9,0.651,5.592-0.774,6.163-3.73c0.234-1.398,0.005-2.833-0.651-4.089
		c-0.077-0.203-0.18-0.396-0.306-0.573c-0.099-0.134-0.154-0.296-0.157-0.463c0.018-0.469,0.409-0.838,0.879-0.827
		c0.546-0.049,1.096-0.044,1.641,0.013c0.77,0.147,1.549,0.249,2.331,0.306c2.474,0.153,4.931,0.499,7.351,1.035
		c0.703,0.156,1.384,0.401,2.025,0.729c1.196,0.471,1.992,1.615,2.018,2.9c-0.1,1.953,0.052,3.991-0.209,5.957
		c-0.173,0.677-0.191,1.385-0.052,2.07c0.239,0.09,0.493,0.135,0.749,0.13L447.7,171.837z M412.481,186.861l0.052,0.052
		c0.201,1.36,1.051,2.538,2.279,3.158c0.725,0.464,1.576,0.691,2.435,0.651c1.51-0.146,2.955-0.683,4.193-1.559
		c-1.6-0.358-3-0.651-4.455-0.983c-1.299-0.308-2.579-0.688-3.835-1.14c-0.201-0.059-0.409-0.092-0.619-0.1L412.481,186.861z
		 M449.774,172.538c-2.014-0.497-4.142,0.068-5.643,1.5c-0.283,0.315-0.527,0.663-0.729,1.035c-1.113,2.454-1.113,5.268,0,7.722
		c0.66,1.434,2.01,2.43,3.575,2.637c1.709,0.335,3.481,0.081,5.026-0.722c2.241-1.248,3.585-3.655,3.47-6.218v-0.306
		c0.052-2.643-1.451-4.251-3.783-5.209c-0.624-0.195-1.265-0.332-1.914-0.41L449.774,172.538z M408.106,176.838
		c0.536-0.589,0.958-1.274,1.244-2.018c0.122-0.301,0.207-0.616,0.254-0.938c0.156-2.949-0.306-5.749-3.415-7.09
		c-0.795-0.339-1.608-0.635-2.435-0.886c-0.341-0.068-0.689-0.086-1.035-0.052c-0.751,0.089-1.495,0.228-2.227,0.417
		c-2.331,0.651-3.522,2.175-3.724,5.078c-0.06,1.32,0.205,2.635,0.774,3.828c0.578,1.41,1.697,2.531,3.106,3.112
		c0.827,0.365,1.703,0.608,2.6,0.722c1.852-0.015,3.611-0.812,4.844-2.194L408.106,176.838z M411.42,180.308
		c-0.368,0.778-0.564,1.626-0.573,2.487c0,0.567,0.469,0.827,0.833,1.087c0.765,0.502,1.601,0.887,2.481,1.14
		c1.741,0.522,3.529,0.868,5.339,1.035c2.343,0.062,4.685-0.112,6.993-0.52c0.61-0.047,1.172-0.347,1.55-0.827
		c0.85-0.8,1.492-1.795,1.869-2.9c0.463,0.254,0.722,0.722,1.139,1.035c0.031-1.081-0.581-2.078-1.559-2.539
		c-0.433-0.1-0.887-0.065-1.3,0.1c-1.938,0.56-3.911,0.994-5.905,1.3c-1.762,0.289-3.552,0.374-5.333,0.254
		c-1.961-0.051-3.873-0.621-5.541-1.654L411.42,180.308z"/>
	<path id="Path_793" fill="#FFFFFF" d="M451.899,172.927c2.279,0.931,3.828,2.539,3.783,5.209c0,0.1-0.052,0.209,0,0.306
		c0.146,2.57-1.206,4.993-3.47,6.218c-1.549,0.816-3.33,1.08-5.049,0.748c-1.568-0.2-2.921-1.198-3.574-2.637
		c-1.113-2.454-1.113-5.268,0-7.722c0.146-0.402,0.395-0.759,0.723-1.035c1.408-1.45,3.491-2.024,5.443-1.5
		c0.724,0.092,1.442,0.229,2.149,0.41L451.899,172.927z M443.199,178.627c-0.158,0.739-0.047,1.511,0.313,2.175
		c0.524,1.264,1.868,1.981,3.21,1.712c1.316-0.214,2.378-1.193,2.7-2.487c0.42-1.425-0.1-2.96-1.3-3.835
		c-1.559-1.035-3.984-1.035-4.766,1.764c-0.08,0.209-0.132,0.428-0.156,0.651L443.199,178.627z"/>
	<path id="Path_794" fill="#FFFFFF" d="M400.621,178.318c-1.43-0.55-2.559-1.681-3.106-3.112c-0.545-1.201-0.81-2.51-0.775-3.828
		c0.149-2.852,1.393-4.46,3.724-5.079c0.729-0.156,1.5-0.261,2.227-0.417c0.342-0.089,0.703-0.071,1.035,0.052
		c0.828,0.248,1.641,0.544,2.435,0.886c3.06,1.393,3.522,4.193,3.415,7.09c-0.014,0.328-0.1,0.648-0.254,0.938
		c-0.298,0.738-0.718,1.42-1.244,2.018c-1.248,1.368-3.019,2.14-4.87,2.123c-0.888-0.115-1.758-0.339-2.591-0.668L400.621,178.318z
		 M405.699,173.448c0.259-2.081-1.042-4.04-3.06-4.609c-1.535-0.318-3.078,0.504-3.672,1.954c-0.729,2.085,0.231,4.385,2.227,5.332
		c1.594,0.736,3.483,0.04,4.219-1.554c0.165-0.357,0.262-0.742,0.286-1.135V173.448z"/>
	<path id="Path_795" fill="#FFFFFF" d="M411.396,180.284c-0.403,0.805-0.582,1.702-0.52,2.6c0,0.515,0.469,0.827,0.833,1.087
		c0.76,0.512,1.598,0.897,2.481,1.14c1.745,0.504,3.532,0.853,5.339,1.043c2.344,0.166,4.699-0.009,6.992-0.52
		c0.61-0.047,1.172-0.347,1.55-0.827c0.816-0.828,1.452-1.815,1.869-2.9c0.462,0.209,0.722,0.729,1.139,1.039
		c0.023-1.079-0.587-2.071-1.559-2.539c-0.433-0.1-0.887-0.065-1.3,0.1c-1.954,0.515-3.906,0.931-5.905,1.3
		c-1.767,0.238-3.551,0.323-5.332,0.254C415.009,181.906,413.097,181.298,411.396,180.284z"/>
	<path id="Path_796" fill="#FFFFFF" d="M412.536,186.912c0.199,1.374,1.047,2.569,2.279,3.21c0.74,0.428,1.58,0.653,2.435,0.651
		c1.508-0.154,2.951-0.691,4.193-1.559c-1.6-0.365-3-0.651-4.455-0.983c-1.301-0.3-2.581-0.681-3.835-1.139
		c-0.195-0.09-0.404-0.143-0.618-0.156L412.536,186.912z"/>
	<path id="Path_797" fill="#FFFFFF" d="M412.535,186.912l-0.052-0.052L412.535,186.912z"/>
	<path id="Path_798" fill="#4491EF" d="M443.35,177.953c0.781-2.852,3.21-2.852,4.766-1.764c1.211,0.867,1.734,2.41,1.3,3.835
		c-0.254,1.333-1.35,2.343-2.7,2.487c-1.338,0.246-2.669-0.464-3.21-1.712c-0.36-0.664-0.471-1.436-0.313-2.175
		C443.215,178.394,443.268,178.168,443.35,177.953z M447.256,179.301c0.1-0.651-0.052-0.983-0.651-1.14s-0.827,0.052-0.879,0.618
		c-0.119,0.534,0.217,1.063,0.751,1.182c0.01,0.002,0.02,0.004,0.03,0.006c0.463,0.052,0.722-0.1,0.774-0.651L447.256,179.301z"/>
	<path id="Path_799" fill="#4491EF" d="M401.144,176.137c-1.989-0.954-2.946-3.247-2.227-5.332c0.582-1.461,2.135-2.288,3.672-1.953
		c2.029,0.563,3.348,2.517,3.112,4.609c-0.168,1.79-1.755,3.105-3.545,2.937c-0.349-0.033-0.691-0.122-1.012-0.264V176.137z
		 M403.744,172.979c0.1-0.827-0.306-1.5-1.035-1.55c-0.585-0.098-1.139,0.297-1.237,0.882c-0.003,0.016-0.005,0.033-0.007,0.049
		v0.209c-0.035,0.682,0.49,1.264,1.172,1.298c0.024,0.001,0.048,0.002,0.072,0.002c0.605,0.091,0.918-0.183,1.016-0.891
		L403.744,172.979z"/>
	<path id="Path_800" fill="#FFFFFF" d="M447.238,179.301c0.1-0.729-0.1-1.035-0.651-1.087s-0.879,0.052-0.879,0.651
		c-0.142,0.498,0.146,1.017,0.644,1.16c0.045,0.013,0.091,0.022,0.137,0.028C446.977,180.023,447.157,179.87,447.238,179.301z"/>
	<path id="Path_801" fill="#FFFFFF" d="M402.691,173.859c0.651,0.1,0.99-0.149,1.035-0.879c0.167-0.677-0.246-1.361-0.923-1.528
		c-0.037-0.009-0.074-0.017-0.112-0.022c-0.596-0.068-1.141,0.34-1.244,0.931c-0.123,0.672,0.319,1.318,0.99,1.446
		C402.49,173.91,402.535,173.91,402.691,173.859z"/>
	<path id="Path_802" fill="#4491EF" d="M296.354,104.858c0.126-0.395,0.166-0.812,0.117-1.224c0.056-2.74,0.29-5.474,0.7-8.184
		c0.176-1.641,1.406-2.455,2.865-3.04c1.342-0.424,2.746-0.622,4.153-0.586c3.327-0.235,6.6-0.059,9.935,0
		c0.515-0.008,1.028,0.071,1.517,0.235c0.879,0.176,1.114,0.762,0.651,1.582c-0.297,0.452-0.569,0.919-0.817,1.4
		c-0.524,1.006-0.804,2.121-0.817,3.255c-0.235,2.567,1.461,4.912,3.972,5.494c1.986,0.635,4.157,0.239,5.791-1.055
		c1.604-1.493,2.156-3.803,1.4-5.86c-0.348-0.917-0.819-1.782-1.4-2.572c-0.368-0.365-0.523-0.894-0.41-1.4
		c0.235-0.762,0.352-0.938,1.172-1c3.854-0.059,7.715-0.293,11.569-0.117c1.176-0.01,2.344,0.188,3.45,0.586
		c2.055,0.63,3.455,2.529,3.45,4.678c0.059,1.758,0.176,3.626,0.293,5.378c0.111,1.582,0.111,1.582,1.693,1.406
		c1.756-0.256,3.545-0.156,5.261,0.293c3.569,0.812,5.865,4.29,5.209,7.891c-0.286,2.376-1.308,4.603-2.923,6.368
		c-1.583,1.626-3.702,2.623-5.964,2.806c-0.717,0.079-1.44,0.099-2.161,0.059c-0.586-0.059-0.817,0.117-0.879,0.762
		c-0.059,1.4-0.228,2.806-0.345,4.206c-0.176,2.4-0.469,4.733-0.527,7.161c0.028,2.17-1.708,3.953-3.878,3.981
		c-0.072,0.001-0.145,0-0.217-0.003c-3.972,0.117-7.949,0.235-11.921,0.059c-3.626-0.176-7.246-0.117-10.873-0.176
		c-4.089-0.059-8.184,0.351-12.273,0.293c-1.208,0.068-2.42,0.048-3.626-0.059c-0.378-0.044-0.751-0.123-1.114-0.235
		c-1.308-0.231-2.265-1.361-2.279-2.689c-0.176-1.752-0.352-3.509-0.52-5.261c-0.176-2.044-0.41-4.037-0.41-6.14
		c0-0.872-0.059-0.872-0.938-0.755c-0.895,0.137-1.809,0.097-2.689-0.117c-1.703-0.279-3.332-0.896-4.792-1.816
		c-0.404-0.246-0.761-0.561-1.055-0.931c-1.517-2.161-2.689-4.447-2.6-7.161c0.044-1.774,0.549-3.506,1.465-5.026
		c1.272-2.217,3.701-3.51,6.25-3.327c1.173-0.063,2.347,0.114,3.45,0.52C295.543,104.854,295.967,104.981,296.354,104.858z
		 M300.671,112.807c0.005-0.727-0.073-1.452-0.235-2.161c-0.586-2.572-1.81-4.44-4.5-5.143c-1.656-0.477-3.408-0.518-5.085-0.117
		c-2.865,0.7-4.909,2.279-5.378,5.319c-0.059,0.41-0.176,0.817-0.235,1.23c-0.264,2.842,1.063,5.597,3.45,7.161
		c0.883,0.582,1.876,0.979,2.917,1.166c2.747,0.469,5.261,0.176,7.253-1.953c1.264-1.546,1.909-3.506,1.811-5.5L300.671,112.807z
		 M354.709,111.507c-0.117-3.8-1.3-5.209-3.8-6.257c-0.786-0.297-1.587-0.551-2.4-0.762c-0.343-0.096-0.699-0.136-1.054-0.117
		c-1.86,0.231-3.673,0.745-5.378,1.524c-2.689,1.107-4.381,4.733-3.8,7.715c0.336,2.427,2.007,4.461,4.323,5.261
		c2.337,0.817,4.678,1.3,7.012,0.293c3.542-1.5,4.772-4.538,5.117-7.637L354.709,111.507z M312.104,127.289h2.4
		c0.352,0,0.579-0.117,0.579-0.527c0-1.23,0.059-2.513,0.117-3.744c0-0.352-0.117-0.579-0.52-0.579c-1.524,0-3.158,0-4.678,0.059
		c-0.198-0.051-0.401,0.069-0.452,0.267c-0.007,0.026-0.01,0.052-0.011,0.078v3.861c0,0.41,0.176,0.527,0.579,0.527
		c0.527,0.059,1.3,0.059,1.992,0.059L312.104,127.289z M318.237,122.38L318.237,122.38c-0.7,0.059-1.4,0.059-2.161,0.059
		c-0.352,0-0.586,0.117-0.586,0.52c0,1.23,0,2.513-0.059,3.744c0,0.41,0.176,0.586,0.527,0.586h4.095c0.287,0,0.52-0.117,0.52-0.469
		c0.059-1.23,0.117-2.513,0.176-3.744c0-0.41-0.117-0.651-0.579-0.651c-0.586,0-1.23-0.059-1.953-0.059L318.237,122.38z
		 M329.11,122.321L329.11,122.321c-0.7,0.059-1.4,0.059-2.161,0.059c-0.469,0-0.586,0.176-0.586,0.651v3.509
		c0,0.41,0.117,0.651,0.586,0.651h4.206c0.352,0,0.586-0.117,0.586-0.527c0-1.172,0-2.455,0.059-3.626c0-0.52-0.235-0.651-0.7-0.651
		c-0.651,0-1.341-0.059-1.954-0.059L329.11,122.321z M312.181,127.815h-2.168c-0.4,0-0.651,0.111-0.651,0.579v3.334
		c0,0.468,0.176,0.651,0.651,0.651c1.406,0,2.923-0.059,4.388-0.059c0.352,0,0.586-0.117,0.586-0.527c0-1.114,0-2.22,0.059-3.334
		c0-0.527-0.235-0.651-0.7-0.651L312.181,127.815z M306.569,127.346L306.569,127.346c0.583-0.049,1.167-0.069,1.752-0.059
		c0.469,0,0.651-0.176,0.651-0.651c-0.02-1.132,0.02-2.264,0.117-3.392c0.059-0.7-0.059-0.755-0.817-0.755s-1.458,0.059-2.279,0.111
		c-2.572,0.117-2.572,0.117-2.22,2.6c0.352,2.168,0.352,2.168,2.513,2.109c0.117-0.059,0.176,0,0.293,0L306.569,127.346z
		 M329.128,132.313h2.161c0.352,0,0.527-0.176,0.527-0.469c0-1.172,0-2.4,0.059-3.509c0-0.41-0.235-0.52-0.586-0.52h-4.205
		c-0.41,0-0.586,0.169-0.586,0.52v3.334c0,0.469,0.176,0.651,0.651,0.586c0.586,0,1.3,0.059,1.985,0.059L329.128,132.313z
		 M318.021,127.813h-1.953c-0.527,0-0.7,0.228-0.651,0.7v3.215c0,0.468,0.176,0.651,0.651,0.651h3.744
		c0.41,0,0.579-0.117,0.651-0.586c0.117-1.055,0.059-2.22,0.117-3.255c0-0.468-0.176-0.651-0.651-0.586
		c-0.627-0.097-1.261-0.136-1.895-0.117L318.021,127.813z M323.633,122.376L323.633,122.376c-0.651,0.059-1.224,0.059-1.953,0.059
		c-0.293,0-0.527,0.117-0.527,0.463c0,1.23,0,2.513-0.059,3.744c0,0.41,0.235,0.527,0.586,0.527h3.626
		c0.287,0,0.52-0.117,0.52-0.469c0-1.172,0.176-2.455,0.117-3.626c0-0.469-0.176-0.7-0.7-0.7L323.633,122.376z M323.633,127.813
		h-1.953c-0.293,0-0.527,0.052-0.586,0.4c-0.059,1.114-0.059,2.279-0.117,3.392c-0.055,0.304,0.147,0.596,0.451,0.651
		c0.066,0.012,0.134,0.012,0.2,0h3.626c0.463,0,0.579-0.176,0.579-0.651c0-1.055,0-2.161,0.059-3.158c0-0.527-0.235-0.7-0.7-0.651
		L323.633,127.813z M332.286,124.558v2.044c0,0.41,0.176,0.586,0.586,0.527h2.873c0.265,0.05,0.521-0.125,0.571-0.39
		c0.005-0.026,0.008-0.052,0.008-0.079v-0.059c0.176-1.23,0.41-2.513,0.586-3.744c0.059-0.4-0.059-0.579-0.469-0.579h-1.756
		c-0.7,0-1.633-0.293-2.22,0.117C331.935,122.979,332.345,123.971,332.286,124.558L332.286,124.558z M306.569,127.774h-1.406
		c-0.7,0-0.817,0.111-0.651,0.7c0.287,1,0.579,2.044,0.872,3.04c0.063,0.191,0.186,0.356,0.352,0.469
		c0.928,0.372,1.947,0.454,2.923,0.235c0.651-0.235,0.235-1.172,0.293-1.752v-0.351c-0.059-0.7,0.293-1.524-0.176-2.109
		c-0.469-0.585-1.406-0.117-2.22-0.228L306.569,127.774z M336.081,127.885c-1.067-0.102-2.14-0.119-3.21-0.052
		c-0.41,0-0.527,0.228-0.527,0.579v2.161c0.059,2.168-0.41,1.816,2.044,1.816h0.137c0.324-0.003,0.608-0.216,0.7-0.527
		c0.362-1.309,0.653-2.637,0.872-3.978L336.081,127.885z"/>
	<path id="Path_803" fill="#FFFFFF" d="M300.671,112.803c0.073,2.007-0.568,3.975-1.81,5.554c-1.992,2.22-4.505,2.513-7.253,1.953
		c-1.047-0.167-2.044-0.565-2.917-1.166c-2.408-1.546-3.742-4.315-3.45-7.161c0.059-0.41,0.176-0.817,0.235-1.23
		c0.469-3.1,2.572-4.616,5.378-5.319c1.68-0.371,3.424-0.331,5.085,0.117c2.747,0.7,3.972,2.6,4.5,5.143
		c0.165,0.691,0.244,1.399,0.235,2.109L300.671,112.803z M295.462,113.863c-0.012-1.395-0.753-2.681-1.953-3.392
		c-2.183-1.178-4.907-0.364-6.085,1.818c-0.292,0.541-0.47,1.137-0.523,1.75c-0.083,1.64,0.749,3.192,2.161,4.03
		c1.53,1.275,3.805,1.068,5.08-0.462c0.002-0.002,0.003-0.004,0.005-0.006l0.059-0.059
		C295.099,116.532,295.552,115.208,295.462,113.863L295.462,113.863z"/>
	<path id="Path_804" fill="#FFFFFF" d="M354.744,111.526c-0.345,3.1-1.517,6.192-5.085,7.715c-2.337,0.99-4.678,0.527-7.012-0.293
		c-2.316-0.8-3.987-2.834-4.323-5.261c-0.527-2.982,1.107-6.549,3.8-7.715c1.71-0.764,3.521-1.277,5.378-1.524
		c0.356-0.048,0.718-0.008,1.055,0.117c0.755,0.235,1.576,0.469,2.4,0.762C353.46,106.266,354.624,107.724,354.744,111.526z
		 M343.057,117.54c1.953,0.059,3.255-0.463,4.148-1.752c0.683-1.068,1.068-2.301,1.114-3.568c0.111-1.085-0.356-2.148-1.23-2.8
		c-1.314-1.052-3.048-1.423-4.678-1c-1.144,0.162-2.176,0.773-2.867,1.699c-0.997,1.601-1.042,3.618-0.117,5.261
		c0.714,1.338,2.11,2.17,3.626,2.161L343.057,117.54z"/>
	<path id="Path_805" fill="#FFFFFF" d="M312.136,127.307h-2.168c-0.4,0-0.579-0.176-0.579-0.527v-3.745
		c-0.051-0.198,0.069-0.401,0.267-0.451c0.028-0.007,0.056-0.011,0.085-0.012h0.111c1.524,0,3.158,0,4.678-0.059
		c0.41,0,0.527,0.169,0.527,0.579c-0.059,1.23-0.059,2.513-0.117,3.744c0,0.41-0.235,0.527-0.586,0.527
		C313.653,127.307,312.891,127.307,312.136,127.307z"/>
	<path id="Path_806" fill="#FFFFFF" d="M318.249,122.398h2.047c0.463,0,0.651,0.228,0.579,0.651
		c-0.059,1.23-0.117,2.513-0.176,3.744c0,0.351-0.235,0.468-0.52,0.468h-4.095c-0.41,0-0.586-0.176-0.527-0.586
		c0-1.23,0.059-2.513,0.059-3.744c0-0.4,0.235-0.52,0.586-0.52c0.68,0.059,1.364,0.059,2.044,0L318.249,122.398z"/>
	<path id="Path_807" fill="#FFFFFF" d="M329.141,122.34h2.044c0.469,0,0.7,0.117,0.7,0.651c0,1.172-0.059,2.455-0.059,3.626
		c0,0.41-0.235,0.527-0.586,0.527h-4.206c-0.469,0-0.586-0.235-0.586-0.651v-3.507c0-0.4,0.176-0.651,0.586-0.651
		c0.699,0.058,1.401,0.058,2.1,0L329.141,122.34z"/>
	<path id="Path_808" fill="#FFFFFF" d="M312.194,127.835h2.149c0.469,0,0.755,0.111,0.7,0.651c-0.059,1.114-0.059,2.22-0.059,3.334
		c0,0.41-0.235,0.527-0.586,0.527c-1.406,0-2.923,0-4.388,0.059c-0.463,0-0.651-0.176-0.651-0.651v-3.334
		c0-0.469,0.235-0.579,0.651-0.579L312.194,127.835z"/>
	<path id="Path_809" fill="#FFFFFF" d="M306.582,127.366h-0.235c-2.22,0.059-2.22,0.059-2.513-2.109
		c-0.352-2.513-0.352-2.513,2.22-2.6c0.762-0.052,1.458-0.111,2.279-0.111s0.879,0.059,0.817,0.755
		c-0.059,1.114-0.117,2.279-0.117,3.392c0.055,0.304-0.147,0.596-0.451,0.651c-0.066,0.012-0.134,0.012-0.2,0
		c-0.604-0.011-1.208,0.009-1.81,0.059L306.582,127.366z"/>
	<path id="Path_810" fill="#FFFFFF" d="M329.143,132.337h-2.161c-0.41,0-0.651-0.176-0.651-0.586v-3.334
		c0-0.41,0.176-0.527,0.586-0.527h4.201c0.352,0,0.586,0.059,0.586,0.527c0,1.172,0,2.4-0.059,3.509
		c0,0.351-0.176,0.468-0.527,0.468c-0.52-0.059-1.3-0.059-1.954-0.059L329.143,132.337z"/>
	<path id="Path_811" fill="#FFFFFF" d="M318.031,127.835h2.054c0.4,0,0.651,0.169,0.651,0.579c-0.059,1.055,0,2.22-0.117,3.255
		c-0.059,0.469-0.235,0.586-0.651,0.586h-3.744c-0.469,0-0.651-0.176-0.651-0.651v-3.216c0-0.469,0.176-0.7,0.651-0.7
		c0.597,0.106,1.203,0.154,1.81,0.144L318.031,127.835z"/>
	<path id="Path_812" fill="#FFFFFF" d="M323.647,122.399h1.764c0.52,0,0.651,0.228,0.7,0.7c0.059,1.23-0.117,2.455-0.117,3.626
		c0,0.351-0.235,0.468-0.52,0.468h-3.626c-0.352,0-0.586-0.117-0.586-0.527c0-1.23,0-2.513,0.059-3.744
		c0-0.345,0.176-0.463,0.527-0.463c0.527,0,1.224,0,1.81-0.059L323.647,122.399z"/>
	<path id="Path_813" fill="#FFFFFF" d="M323.643,127.835h1.641c0.463,0,0.7,0.169,0.7,0.651c-0.059,1.055-0.059,2.161-0.059,3.158
		c0,0.41-0.176,0.651-0.579,0.651h-3.626c-0.304,0.055-0.596-0.147-0.651-0.451c-0.012-0.066-0.012-0.134,0-0.2
		c0.059-1.114,0.059-2.279,0.117-3.392c0-0.351,0.235-0.4,0.586-0.4L323.643,127.835z"/>
	<path id="Path_814" fill="#FFFFFF" d="M332.299,124.56c0.117-0.586-0.352-1.582,0.235-2.1s1.4-0.117,2.22-0.117h1.728
		c0.41,0,0.527,0.176,0.469,0.579c-0.235,1.23-0.41,2.513-0.586,3.744c0.004,0.287-0.226,0.523-0.513,0.527
		c-0.002,0-0.005,0-0.007,0h-2.927c-0.352,0-0.586-0.176-0.586-0.527C332.299,126.019,332.299,125.374,332.299,124.56z"/>
	<path id="Path_815" fill="#FFFFFF" d="M306.583,127.776c0.817,0.111,1.693-0.293,2.22,0.228c0.41,0.469,0.117,1.348,0.176,2.109
		v0.351c-0.117,0.651,0.293,1.576-0.293,1.752c-0.974,0.246-2.001,0.163-2.923-0.235c-0.19-0.085-0.323-0.263-0.352-0.469
		c-0.293-1-0.651-2.044-0.872-3.04c-0.176-0.651-0.059-0.7,0.651-0.7L306.583,127.776z"/>
	<path id="Path_816" fill="#FFFFFF" d="M336.095,127.888c-0.19,1.328-0.502,2.635-0.931,3.906c-0.081,0.318-0.372,0.537-0.7,0.527
		h-0.117c-2.4,0-1.985,0.352-2.044-1.816v-2.162c0-0.352,0.117-0.579,0.527-0.579C333.873,127.777,334.987,127.777,336.095,127.888z
		"/>
	<path id="Path_817" fill="#4491EF" d="M295.462,113.862c0.072,1.356-0.367,2.689-1.23,3.737c-1.273,1.523-3.527,1.757-5.085,0.527
		c-0.033,0-0.059-0.026-0.059-0.059c-1.393-0.857-2.218-2.396-2.161-4.03c0.191-2.46,2.339-4.299,4.799-4.108
		c0.635,0.049,1.252,0.233,1.809,0.54C294.706,111.205,295.429,112.479,295.462,113.862z M291.139,113.276
		c0.051-0.399-0.232-0.764-0.632-0.815c-0.006-0.001-0.013-0.002-0.019-0.002h-0.117c-0.608-0.06-1.165,0.342-1.3,0.938
		c-0.059,0.586,0.352,1.23,0.817,1.23c0.718-0.02,1.283-0.619,1.262-1.337c0-0.004,0-0.008,0-0.011L291.139,113.276z"/>
	<path id="Path_818" fill="#4491EF" d="M343.055,117.542c-1.488,0.021-2.864-0.788-3.568-2.1c-0.925-1.643-0.88-3.66,0.117-5.261
		c0.682-0.934,1.718-1.547,2.865-1.693c1.63-0.41,3.358-0.041,4.678,1c0.883,0.645,1.353,1.714,1.23,2.8
		c-0.074,1.263-0.456,2.488-1.114,3.568C346.239,117.098,344.653,117.733,343.055,117.542z M343.172,111.936
		c-0.021-0.534-0.466-0.952-1-0.938c-0.632,0.043-1.161,0.496-1.3,1.114c0.07,0.593,0.569,1.041,1.166,1.048
		c0.625-0.024,1.118-0.54,1.114-1.166v-0.059L343.172,111.936z"/>
	<path id="Path_819" fill="#FFFFFF" d="M291.153,113.278c-0.015,0.694-0.541,1.27-1.23,1.348c-0.469,0-0.879-0.651-0.817-1.23
		c0.118-0.606,0.687-1.017,1.3-0.938c0.402-0.019,0.743,0.292,0.762,0.695c0,0.002,0,0.004,0,0.005L291.153,113.278z"/>
	<path id="Path_820" fill="#FFFFFF" d="M343.172,111.936c0.076,0.633-0.368,1.211-1,1.3h-0.059c-0.59-0.03-1.077-0.471-1.166-1.055
		c0.096-0.642,0.651-1.114,1.3-1.107c0.481-0.025,0.891,0.344,0.917,0.825c0.001,0.011,0.001,0.023,0.001,0.034L343.172,111.936z"/>
	<path id="Path_821" fill="#4491EF" d="M347.954,228.721c1.101-0.412,2.276-0.591,3.45-0.527c2.553-0.183,4.985,1.113,6.257,3.334
		c0.912,1.521,1.415,3.253,1.458,5.026c-0.059,2.607-0.972,5.123-2.6,7.161c-0.294,0.372-0.651,0.69-1.055,0.938
		c-1.461,0.918-3.091,1.535-4.794,1.814c-0.88,0.214-1.794,0.254-2.689,0.117c-0.872-0.117-0.931-0.117-0.931,0.762
		c0,2.1-0.235,4.089-0.41,6.133l-0.527,5.26c-0.011,1.329-0.97,2.46-2.279,2.689c-0.363,0.112-0.736,0.191-1.114,0.235
		c-1.204,0.108-2.414,0.127-3.62,0.059c-4.095,0.059-8.184-0.352-12.279-0.293c-3.62,0.059-7.246,0-10.866,0.176
		c-3.978,0.176-7.949,0.059-11.927-0.059c-2.129,0.126-3.958-1.497-4.084-3.626c-0.007-0.115-0.008-0.23-0.005-0.346
		c-0.059-2.513-0.352-4.8-0.527-7.194c-0.117-1.4-0.293-2.806-0.352-4.206c-0.059-0.651-0.293-0.817-0.879-0.762
		c-0.721,0.04-1.444,0.02-2.161-0.059c-2.262-0.182-4.382-1.179-5.964-2.806c-1.616-1.764-2.637-3.992-2.917-6.368
		c-0.659-3.601,1.639-7.081,5.209-7.891c1.716-0.449,3.505-0.549,5.26-0.293c1.576,0.176,1.576,0.176,1.693-1.406
		c0.117-1.752,0.235-3.62,0.293-5.378c0-2.145,1.396-4.041,3.444-4.678c1.106-0.397,2.274-0.596,3.45-0.586
		c3.861-0.169,7.715,0.059,11.576,0.117c0.817,0.059,0.931,0.235,1.166,1c0.113,0.506-0.042,1.035-0.41,1.4
		c-0.579,0.801-1.05,1.676-1.4,2.6c-0.754,2.057-0.202,4.366,1.4,5.86c1.633,1.297,3.806,1.692,5.791,1.055
		c2.512-0.581,4.21-2.926,3.978-5.494c-0.011-1.134-0.291-2.25-0.817-3.255c-0.235-0.469-0.527-0.931-0.817-1.4
		c-0.463-0.817-0.235-1.406,0.651-1.582c0.491-0.164,1.006-0.243,1.524-0.235c3.327-0.059,6.6-0.228,9.935,0
		c1.406-0.036,2.807,0.162,4.148,0.586c1.465,0.586,2.689,1.406,2.865,3.04c0.41,2.71,0.644,5.444,0.7,8.184
		c-0.049,0.412-0.009,0.829,0.117,1.224C347.313,229.186,347.6,228.958,347.954,228.721z M344.331,242.457
		c1.985,2.168,4.5,2.455,7.246,1.992c1.043-0.19,2.038-0.588,2.923-1.172c2.375-1.575,3.698-4.322,3.45-7.161
		c-0.059-0.41-0.176-0.817-0.235-1.23c-0.469-3.04-2.513-4.616-5.378-5.319c-1.677-0.401-3.429-0.361-5.085,0.117
		c-2.689,0.7-3.906,2.6-4.505,5.143c-0.161,0.709-0.24,1.434-0.235,2.161C342.428,238.972,343.075,240.918,344.331,242.457z
		 M293.509,243.357c2.337,1,4.678,0.527,7.012-0.293c2.318-0.798,3.992-2.831,4.329-5.26c0.586-2.982-1.114-6.6-3.8-7.715
		c-1.704-0.779-3.518-1.29-5.378-1.517c-0.353-0.019-0.708,0.02-1.048,0.117c-0.813,0.207-1.615,0.459-2.4,0.755
		c-2.513,1.055-3.685,2.455-3.8,6.257c0.378,3.1,1.6,6.117,5.085,7.653L293.509,243.357z M331.036,251.482
		c0.7,0,1.458,0,1.985-0.059c0.41,0,0.586-0.117,0.586-0.527v-3.854c-0.008-0.209-0.184-0.371-0.393-0.363
		c-0.026,0.001-0.051,0.005-0.076,0.011c-1.517-0.059-3.158-0.059-4.678-0.059c-0.41,0-0.527,0.235-0.527,0.586
		c0.059,1.224,0.117,2.513,0.117,3.737c0,0.41,0.235,0.527,0.586,0.527L331.036,251.482z M324.896,246.573
		c-0.7,0-1.341,0.059-1.954,0.059c-0.468,0-0.586,0.235-0.586,0.651c0.059,1.224,0.117,2.513,0.176,3.737
		c0,0.352,0.235,0.469,0.527,0.469h4.089c0.352,0,0.527-0.176,0.527-0.586c-0.059-1.224-0.059-2.513-0.059-3.737
		c0-0.41-0.235-0.527-0.586-0.527c-0.755,0-1.458,0-2.161-0.059L324.896,246.573z M314.023,246.514
		c-0.651,0-1.341,0.059-1.985,0.059c-0.469,0-0.7,0.117-0.7,0.651c0.059,1.166,0.059,2.455,0.059,3.62
		c0,0.41,0.235,0.527,0.586,0.527h4.203c0.468,0,0.586-0.235,0.586-0.651v-3.522c0-0.469-0.117-0.651-0.586-0.651
		c-0.755,0-1.458,0-2.161-0.059L314.023,246.514z M328.815,252.008c-0.469,0-0.7,0.117-0.7,0.651
		c0.059,1.114,0.059,2.227,0.059,3.334c0,0.41,0.235,0.527,0.586,0.527c1.458,0,2.982,0.059,4.381,0.059
		c0.469,0,0.651-0.176,0.651-0.651v-3.327c0-0.468-0.235-0.586-0.651-0.586h-4.323L328.815,252.008z M336.589,251.539
		c0.117,0,0.176-0.059,0.293,0c2.161,0.059,2.161,0.059,2.513-2.1c0.345-2.513,0.345-2.513-2.227-2.6
		c-0.817-0.059-1.517-0.117-2.279-0.117s-0.872,0.059-0.817,0.755c0.097,1.128,0.136,2.26,0.117,3.392
		c0,0.469,0.176,0.651,0.651,0.651c0.586,0,1.172,0,1.758,0.059L336.589,251.539z M314.023,256.506c0.7,0,1.406-0.059,1.992-0.059
		c0.463,0.059,0.651-0.117,0.651-0.586v-3.327c0-0.352-0.176-0.527-0.586-0.527h-4.206c-0.352,0-0.586,0.117-0.586,0.527
		c0.059,1.107,0.059,2.337,0.059,3.5c0,0.293,0.176,0.469,0.527,0.469L314.023,256.506z M323.203,252.125
		c-0.469-0.059-0.651,0.117-0.651,0.579c0.059,1.055,0,2.227,0.117,3.255c0.059,0.469,0.235,0.586,0.651,0.586h3.737
		c0.469,0,0.651-0.176,0.651-0.651v-3.221c0.059-0.463-0.117-0.7-0.651-0.7h-1.954c-0.628-0.019-1.255,0.022-1.875,0.124
		L323.203,252.125z M319.551,246.552h-1.633c-0.527,0-0.7,0.235-0.7,0.7c-0.059,1.166,0.117,2.455,0.117,3.62
		c0,0.352,0.235,0.469,0.527,0.469h3.646c0.352,0,0.586-0.117,0.586-0.527c-0.059-1.224-0.059-2.513-0.059-3.737
		c0-0.352-0.235-0.469-0.527-0.469c-0.7,0-1.3,0-1.953-0.062L319.551,246.552z M319.551,251.988h-1.575
		c-0.469-0.059-0.7,0.117-0.7,0.651c0.059,1,0.059,2.109,0.059,3.158c0,0.469,0.117,0.651,0.586,0.651h3.588
		c0.304,0.055,0.596-0.147,0.651-0.451c0.012-0.066,0.012-0.134,0-0.2c-0.059-1.107-0.059-2.279-0.117-3.386
		c-0.059-0.352-0.293-0.41-0.586-0.41L319.551,251.988z M310.899,248.733c-0.059-0.586,0.352-1.576-0.169-2.161
		c-0.586-0.41-1.524-0.117-2.227-0.117h-1.752c-0.41,0-0.527,0.176-0.469,0.586c0.176,1.224,0.41,2.513,0.586,3.737v0.059
		c0.01,0.273,0.238,0.486,0.511,0.476c0.025-0.001,0.05-0.004,0.075-0.008h2.865c0.41,0.059,0.579-0.117,0.579-0.527v-2.044
		L310.899,248.733z M336.623,251.95c-0.817,0.117-1.758-0.293-2.22,0.235s-0.117,1.4-0.176,2.1v0.347
		c0.059,0.586-0.352,1.517,0.287,1.752c0.976,0.22,1.995,0.138,2.923-0.235c0.166-0.113,0.29-0.278,0.352-0.469
		c0.293-0.99,0.586-2.044,0.879-3.04c0.176-0.579,0.059-0.7-0.651-0.7L336.623,251.95z M307.104,252.067
		c0.225,1.338,0.518,2.664,0.879,3.972c0.09,0.312,0.375,0.527,0.7,0.527h0.117c2.455,0,1.992,0.352,2.044-1.81v-2.161
		c0-0.352-0.111-0.586-0.52-0.586c-1.072-0.07-2.148-0.051-3.217,0.055L307.104,252.067z"/>
	<path id="Path_822" fill="#FFFFFF" d="M342.744,234.888c0.527-2.513,1.758-4.44,4.505-5.143c1.661-0.449,3.405-0.489,5.085-0.117
		c2.806,0.7,4.909,2.22,5.378,5.319c0.059,0.41,0.176,0.817,0.235,1.23c0.3,2.848-1.036,5.621-3.45,7.161
		c-0.875,0.603-1.874,1.003-2.923,1.172c-2.747,0.52-5.261,0.228-7.246-1.992c-1.248-1.576-1.892-3.545-1.816-5.554
		c-0.006-0.7,0.072-1.398,0.235-2.079L342.744,234.888z M349.001,241.731l0.059,0.059c1.277,1.53,3.552,1.737,5.085,0.463
		c1.412-0.838,2.244-2.39,2.161-4.03c-0.209-2.468-2.379-4.3-4.847-4.091c-0.614,0.052-1.21,0.23-1.753,0.523
		c-1.215,0.701-1.971,1.99-1.992,3.392c-0.072,1.34,0.391,2.654,1.289,3.652L349.001,241.731z"/>
	<path id="Path_823" fill="#FFFFFF" d="M292.253,229.477c0.817-0.293,1.633-0.52,2.4-0.755c0.334-0.125,0.694-0.165,1.048-0.117
		c1.857,0.243,3.668,0.754,5.378,1.517c2.689,1.172,4.329,4.733,3.8,7.715c-0.337,2.429-2.011,4.462-4.329,5.26
		c-2.337,0.817-4.678,1.3-7.012,0.293c-3.568-1.517-4.733-4.616-5.085-7.715C288.568,231.874,289.739,230.415,292.253,229.477z
		 M303.762,239.53c0.93-1.642,0.885-3.662-0.117-5.261c-0.69-0.925-1.722-1.534-2.865-1.693c-1.628-0.416-3.357-0.042-4.668,1.009
		c-0.873,0.655-1.337,1.721-1.224,2.806c0.043,1.266,0.425,2.497,1.107,3.564c0.879,1.3,2.161,1.816,4.153,1.758
		c1.516,0,2.908-0.84,3.614-2.182V239.53z"/>
	<path id="Path_824" fill="#FFFFFF" d="M331.062,251.458h2.161c0.41,0,0.586-0.176,0.586-0.527v-3.738
		c0.05-0.203-0.073-0.408-0.275-0.458c-0.025-0.006-0.05-0.01-0.076-0.011h-0.114c-1.524,0-3.158,0-4.678-0.059
		c-0.41,0-0.527,0.176-0.527,0.586c0.059,1.224,0.059,2.513,0.117,3.737c0,0.41,0.235,0.527,0.586,0.527
		C329.539,251.458,330.3,251.458,331.062,251.458z"/>
	<path id="Path_825" fill="#FFFFFF" d="M324.922,246.549h-2.042c-0.469,0-0.651,0.235-0.586,0.651
		c0.059,1.224,0.117,2.513,0.176,3.737c0,0.352,0.235,0.469,0.527,0.469h4.091c0.41,0,0.586-0.176,0.527-0.586
		c0-1.224-0.059-2.513-0.059-3.737c0-0.41-0.235-0.527-0.586-0.527c-0.68,0.059-1.364,0.059-2.044,0L324.922,246.549z"/>
	<path id="Path_826" fill="#FFFFFF" d="M314.05,246.49h-2.044c-0.469,0-0.7,0.117-0.7,0.651c0,1.166,0.059,2.455,0.059,3.62
		c0,0.41,0.235,0.527,0.586,0.527h4.205c0.469,0,0.586-0.235,0.586-0.651v-3.5c0-0.41-0.176-0.651-0.586-0.651
		c-0.699,0.058-1.401,0.058-2.1,0L314.05,246.49z"/>
	<path id="Path_827" fill="#FFFFFF" d="M331.004,251.986h-2.161c-0.469,0-0.762,0.117-0.7,0.651
		c0.059,1.114,0.059,2.227,0.059,3.334c0,0.41,0.235,0.527,0.586,0.527c1.4,0,2.923,0,4.381,0.059c0.469,0,0.651-0.176,0.651-0.651
		v-3.327c0-0.469-0.235-0.586-0.651-0.586L331.004,251.986z"/>
	<path id="Path_828" fill="#FFFFFF" d="M336.615,251.517h0.235c2.22,0.059,2.22,0.059,2.513-2.1c0.345-2.513,0.345-2.513-2.227-2.6
		c-0.755-0.059-1.458-0.117-2.279-0.117s-0.872,0.059-0.817,0.755c0.059,1.114,0.117,2.285,0.117,3.392
		c-0.05,0.31,0.161,0.601,0.471,0.651c0.06,0.01,0.121,0.01,0.18,0c0.606-0.011,1.212,0.009,1.816,0.059L336.615,251.517z"/>
	<path id="Path_829" fill="#FFFFFF" d="M314.05,256.484h2.161c0.41,0,0.651-0.176,0.651-0.586v-3.327
		c0-0.41-0.176-0.527-0.586-0.527h-4.212c-0.352,0-0.586,0.059-0.586,0.527c0,1.166,0,2.4,0.059,3.5
		c0,0.352,0.176,0.469,0.527,0.469c0.527-0.059,1.3-0.059,1.985-0.059L314.05,256.484z"/>
	<path id="Path_830" fill="#FFFFFF" d="M325.157,251.984h-2.044c-0.41,0-0.651,0.176-0.651,0.586c0.059,1.048,0,2.22,0.117,3.255
		c0.059,0.469,0.235,0.586,0.651,0.586h3.737c0.469,0,0.651-0.176,0.651-0.651v-3.207c0-0.469-0.176-0.7-0.651-0.7
		c-0.597,0.104-1.204,0.15-1.81,0.137V251.984z"/>
	<path id="Path_831" fill="#FFFFFF" d="M319.551,246.549h-1.758c-0.527,0-0.651,0.235-0.7,0.7c-0.059,1.224,0.117,2.455,0.117,3.62
		c0,0.352,0.235,0.469,0.527,0.469h3.62c0.352,0,0.586-0.117,0.586-0.527c0-1.224,0-2.513-0.059-3.737
		c0-0.352-0.176-0.469-0.527-0.469c-0.52,0-1.224,0-1.81-0.059L319.551,246.549z"/>
	<path id="Path_832" fill="#FFFFFF" d="M319.552,251.986h-1.633c-0.469,0-0.7,0.176-0.7,0.651c0.059,1.055,0.059,2.168,0.059,3.158
		c0,0.41,0.176,0.651,0.586,0.651h3.64c0.304,0.055,0.596-0.147,0.651-0.451c0.012-0.066,0.012-0.134,0-0.2
		c-0.059-1.107-0.059-2.279-0.117-3.386c0-0.352-0.235-0.41-0.586-0.41L319.552,251.986z"/>
	<path id="Path_833" fill="#FFFFFF" d="M310.892,248.71c-0.117-0.586,0.352-1.576-0.228-2.1s-1.406-0.117-2.227-0.117h-1.751
		c-0.41,0-0.527,0.176-0.469,0.586c0.235,1.224,0.41,2.513,0.586,3.737c0,0.291,0.236,0.527,0.527,0.527c0,0,0,0,0,0h2.923
		c0.352,0,0.579-0.176,0.579-0.527C310.892,250.169,310.892,249.531,310.892,248.71z"/>
	<path id="Path_834" fill="#FFFFFF" d="M336.615,251.927c-0.817,0.117-1.7-0.293-2.22,0.235c-0.41,0.463-0.117,1.341-0.176,2.1
		v0.352c0.117,0.651-0.293,1.576,0.287,1.752c0.974,0.246,2.001,0.163,2.923-0.235c0.19-0.086,0.322-0.263,0.351-0.469
		c0.293-0.99,0.651-2.044,0.879-3.04c0.176-0.651,0.059-0.7-0.651-0.7L336.615,251.927z"/>
	<path id="Path_835" fill="#FFFFFF" d="M307.097,252.044c0.195,1.327,0.509,2.635,0.938,3.906c0.081,0.318,0.372,0.537,0.7,0.527
		h0.117c2.4,0,1.985,0.352,2.044-1.81v-2.161c0-0.352-0.117-0.586-0.52-0.586c-1.093-0.016-2.186,0.025-3.275,0.124H307.097z"/>
	<path id="Path_836" fill="#4491EF" d="M349.649,234.622c2.159-1.188,4.872-0.401,6.06,1.758c0.307,0.558,0.491,1.175,0.54,1.81
		c0.059,1.635-0.767,3.174-2.161,4.03c0,0.033-0.026,0.059-0.059,0.059c-1.557,1.228-3.809,0.998-5.085-0.52
		c-0.863-1.051-1.301-2.386-1.23-3.744c0.033-1.383,0.758-2.657,1.93-3.392L349.649,234.622z M353.269,238.775
		c0.469,0,0.879-0.651,0.817-1.23c-0.133-0.596-0.693-0.997-1.3-0.931h-0.111c-0.397,0.036-0.69,0.386-0.655,0.783
		c0.001,0.011,0.002,0.022,0.004,0.034c-0.038,0.717,0.513,1.329,1.23,1.366c0.005,0,0.009,0,0.014,0.001L353.269,238.775z"/>
	<path id="Path_837" fill="#4491EF" d="M295.931,239.999c-0.656-1.079-1.036-2.303-1.107-3.564
		c-0.126-1.087,0.341-2.159,1.224-2.806c1.32-1.041,3.048-1.41,4.678-1c1.148,0.144,2.185,0.757,2.865,1.693
		c1.003,1.599,1.048,3.619,0.117,5.261c-0.701,1.314-2.075,2.127-3.564,2.109C298.545,241.869,296.963,241.234,295.931,239.999z
		 M300.026,236.093v0.059c-0.008,0.624,0.483,1.142,1.107,1.166c0.599-0.004,1.101-0.453,1.172-1.048
		c-0.141-0.617-0.669-1.069-1.3-1.114c-0.532-0.012-0.975,0.406-0.993,0.938L300.026,236.093z"/>
	<path id="Path_838" fill="#FFFFFF" d="M352.044,237.427c0.015,0.692,0.537,1.267,1.224,1.348c0.468,0,0.879-0.651,0.817-1.23
		c-0.121-0.604-0.689-1.01-1.3-0.931c-0.398-0.018-0.736,0.29-0.755,0.688c0,0.004,0,0.008,0,0.012L352.044,237.427z"/>
	<path id="Path_839" fill="#FFFFFF" d="M300.025,236.085c-0.084,0.632,0.359,1.213,0.99,1.3h0.059
		c0.589-0.029,1.077-0.466,1.172-1.048c-0.093-0.645-0.649-1.121-1.3-1.114c-0.481-0.025-0.891,0.344-0.917,0.825
		c-0.001,0.012-0.001,0.024-0.001,0.035L300.025,236.085z"/>
	<path id="Path_840" fill="#4491EF" d="M265.638,77.131c3.307,50.885,4.863,101.842,4.668,152.869
		c-0.067,14.645-0.284,29.283-0.651,43.914c-0.078,3.17,4.844,3.17,4.915,0c1.25-50.978,0.723-101.954-1.582-152.927
		c-0.667-14.627-1.478-29.246-2.435-43.855c-0.2-3.144-5.123-3.17-4.922,0L265.638,77.131z"/>
	<path id="Path_841" fill="#4491EF" d="M366.043,75.379c1.124,51.139,2.12,102.272,2.988,153.4
		c0.247,14.652,0.484,29.309,0.71,43.972c0.045,3.158,4.967,3.17,4.915,0c-0.792-51.133-1.708-102.261-2.747-153.383
		c-0.312-14.652-0.62-29.316-0.924-43.992c-0.074-3.164-4.987-3.17-4.922,0L366.043,75.379z"/>
	<path id="Path_842" fill="#4491EF" d="M172.118,152.458c76.741,6.133,153.65,0.371,230.475-0.527
		c21.485-0.247,42.97-0.1,64.4,0.768c3.164,0.13,3.158-4.792,0-4.922c-76.883-3.118-153.722,3.307-230.605,2.507
		c-21.453-0.223-42.9-1.035-64.279-2.741c-3.158-0.254-3.144,4.668,0,4.915L172.118,152.458z"/>
	<path id="Path_843" fill="#4491EF" d="M171.65,209.536l232.669-1l66.277-0.28c3.17,0,3.177-4.935,0-4.922l-232.669,1l-66.251,0.28
		c-3.164,0-3.17,4.935,0,4.922H171.65z"/>
	<path id="Path_844" fill="#4491EF" d="M150.55,66.915c4.073,3.767,7.753,7.938,10.983,12.449c1.823,2.552,6.094,0.1,4.252-2.487
		c-3.444-4.865-7.37-9.369-11.719-13.444c-2.318-2.153-5.808,1.3-3.483,3.483L150.55,66.915z"/>
	<path id="Path_845" fill="#4491EF" d="M180.511,60.223l1.953,6.014c0.97,3,5.723,1.719,4.74-1.3l-1.953-6.012
		C184.28,55.916,179.528,57.202,180.511,60.223z"/>
	<path id="Path_846" fill="#4491EF" d="M149.729,129.759c-5.443-1.281-10.721-3.183-15.73-5.67
		c-2.826-1.411-5.319,2.832-2.481,4.245c5.387,2.701,11.068,4.772,16.929,6.172c3.08,0.729,4.388-4.009,1.3-4.746L149.729,129.759z"
		/>
	<path id="Path_847" fill="#4491EF" d="M233.741,54.916c1.787,2.859,3.362,5.844,4.713,8.933c1.27,2.891,5.508,0.391,4.252-2.487
		c-1.35-3.087-2.925-6.07-4.713-8.926c-1.68-2.683-5.94-0.215-4.252,2.481V54.916z"/>
	<path id="Path_848" fill="#4491EF" d="M293.092,55.717l2.135,6.218c0.384,1.293,1.719,2.054,3.027,1.726
		c1.299-0.376,2.062-1.719,1.719-3.027l-2.135-6.218c-0.384-1.293-1.719-2.054-3.027-1.726
		C293.51,53.063,292.746,54.408,293.092,55.717z"/>
	<path id="Path_849" fill="#4491EF" d="M353.782,60.77c1.654-2.664,2.898-5.561,3.692-8.594c0.807-3.06-3.935-4.369-4.74-1.3
		c-0.684,2.62-1.763,5.12-3.2,7.415C347.86,60.984,352.137,63.458,353.782,60.77z"/>
	<path id="Path_850" fill="#4491EF" d="M417.054,60.803l3.008-4.479c0.739-1.141,0.413-2.665-0.728-3.403
		c-1.141-0.739-2.665-0.413-3.403,0.728c-0.041,0.063-0.079,0.128-0.114,0.194l-3.008,4.477c-0.739,1.141-0.413,2.665,0.728,3.403
		c1.141,0.739,2.665,0.413,3.403-0.728c0.041-0.063,0.079-0.128,0.114-0.194V60.803z"/>
	<path id="Path_851" fill="#4491EF" d="M477.316,69.213l11.068-11.459c2.2-2.279-1.3-5.762-3.476-3.483l-11.056,11.466
		c-2.2,2.279,1.3,5.762,3.476,3.476H477.316z"/>
	<path id="Path_852" fill="#4491EF" d="M489.38,150.446l11.941-5.749c2.852-1.374,0.358-5.612-2.487-4.245l-11.96,5.749
		c-2.852,1.374-0.365,5.618,2.481,4.245H489.38z"/>
	<path id="Path_853" fill="#4491EF" d="M151.969,194.084l-15.889,3.255c-3.106,0.651-1.79,5.371,1.3,4.746l15.889-3.255
		c3.1-0.651,1.79-5.371-1.3-4.74L151.969,194.084z"/>
	<path id="Path_854" fill="#4491EF" d="M147.88,255.918c-4.234,1.804-8.636,3.184-13.142,4.121c-3.092,0.651-1.782,5.4,1.3,4.746
		c4.915-1.062,9.713-2.608,14.323-4.616c2.9-1.25,0.4-5.494-2.481-4.252V255.918z"/>
	<path id="Path_855" fill="#4491EF" d="M158.883,293.582l-18.737,12.1c-2.65,1.712-0.189,5.97,2.481,4.245l18.718-12.1
		c2.657-1.712,0.189-5.97-2.481-4.245H158.883z"/>
	<path id="Path_856" fill="#4491EF" d="M482.968,293.154l15.163,12.748c2.409,2.025,5.9-1.439,3.476-3.483l-15.163-12.748
		C484.036,287.654,480.539,291.114,482.968,293.154z"/>
	<path id="Path_857" fill="#4491EF" d="M486.644,260.67l7.949,1.8c3.086,0.7,4.4-4.043,1.3-4.74l-7.949-1.8
		C484.862,255.234,483.544,259.974,486.644,260.67z"/>
	<path id="Path_858" fill="#4491EF" d="M485.435,201.776c5.742,2.17,11.43,4.481,17.065,6.934c2.871,1.244,5.378-2.989,2.481-4.252
		c-6.02-2.604-12.097-5.079-18.23-7.425c-2.963-1.126-4.238,3.626-1.3,4.746L485.435,201.776z"/>
	<path id="Path_859" fill="#4491EF" d="M172.32,279.225l29.832-0.534l71.617-1.3l86.317-1.485l74.872-1.341l24.675-0.436
		c3.868-0.074,7.812,0.085,11.673-0.215h0.534c3.379-0.059,3.392-5.319,0-5.26l-29.832,0.534l-71.617,1.3l-86.291,1.51
		l-74.872,1.341l-24.675,0.445c-3.868,0.065-7.812-0.091-11.673,0.209h-0.534c-3.379,0.065-3.392,5.326,0,5.261L172.32,279.225z"/>
	<path id="Rectangle_280" fill="#4491EF" d="M226.595,288.499l11.616-0.68c0.667-0.039,1.24,0.47,1.279,1.137l0.448,7.658
		c0.039,0.667-0.47,1.24-1.137,1.279l-11.616,0.68c-0.667,0.039-1.24-0.47-1.279-1.137l-0.448-7.658
		C225.419,289.111,225.928,288.538,226.595,288.499z"/>
	<path id="Path_860" fill="#4491EF" d="M241.223,291.531l2.6-3.073c0.195-0.226,0.536-0.252,0.763-0.057
		c0.111,0.095,0.178,0.231,0.187,0.376l0.456,7.761c0.017,0.298-0.212,0.554-0.51,0.57c-0.099,0.006-0.197-0.016-0.284-0.062
		l-2.858-1.517c-0.165-0.091-0.271-0.261-0.28-0.449l-0.189-3.17C241.099,291.774,241.14,291.639,241.223,291.531z"/>
	<path id="Rectangle_281" fill="#4491EF" d="M195.046,285.736l0.046,0.005c1.296,0.137,2.236,1.299,2.099,2.595l-0.546,5.167
		c-0.137,1.296-1.299,2.236-2.595,2.099l-0.046-0.005c-1.296-0.137-2.236-1.299-2.099-2.595l0.546-5.167
		C192.588,286.539,193.75,285.599,195.046,285.736z"/>
	<g id="Line_11">
		<path fill="#4491EF" d="M193.429,301.765c-0.027,0-0.055-0.002-0.082-0.005c-0.426-0.045-0.734-0.427-0.689-0.852l0.352-3.327
			c0.045-0.426,0.43-0.735,0.852-0.689c0.426,0.045,0.734,0.427,0.689,0.852l-0.352,3.327
			C194.157,301.469,193.821,301.765,193.429,301.765z"/>
	</g>
	<g id="Path_861">
		<path fill="#4491EF" d="M194.097,297.833c-0.274,0-0.553-0.024-0.833-0.075c-2.267-0.409-3.921-2.453-3.848-4.755
			c0.013-0.428,0.384-0.747,0.799-0.75c0.428,0.014,0.764,0.371,0.75,0.799c-0.049,1.54,1.058,2.907,2.574,3.181
			c1.694,0.313,3.33-0.827,3.637-2.525c0.076-0.421,0.48-0.702,0.9-0.625c0.421,0.076,0.701,0.479,0.625,0.9
			C198.294,296.242,196.318,297.833,194.097,297.833z"/>
	</g>
	<ellipse id="Ellipse_35" fill="#4491EF" cx="373.088" cy="290.671" rx="6.719" ry="5.599"/>
	<path id="Path_862" fill="#4491EF" d="M374.728,295.612c0.634,0.805,1.428,1.469,2.331,1.953c0.149,0.054,0.314-0.023,0.368-0.172
		c0.022-0.06,0.023-0.125,0.003-0.186c-0.242-1.024-0.134-2.099,0.306-3.054"/>
	<path id="Rectangle_282" fill="#4491EF" d="M176.993,141.162h18.54c0.254,0,0.46,0.206,0.46,0.46v2.361
		c0,0.254-0.206,0.46-0.46,0.46h-18.54c-0.254,0-0.46-0.206-0.46-0.46v-2.361C176.533,141.368,176.739,141.162,176.993,141.162z"/>
	<path id="Rectangle_283" fill="#4491EF" d="M279.828,142.327h18.54c0.254,0,0.46,0.206,0.46,0.46v2.361
		c0,0.254-0.206,0.46-0.46,0.46h-18.54c-0.254,0-0.46-0.206-0.46-0.46v-2.361C279.368,142.533,279.574,142.327,279.828,142.327z"/>
	<path id="Rectangle_284" fill="#4491EF" d="M378.412,139.99h18.54c0.254,0,0.46,0.206,0.46,0.46v2.361
		c0,0.254-0.206,0.46-0.46,0.46h-18.54c-0.254,0-0.46-0.206-0.46-0.46v-2.361C377.952,140.196,378.158,139.99,378.412,139.99z"/>
	<path id="Rectangle_285" fill="#4491EF" d="M176.993,197.016h18.54c0.254,0,0.46,0.206,0.46,0.46v2.361
		c0,0.254-0.206,0.46-0.46,0.46h-18.54c-0.254,0-0.46-0.206-0.46-0.46v-2.361C176.533,197.222,176.739,197.016,176.993,197.016z"/>
	<path id="Rectangle_286" fill="#4491EF" d="M279.828,197.016h18.54c0.254,0,0.46,0.206,0.46,0.46v2.361
		c0,0.254-0.206,0.46-0.46,0.46h-18.54c-0.254,0-0.46-0.206-0.46-0.46v-2.361C279.368,197.222,279.574,197.016,279.828,197.016z"/>
	<path id="Rectangle_287" fill="#4491EF" d="M378.412,195.845h18.54c0.254,0,0.46,0.206,0.46,0.46v2.361
		c0,0.254-0.206,0.46-0.46,0.46h-18.54c-0.254,0-0.46-0.206-0.46-0.46v-2.361C377.952,196.051,378.158,195.845,378.412,195.845z"/>
	<path id="Rectangle_288" fill="#4491EF" d="M176.993,265.729h18.54c0.254,0,0.46,0.206,0.46,0.46v2.361
		c0,0.254-0.206,0.46-0.46,0.46h-18.54c-0.254,0-0.46-0.206-0.46-0.46v-2.361C176.533,265.935,176.739,265.729,176.993,265.729z"/>
	<path id="Rectangle_289" fill="#4491EF" d="M279.828,263.972h18.54c0.254,0,0.46,0.206,0.46,0.46v2.361
		c0,0.254-0.206,0.46-0.46,0.46h-18.54c-0.254,0-0.46-0.206-0.46-0.46v-2.361C279.368,264.178,279.574,263.972,279.828,263.972z"/>
	<path id="Rectangle_290" fill="#4491EF" d="M378.412,262.806h18.54c0.254,0,0.46,0.206,0.46,0.46v2.361
		c0,0.254-0.206,0.46-0.46,0.46h-18.54c-0.254,0-0.46-0.206-0.46-0.46v-2.361C377.952,263.012,378.158,262.806,378.412,262.806z"/>
	<path id="Rectangle_291" fill="#4491EF" d="M327.948,290.196h8.859c0.635,0,1.15,0.515,1.15,1.15v5.168
		c0,0.635-0.515,1.15-1.15,1.15h-8.859c-0.635,0-1.15-0.515-1.15-1.15v-5.168C326.798,290.711,327.313,290.196,327.948,290.196z"/>
	<g id="Line_12">
		<path fill="#4491EF" d="M332.378,291.559c-0.4,0-0.725-0.324-0.725-0.725v-6.343c0-0.4,0.324-0.725,0.725-0.725
			s0.725,0.324,0.725,0.725v6.343C333.103,291.235,332.779,291.559,332.378,291.559z"/>
	</g>
	<g id="Path_863">
		<path fill="#4491EF" d="M329.337,287.964c-0.186,0-0.371-0.07-0.513-0.212c-0.283-0.283-0.283-0.742,0-1.025l3.044-3.044
			c0.283-0.283,0.743-0.283,1.024,0l3.033,3.027c0.284,0.282,0.284,0.741,0.001,1.024c-0.283,0.285-0.743,0.284-1.024,0.001
			l-2.521-2.516l-2.532,2.532C329.708,287.894,329.523,287.964,329.337,287.964z"/>
	</g>
	<circle id="Ellipse_36" fill="#4491EF" cx="275.716" cy="292.234" r="3.034"/>
	<circle id="Ellipse_37" fill="#4491EF" cx="296.302" cy="292.234" r="3.034"/>
	<path id="Path_864" fill="#7695BB" d="M222.237,214.614c-2.253-0.229-4.481,0.621-6.009,2.292
		c-0.975,0.943-1.565,2.215-1.654,3.568c0,0.169-0.059,0.391,0.163,0.449s0.339-0.111,0.391-0.28
		c0.793-1.265,2.013-2.205,3.438-2.65c1.403-0.557,2.981-0.462,4.306,0.261c-2.683-0.3-4.557,1.188-6.074,3.021
		c-1.128,1.437-1.499,3.328-1,5.085c0.518,2.347,1.896,4.416,3.861,5.8c2.434,1.542,5.564,1.438,7.891-0.261
		c1.39-1.163,2.121-2.935,1.953-4.74c-0.088-1.496-0.598-2.936-1.472-4.153c-0.605-0.846-0.319-1.458,0.742-1.615
		c0.478-0.113,0.967-0.165,1.458-0.156c2.911,0,5.86-0.111,8.783,0.085c1.441-0.009,2.873,0.21,4.245,0.651
		c1.516,0.393,2.623,1.695,2.767,3.255c0,0.28,0.052,0.5,0.052,0.781c0.254,2.409,0.4,4.818,0.436,7.22
		c0,0.651,0.1,0.729,0.722,0.456c1.545-0.543,3.199-0.699,4.818-0.456c0.97,0.044,1.903,0.385,2.673,0.976
		c2.383,1.869,3.822,4.115,3.73,7.3c-0.003,2.629-1.075,5.144-2.97,6.966c-1.045,1.01-2.383,1.664-3.822,1.869
		c-1.454,0.309-2.942,0.427-4.427,0.351c-0.56-0.065-0.781,0.156-0.788,0.716c-0.091,3.529-0.651,6.992-1,10.514
		c-0.061,1.154-0.903,2.116-2.038,2.331c-0.934,0.221-1.894,0.304-2.852,0.247c-4.258,0.074-8.5-0.358-12.755-0.4l-5.43-0.052
		c-3.464-0.033-6.94,0.273-10.462,0.13c-2.011-0.13-4.03-0.039-5.983-0.117c-1.098,0.013-2.156-0.415-2.937-1.188
		c-0.551-0.559-0.882-1.299-0.931-2.083c-0.241-3.8-0.541-7.611-0.84-11.419c-0.052-0.618,0.176-0.781,0.651-0.886
		c0.918-0.119,1.788-0.477,2.524-1.039c3.555-2.989,4.212-7.123,1.895-10.951c-0.764-1.073-1.856-1.868-3.112-2.265
		c-0.223-0.117-0.445-0.117-0.612-0.228c-0.833-0.4-0.944-0.573-0.879-1.524c0.059-0.722,0.065-1.51,0.13-2.233
		c0.241-1.79,0.143-3.522,0.445-5.312c0.187-1.063,0.802-2.002,1.7-2.6c1.368-0.893,2.967-1.366,4.6-1.361h0.449
		c1.341,0,1.3,0,1.524-1.3c0.677-3.399,3.592-5.893,7.054-6.035c1.325-0.001,2.642,0.202,3.906,0.6c0.28,0.111,0.56,0.117,0.651,0.4
		L222.237,214.614z M227.693,247.564c-1.516,2.942-1.752,6.379-0.651,9.5c0.699,1.839,1.932,3.426,3.542,4.557
		c0.633,0.564,1.4,0.957,2.228,1.14c2.706,0.365,5.438,0.504,8.167,0.417c0.666,0.082,1.341-0.07,1.907-0.43
		c1.122-0.711,1.823-1.928,1.875-3.255c-0.043-0.451-0.001-0.906,0.124-1.341c0.169-0.449-0.1-0.651-0.495-0.651
		c-1.569-0.236-3.1-0.673-4.557-1.3c-3.778-1.334-7.206-3.502-10.032-6.342l-2.1-2.311L227.693,247.564z M245.438,252.264
		c0.074-1.679,0.074-1.679-1.039-2.083c-0.646-0.257-1.264-0.58-1.843-0.965c-1.66-1.175-3.237-2.463-4.72-3.854
		c-0.943-0.85-2.136-1.371-3.4-1.485c-2.171-0.106-4.268,0.806-5.67,2.467c-0.211,0.144-0.266,0.432-0.122,0.643
		c0.002,0.003,0.004,0.005,0.005,0.008c0,0.029,0.023,0.052,0.052,0.052l0,0c0.5,0.651,1,1.3,1.55,1.953
		c3.462,3.658,7.941,6.193,12.859,7.279c0.445,0.117,0.891,0.065,1.341,0.183s0.651-0.1,0.651-0.612
		c0.029-1.197,0.134-2.39,0.313-3.574L245.438,252.264z"/>
	<path id="Path_865" fill="#7695BB" d="M225.035,231.932c-0.867,0.006-1.681-0.421-2.168-1.139c-0.796-1.13-1.197-2.492-1.14-3.874
		c0.035-1.345,0.961-2.503,2.266-2.832c1.26-0.283,2.572,0.161,3.4,1.152c0.674,0.836,1.093,1.848,1.207,2.916
		C228.918,230.006,226.945,232.004,225.035,231.932z M225.146,226.723c-0.619,0-1.009,0.215-0.957,0.612
		c0.045,0.612,0.547,1.3,1.048,1.237c0.492-0.022,0.897-0.396,0.957-0.885c-0.04-0.548-0.499-0.971-1.048-0.965V226.723z"/>
	<path id="Path_866" fill="#FFFFFF" d="M227.694,247.565c0.774,0.846,1.439,1.582,2.161,2.259c2.811,2.862,6.232,5.054,10.007,6.413
		c1.456,0.629,2.988,1.066,4.557,1.3c0.391,0.059,0.612,0.176,0.5,0.618c-0.125,0.435-0.167,0.89-0.124,1.341
		c-0.038,1.333-0.745,2.556-1.881,3.255c-0.574,0.341-1.242,0.492-1.907,0.43c-2.729,0.157-5.467,0.02-8.167-0.41
		c-0.831-0.173-1.6-0.567-2.227-1.14c-1.606-1.133-2.837-2.72-3.535-4.557c-1.191-3.108-0.968-6.582,0.612-9.512L227.694,247.565z"
		/>
	<path id="Path_867" fill="#FFFFFF" d="M245.445,252.267c-0.065,0.84-0.247,2.181-0.371,3.574c-0.059,0.449-0.228,0.651-0.651,0.612
		c-0.45-0.032-0.898-0.093-1.341-0.182c-4.925-1.064-9.41-3.602-12.858-7.276c-0.553-0.651-0.99-1.3-1.543-1.954
		c-0.194-0.161-0.22-0.448-0.06-0.642c0.003-0.003,0.005-0.006,0.008-0.009l0.059-0.059c1.394-1.671,3.497-2.584,5.67-2.461
		c1.264,0.114,2.457,0.635,3.4,1.485c1.507,1.362,3.083,2.646,4.72,3.848c0.569,0.399,1.186,0.725,1.836,0.97
		C245.513,250.587,245.513,250.587,245.445,252.267z"/>
	<path id="Path_868" fill="#FFFFFF" d="M225.148,226.724c0.511,0.002,0.923,0.418,0.921,0.929c-0.002,0.493-0.39,0.897-0.882,0.92
		c-0.449,0-1-0.651-1.055-1.237C224.132,226.997,224.529,226.724,225.148,226.724z"/>
	<path id="Path_869" fill="#7695BB" d="M319.929,160.941c-1.142,0.202-2.21,0.705-3.092,1.458c-0.912,0.689-1.489,1.732-1.589,2.871
		c-0.243,1.727,0.326,3.47,1.543,4.72c1.08,1.351,2.73,2.12,4.459,2.079c2.78-0.137,4.635-1.589,4.678-4.557
		c-0.046-1.373-0.633-2.672-1.633-3.614c-0.091-0.137-0.267-0.223-0.352-0.358c-0.247-0.261-0.236-0.673,0.026-0.92
		c0.019-0.018,0.039-0.034,0.059-0.05c0.091-0.045,0.176-0.13,0.267-0.13c0.405-0.154,0.818-0.287,1.237-0.4
		c2.116-0.313,4.148-0.794,6.263-1.061c1.065-0.16,2.141-0.232,3.217-0.215c1.512-0.013,2.798,1.101,3,2.6
		c0.443,1.673,1.016,3.535,1.3,5.3c0.085,0.573,0.352,0.651,0.833,0.4c3.177-1.589,8.08,0.7,9,5.209
		c0.727,2.73-0.307,5.625-2.6,7.276c-1.17,0.984-2.589,1.626-4.1,1.856c-0.4,0.045-0.534,0.223-0.445,0.618
		c0.13,1.188,0.176,2.383,0.306,3.62c0.137,1.016,0.091,2.031,0.137,3.04c-0.009,0.703-0.422,1.339-1.061,1.633
		c-0.503,0.324-1.078,0.52-1.674,0.573c-2.253,0.267-4.505,0.794-6.757,0.931c-0.223,0.045-0.482,0.045-0.651,0.085
		c-3,0.534-6.094,0.931-9.115,1.589c-3.255,0.755-6.621,1.188-9.883,1.81c-0.946,0.275-1.968,0.041-2.7-0.619
		c-0.41-0.38-0.702-0.87-0.84-1.411c-0.573-2.246-1.1-4.455-1.719-6.706c-0.084-0.209-0.143-0.428-0.176-0.651
		c-0.045-0.573-0.351-0.794-0.97-0.651c-0.519,0.138-1.052,0.212-1.589,0.223c-2.535-0.044-4.749-1.724-5.475-4.153
		c-1.112-3.059,0.232-6.467,3.132-7.945c0.574-0.306,1.207-0.486,1.856-0.527c0.651,0,0.794-0.223,0.71-0.748
		c-0.183-0.976-0.183-1.9-0.313-2.826c-0.114-0.777-0.189-1.559-0.223-2.344c-0.071-1.207,0.52-2.356,1.543-3
		c0.836-0.578,1.786-0.969,2.787-1.146l3.483-0.651c0.358,0.033,0.675-0.23,0.708-0.588c0.001-0.008,0.001-0.016,0.002-0.024
		c0.7-2.3,2.643-3.044,4.72-3.044c0.137,0.009,0.271,0.038,0.4,0.085C319.077,160.663,319.509,160.785,319.929,160.941z
		 M316.296,181.423c0.054,0.812,0.216,1.614,0.482,2.383c0.386,1.525,0.857,3.027,1.411,4.5c0.061,0.383,0.408,0.653,0.794,0.618
		c1.016,0.045,2.031,0.137,3.044,0.176c3.222,0.091,6.4,0.045,9.623-0.13c1.543-0.085,3.086-0.306,4.635-0.4
		c0.496,0,0.922-0.353,1.016-0.84c0.309-0.794,0.575-1.605,0.794-2.429c0.039-0.176,0.176-0.437-0.045-0.651
		c-0.223,0.045-0.4,0.045-0.573,0.085c-1.058,0.305-2.154,0.455-3.255,0.445c-2.116,0.091-4.238,0-6.311-0.045
		c-3.305-0.068-6.545-0.93-9.447-2.513C317.806,182.218,317.103,181.864,316.296,181.423z M318.679,189.235
		c0.52,1.985,1.646,3.758,3.222,5.072c0.461,0.372,1.042,0.562,1.634,0.534c1.457-0.072,2.904-0.279,4.323-0.618
		c1.367-0.351,2.78-0.651,4.193-0.931c0.995-0.074,1.933-0.494,2.65-1.188c0.509-0.559,0.946-1.18,1.3-1.849
		c0.256-0.333,0.41-0.733,0.445-1.152c-5.914,0.557-11.865,0.603-17.787,0.137L318.679,189.235z M337.436,175.993
		c0.045,0.223,0.045,0.4,0.091,0.573c0.516,2.286,2.463,3.969,4.8,4.148c0.948,0.002,1.884-0.207,2.741-0.612
		c0.786-0.311,1.493-0.793,2.07-1.411c1.416-1.76,1.628-4.201,0.534-6.178c-0.622-1.156-1.596-2.084-2.78-2.65
		c-1.211-0.685-2.659-0.814-3.972-0.352c-2.064,0.924-4.18,3.529-3.476,6.485L337.436,175.993z"/>
	<path id="Path_870" fill="#7695BB" d="M325.001,167.517c0.299,1.329-0.536,2.649-1.866,2.948c-0.112,0.025-0.226,0.043-0.341,0.052
		c-0.68,0.113-1.371-0.116-1.849-0.612c-0.517-0.597-0.881-1.31-1.061-2.079c-0.301-1.255,0.472-2.517,1.728-2.818
		c0.012-0.003,0.024-0.006,0.036-0.008c0.245-0.057,0.498-0.072,0.748-0.045c1.395,0.06,2.518,1.165,2.6,2.559L325.001,167.517z
		 M323.327,167.432c-0.149-0.432-0.559-0.718-1.016-0.71c-0.429,0.166-0.685,0.606-0.618,1.061c0.187,0.402,0.626,0.624,1.061,0.534
		c0.359-0.145,0.588-0.499,0.573-0.886V167.432z"/>
	<path id="Path_871" fill="#FFFFFF" d="M316.296,181.424c0.794,0.445,1.5,0.84,2.207,1.188c2.906,1.573,6.144,2.434,9.447,2.513
		c2.116,0.045,4.232,0.176,6.311,0.045c1.102,0.026,2.201-0.124,3.255-0.446c0.188-0.048,0.38-0.076,0.573-0.085
		c0.223,0.223,0.085,0.445,0.039,0.651c-0.215,0.794-0.482,1.589-0.794,2.429c-0.104,0.478-0.52,0.824-1.009,0.84
		c-1.55,0.13-3.092,0.313-4.635,0.4c-3.222,0.223-6.4,0.223-9.623,0.13c-1.016-0.039-2.031-0.13-3.044-0.176
		c-0.383,0.054-0.737-0.212-0.791-0.595c-0.001-0.008-0.002-0.016-0.003-0.024c-0.554-1.473-1.025-2.975-1.411-4.5
		c-0.272-0.767-0.445-1.565-0.514-2.376L316.296,181.424z"/>
	<path id="Path_872" fill="#FFFFFF" d="M318.692,189.236c5.952,0.449,11.93,0.39,17.872-0.176c-0.057,0.41-0.206,0.802-0.437,1.146
		c-0.343,0.677-0.78,1.302-1.3,1.856c-0.711,0.699-1.648,1.12-2.643,1.188c-1.411,0.306-2.787,0.573-4.193,0.924
		c-1.425,0.314-2.873,0.521-4.329,0.618c-0.591,0.036-1.174-0.152-1.633-0.527c-1.615-1.283-2.782-3.045-3.334-5.033
		L318.692,189.236z"/>
	<path id="Path_873" fill="#FFFFFF" d="M337.449,175.994c-0.573-2.713,0.929-5.436,3.529-6.4c1.312-0.463,2.761-0.335,3.972,0.351
		c1.185,0.568,2.16,1.495,2.787,2.65c1.357,2.874,0.127,6.304-2.748,7.661c-0.811,0.383-1.701,0.571-2.598,0.549
		c-2.339-0.181-4.288-1.861-4.811-4.148C337.541,176.437,337.494,176.216,337.449,175.994z M342.039,175.864
		c0.04,0.238,0.099,0.472,0.176,0.7c0.748,2.031,2.429,2.871,4.505,1.764c0.412-0.214,0.726-0.578,0.879-1.016
		c0.459-1.166,0.377-2.475-0.223-3.574c-0.492-0.957-1.483-1.554-2.559-1.543c-1.106,0.009-2.121,0.617-2.65,1.589
		c-0.097,0.193-0.157,0.403-0.176,0.618c-0.115,0.481-0.099,0.985,0.045,1.458L342.039,175.864z"/>
	<path id="Path_874" fill="#FFFFFF" d="M323.328,167.431c0.075,0.414-0.2,0.811-0.614,0.885c-0.001,0-0.002,0-0.004,0.001
		c-0.435,0.144-0.904-0.092-1.047-0.527c-0.144-0.435,0.092-0.904,0.527-1.047c0.025-0.008,0.049-0.015,0.075-0.021
		C322.738,166.692,323.173,166.982,323.328,167.431z"/>
	<path id="Path_875" fill="#7695BB" d="M342.039,175.864c-0.115-0.491-0.146-0.998-0.091-1.5c0.012-0.217,0.075-0.429,0.183-0.618
		c0.539-0.959,1.543-1.563,2.643-1.589c1.07,0.022,2.048,0.613,2.565,1.55c0.617,1.095,0.696,2.413,0.215,3.574
		c-0.164,0.432-0.475,0.792-0.879,1.016c-2.123,1.1-3.75,0.261-4.505-1.771C342.13,176.294,342.084,176.085,342.039,175.864z
		 M344.468,174.231c-0.688,0.122-1.157,0.766-1.061,1.458c0.137,0.7,0.748,1.3,1.3,1.188c0.769-0.195,1.264-0.942,1.146-1.726
		c-0.117-0.629-0.723-1.044-1.352-0.927c-0.005,0.001-0.01,0.002-0.015,0.003L344.468,174.231z"/>
	<path id="Path_876" fill="#FFFFFF" d="M344.468,174.23c0.63-0.11,1.234,0.298,1.367,0.924l0,0c0.106,0.782-0.384,1.521-1.146,1.726
		c-0.534,0.085-1.146-0.446-1.3-1.188c-0.117-0.684,0.342-1.333,1.026-1.45c0.018-0.003,0.036-0.006,0.055-0.008L344.468,174.23z"/>
	<path id="Path_877" fill="#7695BB" d="M430.309,91.187c0.166-0.059,0.339-0.093,0.515-0.1c2.6,0.124,5,1.2,5.736,4.095
		c0.071,0.435,0.432,0.764,0.872,0.794c1.411,0.306,2.865,0.651,4.329,1c1.246,0.267,2.419,0.803,3.438,1.569
		c1.277,0.837,1.97,2.325,1.79,3.841c-0.081,0.982-0.22,1.958-0.417,2.923c-0.247,1.152-0.293,2.344-0.553,3.548
		c-0.143,0.684,0.074,0.95,0.827,1c0.809,0.099,1.589,0.363,2.292,0.774c3.787,1.953,4.9,6.706,3.5,10.13
		c-1.036,3.016-3.913,5.007-7.1,4.915c-0.679-0.05-1.35-0.176-2-0.378c-0.774-0.228-1.159,0-1.262,0.762
		c-0.051,0.283-0.13,0.56-0.235,0.827c-0.879,2.767-1.7,5.547-2.524,8.327c-0.205,0.671-0.6,1.269-1.139,1.719
		c-0.961,0.775-2.246,1.019-3.425,0.651c-4.069-0.938-8.236-1.68-12.325-2.793c-3.718-1.028-7.573-1.7-11.335-2.519
		c-0.261-0.059-0.586-0.074-0.846-0.13c-2.845-0.293-5.618-1.114-8.464-1.559c-0.741-0.122-1.446-0.407-2.064-0.833
		c-0.777-0.422-1.253-1.245-1.23-2.129c0.117-1.3,0.117-2.552,0.339-3.815c0.223-1.543,0.384-3.04,0.6-4.557
		c0.1-0.475-0.074-0.651-0.541-0.774c-1.885-0.38-3.627-1.281-5.026-2.6c-2.975-2.455-3.75-5.69-2.858-9.281
		c1.452-5.651,7.708-8.236,11.621-6.068c0.651,0.358,0.931,0.254,1.087-0.475c0.534-2.187,1.3-4.369,1.953-6.582
		c0.337-1.867,2.011-3.192,3.906-3.092c1.35,0.01,2.696,0.157,4.017,0.437c2.6,0.463,5.163,1.178,7.813,1.693
		c0.508,0.169,1.022,0.339,1.524,0.553c0.124,0.041,0.241,0.103,0.345,0.183c0.353,0.29,0.404,0.811,0.113,1.164
		c-0.017,0.021-0.035,0.041-0.054,0.06c-0.151,0.159-0.312,0.308-0.482,0.446c-1.3,1.128-2.101,2.724-2.227,4.44
		c-0.1,3.763,2.161,5.677,5.651,6c4.318,0.063,7.87-3.388,7.932-7.706c0.003-0.177-0.001-0.354-0.01-0.531
		c-0.055-1.433-0.721-2.774-1.829-3.685c-1.066-0.976-2.374-1.65-3.787-1.953C429.271,91.311,429.787,91.213,430.309,91.187z
		 M429.397,118.766c-3.745,1.817-7.867,2.721-12.028,2.637c-2.6-0.074-5.3-0.059-7.93-0.3c-1.384-0.026-2.755-0.27-4.063-0.722
		l-0.729-0.156c-0.28,0.267-0.124,0.573-0.065,0.807c0.215,1.049,0.502,2.082,0.859,3.092c0.102,0.613,0.623,1.069,1.244,1.087
		c1.953,0.2,3.874,0.573,5.8,0.774c4.009,0.436,8.019,0.651,12.064,0.71c1.3,0,2.6-0.045,3.841-0.045
		c0.472,0.066,0.917-0.237,1.028-0.7c0.778-1.824,1.458-3.689,2.038-5.586c0.388-0.946,0.642-1.94,0.755-2.956
		C431.168,117.946,430.23,118.349,429.397,118.766L429.397,118.766z M428.785,127.119c-7.475,0.25-14.958-0.152-22.364-1.2
		c0.038,0.527,0.21,1.036,0.5,1.478c0.421,0.867,0.944,1.68,1.559,2.422c0.795,1.107,2.064,1.3,3.255,1.641
		c1.764,0.446,3.483,0.866,5.209,1.411c1.768,0.521,3.584,0.862,5.42,1.016c0.747,0.052,1.488-0.155,2.1-0.586
		c2.044-1.564,3.549-3.726,4.306-6.185L428.785,127.119z M401.897,101.162c-1.633-0.644-3.463-0.563-5.033,0.223
		c-1.512,0.648-2.786,1.749-3.646,3.151c-2.03,2.934-1.297,6.958,1.637,8.988c0.39,0.27,0.808,0.496,1.247,0.674
		c1.054,0.561,2.223,0.873,3.416,0.912c2.955-0.072,5.509-2.081,6.276-4.935l0.163-0.729
		C407.027,105.785,404.482,102.381,401.897,101.162z"/>
	<path id="Path_878" fill="#7695BB" d="M425.394,96.415c0.325-0.02,0.651,0.014,0.965,0.1c1.551,0.401,2.483,1.982,2.083,3.533
		c-0.008,0.031-0.017,0.062-0.026,0.093c-0.256,0.95-0.746,1.821-1.425,2.533c-0.61,0.619-1.494,0.883-2.344,0.7
		c-1.727-0.257-2.92-1.865-2.663-3.592c0.016-0.106,0.037-0.21,0.063-0.314C422.242,97.756,423.672,96.452,425.394,96.415z
		 M424.919,100.589c0.517,0.131,1.056-0.112,1.3-0.586c0.099-0.572-0.208-1.138-0.742-1.367c-0.57-0.074-1.113,0.264-1.3,0.807
		C424.108,99.955,424.423,100.442,424.919,100.589z"/>
	<path id="Path_879" fill="#FFFFFF" d="M432.217,117.405c-1.035,0.489-1.907,0.957-2.821,1.361
		c-3.745,1.817-7.867,2.721-12.028,2.637c-2.647,0.034-5.293-0.066-7.93-0.3c-1.384-0.026-2.755-0.27-4.063-0.722
		c-0.237-0.075-0.482-0.127-0.729-0.156c-0.28,0.267-0.124,0.573-0.065,0.807c0.209,1.028,0.541,2.031,0.859,3.092
		c0.102,0.613,0.623,1.069,1.244,1.087c1.914,0.254,3.874,0.573,5.8,0.774c4.009,0.436,8.019,0.651,12.064,0.71
		c1.256,0,2.524-0.052,3.841-0.045c0.472,0.067,0.917-0.236,1.028-0.7c0.778-1.824,1.458-3.689,2.038-5.586
		C431.819,119.409,432.075,118.417,432.217,117.405L432.217,117.405z"/>
	<path id="Path_880" fill="#FFFFFF" d="M428.786,127.118c-7.493,0.252-14.993-0.15-22.416-1.2c0.051,0.524,0.222,1.03,0.5,1.478
		c0.422,0.864,0.945,1.675,1.559,2.415c0.795,1.107,2.064,1.3,3.255,1.641c1.764,0.445,3.483,0.872,5.209,1.411
		c1.773,0.499,3.587,0.839,5.42,1.016c0.748,0.078,1.498-0.129,2.1-0.579c2.045-1.574,3.569-3.726,4.375-6.178L428.786,127.118z"/>
	<path id="Path_881" fill="#FFFFFF" d="M405.784,110.224c-0.767,2.854-3.321,4.863-6.276,4.935c-1.2,0.014-2.381-0.302-3.415-0.912
		c-0.983-0.419-1.858-1.057-2.557-1.866c-1.712-2.287-1.841-5.391-0.325-7.812c0.857-1.402,2.128-2.503,3.638-3.151
		c1.568-0.794,3.401-0.875,5.033-0.223c3.197,1.369,4.924,4.858,4.076,8.23L405.784,110.224z M400.192,109.006
		c0.187-0.584,0.264-1.198,0.228-1.81c-0.009-0.284-0.081-0.563-0.209-0.817c-0.642-1.227-1.874-2.035-3.255-2.135
		c-1.349-0.062-2.621,0.632-3.3,1.8c-0.823,1.353-0.999,3.003-0.482,4.5c0.146,0.556,0.516,1.027,1.022,1.3
		c2.525,1.485,4.707,0.534,5.749-1.953c0.105-0.286,0.188-0.58,0.247-0.879L400.192,109.006z"/>
	<path id="Path_882" fill="#FFFFFF" d="M424.185,99.468c-0.112,0.52,0.217,1.032,0.736,1.146c0.517,0.131,1.056-0.112,1.3-0.586
		c0.121-0.576-0.193-1.155-0.742-1.367c-0.566-0.056-1.099,0.275-1.3,0.807L424.185,99.468z"/>
	<path id="Path_883" fill="#7695BB" d="M399.905,109.82c-1.039,2.513-3.17,3.476-5.749,1.953c-0.49-0.294-0.855-0.756-1.028-1.3
		c-0.539-1.495-0.359-3.155,0.488-4.5c0.676-1.168,1.946-1.862,3.294-1.8c1.388,0.082,2.627,0.895,3.255,2.135
		c0.124,0.255,0.196,0.533,0.209,0.817c0.043,0.631-0.021,1.265-0.189,1.875C400.14,109.287,400.046,109.565,399.905,109.82z
		 M397.305,106.838L397.305,106.838c-0.764-0.204-1.549,0.25-1.753,1.014c-0.012,0.044-0.021,0.088-0.029,0.132
		c-0.198,0.96,0.364,1.915,1.3,2.207c0.651,0.143,1.485-0.553,1.68-1.446c0.2-0.847-0.325-1.696-1.172-1.896
		c-0.017-0.004-0.034-0.008-0.05-0.011L397.305,106.838z"/>
	<path id="Path_884" fill="#FFFFFF" d="M397.268,106.838c-0.792-0.18-1.582,0.306-1.778,1.094l0,0
		c-0.177,0.957,0.378,1.898,1.3,2.207c0.684,0.143,1.477-0.5,1.686-1.446C398.635,107.851,398.102,107.033,397.268,106.838z"/>
	<path id="Path_885" fill="#4491EF" d="M489.628,111.552c3.979-2.23,7.613-5.026,10.788-8.3c2.207-2.272-1.27-5.755-3.476-3.483
		c-2.872,2.974-6.162,5.514-9.766,7.539c-2.761,1.55-0.287,5.8,2.481,4.245L489.628,111.552z"/>
	<path id="Rectangle_292" fill="#4491EF" d="M402.199,286.283h53.708c1.662,0,3.01,1.348,3.01,3.01v2.737
		c0,1.662-1.348,3.01-3.01,3.01h-53.708c-1.662,0-3.01-1.348-3.01-3.01v-2.737C399.189,287.63,400.536,286.283,402.199,286.283z"/>
</g>
</svg>
