<?xml version="1.0" encoding="utf-8"?>
<!-- Generator: Adobe Illustrator 24.2.1, SVG Export Plug-In . SVG Version: 6.00 Build 0)  -->
<svg version="1.1" id="Layer_1" xmlns="http://www.w3.org/2000/svg" xmlns:xlink="http://www.w3.org/1999/xlink" x="0px" y="0px"
	 width="376px" height="300.706px" viewBox="0 0 376 300.706" enable-background="new 0 0 376 300.706" xml:space="preserve">
<g>
	<path fill="#4491EF" d="M323.304,252.463l-76.759,1.371l-133.643,2.395l-43.477,0.77c-2.634,0.054-5.283,0.154-7.916,0.146
		c-9.379,0-16.171-7.015-16.433-16.287c-0.855-33.936-1.209-67.896-1.817-101.84l-1.132-63.376
		c-0.169-9.526-0.947-19.251-0.485-28.769c0.462-9.518,8.355-14.993,17.18-15.155l11.381-0.2l48.598-0.87l134.044-2.395
		l50.285-0.901c9.895-0.177,23.471-2.718,29.732,7c2.695,4.189,2.51,8.732,2.595,13.43l0.331,18.712l1.101,61.435l1.902,106.638
		c0.169,9.364-5.506,17.442-15.478,17.896c-3.388,0.154-3.404,5.444,0,5.29c11.808-0.381,21.094-10.221,20.792-22.031
		c0-4.043-0.139-8.078-0.216-12.113l-1.016-56.838l-2.133-118.712c-0.085-4.72,0-9.302-1.941-13.753
		c-3.696-8.371-11.967-12.621-20.853-12.498c-10.688,0.146-21.377,0.377-32.073,0.57l-132.334,2.364
		c-31.634,0.57-63.276,1.024-94.91,1.694c-8.224,0.177-15.948,3.742-19.867,11.358c-2.526,4.898-2.41,9.818-2.31,15.07l0.855,48.036
		l2.272,127.229c0.077,4.243,0.123,8.471,0.231,12.729c0.277,11.043,8.055,20.522,19.39,21.5c7.893,0.678,16.171-0.177,24.057-0.316
		l126.328-2.287l108.016-1.933l5.737-0.1C326.7,257.692,326.707,252.402,323.304,252.463z"/>
	<ellipse fill="#4491EF" cx="187.335" cy="292.214" rx="153.673" ry="8.424"/>
	<path fill="#4491EF" d="M191.562,258.724c-0.339,12.205-0.323,24.804,1.155,36.963c0.439,3.619,6.16,3.665,5.745,0
		c-1.479-12.128-1.494-24.727-1.155-36.963C197.415,255.028,191.67,255.028,191.562,258.724z"/>
	<path id="Path_194-2_2_" fill="#7695BB" d="M103.229,109.233c1.976-1.095,4.422-0.866,6.16,0.578
		c0.671,0.479,1.147,1.185,1.34,1.987c0.129,0.487,0.553,0.839,1.055,0.878c1.34,0.116,2.68,0.347,4.027,0.524
		c1.071,0.139,2.112,0.454,3.08,0.932c1.669,0.761,2.676,2.493,2.51,4.32c-0.116,2.041-0.231,4.081-0.408,6.122
		c-0.062,0.993-0.116,0.993-1.047,1.17c-1.463,0.293-2.865,0.701-3.735,1.864c-1.579,2.102-2.395,4.382-1.463,7.008
		c0.363,1.007,0.882,1.951,1.54,2.795c0.548,0.721,1.303,1.258,2.164,1.54c1.109,0.354,1.109,0.47,0.87,1.54
		c-0.462,2.041-0.87,4.143-1.278,6.245c-0.293,1.34-0.531,2.68-0.878,3.966c-0.275,1.001-1.086,1.765-2.102,1.979
		c-0.756,0.185-1.539,0.227-2.31,0.123c-2.857-0.354-5.66-0.647-8.517-0.993c-1.81-0.239-3.558-0.701-5.39-0.878
		c-3.966-0.408-7.878-0.932-11.79-1.224c-1.925-0.116-3.85-0.354-5.775-0.585c-0.91-0.054-1.791-0.334-2.564-0.816
		c-0.676-0.372-1.084-1.093-1.055-1.864c0.062-1.109,0-2.218,0.062-3.388c-0.025-2.223,0.091-4.445,0.347-6.653
		c0.062-0.462-0.169-0.701-0.639-0.77c-1.355-0.117-2.688-0.412-3.966-0.878c-1.501-0.403-2.806-1.336-3.673-2.626
		c-1.763-2.393-2.162-5.528-1.055-8.286c0.737-1.938,2.205-3.508,4.089-4.374c0.642-0.34,1.371-0.482,2.095-0.408
		c1.494-0.043,2.977,0.276,4.32,0.932c0.701,0.408,0.77,0.354,0.878-0.524c0.393-2.417,0.907-4.812,1.54-7.177
		c0.347-1.54,1.54-2.102,2.857-2.395c1.314-0.18,2.644-0.219,3.966-0.116c2.687,0.177,5.39,0.647,7.993,0.993
		c0.479,0.063,0.95,0.182,1.402,0.354c0.466,0.078,0.779,0.519,0.701,0.985c0,0,0,0.001,0,0.001
		c-0.023,0.225-0.156,0.423-0.354,0.531c-1.678,1.773-2.267,4.315-1.54,6.646c0.639,1.756,1.925,2.626,3.619,3.211
		c3.08,1.047,6.476-0.993,7.878-3.442c0.116-0.177,0.169-0.347,0.285-0.524c1.216-2.215,0.837-4.965-0.932-6.769
		c-0.293-0.354-0.701-0.639-0.993-0.993C105.714,109.8,104.505,109.238,103.229,109.233z M103.175,129.362
		c-0.155-0.132-0.389-0.114-0.521,0.041c-0.003,0.004-0.007,0.008-0.01,0.013c-1.721,0.974-3.525,1.794-5.39,2.449
		c-4.312,1.579-8.578,3.565-13.361,3.565c-0.347,0-0.408,0.231-0.293,0.462c0.06,0.225,0.183,0.428,0.354,0.585
		c0.287,0.27,0.436,0.655,0.408,1.047c0.116,0.878,0.116,0.878,0.932,0.816c1.109-0.054,2.218-0.169,3.211-0.169
		c4.197-0.177,8.401-0.524,12.598-1.109c0.514-0.027,0.934-0.42,0.993-0.932c0.177-0.824,0.293-1.64,0.47-2.395
		C102.856,132.291,103.059,130.831,103.175,129.362z M99.61,141.937c-0.298-0.242-0.664-0.385-1.047-0.408
		c-2.218-0.347-4.489-0.816-6.769-1.047c-2.106-0.147-4.222-0.03-6.299,0.347c-0.647,0.062-0.701,0.239-0.524,0.816
		c0.693,2.31,1.979,3.85,4.72,4.382c2.405,0.335,4.854-0.096,7-1.232C97.895,144.111,98.901,143.126,99.61,141.937z"/>
	<path id="Path_200-2_2_" fill="#7695BB" d="M103.406,117.395c-0.102,0.905-0.469,1.76-1.055,2.456
		c-1.394,2.31-4.143,1.224-4.959-0.47c-0.816-1.694-0.231-3.034,0.77-4.32c0.891-1.037,2.323-1.43,3.619-0.993
		C103.003,114.692,103.665,116.048,103.406,117.395z M101.242,117.103c0.062-0.347-0.169-0.462-0.816-0.578
		c-0.647-0.116-1.047,0.231-1.047,0.701c0.042,0.454,0.371,0.83,0.816,0.932C100.739,118.078,101.166,117.648,101.242,117.103
		L101.242,117.103z"/>
	<path id="Path_204-2_2_" fill="#FFFFFF" d="M103.175,129.362c-0.06,1.47-0.237,2.933-0.531,4.374
		c-0.169,0.816-0.293,1.633-0.462,2.395c-0.059,0.511-0.479,0.905-0.993,0.932c-4.143,0.585-8.401,0.932-12.606,1.109
		c-1.109,0-2.218,0.169-3.203,0.169s-0.878,0-0.939-0.816c0.034-0.394-0.117-0.781-0.408-1.047
		c-0.138-0.181-0.254-0.377-0.347-0.585c-0.116-0.293-0.062-0.462,0.293-0.462c4.782,0,8.987-2.048,13.361-3.565
		c1.874-0.634,3.68-1.455,5.39-2.449C102.759,129.239,102.936,129.239,103.175,129.362z"/>
	<path id="Path_205-2_2_" fill="#FFFFFF" d="M99.61,141.937c-0.661,1.213-1.68,2.191-2.919,2.803c-2.14,1.154-4.596,1.583-7,1.224
		c-2.741-0.408-4.027-2.041-4.72-4.374c-0.177-0.585-0.123-0.77,0.524-0.816c2.08-0.354,4.193-0.472,6.299-0.354
		c2.31,0.239,4.551,0.701,6.769,1.055C98.94,141.553,99.297,141.711,99.61,141.937z"/>
	<path id="Path_235-2_2_" fill="#FFFFFF" d="M101.242,117.103c-0.012,0.575-0.473,1.039-1.047,1.055
		c-0.445-0.101-0.774-0.477-0.816-0.932c0-0.408,0.524-0.701,1.047-0.701C101.003,116.641,101.242,116.756,101.242,117.103z"/>
	<path id="Path_195-2_2_" fill="#4491EF" d="M268.984,181.041c0.036-0.858,0.016-1.717-0.062-2.572
		c-0.021-0.759,0.018-1.519,0.116-2.272c0.265-1.456,1.291-2.659,2.688-3.15c0.465-0.213,0.954-0.371,1.455-0.47
		c2.524-0.492,5.079-0.803,7.647-0.932c1.633-0.062,3.203-0.354,4.782-0.354c0.347,0,0.585-0.293,0.878-0.408
		c2.095-1.265,4.448-2.041,6.884-2.272c1.863-0.247,3.755,0.121,5.39,1.047c0.543,0.266,1.163,0.329,1.748,0.177
		c1.987-0.116,4.027-0.354,6.014-0.408c1.566-0.053,3.099,0.464,4.312,1.455c0.993,0.77,1.224,1.871,1.463,2.98
		c0.347,2.102,0.639,4.081,0.986,6.16c0.123,0.639,0.123,0.701,0.77,0.47c3.327-0.993,6.068,0.524,7.115,3.966
		c0.773,2.245,0.691,4.696-0.231,6.884c-0.852,2.059-2.701,3.536-4.898,3.912c-0.158-0.009-0.317,0.009-0.47,0.054
		c-0.47,0-0.639,0.231-0.585,0.639c0.062,1.81,0.062,3.681,0.062,5.491c0,2.095,0.054,4.143,0.054,6.237
		c0.062,2.31-1.401,3.565-3.442,3.796c-3.381,0.408-6.769,0.816-10.149,1.109c-2.156,0.115-4.32,0.115-6.476,0.347
		c-3.735,0.408-7.408,0.647-11.143,1.17c-2.51,0.408-5.136,0.524-7.647,0.816c-0.47,0.05-0.946,0.011-1.402-0.116
		c-1.25-0.117-2.26-1.069-2.449-2.31c-0.47-2.688-1.109-5.39-1.455-8.055c-0.293-1.987-0.701-3.966-0.939-5.953
		c-0.116-0.524-0.347-0.639-0.816-0.524c-1.38,0.202-2.785,0.142-4.143-0.177c-0.992-0.236-1.9-0.739-2.626-1.455
		c-2.125-2.04-3.307-4.871-3.265-7.816c0.062-4.089,3.211-7.531,7.115-7.647C267.175,180.863,268.083,180.922,268.984,181.041z
		 M276.684,210.503c0.397-0.054,0.766-0.238,1.047-0.524c3.145-2.476,6.494-4.681,10.011-6.592
		c3.902-2.117,8.007-3.837,12.252-5.136c0.587-0.104,1.037-0.579,1.109-1.17c0.177-0.986,0.47-1.979,0.701-2.972
		c0.177-0.639,0.123-0.77-0.578-0.639c-1.828,0.254-3.632,0.663-5.39,1.224c-7.718,2.466-14.617,6.993-19.952,13.091
		c-0.993,1.109-0.939,1.109-0.177,2.31c0.046,0.073,0.085,0.15,0.116,0.231c0.239,0.214,0.575,0.281,0.878,0.177L276.684,210.503z
		 M260.344,188.141c1.925-1.463,2.919-1.64,4.667-0.993c0.848,0.288,1.488,0.992,1.694,1.864c0.281,0.946,0.359,1.94,0.231,2.919
		c-0.138,1.818-1.566,3.271-3.381,3.442c-0.177,0-0.293,0-0.231,0.231c2.626,2.741,7.754,1.224,9.333-1.278
		c2.218-3.442,1.987-8.525-2.156-11.027c-1.365-0.962-3.005-1.453-4.674-1.402C262.792,182.242,260.521,184.752,260.344,188.141
		L260.344,188.141z M291.978,182.612c1.116,0.01,2.202-0.36,3.08-1.047c2.461-1.864,3.654-4.96,3.08-7.993
		c-0.408-2.31-2.31-4.258-4.489-4.258c-3.681,0.054-7.762,2.272-8.17,7.115c-0.287,2.784,1.456,5.376,4.143,6.16
		c0.757,0.187,1.546,0.206,2.31,0.054L291.978,182.612z M300.672,198.598c-0.231-0.115-0.408,0-0.585,0
		c-2.573,0.819-5.087,1.815-7.523,2.98c-4.479,1.91-8.696,4.381-12.552,7.354c-0.239,0.177-0.585,0.293-0.47,0.647
		c0.126,0.326,0.48,0.503,0.816,0.408c0.293-0.062,0.585-0.062,0.878-0.116c2.662-0.557,5.292-1.259,7.878-2.102
		c3.386-1.05,6.592-2.607,9.51-4.62c0.404-0.2,0.732-0.527,0.932-0.932c0.438-1.184,0.809-2.393,1.109-3.619L300.672,198.598z
		 M262.977,191.075c0.062,0.585,0.524,1.047,1.109,1.109c0.704-0.174,1.192-0.815,1.17-1.54c-0.096-0.638-0.69-1.078-1.328-0.982
		c-0.638,0.096-1.078,0.69-0.982,1.328v0.062L262.977,191.075z"/>
	<path id="Path_206-2_2_" fill="#FFFFFF" d="M276.684,210.472c-0.32,0.09-0.659-0.054-0.816-0.347
		c-0.062-0.062-0.062-0.123-0.123-0.239c-0.77-1.278-0.816-1.278,0.177-2.31c5.34-6.096,12.241-10.622,19.96-13.091
		c1.77-0.517,3.57-0.926,5.39-1.224c0.585-0.115,0.701,0,0.585,0.639c-0.231,0.993-0.524,1.987-0.701,2.98
		c-0.097,0.578-0.536,1.039-1.109,1.163c-4.213,1.387-8.309,3.104-12.252,5.136c-3.527,1.894-6.877,4.1-10.011,6.592
		C277.535,210.152,277.135,210.407,276.684,210.472z"/>
	<path id="Path_207-2_2_" fill="#FFFFFF" d="M260.344,188.141c0.177-3.388,2.51-5.953,5.483-6.16
		c1.669-0.052,3.309,0.44,4.674,1.402c4.197,2.51,4.428,7.647,2.156,11.027c-1.579,2.51-6.707,3.974-9.333,1.286
		c0-0.231,0.116-0.231,0.231-0.231c1.805-0.192,3.221-1.634,3.381-3.442c0.132-0.978,0.053-1.973-0.231-2.919
		c-0.243-0.854-0.869-1.545-1.694-1.871C263.201,186.462,262.215,186.639,260.344,188.141z"/>
	<path id="Path_208-2_2_" fill="#FFFFFF" d="M291.978,182.612c-0.771,0.078-1.55,0.039-2.31-0.115
		c-2.699-0.744-4.456-3.34-4.143-6.122c0.408-4.844,4.489-7.123,8.17-7.123c2.156-0.054,4.143,1.987,4.489,4.258
		c0.6,3.035-0.598,6.146-3.08,7.993C294.283,182.325,293.134,182.733,291.978,182.612z M293.264,176.836
		c0.022-1.576-1.179-2.901-2.749-3.034c-1.826-0.061-3.417,1.234-3.727,3.034c-0.162,0.997,0,2.02,0.462,2.919
		c0.932,1.81,4.027,1.925,5.075,0.639C292.966,179.32,293.292,178.087,293.264,176.836L293.264,176.836z"/>
	<path id="Path_209-2_2_" fill="#FFFFFF" d="M300.664,198.598c-0.276,1.24-0.668,2.452-1.171,3.619
		c-0.198,0.406-0.526,0.734-0.932,0.932c-2.897,2.048-6.11,3.608-9.51,4.62c-2.567,0.816-5.193,1.517-7.878,2.102
		c-0.293,0.054-0.585,0.054-0.878,0.116c-0.332,0.057-0.663-0.108-0.816-0.408c-0.116-0.354,0.239-0.47,0.47-0.647
		c3.855-2.968,8.07-5.437,12.544-7.346c2.449-1.109,4.957-2.102,7.523-2.98C300.194,198.598,300.448,198.482,300.664,198.598z"/>
	<path id="Path_210-2_2_" fill="#FFFFFF" d="M262.97,191.074c-0.104-0.576,0.251-1.135,0.816-1.286h0.116
		c0.585-0.059,1.128,0.311,1.286,0.878c0.022,0.723-0.462,1.363-1.163,1.54c-0.587-0.003-1.06-0.481-1.057-1.068
		C262.967,191.117,262.968,191.096,262.97,191.074z"/>
	<path id="Path_238-2_2_" fill="#4491EF" d="M293.256,176.836c0.05,1.236-0.278,2.458-0.939,3.504
		c-0.986,1.278-4.02,1.224-5.075-0.647c-0.475-0.891-0.638-1.916-0.462-2.911c0.326-1.791,1.907-3.079,3.727-3.034
		C292.081,173.918,293.269,175.253,293.256,176.836z M289.929,178.469c0.685-0.029,1.225-0.593,1.224-1.278
		c-0.067-0.606-0.562-1.075-1.171-1.109c-0.714,0.111-1.237,0.733-1.224,1.455c0.052,0.539,0.513,0.946,1.055,0.932H289.929z"/>
	<path id="Path_244-2_2_" fill="#FFFFFF" d="M289.929,178.469c-0.531,0.078-1.026-0.286-1.109-0.816v-0.054
		c-0.02-0.727,0.505-1.355,1.224-1.463c0.606,0.038,1.097,0.506,1.163,1.109C291.16,177.921,290.607,178.45,289.929,178.469z"/>
	<path id="Path_196-2_2_" fill="#4491EF" d="M64.248,58.332c0.156-0.764,0.137-1.554-0.054-2.31
		c-0.293-2.218-0.116-4.497-0.231-6.715c-0.062-1.54,0.986-2.564,2.272-3.265c0.733-0.368,1.509-0.642,2.31-0.816
		c2.741-0.408,5.483-1.163,8.278-1.163c0.882-0.065,1.759-0.183,2.626-0.354c0.6-0.075,1.206-0.093,1.81-0.054
		c0.53-0.013,0.972,0.402,0.993,0.932c-0.003,0.189-0.065,0.372-0.177,0.524c-0.14,0.199-0.256,0.414-0.347,0.639
		c-0.728,1.424-0.973,3.045-0.701,4.62c0.639,3.327,3.673,4.898,6.931,4.197c1.119-0.253,2.135-0.841,2.911-1.686
		c1.579-1.633,1.402-4.32,0.647-5.722c-0.445-0.84-1.016-1.606-1.694-2.272c-0.321-0.281-0.51-0.683-0.524-1.109
		c-0.062-0.816,0.231-1.224,1.047-1.348c4.205-0.578,8.286-1.278,12.544-1.54c1.773-0.103,3.502,0.579,4.728,1.864
		c0.19,0.246,0.365,0.503,0.524,0.77c0.353,0.963,0.611,1.959,0.77,2.972c0.231,1.463,0.524,2.98,0.816,4.436
		c0.177,0.878,0.231,0.878,1.109,0.701c2.001-0.574,4.101-0.713,6.16-0.408c3.197,0.614,5.479,3.453,5.39,6.707
		c0.06,2.691-0.875,5.309-2.626,7.354c-1.047,1.186-2.587,1.74-4.127,2.326c-0.857,0.267-1.736,0.46-2.626,0.578
		c-0.77,0.123-0.77,0.177-0.816,0.939c-0.046,0.762,0.054,1.686,0.116,2.503c0.177,3.034,0.231,6.068,0.408,9.048
		c0.066,1.132-0.496,2.209-1.463,2.803c-0.657,0.467-1.418,0.766-2.218,0.87c-3.319,0.408-6.646,0.993-10.011,1.402
		c-2.272,0.231-4.62,0.293-6.884,0.639c-4.027,0.585-8.047,0.939-12.021,1.694c-2.31,0.47-4.782,0.701-7.177,0.993
		c-0.866,0.108-1.745,0.008-2.564-0.293c-0.765-0.247-1.327-0.901-1.455-1.694c-0.824-3.558-1.756-7.115-2.31-10.735
		c0-0.177-0.062-0.293-0.062-0.462c-0.054-0.531-0.285-0.647-0.87-0.531c-2.048,0.529-4.214,0.367-6.16-0.462
		c-0.459-0.165-0.877-0.428-1.224-0.77c-1.068-0.827-2.046-1.764-2.919-2.795c-1.204-1.342-1.832-3.104-1.748-4.905
		c-0.027-1.554,0.313-3.092,0.993-4.489c0.756-1.591,2.158-2.783,3.85-3.273c1.583-0.51,3.273-0.59,4.898-0.231
		C63.667,58.461,63.966,58.424,64.248,58.332z M103.052,75.427c-0.237,0.012-0.472,0.051-0.701,0.116
		c-1.415,0.507-2.858,0.937-4.32,1.286c-1.633,0.347-3.203,0.701-5.013,1.109c1.54,0.932,2.972,1.686,4.728,1.748
		c0.964,0.053,1.921-0.191,2.741-0.701C101.87,78.287,102.827,76.96,103.052,75.427l0.062-0.062L103.052,75.427z M61.099,59.21
		c-0.73,0.093-1.452,0.248-2.156,0.462c-2.626,1.109-4.32,2.919-4.258,5.891v0.354c-0.133,2.885,1.38,5.597,3.904,7
		c1.739,0.906,3.735,1.194,5.66,0.816c1.764-0.232,3.285-1.355,4.027-2.972c1.256-2.762,1.256-5.932,0-8.694
		c-0.223-0.422-0.497-0.815-0.816-1.17C65.767,59.284,63.368,58.648,61.099,59.21L61.099,59.21z M113.555,66.471
		c1.008-0.127,1.991-0.402,2.919-0.816c1.585-0.656,2.843-1.917,3.496-3.504c0.646-1.345,0.947-2.83,0.878-4.32
		c-0.231-3.265-1.54-5.013-4.205-5.714c-0.822-0.216-1.658-0.373-2.503-0.47c-0.391-0.036-0.785-0.015-1.17,0.062
		c-0.932,0.293-1.864,0.639-2.741,0.986c-3.504,1.54-4.027,4.674-3.85,8.001c0.057,0.359,0.155,0.711,0.293,1.047
		c0.314,0.841,0.79,1.613,1.402,2.272C109.469,65.574,111.462,66.467,113.555,66.471z M104.315,67.927
		c-1.881,1.162-4.035,1.807-6.245,1.871c-2.007,0.133-4.022,0.035-6.006-0.293c-2.247-0.341-4.47-0.83-6.653-1.463
		c-0.466-0.182-0.975-0.222-1.463-0.116c-1.095,0.525-1.779,1.643-1.748,2.857c0.47-0.347,0.77-0.87,1.286-1.163
		c0.423,1.244,1.145,2.365,2.102,3.265c0.427,0.541,1.061,0.878,1.748,0.932c2.599,0.461,5.239,0.657,7.878,0.585
		c2.036-0.188,4.048-0.577,6.006-1.163c0.994-0.283,1.94-0.717,2.803-1.286c0.408-0.293,0.932-0.585,0.932-1.224
		C104.943,69.761,104.725,68.805,104.315,67.927L104.315,67.927z"/>
	<path id="Path_211-2_2_" fill="#FFFFFF" d="M61.099,59.21c2.207-0.605,4.569,0.042,6.16,1.686c0.372,0.31,0.654,0.714,0.816,1.17
		c1.252,2.763,1.252,5.931,0,8.694c-0.736,1.622-2.26,2.747-4.027,2.972c-1.925,0.378-3.921,0.09-5.66-0.816
		c-2.102-1.047-4.258-3.966-3.912-7c0.062-0.116,0-0.231,0-0.354c-0.054-3.034,1.694-4.836,4.266-5.891
		C59.519,59.474,60.306,59.32,61.099,59.21z M68.515,66.094c-0.026-0.263-0.085-0.522-0.177-0.77c-0.878-3.15-3.619-3.15-5.39-1.987
		c-1.35,0.987-1.935,2.716-1.463,4.32c0.359,1.457,1.553,2.56,3.034,2.803c1.512,0.309,3.03-0.499,3.619-1.925
		c0.401-0.75,0.526-1.616,0.354-2.449L68.515,66.094z"/>
	<path id="Path_212-2_2_" fill="#FFFFFF" d="M113.555,66.471c-2.084,0.015-4.077-0.856-5.483-2.395
		c-0.6-0.681-1.074-1.464-1.402-2.31c-0.178-0.324-0.279-0.685-0.293-1.055c-0.116-3.265,0.408-6.415,3.85-7.993
		c0.895-0.382,1.81-0.714,2.741-0.993c0.376-0.134,0.784-0.153,1.17-0.054c0.816,0.169,1.686,0.293,2.503,0.462
		c2.626,0.701,4.027,2.51,4.205,5.722c0.038,1.488-0.262,2.965-0.878,4.32c-0.615,1.609-1.887,2.881-3.496,3.496
		C115.54,66.063,114.559,66.332,113.555,66.471z M110.752,60.226c0.126,1.978,1.832,3.479,3.81,3.352
		c0.437-0.028,0.866-0.136,1.265-0.318c2.245-1.074,3.326-3.663,2.51-6.014c-0.661-1.645-2.408-2.577-4.143-2.21
		C111.923,55.679,110.461,57.884,110.752,60.226z"/>
	<path id="Path_213-2_2_" fill="#FFFFFF" d="M104.338,67.958c0.446,0.905,0.647,1.911,0.585,2.919c0,0.585-0.531,0.932-0.939,1.224
		c-0.854,0.58-1.799,1.015-2.795,1.286c-1.965,0.568-3.978,0.958-6.014,1.163c-2.64,0.186-5.293-0.009-7.878-0.578
		c-0.687-0.06-1.319-0.4-1.748-0.939c-0.916-0.933-1.632-2.044-2.102-3.265c-0.524,0.231-0.816,0.816-1.278,1.17
		c-0.034-1.216,0.651-2.339,1.748-2.865c0.486-0.107,0.992-0.066,1.455,0.116c2.218,0.585,4.382,1.055,6.653,1.463
		c1.99,0.271,4,0.369,6.006,0.293C100.26,69.785,102.42,69.105,104.338,67.958z"/>
	<path id="Path_214-2_2_" fill="#FFFFFF" d="M103.052,75.427c-0.223,1.548-1.177,2.895-2.564,3.619
		c-0.838,0.467-1.782,0.708-2.741,0.701c-1.701-0.169-3.329-0.774-4.728-1.756c1.81-0.408,3.381-0.77,5.013-1.109
		c1.465-0.336,2.908-0.763,4.32-1.278C102.572,75.504,102.809,75.444,103.052,75.427z"/>
	<path id="Path_215-2_2_" fill="#FFFFFF" d="M103.052,75.427l0.062-0.062L103.052,75.427z"/>
	<path id="Path_239-2_2_" fill="#4491EF" d="M68.515,66.094c0.172,0.833,0.047,1.699-0.354,2.449
		c-0.612,1.405-2.112,2.203-3.619,1.925c-1.517-0.166-2.749-1.303-3.034-2.803c-0.494-1.605,0.096-3.346,1.463-4.32
		c1.748-1.224,4.489-1.224,5.39,1.987C68.444,65.578,68.496,65.835,68.515,66.094z M63.964,66.864
		c0.054,0.639,0.347,0.816,0.87,0.77c0.647-0.062,0.932-0.647,0.878-1.348c-0.054-0.701-0.354-0.816-0.993-0.701
		c-0.639,0.116-0.878,0.531-0.77,1.286L63.964,66.864z"/>
	<path id="Path_240-2_2_" fill="#4491EF" d="M110.752,60.257c-0.268-2.356,1.218-4.558,3.504-5.19
		c1.737-0.373,3.49,0.565,4.143,2.218c0.804,2.349-0.274,4.928-2.51,6.006c-1.838,0.827-3.999,0.008-4.827-1.83
		C110.891,61.08,110.786,60.673,110.752,60.257z M114.141,60.727c0.774,0.001,1.402-0.626,1.403-1.4c0-0.021,0-0.042-0.001-0.063
		v-0.231c-0.086-0.671-0.699-1.145-1.37-1.059c-0.011,0.001-0.021,0.003-0.032,0.005c-0.771,0.106-1.31,0.817-1.204,1.588
		c0.008,0.056,0.019,0.112,0.034,0.168C113.086,60.488,113.44,60.842,114.141,60.727z"/>
	<path id="Path_245-2_2_" fill="#FFFFFF" d="M63.964,66.849c-0.123-0.816,0.116-1.163,0.77-1.224
		c0.655-0.062,0.993,0.062,0.993,0.701c0.162,0.56-0.16,1.145-0.72,1.307c-0.052,0.015-0.105,0.026-0.158,0.033
		C64.248,67.665,64.041,67.488,63.964,66.849z"/>
	<path id="Path_246-2_2_" fill="#FFFFFF" d="M114.141,60.727c-0.77,0.116-1.109-0.177-1.17-0.993
		c-0.181-0.779,0.303-1.557,1.082-1.738c0.029-0.007,0.059-0.013,0.088-0.018c0.672-0.071,1.284,0.39,1.402,1.055
		c0.137,0.755-0.356,1.481-1.109,1.633C114.372,60.781,114.31,60.781,114.141,60.727z"/>
	<path id="Path_196-2-2" fill="#4491EF" d="M317.197,122.57c1.441-0.316,2.939-0.245,4.343,0.208c1.5,0.431,2.743,1.485,3.411,2.895
		c0.604,1.239,0.908,2.603,0.886,3.981c0.074,1.593-0.479,3.152-1.54,4.343c-0.772,0.916-1.639,1.747-2.587,2.48
		c-0.308,0.303-0.678,0.534-1.086,0.678c-1.704,0.721-3.597,0.864-5.39,0.408c-0.516-0.1-0.716,0-0.77,0.47
		c0,0.154-0.054,0.254-0.054,0.408c-0.462,3.211-1.294,6.361-2.018,9.518c-0.104,0.717-0.605,1.314-1.294,1.54
		c-0.738,0.272-1.531,0.359-2.31,0.254c-2.118-0.254-4.289-0.462-6.361-0.878c-3.511-0.67-7.085-0.986-10.65-1.54
		c-2.018-0.308-4.081-0.362-6.099-0.57c-3.003-0.362-5.945-0.878-8.894-1.24c-0.707-0.093-1.381-0.358-1.964-0.77
		c-0.853-0.53-1.349-1.484-1.294-2.487c0.154-2.634,0.208-5.321,0.362-8.009c0.054-0.724,0.1-1.502,0.1-2.225
		c0-0.724-0.046-0.724-0.724-0.824c-0.784-0.108-1.557-0.283-2.31-0.524c-1.34-0.516-2.688-0.978-3.619-2.118
		c-1.54-1.816-2.362-4.134-2.31-6.515c-0.073-2.876,1.936-5.387,4.759-5.945c1.832-0.273,3.702-0.149,5.483,0.362
		c0.77,0.154,0.824,0.154,0.978-0.624c0.262-1.286,0.516-2.634,0.724-3.927c0.138-0.897,0.362-1.779,0.67-2.634
		c0.145-0.231,0.301-0.455,0.47-0.67c1.082-1.145,2.616-1.751,4.189-1.656c3.773,0.254,7.393,0.878,11.112,1.394
		c0.724,0.1,0.986,0.462,0.932,1.186c-0.014,0.378-0.181,0.733-0.462,0.986c-0.601,0.591-1.108,1.272-1.502,2.018
		c-0.844,1.65-0.619,3.645,0.57,5.067c0.688,0.749,1.588,1.27,2.58,1.494c2.895,0.624,5.591-0.77,6.16-3.719
		c0.241-1.391,0.025-2.823-0.616-4.081c-0.082-0.2-0.186-0.391-0.308-0.57c-0.104-0.134-0.161-0.3-0.162-0.47
		c0.021-0.47,0.415-0.837,0.886-0.824c0.534-0.035,1.071-0.017,1.602,0.054c0.763,0.148,1.535,0.251,2.31,0.308
		c2.48,0,4.913,0.67,7.339,1.032c0.7,0.155,1.378,0.398,2.018,0.724c1.14,0.624,2.071,1.502,2.018,2.895
		c-0.108,1.964,0.054,3.981-0.208,5.945c-0.172,0.678-0.19,1.386-0.054,2.071C316.733,122.541,316.965,122.575,317.197,122.57z
		 M282.044,137.563l0.054,0.054c0.444,2.233,2.429,3.825,4.705,3.773c1.504-0.141,2.945-0.672,4.181-1.54
		c-1.602-0.362-2.996-0.678-4.443-0.986c-1.305-0.304-2.59-0.685-3.85-1.14c-0.201-0.055-0.408-0.089-0.616-0.1L282.044,137.563z
		 M319.268,123.248c-2.011-0.501-4.138,0.063-5.637,1.494c-0.28,0.318-0.522,0.667-0.724,1.04c-1.109,2.447-1.109,5.254,0,7.701
		c0.662,1.428,2.006,2.42,3.565,2.634c1.707,0.333,3.477,0.078,5.021-0.724c2.24-1.239,3.581-3.643,3.458-6.199v-0.347
		c0.054-2.634-1.448-4.235-3.773-5.221c-0.623-0.193-1.262-0.329-1.91-0.408V123.248z M277.647,127.537
		c0.539-0.587,0.96-1.272,1.24-2.018c0.125-0.299,0.213-0.612,0.262-0.932c0.154-2.949-0.308-5.737-3.411-7.085
		c-0.77-0.308-1.602-0.616-2.433-0.878c-0.34-0.067-0.687-0.085-1.032-0.054c-0.75,0.09-1.493,0.229-2.225,0.416
		c-2.31,0.624-3.511,2.172-3.719,5.067c-0.066,1.327,0.198,2.65,0.77,3.85c0.578,1.395,1.686,2.503,3.08,3.08
		c0.823,0.364,1.695,0.608,2.587,0.724C274.627,129.711,276.402,128.922,277.647,127.537L277.647,127.537z M280.958,131.002
		c-0.35,0.774-0.531,1.614-0.531,2.464c0,0.57,0.462,0.824,0.824,1.086c0.768,0.501,1.606,0.885,2.487,1.14
		c1.734,0.522,3.517,0.868,5.321,1.032c2.34,0.064,4.68-0.109,6.984-0.516c0.606-0.053,1.164-0.354,1.54-0.832
		c0.847-0.799,1.487-1.793,1.864-2.895c0.462,0.262,0.724,0.724,1.132,1.04c0.039-1.076-0.567-2.073-1.54-2.533
		c-0.431-0.099-0.883-0.064-1.294,0.1c-1.933,0.561-3.901,0.993-5.891,1.294c-1.76,0.291-3.548,0.379-5.329,0.262
		c-1.956-0.061-3.861-0.632-5.529-1.656L280.958,131.002z"/>
	<path id="Path_211-2-2" fill="#FFFFFF" d="M321.386,123.656c2.31,0.932,3.85,2.533,3.773,5.221c0,0.108-0.046,0.208,0,0.316
		c0.152,2.565-1.201,4.985-3.465,6.199c-1.539,0.807-3.308,1.063-5.013,0.724c-1.566-0.198-2.916-1.195-3.565-2.634
		c-1.109-2.447-1.109-5.254,0-7.701c0.143-0.405,0.393-0.765,0.724-1.04c1.402-1.45,3.482-2.022,5.429-1.494
		C319.982,123.342,320.689,123.478,321.386,123.656z M312.7,129.347c-0.154,0.738-0.043,1.508,0.316,2.172
		c0.52,1.264,1.865,1.979,3.203,1.702c1.313-0.21,2.372-1.187,2.687-2.48c0.425-1.428-0.092-2.969-1.294-3.85
		c-1.54-1.032-3.981-1.032-4.759,1.763c-0.08,0.216-0.132,0.441-0.154,0.67L312.7,129.347z"/>
	<path id="Path_212-2-2" fill="#FFFFFF" d="M270.2,129.039c-1.414-0.548-2.533-1.666-3.08-3.08c-0.545-1.209-0.808-2.525-0.77-3.85
		c0.154-2.842,1.394-4.451,3.719-5.067c0.724-0.154,1.54-0.262,2.225-0.416c0.342-0.084,0.701-0.065,1.032,0.054
		c0.827,0.248,1.639,0.541,2.433,0.878c3.08,1.394,3.511,4.189,3.411,7.085c-0.016,0.326-0.105,0.645-0.262,0.932
		c-0.293,0.739-0.712,1.422-1.24,2.018c-1.245,1.364-3.012,2.134-4.859,2.118C271.916,129.594,271.04,129.369,270.2,129.039z
		 M275.267,124.172c0.267-2.092-1.046-4.062-3.08-4.62c-1.536-0.318-3.08,0.509-3.665,1.964c-0.722,2.082,0.232,4.374,2.218,5.329
		c1.597,0.731,3.484,0.028,4.215-1.569c0.162-0.355,0.258-0.737,0.282-1.126L275.267,124.172z"/>
	<path id="Path_213-2-2" fill="#FFFFFF" d="M280.958,131.002c-0.4,0.798-0.578,1.689-0.516,2.58c0,0.524,0.462,0.832,0.824,1.086
		c0.757,0.516,1.595,0.901,2.48,1.14c1.741,0.505,3.525,0.85,5.329,1.032c2.338,0.168,4.689-0.006,6.977-0.516
		c0.605-0.051,1.162-0.349,1.54-0.824c0.81-0.828,1.442-1.814,1.856-2.895c0.47,0.208,0.724,0.724,1.14,1.032
		c0.025-1.073-0.576-2.062-1.54-2.533c-0.432-0.097-0.884-0.06-1.294,0.108c-1.964,0.516-3.85,0.924-5.891,1.286
		c-1.765,0.246-3.548,0.333-5.329,0.262C284.564,132.613,282.655,132.012,280.958,131.002z"/>
	<path id="Path_214-2-2" fill="#FFFFFF" d="M282.098,137.617c0.202,1.38,1.064,2.576,2.31,3.203
		c0.742,0.419,1.581,0.634,2.433,0.624c1.503-0.147,2.942-0.678,4.181-1.54c-1.602-0.362-2.996-0.67-4.443-0.978
		c-1.307-0.297-2.593-0.678-3.85-1.14c-0.195-0.087-0.403-0.139-0.616-0.154L282.098,137.617z"/>
	<path id="Path_215-2-2" fill="#FFFFFF" d="M282.098,137.617l-0.054-0.054L282.098,137.617z"/>
	<path id="Path_239-2-2" fill="#4491EF" d="M312.854,128.677c0.77-2.849,3.211-2.849,4.759-1.763c1.217,0.87,1.739,2.422,1.294,3.85
		c-0.255,1.326-1.345,2.332-2.688,2.48c-1.335,0.255-2.667-0.453-3.203-1.702c-0.358-0.664-0.47-1.433-0.316-2.172
		C312.72,129.133,312.772,128.9,312.854,128.677z M316.704,130.017c0.1-0.67-0.054-0.978-0.67-1.14
		c-0.616-0.162-0.832,0.054-0.886,0.624c-0.054,0.57,0.208,1.14,0.77,1.186c0.562,0.046,0.724-0.1,0.77-0.67H316.704z"/>
	<path id="Path_240-2-2" fill="#4491EF" d="M270.716,126.867c-1.978-0.962-2.929-3.247-2.218-5.329
		c0.576-1.464,2.128-2.295,3.665-1.964c2.024,0.572,3.33,2.532,3.08,4.62c-0.158,1.779-1.729,3.093-3.508,2.935
		C271.384,127.099,271.04,127.01,270.716,126.867z M273.304,123.71c0.176-0.657-0.215-1.333-0.872-1.509
		c-0.053-0.014-0.106-0.025-0.16-0.032c-0.583-0.098-1.135,0.295-1.233,0.878c-0.003,0.015-0.005,0.031-0.007,0.046v0.208
		c-0.03,0.684,0.501,1.263,1.185,1.293c0.018,0.001,0.037,0.001,0.055,0.001C272.888,124.696,273.204,124.38,273.304,123.71
		L273.304,123.71z"/>
	<path id="Path_245-2-2" fill="#FFFFFF" d="M316.735,130.017c0.1-0.724-0.108-1.032-0.67-1.086s-0.886,0.054-0.886,0.624
		c-0.141,0.499,0.149,1.019,0.648,1.16c0.04,0.011,0.081,0.02,0.122,0.026C316.473,130.74,316.681,130.586,316.735,130.017z"/>
	<path id="Path_246-2-2" fill="#FFFFFF" d="M272.272,124.588c0.67,0.108,0.978-0.154,1.032-0.878
		c0.162-0.678-0.257-1.36-0.936-1.521c-0.032-0.008-0.064-0.014-0.096-0.019c-0.593-0.07-1.138,0.336-1.24,0.924
		c-0.127,0.669,0.31,1.316,0.978,1.448C272.064,124.642,272.118,124.642,272.272,124.588z"/>
	<path id="Path_199-2_2_" fill="#4491EF" d="M166.119,55.691c0.122-0.396,0.161-0.813,0.115-1.224
		c0.055-2.736,0.289-5.465,0.701-8.17c0.177-1.633,1.402-2.449,2.857-3.034c1.34-0.42,2.739-0.618,4.143-0.585
		c3.327-0.231,6.592-0.062,9.918,0c0.523-0.009,1.043,0.069,1.54,0.231c0.878,0.177,1.109,0.77,0.639,1.54
		c-0.285,0.462-0.578,0.932-0.816,1.402c-0.528,1.008-0.808,2.127-0.816,3.265c-0.231,2.564,1.465,4.905,3.973,5.483
		c1.979,0.639,4.147,0.246,5.775-1.047c1.608-1.481,2.161-3.787,1.402-5.837c-0.355-0.911-0.826-1.773-1.402-2.564
		c-0.363-0.369-0.516-0.895-0.408-1.402c0.231-0.77,0.347-0.932,1.163-0.993c3.85-0.054,7.701-0.293,11.551-0.116
		c1.173-0.01,2.338,0.188,3.442,0.585c2.164,0.87,3.388,2.31,3.442,4.667c0.062,1.748,0.177,3.619,0.293,5.39
		c0.123,1.54,0.123,1.54,1.694,1.402c1.753-0.254,3.538-0.155,5.252,0.293c3.573,0.818,5.859,4.315,5.175,7.916
		c-0.282,2.37-1.3,4.592-2.911,6.353c-1.64,1.81-3.681,2.456-5.953,2.803c-0.718,0.079-1.442,0.1-2.164,0.062
		c-0.578-0.062-0.816,0.116-0.87,0.77c-0.062,1.402-0.239,2.803-0.354,4.205c-0.177,2.387-0.462,4.728-0.524,7.177
		c-0.062,2.449-1.748,3.904-4.081,3.966c-3.974,0.116-7.939,0.231-11.905,0.062c-3.619-0.177-7.239-0.123-10.85-0.177
		c-4.089-0.062-8.17,0.347-12.259,0.293c-1.204,0.064-2.411,0.044-3.612-0.062c-0.376-0.041-0.748-0.118-1.109-0.231
		c-1.322-0.214-2.297-1.349-2.31-2.688c-0.169-1.751-0.344-3.501-0.524-5.252c-0.177-2.041-0.408-4.02-0.408-6.16
		c0-0.878-0.062-0.878-0.932-0.77c-0.895,0.135-1.807,0.096-2.687-0.116c-1.699-0.276-3.326-0.891-4.782-1.81
		c-0.404-0.243-0.759-0.559-1.047-0.932c-1.54-2.156-2.688-4.436-2.626-7.177c0.041-1.772,0.543-3.502,1.455-5.021
		c1.402-2.387,3.558-3.319,6.245-3.319c1.171-0.066,2.343,0.113,3.442,0.524C165.357,55.691,165.688,55.883,166.119,55.691z
		 M170.432,63.622c0.008-0.725-0.07-1.449-0.231-2.156c-0.585-2.572-1.81-4.436-4.489-5.136c-1.653-0.477-3.402-0.516-5.075-0.116
		c-2.865,0.701-4.905,2.31-5.39,5.306c-0.054,0.408-0.169,0.816-0.231,1.224c-0.231,3.08,1.055,5.39,3.442,7.177
		c0.884,0.582,1.877,0.98,2.919,1.17c2.741,0.47,5.252,0.177,7.239-1.987c1.355-1.432,1.763-3.357,1.817-5.46V63.622z
		 M224.405,62.336c-0.115-3.789-1.286-5.19-3.789-6.237c-0.783-0.301-1.583-0.558-2.395-0.77c-0.34-0.095-0.694-0.134-1.047-0.116
		c-1.865,0.236-3.682,0.756-5.39,1.54c-2.68,1.109-4.374,4.728-3.789,7.701c0.333,2.426,2.004,4.457,4.32,5.252
		c2.31,0.816,4.667,1.286,7,0.293c3.519-1.509,4.744-4.543,5.09-7.639V62.336z M181.859,78.115h2.387
		c0.354,0,0.585-0.116,0.585-0.524c0-1.224,0.062-2.51,0.115-3.735c0-0.347-0.115-0.585-0.524-0.585c-1.54,0-3.15,0-4.667,0.062
		c-0.196-0.055-0.401,0.059-0.456,0.256c-0.008,0.03-0.013,0.06-0.014,0.091v3.85c0,0.408,0.177,0.531,0.585,0.531
		C180.396,78.115,181.159,78.115,181.859,78.115L181.859,78.115z M188.02,73.217L188.02,73.217
		c-0.701,0.054-1.402,0.054-2.156,0.054c-0.354,0-0.585,0.116-0.585,0.524c0,1.232,0,2.51-0.062,3.735
		c0,0.408,0.177,0.585,0.531,0.585h4.081c0.293,0,0.524-0.116,0.524-0.462c0.062-1.232,0.115-2.51,0.177-3.735
		c0-0.408-0.115-0.647-0.585-0.647C189.36,73.271,188.721,73.217,188.02,73.217L188.02,73.217z M198.87,73.156L198.87,73.156
		c-0.701,0.062-1.394,0.062-2.156,0.062c-0.47,0-0.585,0.169-0.585,0.639v3.504c0,0.408,0.116,0.639,0.585,0.639h4.205
		c0.347,0,0.578-0.116,0.578-0.524c0-1.17,0-2.449,0.062-3.619c0-0.524-0.231-0.639-0.701-0.639
		C200.218,73.217,199.517,73.156,198.87,73.156L198.87,73.156z M181.929,78.638h-2.156c-0.408,0-0.647,0.123-0.647,0.585v3.327
		c0,0.47,0.177,0.639,0.647,0.639c1.402,0,2.919-0.054,4.374-0.054c0.347,0,0.585-0.116,0.585-0.524c0-1.109,0-2.218,0.054-3.327
		c0-0.524-0.231-0.647-0.701-0.647H181.929z M176.33,78.176L176.33,78.176c0.581-0.051,1.165-0.072,1.748-0.062
		c0.47,0,0.639-0.177,0.639-0.639c-0.02-1.131,0.021-2.262,0.123-3.388c0.054-0.701-0.062-0.77-0.824-0.77s-1.455,0.054-2.272,0.116
		c-2.564,0.116-2.564,0.116-2.218,2.626c0.347,2.156,0.347,2.156,2.51,2.102c0.116-0.062,0.177,0,0.293,0L176.33,78.176z
		 M198.847,83.135h2.164c0.347,0,0.524-0.177,0.524-0.47c0-1.163,0-2.387,0.062-3.496c0-0.408-0.239-0.531-0.585-0.531h-4.204
		c-0.408,0-0.585,0.177-0.585,0.531v3.319c0,0.47,0.177,0.647,0.647,0.585S198.146,83.135,198.847,83.135L198.847,83.135z
		 M187.766,78.638h-1.925c-0.524,0-0.701,0.239-0.647,0.701v3.211c0,0.47,0.177,0.639,0.647,0.639h3.719
		c0.408,0,0.578-0.116,0.639-0.578c0.115-1.055,0.062-2.218,0.115-3.273c0-0.462-0.177-0.639-0.639-0.578
		C189.045,78.655,188.405,78.613,187.766,78.638L187.766,78.638z M193.364,73.248L193.364,73.248
		c-0.639,0.054-1.224,0.054-1.925,0.054c-0.293,0-0.524,0.116-0.524,0.47c0,1.224,0,2.51-0.062,3.735
		c0,0.408,0.239,0.524,0.585,0.524h3.619c0.293,0,0.524-0.116,0.524-0.47c0-1.163,0.177-2.449,0.115-3.612
		c0-0.47-0.169-0.701-0.701-0.701H193.364z M193.364,78.638h-1.925c-0.293,0-0.524,0.062-0.585,0.408
		c-0.054,1.109-0.054,2.31-0.116,3.388c0,0.408,0.177,0.639,0.647,0.639h3.612c0.47,0,0.585-0.177,0.585-0.639
		c0-1.055,0-2.156,0.062-3.15c0-0.524-0.239-0.701-0.701-0.647H193.364z M202.004,75.373v2.041c0,0.408,0.169,0.585,0.578,0.524
		h2.865c0.263,0.051,0.518-0.121,0.569-0.384c0.005-0.026,0.008-0.052,0.009-0.078v-0.062c0.177-1.224,0.408-2.51,0.585-3.735
		c0.062-0.408-0.054-0.578-0.462-0.578h-1.756c-0.701,0-1.633-0.293-2.218,0.116C201.65,73.795,202.058,74.757,202.004,75.373
		L202.004,75.373z M176.33,78.584h-1.401c-0.701,0-0.816,0.116-0.639,0.701c0.285,0.993,0.578,2.041,0.87,3.034
		c0.066,0.188,0.19,0.35,0.354,0.462c0.924,0.373,1.939,0.457,2.911,0.239c0.647-0.239,0.239-1.17,0.293-1.756v-0.347
		c-0.054-0.701,0.293-1.54-0.169-2.102S177.147,78.7,176.33,78.584L176.33,78.584z M205.793,78.7
		c-1.067-0.105-2.141-0.126-3.211-0.062c-0.408,0-0.524,0.239-0.524,0.585v2.156c0.062,2.164-0.408,1.81,2.041,1.81h0.092
		c0.325,0.002,0.611-0.212,0.701-0.524c0.363-1.305,0.656-2.629,0.878-3.966L205.793,78.7z"/>
	<path id="Path_221-2_2_" fill="#FFFFFF" d="M170.432,63.645c0.074,2.003-0.564,3.968-1.802,5.544
		c-1.987,2.218-4.497,2.51-7.239,1.987c-1.047-0.17-2.044-0.569-2.919-1.17c-2.387-1.748-3.735-4.081-3.442-7.177
		c0.062-0.408,0.177-0.816,0.231-1.224c0.47-3.08,2.572-4.62,5.39-5.313c1.677-0.367,3.418-0.325,5.075,0.123
		c2.741,0.693,3.966,2.626,4.489,5.129C170.375,62.232,170.448,62.938,170.432,63.645z M165.242,64.693
		c-0.018-1.399-0.774-2.684-1.987-3.381c-2.31-1.455-6.415,0.062-6.592,3.558c-0.083,1.64,0.75,3.191,2.164,4.027
		c1.531,1.272,3.803,1.061,5.075-0.47l0.054-0.054C164.918,67.442,165.188,66.271,165.242,64.693z"/>
	<path id="Path_222-2_2_" fill="#FFFFFF" d="M224.405,62.359c-0.347,3.08-1.54,6.16-5.075,7.701c-2.31,0.986-4.667,0.524-7-0.293
		c-2.316-0.794-3.987-2.826-4.32-5.252c-0.524-2.98,1.109-6.538,3.789-7.701c1.712-0.774,3.528-1.293,5.39-1.54
		c0.353-0.049,0.713-0.01,1.047,0.116c0.77,0.231,1.54,0.462,2.395,0.77C223.119,57.108,224.29,58.571,224.405,62.359z
		 M212.739,68.373c1.979,0.054,3.265-0.47,4.143-1.748c0.678-1.069,1.061-2.3,1.109-3.565c0.115-1.083-0.351-2.145-1.224-2.795
		c-1.315-1.048-3.047-1.416-4.674-0.993c-1.142,0.156-2.172,0.767-2.857,1.694c-0.999,1.594-1.043,3.608-0.115,5.244
		C209.83,67.548,211.224,68.381,212.739,68.373z"/>
	<path id="Path_223-2_2_" fill="#FFFFFF" d="M181.859,78.115h-2.164c-0.408,0-0.585-0.177-0.585-0.524v-3.735
		c-0.047-0.207,0.083-0.414,0.29-0.461c0.021-0.005,0.042-0.008,0.064-0.009h0.116c1.54,0,3.15,0,4.667-0.054
		c0.408,0,0.524,0.177,0.524,0.585c-0.054,1.224-0.054,2.503-0.116,3.735c0,0.408-0.231,0.524-0.585,0.524
		C183.4,78.115,182.629,78.115,181.859,78.115z"/>
	<path id="Path_224-2_2_" fill="#FFFFFF" d="M188.02,73.217h2.041c0.47,0,0.647,0.231,0.585,0.639
		c-0.062,1.224-0.116,2.51-0.177,3.735c0,0.347-0.231,0.47-0.524,0.47h-4.081c-0.408,0-0.585-0.177-0.524-0.585
		c0-1.224,0.054-2.51,0.054-3.735c0-0.408,0.231-0.524,0.585-0.524C186.658,73.271,187.341,73.271,188.02,73.217L188.02,73.217z"/>
	<path id="Path_225-2_2_" fill="#FFFFFF" d="M198.847,73.156h2.048c0.462,0,0.701,0.116,0.701,0.639c0,1.17-0.062,2.456-0.062,3.619
		c0,0.408-0.231,0.524-0.585,0.524h-4.197c-0.47,0-0.585-0.231-0.585-0.639v-3.504c0-0.408,0.177-0.639,0.585-0.639
		C197.449,73.217,198.15,73.217,198.847,73.156L198.847,73.156z"/>
	<path id="Path_226-2_2_" fill="#FFFFFF" d="M181.929,78.638h2.156c0.47,0,0.77,0.123,0.701,0.647
		c-0.054,1.109-0.054,2.218-0.054,3.327c0,0.408-0.239,0.524-0.585,0.524c-1.402,0-2.919,0-4.374,0.054
		c-0.47,0-0.647-0.169-0.647-0.639v-3.327c0-0.462,0.239-0.585,0.647-0.585H181.929z"/>
	<path id="Path_227-2_2_" fill="#FFFFFF" d="M176.33,78.176h-0.239c-2.218,0.054-2.218,0.054-2.503-2.102
		c-0.354-2.51-0.354-2.51,2.218-2.626c0.77-0.062,1.455-0.116,2.272-0.116s0.878,0.054,0.816,0.77
		c-0.054,1.109-0.115,2.31-0.115,3.388c0.051,0.302-0.152,0.588-0.454,0.639c-0.061,0.01-0.124,0.01-0.185,0
		c-0.604-0.011-1.208,0.009-1.81,0.062L176.33,78.176z"/>
	<path id="Path_228-2_2_" fill="#FFFFFF" d="M198.847,83.135h-2.156c-0.408,0-0.639-0.177-0.639-0.585v-3.327
		c0-0.408,0.169-0.524,0.578-0.524h4.204c0.347,0,0.585,0.062,0.585,0.524c0,1.17,0,2.395-0.062,3.504
		c0,0.347-0.177,0.462-0.524,0.462C200.31,83.135,199.548,83.135,198.847,83.135L198.847,83.135z"/>
	<path id="Path_229-2_2_" fill="#FFFFFF" d="M187.766,78.638h2.041c0.408,0,0.639,0.177,0.639,0.585
		c-0.054,1.055,0,2.218-0.115,3.265c-0.054,0.47-0.231,0.585-0.639,0.585h-3.735c-0.47,0-0.639-0.177-0.639-0.639v-3.211
		c0-0.462,0.169-0.701,0.639-0.701C186.554,78.619,187.16,78.657,187.766,78.638z"/>
	<path id="Path_230-2_2_" fill="#FFFFFF" d="M193.364,73.217h1.748c0.531,0,0.647,0.231,0.701,0.701
		c0.062,1.224-0.116,2.449-0.116,3.612c0,0.354-0.231,0.47-0.524,0.47h-3.619c-0.347,0-0.578-0.116-0.578-0.524
		c0-1.224,0-2.51,0.054-3.735c0-0.354,0.177-0.47,0.524-0.47C192.078,73.271,192.779,73.271,193.364,73.217z"/>
	<path id="Path_231-2_2_" fill="#FFFFFF" d="M193.364,78.638h1.633c0.47,0,0.701,0.177,0.701,0.647
		c-0.054,1.047-0.054,2.156-0.054,3.15c0,0.408-0.177,0.639-0.585,0.639h-3.619c-0.302,0.051-0.588-0.152-0.639-0.454
		c-0.01-0.061-0.01-0.124,0-0.185c0.054-1.109,0.054-2.31,0.116-3.388c0-0.347,0.231-0.408,0.585-0.408H193.364z"/>
	<path id="Path_232-2_2_" fill="#FFFFFF" d="M202.004,75.373c0.116-0.585-0.354-1.579,0.231-2.102
		c0.585-0.524,1.402-0.116,2.218-0.116h1.748c0.408,0,0.524,0.177,0.47,0.585c-0.239,1.224-0.408,2.51-0.585,3.735
		c0.004,0.285-0.223,0.519-0.508,0.524c-0.005,0-0.01,0-0.016,0h-2.911c-0.354,0-0.585-0.177-0.585-0.524
		C202.004,76.829,202.004,76.19,202.004,75.373z"/>
	<path id="Path_233-2_2_" fill="#FFFFFF" d="M176.33,78.584c0.816,0.116,1.686-0.293,2.218,0.231c0.408,0.47,0.115,1.34,0.169,2.102
		v0.347c-0.115,0.647,0.293,1.54-0.293,1.756c-0.971,0.237-1.992,0.153-2.911-0.239c-0.19-0.083-0.324-0.257-0.354-0.462
		c-0.293-0.993-0.639-2.041-0.87-3.034c-0.177-0.647-0.062-0.701,0.639-0.701L176.33,78.584z"/>
	<path id="Path_234-2_2_" fill="#FFFFFF" d="M205.793,78.7c-0.195,1.329-0.506,2.638-0.932,3.912
		c-0.087,0.314-0.375,0.529-0.701,0.524h-0.116c-2.395,0-1.987,0.347-2.041-1.81V79.17c0-0.354,0.116-0.585,0.524-0.585
		C203.617,78.566,204.707,78.605,205.793,78.7z"/>
	<path id="Path_242-2_2_" fill="#4491EF" d="M165.242,64.693c0.076,1.355-0.361,2.688-1.224,3.735
		c-1.27,1.519-3.517,1.754-5.075,0.531c-0.034,0-0.062-0.028-0.062-0.062c-1.34-0.993-2.31-2.31-2.156-4.027
		c0.177-3.558,4.258-5.013,6.592-3.558C164.487,62.042,165.211,63.313,165.242,64.693z M160.922,64.115
		c0.057-0.391-0.214-0.755-0.605-0.812c-0.011-0.002-0.023-0.003-0.034-0.004h-0.116c-0.602-0.057-1.153,0.342-1.286,0.932
		c-0.054,0.585,0.354,1.224,0.816,1.224c0.697-0.02,1.246-0.601,1.226-1.299C160.923,64.143,160.922,64.129,160.922,64.115
		L160.922,64.115z"/>
	<path id="Path_243-2_2_" fill="#4491EF" d="M212.739,68.373c-1.486,0.02-2.858-0.791-3.558-2.102
		c-0.931-1.639-0.886-3.656,0.116-5.252c0.676-0.936,1.711-1.55,2.857-1.694c1.624-0.415,3.349-0.051,4.667,0.986
		c0.876,0.651,1.342,1.718,1.224,2.803c-0.068,1.26-0.449,2.482-1.109,3.558C215.91,67.906,214.334,68.545,212.739,68.373z
		 M212.854,62.767c-0.028-0.512-0.45-0.913-0.963-0.916c-0.623,0.053-1.142,0.5-1.286,1.109c0.073,0.594,0.572,1.044,1.17,1.055
		c0.624-0.029,1.114-0.546,1.109-1.17v-0.062L212.854,62.767z"/>
	<path id="Path_248-2_2_" fill="#FFFFFF" d="M160.922,64.115c-0.015,0.69-0.538,1.263-1.224,1.34c-0.462,0-0.87-0.639-0.816-1.224
		c0.12-0.598,0.68-1.004,1.286-0.932c0.399-0.026,0.743,0.277,0.769,0.676c0.001,0.008,0.001,0.017,0.001,0.025L160.922,64.115z"/>
	<path id="Path_249-2_2_" fill="#FFFFFF" d="M212.854,62.767c0.069,0.626-0.37,1.194-0.993,1.286h-0.062
		c-0.587-0.029-1.072-0.467-1.163-1.047c0.098-0.635,0.643-1.105,1.286-1.109c0.479-0.034,0.896,0.327,0.93,0.806
		C212.854,62.725,212.854,62.746,212.854,62.767z"/>
	<path id="Path_199-2-2" fill="#4491EF" d="M217.629,179.354c1.099-0.41,2.271-0.591,3.442-0.531c2.68,0,4.844,0.939,6.245,3.327
		c0.909,1.52,1.411,3.25,1.455,5.021c0.062,2.741-1.109,5.021-2.626,7.177c-0.292,0.369-0.647,0.684-1.047,0.932
		c-1.461,0.915-3.089,1.53-4.79,1.81c-0.877,0.211-1.787,0.25-2.68,0.116c-0.878-0.116-0.932-0.116-0.932,0.77
		c0,2.095-0.239,4.081-0.408,6.122l-0.531,5.252c-0.013,1.325-0.967,2.454-2.272,2.688c-0.362,0.108-0.733,0.185-1.109,0.231
		c-1.204,0.105-2.413,0.126-3.619,0.062c-4.081,0.054-8.17-0.354-12.252-0.293c-3.619,0.054-7.239,0-10.85,0.169
		c-3.974,0.177-7.939,0.062-11.905-0.054c-2.31-0.062-4.027-1.463-4.081-3.966c-0.054-2.503-0.354-4.79-0.531-7.177
		c-0.116-1.402-0.293-2.803-0.347-4.205c-0.062-0.639-0.293-0.816-0.878-0.77c-0.719,0.038-1.44,0.017-2.156-0.062
		c-2.31-0.347-4.32-0.993-5.953-2.803c-1.613-1.763-2.634-3.988-2.919-6.361c-0.651-3.591,1.639-7.059,5.198-7.87
		c1.71-0.451,3.494-0.55,5.244-0.293c1.579,0.169,1.579,0.169,1.694-1.402c0.115-1.748,0.239-3.619,0.293-5.39
		c0.062-2.31,1.286-3.796,3.442-4.667c1.104-0.396,2.269-0.594,3.442-0.585c3.85-0.177,7.701,0.054,11.551,0.116
		c0.824,0.062,0.939,0.231,1.17,0.993c0.108,0.506-0.045,1.033-0.408,1.402c-0.578,0.789-1.05,1.651-1.402,2.564
		c-0.76,2.05-0.206,4.356,1.402,5.837c1.632,1.287,3.796,1.68,5.775,1.047c2.507-0.579,4.201-2.921,3.966-5.483
		c-0.007-1.138-0.287-2.258-0.816-3.265c-0.247-0.481-0.52-0.949-0.816-1.402c-0.47-0.816-0.231-1.402,0.639-1.54
		c0.496-0.165,1.017-0.243,1.54-0.231c3.327-0.062,6.599-0.231,9.926,0c1.402-0.04,2.8,0.157,4.135,0.585
		c1.463,0.578,2.688,1.394,2.865,3.034c0.408,2.703,0.642,5.43,0.701,8.163c-0.063,0.417-0.034,0.843,0.085,1.248
		C216.982,179.816,217.282,179.585,217.629,179.354z M214.009,193.061c1.987,2.164,4.489,2.449,7.239,1.987
		c1.039-0.19,2.029-0.589,2.911-1.17c2.395-1.81,3.681-4.081,3.442-7.177c-0.054-0.408-0.169-0.816-0.231-1.224
		c-0.462-3.034-2.51-4.62-5.39-5.306c-1.673-0.401-3.422-0.361-5.075,0.116c-2.687,0.701-3.912,2.564-4.497,5.136
		c-0.158,0.708-0.235,1.431-0.231,2.156C212.261,189.681,212.662,191.606,214.009,193.061L214.009,193.061z M163.309,193.939
		c2.31,0.993,4.667,0.524,7-0.293c2.312-0.801,3.98-2.829,4.32-5.252c0.578-2.972-1.109-6.592-3.796-7.701
		c-1.706-0.789-3.525-1.309-5.39-1.54c-0.353-0.019-0.707,0.02-1.047,0.115c-0.812,0.211-1.612,0.468-2.395,0.77
		c-2.51,1.047-3.673,2.449-3.796,6.237C158.581,189.388,159.805,192.422,163.309,193.939z M200.764,202.048
		c0.663,0.013,1.326-0.008,1.987-0.062c0.408,0,0.578-0.116,0.578-0.524v-3.85c-0.006-0.204-0.177-0.364-0.381-0.358
		c-0.027,0.001-0.055,0.005-0.081,0.012c-1.54-0.062-3.15-0.062-4.667-0.062c-0.408,0-0.531,0.231-0.531,0.585
		c0.062,1.224,0.123,2.51,0.123,3.735c0,0.408,0.231,0.524,0.578,0.524L200.764,202.048z M194.604,197.15
		c-0.693,0-1.34,0.054-1.925,0.054c-0.462,0-0.578,0.231-0.578,0.639c0.054,1.232,0.116,2.51,0.169,3.735
		c0,0.354,0.239,0.47,0.531,0.47h4.081c0.347,0,0.524-0.177,0.524-0.585c-0.054-1.224-0.054-2.51-0.054-3.735
		c0-0.408-0.239-0.524-0.585-0.524C195.998,197.204,195.305,197.204,194.604,197.15L194.604,197.15z M183.754,197.089
		c-0.639,0-1.34,0.062-1.979,0.062c-0.47,0-0.701,0.116-0.701,0.639c0.054,1.163,0.054,2.449,0.054,3.619
		c0,0.408,0.239,0.524,0.585,0.524h4.205c0.462,0,0.578-0.231,0.578-0.639v-3.504c0-0.47-0.116-0.639-0.578-0.639
		C185.148,197.15,184.454,197.15,183.754,197.089L183.754,197.089z M198.516,202.571c-0.462,0-0.701,0.115-0.701,0.647
		c0.062,1.109,0.062,2.21,0.062,3.319c0,0.408,0.231,0.531,0.585,0.531c1.455,0,2.972,0.054,4.374,0.054
		c0.462,0,0.639-0.177,0.639-0.639v-3.327c0-0.47-0.231-0.585-0.639-0.585L198.516,202.571L198.516,202.571z M206.278,202.109
		c0.116,0,0.177-0.062,0.293,0c2.156,0.054,2.156,0.054,2.51-2.102c0.347-2.51,0.347-2.51-2.218-2.626
		c-0.816-0.062-1.54-0.115-2.31-0.115c-0.77,0-0.878,0.054-0.816,0.77c0.096,1.127,0.135,2.258,0.115,3.388
		c0,0.462,0.177,0.639,0.647,0.639c0.583-0.01,1.167,0.01,1.748,0.062L206.278,202.109z M183.754,207.069
		c0.701,0,1.402-0.062,1.987-0.062c0.462,0.062,0.639-0.115,0.639-0.585v-3.327c0-0.347-0.177-0.524-0.585-0.524h-4.166
		c-0.354,0-0.585,0.115-0.585,0.524c0.062,1.109,0.062,2.31,0.062,3.504c0,0.293,0.169,0.47,0.524,0.47L183.754,207.069z
		 M192.917,202.687c-0.47-0.054-0.647,0.123-0.647,0.585c0.062,1.055,0,2.218,0.123,3.265c0.054,0.47,0.231,0.585,0.639,0.585h3.735
		c0.462,0,0.639-0.177,0.639-0.639v-3.211c0.062-0.462-0.115-0.701-0.639-0.701h-1.925c-0.634-0.023-1.268,0.016-1.894,0.115
		H192.917z M189.237,197.15h-1.602c-0.524,0-0.701,0.231-0.701,0.693c-0.054,1.17,0.116,2.456,0.116,3.619
		c0,0.354,0.239,0.47,0.531,0.47h3.612c0.354,0,0.585-0.116,0.585-0.524c-0.054-1.224-0.054-2.51-0.054-3.735
		c0-0.354-0.239-0.47-0.531-0.47c-0.693,0-1.278,0-1.925-0.054H189.237z M189.237,202.541h-1.54
		c-0.47-0.054-0.701,0.115-0.701,0.647c0.054,0.986,0.054,2.095,0.054,3.15c0,0.462,0.123,0.639,0.585,0.639h3.619
		c0.47,0,0.639-0.231,0.639-0.639c-0.054-1.109-0.054-2.31-0.116-3.388c-0.054-0.347-0.293-0.408-0.585-0.408H189.237z
		 M180.604,199.276c-0.062-0.585,0.347-1.579-0.177-2.156c-0.578-0.408-1.54-0.123-2.218-0.123h-1.74
		c-0.408,0-0.524,0.177-0.47,0.585c0.177,1.224,0.408,2.51,0.585,3.735v0.062c0.012,0.272,0.242,0.483,0.514,0.47
		c0.024-0.001,0.048-0.004,0.071-0.008h2.857c0.408,0.062,0.585-0.115,0.585-0.524v-2.01L180.604,199.276z M206.278,202.487
		c-0.816,0.116-1.748-0.293-2.218,0.231c-0.47,0.524-0.116,1.402-0.177,2.102v0.347c0.062,0.585-0.347,1.54,0.293,1.748
		c0.974,0.224,1.992,0.143,2.919-0.231c0.165-0.11,0.287-0.273,0.347-0.462c0.293-0.993,0.585-2.048,0.878-3.034
		c0.177-0.585,0.062-0.701-0.639-0.701H206.278z M176.816,202.602c0.223,1.336,0.513,2.659,0.87,3.966
		c0.102,0.303,0.381,0.512,0.701,0.524h0.115c2.449,0,1.987,0.354,2.041-1.81v-2.156c0-0.347-0.115-0.585-0.524-0.585
		C178.951,202.477,177.88,202.497,176.816,202.602L176.816,202.602z"/>
	<path id="Path_221-2-2" fill="#FFFFFF" d="M212.431,185.476c0.531-2.51,1.756-4.436,4.497-5.136
		c1.658-0.442,3.398-0.481,5.075-0.115c2.803,0.701,4.905,2.218,5.39,5.313c0.062,0.408,0.177,0.816,0.231,1.224
		c0.293,3.08-1.047,5.429-3.442,7.177c-0.87,0.602-1.865,0.999-2.911,1.163c-2.749,0.531-5.252,0.239-7.239-1.979
		c-1.34-1.54-1.748-3.504-1.81-5.544C212.208,186.872,212.278,186.166,212.431,185.476z M218.676,192.307l0.062,0.054
		c1.272,1.531,3.544,1.741,5.075,0.47c1.409-0.839,2.239-2.389,2.156-4.027c-0.169-3.504-4.258-5.021-6.592-3.558
		c-1.211,0.699-1.965,1.983-1.987,3.381C217.451,190.204,217.744,191.367,218.676,192.307z"/>
	<path id="Path_222-2-2" fill="#FFFFFF" d="M162.023,180.109c0.816-0.293,1.633-0.524,2.395-0.77
		c0.333-0.128,0.693-0.17,1.047-0.123c1.861,0.254,3.676,0.773,5.39,1.54c2.687,1.17,4.32,4.728,3.796,7.701
		c-0.336,2.424-2.006,4.454-4.32,5.252c-2.31,0.816-4.667,1.278-7,0.285c-3.565-1.54-4.728-4.62-5.082-7.701
		C158.35,182.504,159.528,181.041,162.023,180.109z M173.52,190.12c0.925-1.641,0.878-3.656-0.123-5.252
		c-0.686-0.925-1.716-1.533-2.857-1.686c-1.624-0.415-3.349-0.051-4.667,0.986c-0.876,0.651-1.342,1.718-1.224,2.803
		c0.047,1.263,0.429,2.492,1.109,3.558c0.878,1.286,2.156,1.81,4.143,1.756c1.509,0.007,2.899-0.815,3.619-2.141L173.52,190.12z"/>
	<path id="Path_223-2-2" fill="#FFFFFF" d="M200.764,202.048h2.156c0.408,0,0.585-0.177,0.585-0.524v-3.735
		c0.051-0.202-0.071-0.407-0.273-0.459c-0.024-0.006-0.049-0.01-0.074-0.011h-0.115c-1.54,0-3.157,0-4.674-0.054
		c-0.408,0-0.524,0.169-0.524,0.578c0.062,1.232,0.062,2.51,0.115,3.735c0,0.408,0.239,0.531,0.585,0.531
		C199.247,202.048,200.01,202.048,200.764,202.048z"/>
	<path id="Path_224-2-2" fill="#FFFFFF" d="M194.635,197.15h-2.041c-0.462,0-0.639,0.231-0.578,0.639
		c0.054,1.224,0.116,2.51,0.169,3.735c0,0.347,0.239,0.462,0.524,0.462h4.089c0.408,0,0.585-0.169,0.524-0.578
		c0-1.224-0.062-2.51-0.062-3.735c0-0.408-0.231-0.524-0.578-0.524C196.001,197.204,195.316,197.204,194.635,197.15z"/>
	<path id="Path_225-2-2" fill="#FFFFFF" d="M183.785,197.089h-2.041c-0.47,0-0.701,0.116-0.701,0.639
		c0,1.17,0.062,2.456,0.062,3.619c0,0.408,0.231,0.524,0.578,0.524h4.205c0.47,0,0.585-0.231,0.585-0.639v-3.504
		c0-0.408-0.177-0.639-0.585-0.639C185.187,197.15,184.484,197.15,183.785,197.089L183.785,197.089z"/>
	<path id="Path_226-2-2" fill="#FFFFFF" d="M200.703,202.571h-2.156c-0.462,0-0.77,0.116-0.701,0.647
		c0.062,1.109,0.062,2.21,0.062,3.319c0,0.408,0.231,0.531,0.585,0.531c1.394,0,2.911,0,4.374,0.054
		c0.462,0,0.639-0.177,0.639-0.639v-3.327c0-0.47-0.231-0.585-0.639-0.585H200.703z"/>
	<path id="Path_227-2-2" fill="#FFFFFF" d="M206.309,202.109h0.231c2.218,0.054,2.218,0.054,2.51-2.102
		c0.347-2.51,0.347-2.51-2.218-2.626c-0.77-0.062-1.455-0.115-2.272-0.115c-0.816,0-0.878,0.054-0.824,0.77
		c0.062,1.109,0.123,2.31,0.123,3.388c0,0.408,0.169,0.639,0.639,0.639c0.604-0.011,1.208,0.009,1.81,0.062L206.309,202.109z"/>
	<path id="Path_228-2-2" fill="#FFFFFF" d="M183.785,207.069h2.164c0.408,0,0.639-0.177,0.639-0.585v-3.327
		c0-0.408-0.177-0.524-0.585-0.524h-4.197c-0.354,0-0.585,0.054-0.585,0.524c0,1.17,0,2.395,0.054,3.504
		c0,0.347,0.177,0.462,0.531,0.462C182.329,207.069,183.084,207.069,183.785,207.069L183.785,207.069z"/>
	<path id="Path_229-2-2" fill="#FFFFFF" d="M194.873,202.571h-2.041c-0.408,0-0.647,0.177-0.647,0.585
		c0.062,1.047,0,2.218,0.116,3.265c0.062,0.47,0.239,0.585,0.647,0.585h3.735c0.462,0,0.639-0.177,0.639-0.639v-3.211
		c0-0.47-0.177-0.701-0.639-0.701C196.085,202.552,195.479,202.591,194.873,202.571z"/>
	<path id="Path_230-2-2" fill="#FFFFFF" d="M189.267,197.15h-1.748c-0.524,0-0.639,0.231-0.701,0.693
		c-0.054,1.232,0.116,2.456,0.116,3.619c0,0.354,0.239,0.47,0.531,0.47h3.635c0.354,0,0.585-0.116,0.585-0.524
		c0-1.224,0-2.51-0.062-3.735c0-0.354-0.169-0.47-0.524-0.47c-0.524,0-1.224,0-1.81-0.054H189.267z"/>
	<path id="Path_231-2-2" fill="#FFFFFF" d="M189.267,202.571h-1.633c-0.462,0-0.701,0.177-0.701,0.647
		c0.062,1.047,0.062,2.156,0.062,3.15c0,0.408,0.177,0.639,0.585,0.639h3.612c0.47,0,0.647-0.231,0.647-0.639
		c-0.062-1.109-0.062-2.31-0.116-3.388c0-0.347-0.239-0.408-0.585-0.408H189.267z"/>
	<path id="Path_232-2-2" fill="#FFFFFF" d="M180.635,199.306c-0.116-0.585,0.347-1.579-0.231-2.102
		c-0.578-0.524-1.402-0.116-2.218-0.116h-1.717c-0.408,0-0.524,0.177-0.462,0.585c0.231,1.224,0.408,2.51,0.585,3.735
		c-0.004,0.285,0.223,0.519,0.508,0.524c0.005,0,0.01,0,0.016,0h2.919c0.278,0.038,0.535-0.156,0.573-0.434
		c0.004-0.03,0.006-0.06,0.004-0.09C180.635,200.762,180.635,200.123,180.635,199.306z"/>
	<path id="Path_233-2-2" fill="#FFFFFF" d="M206.309,202.518c-0.816,0.115-1.694-0.293-2.218,0.231s-0.116,1.34-0.177,2.102v0.347
		c0.116,0.647-0.293,1.579,0.293,1.748c0.972,0.247,1.998,0.165,2.919-0.231c0.19-0.081,0.322-0.257,0.347-0.462
		c0.293-0.993,0.647-2.048,0.878-3.034c0.177-0.647,0.062-0.701-0.639-0.701H206.309z"/>
	<path id="Path_234-2-2" fill="#FFFFFF" d="M176.846,202.633c0.191,1.327,0.503,2.634,0.932,3.904
		c0.08,0.32,0.371,0.541,0.701,0.531h0.116c2.387,0,1.979,0.347,2.041-1.81v-2.164c0-0.347-0.116-0.578-0.524-0.578
		C179.022,202.499,177.932,202.538,176.846,202.633z"/>
	<path id="Path_242-2-2" fill="#4491EF" d="M219.323,185.245c2.31-1.463,6.415,0,6.592,3.558c0.116,1.748-0.816,3.034-2.164,4.027
		c0,0.03-0.024,0.054-0.054,0.054l0,0c-1.554,1.229-3.804,0.996-5.075-0.524c-0.878-0.932-1.17-2.156-1.232-3.735
		C217.425,187.245,218.151,185.975,219.323,185.245z M222.934,189.388c0.47,0,0.878-0.647,0.816-1.224
		c-0.132-0.588-0.678-0.989-1.278-0.939h-0.116c-0.398,0.063-0.68,0.422-0.647,0.824c-0.043,0.696,0.487,1.295,1.183,1.338
		C222.907,189.387,222.92,189.388,222.934,189.388z"/>
	<path id="Path_243-2-2" fill="#4491EF" d="M165.688,190.612c-0.652-1.078-1.033-2.299-1.109-3.558
		c-0.117-1.085,0.348-2.152,1.224-2.803c1.322-1.034,3.046-1.4,4.674-0.993c1.145,0.146,2.179,0.759,2.857,1.694
		c0.999,1.597,1.043,3.612,0.115,5.252c-0.702,1.308-2.073,2.118-3.558,2.102C168.297,192.474,166.722,191.84,165.688,190.612z
		 M169.777,186.701v0.062c-0.009,0.625,0.484,1.142,1.109,1.163c0.596-0.008,1.093-0.456,1.163-1.047
		c-0.139-0.609-0.656-1.057-1.278-1.109C170.24,185.756,169.798,186.171,169.777,186.701z"/>
	<path id="Path_248-2-2" fill="#FFFFFF" d="M221.71,188.048c0.015,0.69,0.538,1.263,1.224,1.34c0.47,0,0.878-0.647,0.816-1.224
		c-0.117-0.598-0.673-1.007-1.278-0.939c-0.4-0.002-0.734,0.303-0.77,0.701L221.71,188.048z"/>
	<path id="Path_249-2-2" fill="#FFFFFF" d="M169.785,186.701c-0.073,0.627,0.368,1.198,0.993,1.286h0.054
		c0.587-0.032,1.074-0.467,1.17-1.047c-0.101-0.634-0.644-1.102-1.286-1.109c-0.475-0.038-0.891,0.316-0.929,0.79
		C169.785,186.647,169.785,186.674,169.785,186.701z"/>
	<path fill="#4491EF" d="M135.463,28.03c3.306,50.88,4.859,101.83,4.659,152.849c-0.077,14.534-0.293,29.062-0.647,43.585
		c-0.077,3.165,4.828,3.165,4.905,0c1.247-50.968,0.716-101.938-1.594-152.91c-0.647-14.513-1.453-29.021-2.418-43.524
		C140.168,24.888,135.255,24.865,135.463,28.03z"/>
	<path fill="#4491EF" d="M235.686,26.305c1.078,51.116,2.066,102.238,2.965,153.365c0.246,14.544,0.48,29.088,0.701,43.631
		c0.054,3.157,4.967,3.173,4.913,0c-0.785-51.127-1.702-102.248-2.749-153.365c-0.303-14.539-0.608-29.083-0.916-43.631
		C240.53,23.148,235.617,23.14,235.686,26.305z"/>
	<path fill="#4491EF" d="M42.102,103.226c76.282,6.083,152.749,0.416,229.108-0.516c21.754-0.27,43.516-0.123,65.255,0.77
		c3.165,0.131,3.157-4.782,0-4.913c-76.421-3.08-152.795,3.25-229.223,2.51c-21.739-0.208-43.47-1.016-65.139-2.749
		c-3.15-0.246-3.134,4.667,0,4.913L42.102,103.226z"/>
	<path fill="#4491EF" d="M41.64,160.195l232.041-0.986l66.348-0.285c3.165,0,3.165-4.921,0-4.913l-232.041,1.016l-66.348,0.285
		c-3.165,0-3.173,4.921,0,4.905V160.195z"/>
	<path fill="#4491EF" d="M20.571,17.796c4.067,3.76,7.742,7.924,10.966,12.429c1.825,2.549,6.083,0.1,4.243-2.48
		c-3.448-4.859-7.38-9.357-11.736-13.422C21.734,12.175,18.253,15.64,20.571,17.796z"/>
	<path fill="#4491EF" d="M50.48,11.151l1.956,6.006c0.97,2.996,5.714,1.71,4.736-1.301l-1.956-6.014
		C54.245,6.854,49.502,8.132,50.48,11.151z"/>
	<path fill="#4491EF" d="M19.755,80.571c-5.43-1.269-10.695-3.158-15.694-5.629c-2.818-1.402-5.313,2.834-2.48,4.243
		c5.368,2.69,11.026,4.757,16.864,6.16c3.08,0.732,4.389-4.004,1.309-4.736L19.755,80.571z"/>
	<path fill="#4491EF" d="M103.622,5.86c1.782,2.852,3.355,5.829,4.705,8.91c1.263,2.888,5.498,0.393,4.243-2.48
		c-1.35-3.08-2.923-6.058-4.705-8.91C106.186,0.701,101.935,3.165,103.622,5.86z"/>
	<path fill="#4491EF" d="M162.862,6.653l2.133,6.207c0.387,1.278,1.705,2.032,3.003,1.717c1.299-0.37,2.063-1.713,1.717-3.019
		l-2.133-6.207c-0.326-1.317-1.658-2.12-2.975-1.793c-1.317,0.326-2.12,1.658-1.793,2.975c0.01,0.04,0.021,0.08,0.033,0.119H162.862
		z"/>
	<path fill="#4491EF" d="M223.443,11.697c1.649-2.66,2.892-5.552,3.689-8.578c0.77-3.08-3.935-4.359-4.736-1.301
		c-0.685,2.614-1.763,5.109-3.196,7.4C217.521,11.913,221.772,14.377,223.443,11.697L223.443,11.697z"/>
	<path fill="#4491EF" d="M286.587,11.728l3.003-4.466c0.685-1.172,0.29-2.677-0.882-3.361c-1.172-0.685-2.677-0.29-3.361,0.882
		l-3.003,4.474c-0.67,1.172-0.28,2.664,0.878,3.357C284.399,13.274,285.888,12.882,286.587,11.728z"/>
	<path fill="#4491EF" d="M346.767,20.129l11.066-11.412c2.195-2.31-1.271-5.752-3.473-3.473l-11.066,11.412
		C341.092,18.928,344.565,22.409,346.767,20.129z"/>
	<path fill="#4491EF" d="M358.803,101.216l11.92-5.737c2.842-1.371,0.354-5.606-2.48-4.243l-11.92,5.745
		C353.482,98.352,355.969,102.587,358.803,101.216L358.803,101.216z"/>
	<path fill="#4491EF" d="M21.988,144.779l-15.855,3.227c-3.08,0.624-1.787,5.39,1.301,4.736l15.863-3.227
		C26.377,148.883,25.083,144.124,21.988,144.779L21.988,144.779z"/>
	<path fill="#4491EF" d="M17.906,206.499c-4.218,1.799-8.603,3.179-13.091,4.12c-3.08,0.655-1.779,5.39,1.309,4.736
		c4.902-1.067,9.686-2.615,14.285-4.62c2.895-1.247,0.393-5.483-2.48-4.243L17.906,206.499z"/>
	<path fill="#4491EF" d="M28.895,244.093L10.19,256.175c-2.649,1.71-0.193,5.96,2.48,4.235l18.705-12.075
		C34.016,246.626,31.56,242.376,28.895,244.093L28.895,244.093z"/>
	<path fill="#4491EF" d="M352.396,243.677l15.139,12.721c2.403,2.018,5.891-1.44,3.473-3.473l-15.116-12.721
		c-2.41-2.025-5.899,1.432-3.473,3.473H352.396z"/>
	<path fill="#4491EF" d="M356.07,211.242l7.939,1.794c3.08,0.693,4.397-4.043,1.309-4.736l-7.939-1.794
		C354.298,205.806,352.989,210.542,356.07,211.242z"/>
	<path fill="#4491EF" d="M354.868,152.456c5.729,2.182,11.405,4.492,17.026,6.931c2.872,1.247,5.39-2.98,2.48-4.235
		c-6.012-2.608-12.077-5.08-18.196-7.416c-2.957-1.124-4.235,3.619-1.309,4.736L354.868,152.456z"/>
	<path fill="#4491EF" d="M42.31,229.77l29.824-0.531l71.23-1.278l86.539-1.54l74.503-1.317c12.036-0.216,24.403,0.377,36.401-0.655
		c0.169,0,0.347,0,0.516,0c3.373-0.062,3.381-5.313,0-5.252l-29.832,0.531l-71.23,1.278l-86.539,1.54l-74.503,1.332
		c-12.036,0.216-24.403-0.377-36.401,0.655c-0.169,0-0.339,0-0.508,0c-3.381,0.062-3.388,5.313,0,5.252L42.31,229.77z"/>
	<path fill="#4491EF" d="M96.201,239.048l12.146-0.711c0.514-0.03,0.955,0.362,0.985,0.876l0.48,8.195
		c0.03,0.514-0.362,0.955-0.876,0.985l-12.146,0.711c-0.514,0.03-0.955-0.362-0.985-0.876l-0.48-8.195
		C95.295,239.519,95.687,239.078,96.201,239.048z"/>
	<path fill="#4491EF" d="M111.091,242.045l2.58-3.08c0.2-0.226,0.545-0.248,0.772-0.048c0.106,0.093,0.171,0.224,0.183,0.364
		l0.454,7.747c0.012,0.297-0.22,0.548-0.517,0.56c-0.087,0.003-0.174-0.014-0.253-0.052l-2.857-1.54
		c-0.166-0.09-0.273-0.259-0.285-0.447l-0.185-3.165C110.979,242.261,111.017,242.142,111.091,242.045z"/>
	<path fill="#4491EF" d="M64.448,236.206l1.118,0.118c0.998,0.106,1.722,1,1.616,1.998l-0.66,6.233
		c-0.106,0.998-1,1.722-1.998,1.616l-1.118-0.118c-0.998-0.106-1.722-1-1.616-1.998l0.66-6.233
		C62.555,236.824,63.45,236.1,64.448,236.206z"/>

		<line fill="none" stroke="#4491EF" stroke-width="1.31" stroke-linecap="round" stroke-miterlimit="10" x1="63.725" y1="248.167" x2="63.378" y2="251.493"/>
	<path fill="none" stroke="#4491EF" stroke-width="1.31" stroke-linecap="round" stroke-miterlimit="10" d="M67.891,244.355
		c-0.228,2.137-2.144,3.685-4.282,3.458c-2.137-0.228-3.685-2.144-3.458-4.282"/>
	<ellipse fill="#4491EF" cx="242.717" cy="241.19" rx="6.707" ry="5.583"/>
	<path fill="#4491EF" d="M244.357,246.126c0.628,0.797,1.415,1.455,2.31,1.933c0.14,0.061,0.304-0.003,0.365-0.143
		c0.029-0.067,0.031-0.143,0.005-0.211c-0.25-1.031-0.144-2.117,0.3-3.08"/>
	<path fill="#4491EF" d="M46.861,91.945h18.72c0.196,0,0.354,0.159,0.354,0.354v2.572c0,0.196-0.159,0.354-0.354,0.354h-18.72
		c-0.196,0-0.354-0.159-0.354-0.354v-2.572C46.506,92.104,46.665,91.945,46.861,91.945z"/>
	<path fill="#4491EF" d="M149.517,93.115h18.72c0.196,0,0.354,0.159,0.354,0.354v2.572c0,0.196-0.159,0.354-0.354,0.354h-18.72
		c-0.196,0-0.354-0.159-0.354-0.354V93.47C149.163,93.274,149.321,93.115,149.517,93.115z"/>
	<path fill="#4491EF" d="M247.923,90.782h18.72c0.196,0,0.354,0.159,0.354,0.354v2.572c0,0.196-0.159,0.354-0.354,0.354h-18.72
		c-0.196,0-0.354-0.159-0.354-0.354v-2.572C247.568,90.941,247.727,90.782,247.923,90.782z"/>
	<path fill="#4491EF" d="M46.861,147.705h18.72c0.196,0,0.354,0.159,0.354,0.354v2.572c0,0.196-0.159,0.354-0.354,0.354h-18.72
		c-0.196,0-0.354-0.159-0.354-0.354v-2.572C46.506,147.863,46.665,147.705,46.861,147.705z"/>
	<path fill="#4491EF" d="M149.517,147.705h18.72c0.196,0,0.354,0.159,0.354,0.354v2.572c0,0.196-0.159,0.354-0.354,0.354h-18.72
		c-0.196,0-0.354-0.159-0.354-0.354v-2.572C149.163,147.863,149.321,147.705,149.517,147.705z"/>
	<path fill="#4491EF" d="M247.923,146.534h18.72c0.196,0,0.354,0.159,0.354,0.354v2.572c0,0.196-0.159,0.354-0.354,0.354h-18.72
		c-0.196,0-0.354-0.159-0.354-0.354v-2.572C247.568,146.693,247.727,146.534,247.923,146.534z"/>
	<path fill="#4491EF" d="M46.861,216.294h18.72c0.196,0,0.354,0.159,0.354,0.354v2.572c0,0.196-0.159,0.354-0.354,0.354h-18.72
		c-0.196,0-0.354-0.159-0.354-0.354v-2.572C46.506,216.452,46.665,216.294,46.861,216.294z"/>
	<path fill="#4491EF" d="M149.517,214.546h18.72c0.196,0,0.354,0.159,0.354,0.354v2.572c0,0.196-0.159,0.354-0.354,0.354h-18.72
		c-0.196,0-0.354-0.159-0.354-0.354V214.9C149.163,214.704,149.321,214.546,149.517,214.546z"/>
	<path fill="#4491EF" d="M247.923,213.375h18.72c0.196,0,0.354,0.159,0.354,0.354v2.572c0,0.196-0.159,0.354-0.354,0.354h-18.72
		c-0.196,0-0.354-0.159-0.354-0.354v-2.572C247.568,213.534,247.727,213.375,247.923,213.375z"/>
	<path fill="#4491EF" d="M197.391,240.712h9.372c0.489,0,0.886,0.396,0.886,0.886v5.683c0,0.489-0.396,0.886-0.886,0.886h-9.372
		c-0.489,0-0.886-0.396-0.886-0.886v-5.683C196.506,241.109,196.902,240.712,197.391,240.712z"/>

		<line fill="none" stroke="#4491EF" stroke-width="1.22" stroke-linecap="round" stroke-miterlimit="10" x1="202.081" y1="235.022" x2="202.081" y2="241.359"/>
	<polyline fill="none" stroke="#4491EF" stroke-width="1.22" stroke-linecap="round" stroke-linejoin="round" points="
		199.047,237.763 202.089,234.721 205.115,237.748 	"/>
	<circle fill="#4491EF" cx="145.52" cy="242.753" r="3.026"/>
	<circle fill="#4491EF" cx="166.066" cy="242.753" r="3.026"/>
	<path id="Path_198" fill="#7695BB" d="M92.132,165.27c-2.253-0.224-4.478,0.633-5.999,2.31c-0.97,0.945-1.557,2.214-1.648,3.565
		c0,0.162-0.062,0.385,0.162,0.447c0.223,0.062,0.339-0.108,0.393-0.277c0.792-1.265,2.01-2.205,3.434-2.649
		c1.399-0.56,2.976-0.464,4.297,0.262c-2.68-0.3-4.536,1.186-6.06,3.019c-1.126,1.434-1.499,3.32-1.001,5.075
		c0.519,2.34,1.892,4.402,3.85,5.783c2.164,1.479,5.799,1.54,7.878-0.262c1.388-1.159,2.114-2.928,1.941-4.728
		c-0.085-1.492-0.592-2.929-1.463-4.143c-0.608-0.847-0.323-1.455,0.77-1.617c0.478-0.108,0.966-0.159,1.455-0.154
		c2.903,0,5.86-0.108,8.763,0.085c1.44-0.01,2.873,0.211,4.243,0.655c1.502,0.57,2.611,1.479,2.757,3.265
		c0,0.277,0.054,0.501,0.054,0.77c0.257,2.403,0.4,4.805,0.431,7.208c0,0.67,0.108,0.724,0.724,0.454
		c1.541-0.539,3.19-0.698,4.805-0.462c0.97,0.045,1.902,0.387,2.672,0.978c2.387,1.864,3.85,4.112,3.735,7.292
		c-0.014,2.617-1.086,5.117-2.972,6.931c-1.05,1.018-2.4,1.671-3.85,1.864c-1.448,0.315-2.932,0.434-4.412,0.354
		c-0.554-0.062-0.77,0.154-0.77,0.716c-0.092,3.519-0.624,6.977-0.993,10.488c-0.066,1.146-0.905,2.099-2.033,2.31
		c-0.932,0.225-1.892,0.311-2.849,0.254c-4.251,0.077-8.471-0.354-12.737-0.393l-5.39-0.054c-3.465,0-6.931,0.27-10.45,0.123
		c-2.002-0.131-4.02-0.038-5.968-0.108c-1.085-0.005-2.125-0.436-2.895-1.201c-0.554-0.556-0.885-1.296-0.932-2.079
		c-0.246-3.796-0.539-7.6-0.839-11.397c-0.054-0.616,0.169-0.77,0.678-0.886c0.915-0.125,1.782-0.483,2.518-1.04
		c3.55-2.988,4.205-7.108,1.894-10.935c-0.754-1.067-1.836-1.859-3.08-2.256c-0.207-0.067-0.41-0.144-0.608-0.231
		c-0.832-0.4-0.947-0.57-0.878-1.54c0.062-0.724,0.069-1.54,0.131-2.233c0.239-1.787,0.146-3.519,0.439-5.306
		c0.186-1.064,0.801-2.006,1.702-2.603c1.372-0.899,2.98-1.37,4.62-1.355h0.447c1.34,0,1.286,0,1.54-1.324
		c0.676-3.391,3.584-5.879,7.038-6.022c1.324,0,2.64,0.2,3.904,0.593c0.277,0.115,0.554,0.123,0.662,0.4L92.132,165.27z
		 M97.577,198.151c-1.511,2.942-1.745,6.375-0.647,9.495c0.601,1.956,2.041,3.311,3.535,4.551c0.631,0.565,1.398,0.958,2.225,1.14
		c2.672,0.531,5.39,0.331,8.147,0.416c0.665,0.084,1.339-0.068,1.902-0.431c1.117-0.698,1.817-1.903,1.871-3.219
		c-0.037-0.451,0.007-0.905,0.131-1.34c0.169-0.447-0.108-0.616-0.501-0.624c-1.571-0.225-3.106-0.652-4.566-1.271
		c-3.776-1.356-7.198-3.546-10.011-6.407l-2.102-2.31L97.577,198.151z M115.288,202.849c0.069-1.679,0.069-1.679-1.04-2.079
		c-0.645-0.254-1.26-0.579-1.833-0.97c-1.661-1.169-3.236-2.456-4.713-3.85c-0.942-0.847-2.134-1.366-3.396-1.479
		c-2.31-0.193-4.143,0.909-5.66,2.456c-0.216,0.136-0.282,0.421-0.146,0.637c0.007,0.011,0.015,0.022,0.023,0.033
		c0,0.03,0.024,0.054,0.054,0.054l0,0c0.501,0.624,0.993,1.294,1.54,1.917c3.455,3.653,7.927,6.186,12.837,7.269
		c0.447,0.116,0.893,0.062,1.34,0.177s0.67-0.1,0.67-0.608c0.031-1.194,0.137-2.385,0.316-3.565L115.288,202.849z"/>
	<path id="Path_201" fill="#7695BB" d="M94.935,182.558c-0.869,0.009-1.685-0.419-2.172-1.14c-0.787-1.126-1.185-2.478-1.132-3.85
		c0.027-1.344,0.952-2.503,2.256-2.826c1.258-0.284,2.568,0.159,3.396,1.147c0.671,0.838,1.087,1.851,1.201,2.919
		C98.801,180.633,96.83,182.627,94.935,182.558z M95.035,177.36c-0.616,0-1.009,0.216-0.955,0.608
		c0.054,0.616,0.547,1.286,1.047,1.24c0.492-0.025,0.897-0.397,0.963-0.886C96.046,177.774,95.585,177.354,95.035,177.36z"/>
	<path id="Path_219" fill="#FFFFFF" d="M97.577,198.151c0.77,0.847,1.44,1.579,2.156,2.256c2.814,2.86,6.235,5.049,10.011,6.407
		c1.461,0.618,2.996,1.045,4.566,1.271c0.393,0.062,0.616,0.177,0.501,0.616c-0.125,0.435-0.166,0.889-0.123,1.34
		c0.038,1.455-0.809,2.395-1.871,3.227c-0.576,0.339-1.244,0.489-1.91,0.431c-2.734,0-5.475,0.169-8.147-0.416
		c-0.832-0.17-1.601-0.564-2.225-1.14c-1.494-1.24-2.934-2.595-3.527-4.551C95.823,204.511,96.031,201.068,97.577,198.151z"/>
	<path id="Path_220" fill="#FFFFFF" d="M115.296,202.856c-0.062,0.832-0.246,2.172-0.37,3.565c-0.062,0.447-0.231,0.67-0.678,0.608
		c-0.447-0.032-0.892-0.091-1.332-0.177c-4.917-1.065-9.395-3.6-12.837-7.269c-0.554-0.624-0.993-1.294-1.54-1.917
		c-0.197-0.156-0.23-0.442-0.074-0.638c0.009-0.011,0.018-0.022,0.028-0.032l0.054-0.054c1.579-1.602,3.319-2.649,5.668-2.456
		c1.259,0.114,2.448,0.633,3.388,1.479c1.505,1.362,3.078,2.647,4.713,3.85c0.568,0.399,1.183,0.725,1.833,0.97
		C115.365,201.178,115.365,201.178,115.296,202.856z"/>
	<path id="Path_236" fill="#FFFFFF" d="M95.035,177.36c0.531-0.021,0.979,0.392,1,0.923c0.001,0.013,0.001,0.026,0.001,0.039
		c-0.047,0.498-0.462,0.88-0.963,0.886c-0.581-0.142-1.004-0.643-1.047-1.24C94.027,177.629,94.419,177.36,95.035,177.36z"/>
	<path id="Path_197-2" fill="#7695BB" d="M189.652,111.697c-1.138,0.201-2.202,0.703-3.08,1.455
		c-0.908,0.686-1.484,1.724-1.586,2.857c-0.242,1.727,0.326,3.469,1.54,4.72c1.075,1.347,2.72,2.111,4.443,2.064
		c2.78-0.131,4.62-1.54,4.674-4.536c-0.047-1.372-0.633-2.67-1.633-3.612c-0.085-0.131-0.262-0.223-0.354-0.354
		c-0.245-0.266-0.228-0.68,0.038-0.925c0.017-0.016,0.036-0.031,0.055-0.045c0.085-0.039,0.177-0.131,0.262-0.131
		c0.4-0.177,0.839-0.262,1.232-0.393c2.118-0.308,4.143-0.77,6.261-1.063c1.065-0.158,2.142-0.23,3.219-0.216
		c1.717,0.131,2.549,0.924,2.996,2.595c0.447,1.671,1.009,3.527,1.317,5.29c0.092,0.57,0.354,0.662,0.839,0.393
		c3.173-1.586,8.063,0.708,8.987,5.206c0.57,2.857-0.131,5.39-2.595,7.269c-1.174,0.978-2.594,1.617-4.104,1.848
		c-0.393,0.046-0.524,0.216-0.439,0.616c0.131,1.186,0.177,2.379,0.308,3.612c0.131,1.016,0.092,2.025,0.131,3.042
		c-0.01,0.701-0.42,1.335-1.055,1.633c-0.505,0.317-1.077,0.512-1.671,0.57c-2.249,0.262-4.497,0.77-6.746,0.924
		c-0.216,0.046-0.485,0.046-0.655,0.092c-3.003,0.524-6.083,0.924-9.079,1.579c-3.257,0.77-6.607,1.194-9.872,1.81
		c-0.942,0.271-1.957,0.038-2.688-0.616c-0.407-0.38-0.696-0.869-0.832-1.409c-0.578-2.249-1.101-4.451-1.717-6.699
		c-0.091-0.211-0.15-0.434-0.177-0.662c-0.046-0.57-0.354-0.77-0.97-0.655c-0.518,0.135-1.051,0.208-1.586,0.216
		c-2.531-0.042-4.743-1.718-5.467-4.143c-1.103-3.054,0.241-6.451,3.134-7.924c0.571-0.308,1.201-0.49,1.848-0.531
		c0.616,0,0.77-0.223,0.701-0.77c-0.169-0.97-0.169-1.894-0.308-2.826c-0.115-0.765-0.187-1.537-0.216-2.31
		c-0.081-1.207,0.512-2.359,1.54-2.996c0.832-0.576,1.777-0.967,2.772-1.147c1.194-0.216,2.31-0.439,3.481-0.655
		c0.362,0.014,0.672-0.256,0.708-0.616c0.708-2.31,2.641-3.08,4.713-3.08c0.137,0.007,0.272,0.035,0.4,0.085
		C188.905,111.427,189.252,111.566,189.652,111.697z M186.041,132.134c0.054,0.811,0.217,1.612,0.485,2.379
		c0.382,1.525,0.853,3.027,1.409,4.497c0.074,0.364,0.398,0.624,0.77,0.616c1.009,0.046,2.025,0.131,3.034,0.177
		c3.219,0.085,6.391,0.046,9.61-0.131c1.54-0.092,3.08-0.308,4.62-0.4c0.494,0.002,0.921-0.347,1.016-0.832
		c0.301-0.794,0.559-1.603,0.77-2.426c0.046-0.177,0.177-0.439-0.046-0.662c-0.216,0.046-0.393,0.046-0.57,0.085
		c-1.059,0.305-2.156,0.455-3.257,0.447c-2.118,0.085-4.235,0-6.307-0.046c-3.298-0.069-6.53-0.93-9.426-2.51
		C187.535,132.927,186.834,132.581,186.041,132.134L186.041,132.134z M188.42,139.935c0.516,1.983,1.638,3.754,3.211,5.067
		c0.463,0.367,1.042,0.556,1.633,0.531c1.456-0.074,2.902-0.281,4.32-0.616c1.363-0.354,2.772-0.662,4.181-0.932
		c0.97-0.216,1.987-0.347,2.641-1.186c0.518-0.557,0.963-1.178,1.324-1.848c0.255-0.332,0.407-0.73,0.439-1.147
		C200.268,140.352,194.33,140.396,188.42,139.935z M207.14,126.721c0.046,0.216,0.046,0.393,0.092,0.57
		c0.515,2.285,2.462,3.967,4.797,4.143c0.945-0.002,1.879-0.212,2.734-0.616c2.678-0.986,4.05-3.956,3.064-6.634
		c-0.121-0.329-0.276-0.645-0.461-0.943c-0.626-1.153-1.598-2.079-2.78-2.649c-1.21-0.681-2.656-0.808-3.966-0.347
		C208.55,121.146,206.44,123.764,207.14,126.721L207.14,126.721z"/>
	<path id="Path_202-2" fill="#7695BB" d="M194.719,118.258c0.298,1.328-0.537,2.646-1.865,2.944
		c-0.111,0.025-0.224,0.042-0.338,0.052c-0.682,0.111-1.375-0.119-1.856-0.616c-0.512-0.596-0.874-1.307-1.055-2.071
		c-0.308-1.238,0.445-2.492,1.683-2.8c0.027-0.007,0.053-0.013,0.08-0.018c0.252-0.06,0.513-0.076,0.77-0.046
		C193.525,115.773,194.635,116.873,194.719,118.258z M193.041,118.173c-0.147-0.43-0.554-0.716-1.009-0.708
		c-0.428,0.167-0.683,0.608-0.616,1.063c0.185,0.401,0.624,0.619,1.055,0.524C192.832,118.914,193.062,118.559,193.041,118.173
		L193.041,118.173z"/>
	<path id="Path_216-2" fill="#FFFFFF" d="M186.041,132.134c0.77,0.447,1.494,0.839,2.202,1.194c2.899,1.57,6.129,2.43,9.426,2.51
		c2.118,0.046,4.228,0.177,6.299,0.046c1.105,0.028,2.208-0.122,3.265-0.447c0.187-0.048,0.378-0.076,0.57-0.085
		c0.223,0.223,0.085,0.439,0.046,0.662c-0.223,0.77-0.485,1.586-0.77,2.426c-0.111,0.475-0.528,0.817-1.016,0.832
		c-1.54,0.131-3.08,0.308-4.62,0.4c-3.211,0.216-6.384,0.216-9.603,0.131c-1.009-0.046-2.025-0.131-3.042-0.177
		c-0.381,0.036-0.722-0.236-0.77-0.616c-0.557-1.47-1.027-2.972-1.409-4.497C186.322,133.749,186.128,132.949,186.041,132.134z"/>
	<path id="Path_217-2" fill="#FFFFFF" d="M188.42,139.935c5.942,0.449,11.911,0.39,17.842-0.177
		c-0.063,0.409-0.213,0.801-0.439,1.147c-0.348,0.678-0.794,1.301-1.324,1.848c-0.662,0.839-1.671,0.97-2.641,1.194
		c-1.409,0.308-2.78,0.57-4.189,0.924c-1.422,0.314-2.867,0.52-4.32,0.616c-0.59,0.037-1.171-0.153-1.625-0.531
		C190.117,143.676,188.96,141.917,188.42,139.935z"/>
	<path id="Path_218-2" fill="#FFFFFF" d="M207.14,126.721c-0.77-2.996,1.371-5.598,3.527-6.391c1.311-0.463,2.758-0.334,3.966,0.354
		c1.181,0.564,2.152,1.489,2.772,2.641c1.093,1.969,0.886,4.404-0.524,6.16c-0.576,0.619-1.284,1.101-2.071,1.409
		c-0.843,0.437-1.785,0.649-2.734,0.616c-2.337-0.178-4.285-1.858-4.805-4.143C207.271,127.16,207.187,126.936,207.14,126.721z
		 M211.722,126.59c0.041,0.238,0.1,0.472,0.177,0.701c0.77,2.025,2.426,2.865,4.497,1.763c0.406-0.205,0.722-0.553,0.886-0.978
		c0.459-1.163,0.377-2.469-0.223-3.565c-0.488-0.956-1.476-1.552-2.549-1.54c-1.106,0.006-2.121,0.614-2.649,1.586
		c-0.099,0.192-0.159,0.401-0.177,0.616c-0.115,0.481-0.099,0.983,0.046,1.455L211.722,126.59z"/>
	<path id="Path_237-2" fill="#FFFFFF" d="M193.041,118.173c0.066,0.411-0.207,0.8-0.616,0.878c-0.431,0.092-0.868-0.125-1.055-0.524
		c-0.077-0.456,0.182-0.903,0.616-1.063C192.457,117.436,192.889,117.726,193.041,118.173z"/>
	<path id="Path_241-2" fill="#7695BB" d="M211.722,126.59c-0.118-0.491-0.146-1-0.085-1.502c0.009-0.217,0.07-0.428,0.177-0.616
		c0.534-0.963,1.541-1.567,2.641-1.586c1.065,0.022,2.039,0.609,2.557,1.54c0.618,1.094,0.698,2.412,0.216,3.573
		c-0.165,0.429-0.476,0.786-0.878,1.009c-2.118,1.101-3.742,0.27-4.497-1.763C211.815,127.029,211.768,126.805,211.722,126.59z
		 M214.148,124.957c-0.691,0.114-1.161,0.763-1.055,1.455c0.131,0.701,0.77,1.278,1.271,1.186c0.766-0.193,1.262-0.935,1.147-1.717
		c-0.115-0.627-0.717-1.043-1.345-0.928C214.16,124.955,214.154,124.956,214.148,124.957z"/>
	<path id="Path_247-2" fill="#FFFFFF" d="M214.148,124.996c0.629-0.109,1.231,0.299,1.363,0.924l0,0
		c0.115,0.782-0.381,1.524-1.147,1.717c-0.524,0.092-1.14-0.439-1.271-1.186c-0.125-0.673,0.319-1.32,0.992-1.445
		C214.106,125.002,214.127,124.999,214.148,124.996z"/>
	<path id="Path_197-4" fill="#7695BB" d="M299.84,42.061c0.167-0.057,0.34-0.093,0.516-0.108c2.595,0.131,4.99,1.201,5.722,4.097
		c0.077,0.427,0.437,0.745,0.87,0.77c1.409,0.308,2.857,0.678,4.32,0.993c1.241,0.264,2.412,0.789,3.434,1.54
		c1.281,0.838,1.974,2.331,1.787,3.85c-0.084,0.98-0.223,1.954-0.416,2.919c-0.246,1.147-0.293,2.31-0.554,3.542
		c-0.146,0.678,0.069,0.947,0.824,1.001c0.815,0.096,1.601,0.358,2.31,0.77c3.781,1.971,4.882,6.7,3.488,10.111
		c-1.309,3.219-3.85,4.951-7.085,4.913c-0.68-0.05-1.352-0.179-2.002-0.385c-0.77-0.223-1.147,0-1.255,0.77
		c-0.051,0.282-0.131,0.558-0.239,0.824c-0.87,2.757-1.694,5.537-2.518,8.309c-0.203,0.672-0.6,1.269-1.14,1.717
		c-0.965,0.763-2.247,0.997-3.419,0.624c-4.058-0.939-8.217-1.679-12.321-2.788c-3.712-1.024-7.554-1.702-11.32-2.518
		c-0.254-0.054-0.585-0.069-0.847-0.131c-2.834-0.285-5.606-1.109-8.409-1.54c-0.738-0.123-1.44-0.407-2.056-0.832
		c-0.785-0.413-1.263-1.239-1.232-2.125c0.116-1.294,0.116-2.549,0.331-3.85c0.231-1.54,0.393-3.034,0.601-4.52
		c0.108-0.47-0.069-0.67-0.539-0.77c-1.88-0.375-3.618-1.265-5.021-2.572c-2.965-2.449-3.735-5.683-2.849-9.241
		c1.448-5.652,7.701-8.224,11.605-6.06c0.631,0.354,0.924,0.254,1.086-0.477c0.531-2.179,1.332-4.359,1.979-6.569
		c0.608-2.056,1.748-3.011,3.896-3.08c1.346,0.011,2.687,0.155,4.004,0.431c2.634,0.47,5.159,1.178,7.778,1.694
		c0.523,0.158,1.037,0.343,1.54,0.554c0.124,0.038,0.239,0.101,0.339,0.185c0.353,0.28,0.412,0.794,0.132,1.147
		c-0.019,0.024-0.04,0.048-0.062,0.07c-0.152,0.157-0.314,0.304-0.485,0.439c-1.299,1.136-2.089,2.744-2.195,4.466
		c-0.108,3.75,2.156,5.668,5.637,5.991c4.312,0.06,7.856-3.387,7.917-7.699c0.002-0.16,0-0.32-0.008-0.479
		c-0.053-1.432-0.717-2.772-1.825-3.681c-1.132-0.847-2.249-1.748-3.781-1.971C298.848,42.217,299.34,42.106,299.84,42.061z
		 M298.908,69.59c-3.738,1.812-7.852,2.714-12.005,2.634c-2.611-0.077-5.29-0.054-7.916-0.3c-1.382-0.028-2.751-0.269-4.058-0.716
		l-0.732-0.162c-0.27,0.27-0.123,0.578-0.062,0.77c0.216,1.045,0.505,2.075,0.862,3.08c0.109,0.605,0.618,1.057,1.232,1.093
		c1.925,0.2,3.85,0.57,5.799,0.77c4.004,0.431,8.001,0.647,12.036,0.708c1.309,0,2.58-0.039,3.85-0.039
		c0.472,0.06,0.914-0.245,1.024-0.708c0.78-1.82,1.458-3.681,2.033-5.575c0.393-0.942,0.652-1.935,0.77-2.949
		C300.695,68.782,299.786,69.174,298.908,69.59z M298.292,77.93c-7.464,0.247-14.936-0.152-22.332-1.194
		c0.041,0.527,0.213,1.035,0.501,1.479c0.416,0.862,0.933,1.671,1.54,2.41c0.77,1.109,2.056,1.325,3.25,1.64
		c1.763,0.439,3.473,0.862,5.213,1.409c1.758,0.518,3.564,0.859,5.39,1.016c0.745,0.051,1.484-0.156,2.095-0.585
		c2.036-1.559,3.537-3.711,4.297-6.16L298.292,77.93z M271.456,52.017c-1.632-0.645-3.461-0.564-5.028,0.223
		c-1.509,0.644-2.779,1.742-3.635,3.142c-1.497,2.417-1.366,5.504,0.331,7.785c0.696,0.805,1.564,1.442,2.541,1.864
		c1.054,0.556,2.22,0.867,3.411,0.909c2.951-0.07,5.504-2.077,6.268-4.928l0.162-0.77c1.07-3.612-1.448-7.008-4.027-8.224H271.456z"
		/>
	<path id="Path_202-4" fill="#7695BB" d="M294.927,47.282c0.324-0.022,0.65,0.012,0.963,0.1c1.552,0.404,2.482,1.99,2.078,3.541
		c-0.007,0.026-0.014,0.052-0.022,0.078c-0.253,0.951-0.743,1.823-1.425,2.533c-0.602,0.609-1.472,0.87-2.31,0.693
		c-1.725-0.256-2.915-1.862-2.659-3.587c0.016-0.107,0.037-0.213,0.064-0.317C291.807,48.626,293.219,47.328,294.927,47.282z
		 M294.457,51.448c0.527,0.147,1.084-0.098,1.332-0.585c0.081-0.558-0.218-1.101-0.732-1.332c-0.569-0.092-1.123,0.231-1.324,0.77
		C293.658,50.809,293.965,51.297,294.457,51.448L294.457,51.448z"/>
	<path id="Path_216-4" fill="#FFFFFF" d="M301.742,68.235c-1.04,0.485-1.902,0.947-2.811,1.355
		c-3.738,1.812-7.852,2.714-12.005,2.634c-2.672,0-5.298,0-7.916-0.3c-1.382-0.028-2.751-0.269-4.058-0.716
		c-0.237-0.082-0.482-0.136-0.732-0.162c-0.27,0.27-0.123,0.578-0.062,0.77c0.216,1.032,0.539,2.033,0.862,3.08
		c0.109,0.605,0.618,1.057,1.232,1.093c1.917,0.254,3.85,0.57,5.799,0.77c4.004,0.431,8.001,0.647,12.036,0.708
		c1.263,0,2.526-0.054,3.85-0.039c0.472,0.06,0.914-0.245,1.024-0.708c0.78-1.82,1.458-3.681,2.033-5.575
		C301.351,70.206,301.601,69.23,301.742,68.235z"/>
	<path id="Path_217-4" fill="#FFFFFF" d="M298.315,77.93c-7.48,0.248-14.968-0.156-22.378-1.209c0.052,0.525,0.223,1.03,0.501,1.479
		c0.416,0.864,0.933,1.676,1.54,2.418c0.77,1.101,2.064,1.325,3.25,1.633c1.763,0.439,3.473,0.87,5.221,1.409
		c1.764,0.496,3.567,0.836,5.39,1.016c0.746,0.079,1.494-0.128,2.095-0.578C295.977,82.526,297.503,80.377,298.315,77.93z"/>
	<path id="Path_218-4" fill="#FFFFFF" d="M275.36,61.081c-0.897,3.506-4.466,5.622-7.973,4.725
		c-0.599-0.153-1.174-0.391-1.707-0.705c-0.98-0.424-1.851-1.064-2.549-1.871c-1.693-2.28-1.825-5.362-0.331-7.778
		c0.86-1.4,2.133-2.5,3.642-3.15c1.565-0.789,3.394-0.868,5.021-0.216c2.657,1.124,5.144,4.513,4.066,8.209L275.36,61.081z
		 M269.769,59.864c0.19-0.583,0.268-1.197,0.231-1.81c-0.013-0.269-0.084-0.531-0.208-0.77c-0.639-1.227-1.869-2.035-3.25-2.133
		c-1.348-0.059-2.618,0.635-3.296,1.802c-0.819,1.351-0.997,2.995-0.485,4.489c0.15,0.562,0.522,1.037,1.032,1.317
		c2.518,1.479,4.697,0.531,5.729-1.979c0.109-0.284,0.191-0.578,0.246-0.878V59.864z"/>
	<path id="Path_237-4" fill="#FFFFFF" d="M293.726,50.3c-0.111,0.52,0.221,1.031,0.741,1.142c0.01,0.002,0.019,0.004,0.029,0.006
		c0.527,0.147,1.084-0.098,1.332-0.585c0.092-0.571-0.229-1.127-0.77-1.332C294.49,49.453,293.942,49.77,293.726,50.3z"/>
	<path id="Path_241-4" fill="#7695BB" d="M269.484,60.665c-1.04,2.503-3.157,3.465-5.737,1.979
		c-0.492-0.301-0.857-0.772-1.024-1.325c-0.54-1.489-0.361-3.143,0.485-4.482c0.673-1.168,1.941-1.864,3.288-1.802
		c1.392,0.069,2.638,0.885,3.257,2.133c0.118,0.241,0.189,0.502,0.208,0.77c0.042,0.63-0.024,1.263-0.193,1.871
		C269.731,60.111,269.634,60.402,269.484,60.665z M266.851,57.685L266.851,57.685c-0.759-0.206-1.542,0.242-1.748,1.001
		c-0.012,0.046-0.023,0.092-0.03,0.139c-0.196,0.966,0.379,1.923,1.324,2.202c0.678,0.154,1.486-0.547,1.679-1.44
		c0.213-0.824-0.282-1.664-1.106-1.876C266.93,57.701,266.89,57.692,266.851,57.685z"/>
	<path id="Path_247-4" fill="#FFFFFF" d="M266.851,57.685c-0.788-0.178-1.573,0.308-1.763,1.093l0,0
		c-0.192,0.966,0.381,1.92,1.325,2.202c0.678,0.146,1.471-0.501,1.679-1.44C268.251,58.688,267.7,57.863,266.851,57.685z"/>
	<path fill="#4491EF" d="M359.05,62.39c3.976-2.224,7.608-5.016,10.781-8.286c2.202-2.31-1.271-5.745-3.473-3.473
		c-2.878,2.969-6.172,5.503-9.78,7.523c-2.757,1.54-0.277,5.791,2.48,4.235H359.05z"/>
	<path fill="#4491EF" d="M271.094,236.808h54.99c1.28,0,2.318,1.038,2.318,2.318v4.104c0,1.28-1.038,2.318-2.318,2.318h-54.99
		c-1.28,0-2.318-1.038-2.318-2.318v-4.104C268.776,237.846,269.814,236.808,271.094,236.808z"/>
</g>
</svg>
