<?xml version="1.0" encoding="utf-8"?>
<svg version="1.1" id="Layer_1" xmlns="http://www.w3.org/2000/svg" xmlns:xlink="http://www.w3.org/1999/xlink" x="0px" y="0px"
	 width="700px" height="600px" viewBox="0 0 700 600" style="enable-background:new 0 0 700 600;" xml:space="preserve">
<style type="text/css">
	.st0{fill:#FFFFFF;}
	.st1{fill:#2E9EBC;}
	.st2{fill:#FDFEFE;}
	.st3{fill:#BA2F5D;}
	.st4{fill:none;stroke:#BA2F5D;stroke-width:3;stroke-miterlimit:10;}
	.st5{fill:none;stroke:#BA2F5D;stroke-width:2;stroke-miterlimit:10;}
	.st6{fill:none;stroke:#BA2F5D;stroke-width:9;stroke-miterlimit:10;}
	.st7{fill:none;stroke:#BA2F5D;stroke-width:1.5;stroke-miterlimit:10;}
	.st8{fill:none;}
	.st9{fill:none;stroke:#FFFFFF;stroke-miterlimit:10;}
	.st10{fill:#FDFEFF;}
	.st11{fill:#FEFEFF;}
	.st12{fill:#DEDEDE;}
	.st13{fill:#F9F9F9;}
	.st14{fill:none;stroke:#DEDEDE;}
</style>
<g>
	<g>
		<path class="st12" d="M208.6,584.3c-40.6-0.3-70.5,5.1-73.7-45.1c-6.4-31.3-6.4-67.7-11.8-98.8c-23.4-10.8-54.5-6.2-74.9-25.9
			c0.1-0.8-0.5-0.7-1-1c-68.1-58-15-158.5,72.3-142c5.6-9,9-18.9,8.6-29.9c3.7-17.7,4.9-35.4,10.4-53.4
			c19.3-45.2,97.4-41.4,139.1-45.7c15.1-7.4,27.4-24.6,45.5-29.5c0,0,0.2,0.1,0.2,0.1c5.5-3.2,12.9-2.8,19-6.1c0,0,0.1,0.4,0.1,0.4
			c6.5-27.7-11.8-71.7,11.6-90.5c0,0-0.1,0-0.1,0c10.7-3.7,16.1-0.7,21.8,7.7c50.5-3.7,28.7,3.6,30.6,47.4
			c-33.4,5.4-31.9-0.8-30.3,35.1c11.1,1.8,26.4,5.3,37.5,12.5c0,0,0,0.2,0,0.2s0-0.1,0-0.1c1,0.7,2,1.3,3,2
			c12.4,13.9,29.2,12.7,46.4,13.1c20,1.6,38.3,3.7,57,9.8c0,0,0.1,0.2,0.1,0.2l0-0.1c2.2,0.9,4.3,1.5,6.6,1.9c0,0,0.1,0.2,0.1,0.2
			l0-0.2c0.9,0.6,1.8,0.8,2.8,0.9c0,0,0.1,0.2,0.1,0.2l-0.1-0.1c46.1,11.4,43.1,63.8,47.5,101.3c0,0,0.1,0,0.1,0
			c-2.6,11.2,6.5,12.1,15.2,10c8.9-0.5,17.3,1.6,25.9,2.6c90,14.8,84.4,153.5-2.8,168.5c-2-0.1-3.9,0.3-5.8,0.9
			c-2.9,0-5.8,0.1-8.6,0.8c-7.3,0.4-15-0.5-22.1,0.3c-3.8,29.4-5.5,60.3-7.7,90.7c-0.4,26.5-5.3,59.3-39.5,59.5
			C424.3,584.9,316.3,577.6,208.6,584.3z M675.3,337.1c-6.1-89.5-148.3-75-142.8,12C537,446,679.2,428.3,675.3,337.1z M97.5,283
			c-108.8,4.5-80.7,161.6,24.1,134.4C186.9,388.8,177.6,279.9,97.5,283z M342.4,132c0.1,0,0.2,0,0.3,0c4-29.3-42.5,4-50.9,14.8
			c-68,91.8,92.9,159,141.6,72.7c24.6-39.3-11.5-106.1-57.7-97.9c1.6,7.1-3.9,20.4,3.2,24.1c17.7,4,34.8,23,31.4,41.7
			c-26.5,88.4-175.3,5.3-71.9-41.3C345,144.8,341.7,136.9,342.4,132z M354.6,216.9c46.7,4.3,71.3-50.2,20.2-66.4
			c-3.6-1.1-3.7-1.1-3.6-4.9c0.9-25.1,0.6-50.2,2.5-75.2c2.6-4.6,12.2-1.6,17.2-3.6c9.2-0.9,9.7-1.7,9.6-10.8
			c0.8-5.9-7.2-1.5-10.5-3.2c-5.6-1.4-4-8.7,1.2-9.1c4.7-1.3,12.9,1.4,11.3-6.4c3.3-17.6-27.5,6.1-34.1-13.4
			c-31.7-19.9-13.5,102.4-19,120.9c0,4.1-0.1,4.1-3.9,5C293.6,159.8,302.5,220.3,354.6,216.9z M356,413.5c0,0.1,0,0.2,0,0.3
			c-39.2,0.1-78.4-0.3-117.5,0.1c-12.3,2.8-8.3,21.8,5.8,18c22.8-6,261.6,13.2,234.1-15.5C439.8,408.3,396.1,416,356,413.5z
			 M272.1,223.8c-3.4-24.7-65.7,0.2-86.6-4.2c-14.3,4.1-46.5-6-46.3,14.9C178.1,236.8,228.6,225.8,272.1,223.8z M255.6,193.2
			c-14.9,4-129.1,1.5-111.1,23.7C153.7,213.4,306,207.2,255.6,193.2z M563.6,206.3c-2.3-20.2-19.6-12.6-35.4-16.6
			c-15.5,0.6-78.8-14.6-76.4,7.3c3,8,22.9,1.6,31.5,3C510,198.1,538.4,205.1,563.6,206.3z M443.9,221.3c39.9-0.7,83-1,121,1.7
			c-0.4-18.4-31.6-8.5-44.1-13.3C501.1,209.2,449.4,198.2,443.9,221.3z"/>
		<path class="st12" d="M573.5,368.4c-7.2,0-6.6-8-1.4-10.3c21.8-9.5,47.7-40.8,69.5-39C634,338.2,591.7,354.5,573.5,368.4z"/>
		<path class="st12" d="M136,371.3c-18.1-10.3-68.2-25.1-75.2-41.1c20-4.8,52.5,24.1,74.6,30.6C141.2,362,143.2,371.1,136,371.3z"/>
		<path class="st12" d="M352.4,198.8c-44.3-4.8-7.1-41.1,20.5-28.1C395.9,182.3,368.5,202.3,352.4,198.8z M347,183.2
			c-2.2-2.2-4.4,1.3-6.5,3.7C343.8,186.2,344.4,181.5,347,183.2c0,2-3.1,2.1-2.7,4.9c3.9-1.4,5.8-4.6,8.7-7.6
			C350.1,180.5,349.2,183.3,347,183.2z M349.6,188.4c4.4-1.5,7-5.1,9.9-8.4C355.4,181.8,352.7,185.3,349.6,188.4z"/>
		<path class="st12" d="M372.2,39.5c-1,1.1,1.2,14.3-3.2,9.9c0.8-2.5-2.8-5.4,0.5-7.6c0.1-0.1,0.2-0.3,0.2-0.4
			c-3.6-5.3,1.3-4-0.9-7.1C368.3,30.2,373.5,33.2,372.2,39.5z"/>
		<path class="st12" d="M370.9,55.2c-0.2,1.2-1.8,0.6-1.6-0.4C369.3,53.6,371,54.2,370.9,55.2z"/>
	</g>
</g>
</svg>
