<?xml version="1.0" encoding="utf-8"?>
<svg version="1.1" id="Layer_1" xmlns="http://www.w3.org/2000/svg" xmlns:xlink="http://www.w3.org/1999/xlink" x="0px" y="0px"
	 width="700px" height="600px" viewBox="0 0 700 600" style="enable-background:new 0 0 700 600;" xml:space="preserve">
<style type="text/css">
	.st0{fill:#FFFFFF;}
	.st1{fill:#2E9EBC;}
	.st2{fill:#FDFEFE;}
	.st3{fill:#BA2F5D;}
	.st4{fill:none;stroke:#BA2F5D;stroke-width:3;stroke-miterlimit:10;}
	.st5{fill:none;stroke:#BA2F5D;stroke-width:2;stroke-miterlimit:10;}
	.st6{fill:none;stroke:#BA2F5D;stroke-width:9;stroke-miterlimit:10;}
	.st7{fill:none;stroke:#BA2F5D;stroke-width:1.5;stroke-miterlimit:10;}
	.st8{fill:none;}
	.st9{fill:none;stroke:#FFFFFF;stroke-miterlimit:10;}
	.st10{fill:#FDFEFF;}
	.st11{fill:#FEFEFF;}
	.st12{fill:#DEDEDE;}
	.st13{fill:#F9F9F9;}
	.st14{fill:none;stroke:#DEDEDE;}
</style>
<g>
	<path class="st12" d="M569,493.9c-3.2,22,2.9,49.4-18.6,63.4c-41.1,14-88.2,3.2-131.4,7.6c-81-7.9-164,1.2-245.8,0.3
		c-35.8-0.2-37.4-22.1-38.9-51.2c-3.1-27.8-4.2-56.6-9.2-84.4c-1.5-5.6-8.7-7.1-13.5-4.8c-61.9,3.8-116.5-68.6-90.9-126.5
		c4.8-26.8,39.9-37,37-48.7c-0.9-4.9-2.8-11.3,3.7-12.7c61.5-25.6,70.3,25.5,73.3-56.9c1.1-60.9,110.6-39.9,151.9-41.9
		c30.2,9.9-9,49.1,44.5,83.3c19.7,12.3,47.3,12.1,66.7,0.2c0,0,0.3,0.1,0.3,0.1c23.9-14,34.6-45.5,17.9-68.5
		c0.4-23,112.1-15.8,128.6-5.7c32.8,15.4,22.6,54.7,28.1,83.6c10.9-3.1,67.3-5.4,65.6,8.8c-1.9,5-3.6,8.2,1.7,11.4
		c64,28.5,55.6,109.3,4.9,147.3C554.1,439.8,581.3,373,569,493.9z M24.4,331.1c0,98.6,151.9,102.2,146.5-0.5
		C171.5,232.6,25,239.4,24.4,331.1z M529.5,308.1c14.7-2,19.8,15.5,13.8,26.2c-2.3,7.5-14.7,4.1-15.1,10.3
		c4.7,32.7,37.9,57.3,70.6,53.8c60.3,1.9,101.1-87.9,52.9-127.4C610.4,240.8,543.5,255.8,529.5,308.1z M312.6,447.6
		c-26.9,7.2-54.1-6.8-54.7,29.8c-0.7,3.8-0.5,3.8,3.6,3.3c14.9-5.7,69,2.2,72.1-6.3c28.9,18,59.5,34.2,94.7,5.1
		c3.7,8.1,16.8,4.5,24.3,7.2c3.8,0.5,4,0.5,3.7-3.1c-0.9-12.7,0.5-25.3-15.8-25c-9.5-0.7-4-19.8-20.4-25c20.2,26.8-7.9,58.6-37.9,55
		c-26.1,0.5-39.7-22.1-55.3-39.2C322.3,442.8,301.2,433.4,312.6,447.6z M423.7,403.3c0.1,0,0.2,0,0.2,0c-2-12.5,0.9-33.2-16.2-34.7
		c-17.8,3.9-44.3-1.9-57.8,8.9c0.7,10.6-12.8,35.9,6.2,30.3C368.1,402.5,431.2,417.9,423.7,403.3z M271.6,421.6
		c21.6-6.2,44-9.4,66.3-12c8-5.3,4.3-21.5,7.1-30.7c-2.6-10.2-51.2,6.3-61.8,9.2C274.7,394.6,273.4,411.4,271.6,421.6z M254.9,459.3
		c-3.1-5.5-20,3.8-26.5,4.8c-5.7,2-13.9,23.1-3.7,22.3C248.9,484,252.4,485.3,254.9,459.3z M443.1,412.2
		c-2.6-7.7-11.8-27.3-16.2-28.1C428.6,397.5,423.4,415.6,443.1,412.2z M246.2,428.8c18.4,1.4,20.4-16.9,23.8-31.6
		C261.5,405.2,254.3,419,246.2,428.8z M361.5,428c13.2,7.9,27.6,13.2,36.4,27.3C389.5,438.4,381.3,422.5,361.5,428z"/>
	<path class="st12" d="M324.6,41.9c7.8-6.2,19.3-9.1,28.4-4.7c5.5,1.4,12.9-5,18.9-0.5c28.3-10.9,54.9,24,32,47.1
		c-0.9,24.9-18.1,24.5-35.4,28.5c-11.5,11.6-37.3,5.3-40.5-11.1c-4.3-4.4-14.7,0.4-18.7-13.1c-2.7-9.7,0.4-20.4,7.7-27.1
		C316.4,53.7,317.6,45.6,324.6,41.9z M330.4,57c-15.9,6.3-25.5,36.6-0.6,35.7c4.9-0.5,5,4.4,6.4,8c6.9,15.7,27.5,12.3,36.3,0.4
		c5.2,11.9,22.7-3.1,23.1-11.5c0.3-8-13.2-0.6,4.1-13.7c15-13.4-4.3-41-22.9-32.6c-11.1,2.4-7.7-8-23.7,0.8
		c0.7-12.8-19.1-4.9-24.7,1.5C323,52.6,319.9,55.9,330.4,57z"/>
	<path class="st12" d="M361.8,142.6c-1.1,1.7-0.5,2.8,0.9,4.1c11.6,8.2-4.3,15.1-0.3,24.4c-0.3,11.2,5.6,28.9-1,37.5
		c-1.1-0.4-2.2-1.3-1.7-2.5c3.6-9.2,0.9-18.6,1.4-27.9c-1.1-6.4-5.2-12.1-1-18.6c6.5-7.9-8.8-8.9-4.1-16.5
		C364.5,130.2,376.7,122.5,361.8,142.6z"/>
	<path class="st12" d="M345,212.1c-3.9-3-7.4-11.6-5.7-16.1C341.1,200.7,348.2,207.6,345,212.1z"/>
	<path class="st12" d="M374.9,207.1c-0.1-5.6,1.9-14,5.5-17.6C381,194,378.4,203.5,374.9,207.1z"/>
	<path class="st12" d="M339.8,215.5c-6-1-7.8-5.5-11.2-9C332.2,207.4,334.9,209.6,339.8,215.5z"/>
	<path class="st12" d="M388.7,196.5c-1.1,4-3.1,7.5-5.5,11C382.3,203.4,384.1,199.7,388.7,196.5z"/>
	<path class="st12" d="M388.2,212.5c0.4-2.6,2.5-5.8,5.1-6C395.1,208.4,390.8,214,388.2,212.5z"/>
	<path class="st12" d="M148.1,353.9c-23.9,1.7-14.4-41.8,6.7-30.9C168.5,330.2,164.5,354.3,148.1,353.9z"/>
	<path class="st12" d="M360.7,77c5,0,5.4,7.9,0.1,7.9C355.6,85.1,355.7,77.1,360.7,77z"/>
	<path class="st12" d="M365.4,64.3c5.3,0.1,4.6,8.2-0.4,7.8C360.1,71.7,360.6,64.1,365.4,64.3z"/>
	<path class="st12" d="M349.6,65.5c0.1,4.7-7,5.1-7.2,0.3C342.1,61.2,349.6,60.8,349.6,65.5z"/>
	<path class="st12" d="M378.2,90.5c-0.2,2.7-4.5,2.6-4.2-0.2C374.1,87.5,378.3,87.7,378.2,90.5z"/>
	<path class="st12" d="M385.1,59.7c0,2.5-4,2.8-3.9,0.2C381,57.4,385,57.1,385.1,59.7z"/>
	<path class="st12" d="M348.4,97.9c-0.4,0.9-0.9,1.6-2,1.6C343.7,98.9,348.2,95.3,348.4,97.9z"/>
</g>
</svg>
