<?xml version="1.0" encoding="utf-8"?>
<!-- Generator: Adobe Illustrator 24.3.0, SVG Export Plug-In . SVG Version: 6.00 Build 0)  -->
<svg version="1.1" id="Layer_1" xmlns="http://www.w3.org/2000/svg" xmlns:xlink="http://www.w3.org/1999/xlink" x="0px" y="0px"
	 width="700px" height="600px" viewBox="0 0 700 600" style="enable-background:new 0 0 700 600;" xml:space="preserve">
<style type="text/css">
	.st0{fill:#FFFFFF;}
	.st1{fill:#2E9EBC;}
	.st2{fill:#FDFEFE;}
	.st3{fill:#BA2F5D;}
	.st4{fill:none;stroke:#BA2F5D;stroke-width:3;stroke-miterlimit:10;}
	.st5{fill:none;stroke:#BA2F5D;stroke-width:2;stroke-miterlimit:10;}
	.st6{fill:none;stroke:#BA2F5D;stroke-width:9;stroke-miterlimit:10;}
	.st7{fill:none;stroke:#BA2F5D;stroke-width:1.5;stroke-miterlimit:10;}
	.st8{fill:none;}
	.st9{fill:none;stroke:#FFFFFF;stroke-miterlimit:10;}
	.st10{fill:#FDFEFF;}
	.st11{fill:#FEFEFF;}
	.st12{fill:#DEDEDE;}
	.st13{fill:#F9F9F9;}
	.st14{fill:none;stroke:#DEDEDE;}
</style>
<g>
	<path class="st12" d="M572.2,242.7c-0.8,5.9,0.4,10.2,6.9,7c0.9,0.4,1.8,0.2,2.5-0.5c42-5.6,97.7,9.6,103.7,58.9
		c0.6,5.7-0.5,11.4,0,17.2c-5.4,43.6-37,83.8-82.7,87.3c-7.9,0.1-15.8,0.3-23.8,0.2c-4.1-0.2-4.1-0.2-3.9,4.7
		c-0.3,0.2-0.4,0.4-0.2,0.7c-1.2,3.2-0.9,6.5-0.8,9.9c-1.2,3.5-1.1,7.7-1,11.5c-1.3,4.1-1.1,9-1,13.4c-0.3,0.2-0.4,0.4-0.2,0.7
		c-1,3.2-0.9,6.4-0.8,9.7c-1.5,3.2-0.9,7.8-1,11.5c-1.4,3.2-0.9,7.8-1,11.5c-1.4,3.3-0.9,7.9-0.9,11.7c-1.3,3.5-1.1,7.7-1,11.5
		c-1.2,4.1-1.1,9-1,13.4c-1.2,3.4-1.1,7.6-1,11.4c-9.3,37.5-54.2,27.7-83.5,29.1c-45.9,2.5-90.9-2.6-136.6-1.3
		c-46.2-1.3-91.7,2.2-137.6,2.1c-25,0.6-71.3,7.5-72-29.1c0.2-0.3,0.1-0.5-0.2-0.7c0-2.5,0.3-5.8-0.9-7.8c0-3.1,0.4-7-1-9.6
		c-0.1-3.1,0.3-7-1-9.6c-0.1-3.4,0.4-7.6-1-10.6c0-3.7,0.4-8.3-1-11.5c0.1-2.6,0.2-5.3-0.8-7.8c0.2-0.3,0.1-0.5-0.2-0.7
		c0-2.8,0.3-6.4-0.9-8.8c0-4.4,0.3-9.2-1-13.3c-1.4-39.6,5.5-30.5-24.6-29.9c-3.2-2.1-7.4,0.6-10.4-1.8c-6-1.3-12-2.5-18.1-3.8
		c-0.3-0.6-0.7-0.7-1.3-0.4c-0.7-0.5-1.4-0.7-2.2-0.6c-0.1-0.4-0.3-0.6-0.7-0.3c-2.1-1.7-4.7-1.3-6.9-2.3c-1.6-2.6-4.6-2-6.8-3.1
		c-1.4-1.6-2.3-3.3-4.7-2.9c-0.3-1-0.9-1.4-1.9-1.5c-11.9-9.6-22.6-21.6-29.1-36c0.6-0.7,0.6-0.7-0.7-1.8c-0.6-2.2-1.2-4.5-1.8-6.7
		c0.6-0.7,0.3-1.3-0.3-1.9c0.1-0.8-0.1-1.4-0.6-2c0.3-0.7,0.2-1.3-0.4-1.8c0.2-1.1,0-2.1-0.6-3c0.4-0.7,0.2-1.3-0.3-1.8
		c0.2-1.1,0-2.2-0.5-3.2c-1.6-3.3-1.1-7.6-1.4-11.3c0.5-0.6,0.6-1.2,0.2-1.9c0.7-2.1,1.4-4.6,0.9-6.7c0.5-1.6,1-3.2,0.7-4.9
		c0.7-0.8,0.8-1.8,0.4-2.8c0.5-0.6,0.6-1.3,0.5-2c0.6-0.5,0.8-1.1,0.3-1.8c0.3-0.6,0.3-1.3,0-1.9c0-0.7,1.7-0.8,0.5-1.8
		c1.9-2,2.4-4.4,2.3-7c1.5-0.8,1.6-2.2,1.6-3.7c9.9-18.3,24.2-34.6,43.7-43.2c0.2,0.3,0.4,0.5,0.6,0c0.5-0.2,0.9-0.4,1.4-0.6
		c0,0,0.4,0,0.4,0c16.7-7.8,36.3-7.6,53.9-3.8c0.7,0.5,1.5,0.6,2.4,0.5c7.5,5.7,3.8-14,4.6-18c1.6-6.2,0.7-13.7,0.9-20.3
		c0.3-0.2,0.3-0.3,0.1-0.6c1.1-2.2,1-4.6,0.9-6.9c1.5-2.4,0.5-5.8,1-8.6c1.4-4.9,2.1-10.9,1.9-16.3c-0.5-44.6,34.6-46.8,69.9-49.1
		c33.2-1.1,66.9-0.7,99.9,1c30.3,4.5-7.8,30.4-4.8,53.6c-13,64.4,89.6,85,104.7,22.3c1.4-3,0.9-7.1,1-10.6c1.1-1.9,1.2-4.9,0.2-7.1
		c0.2-0.3,0.1-0.5-0.2-0.7c-2.4-13.1-9.1-25.9-17.5-36.3c-4.6-5.8-3.3-19.3,5.2-20.7c45.3,0.2,91.6-4.1,136.2,1.1
		c18.9,9.8,35.8,14.3,39.3,38.7c1.5,9.4,1.2,19.7,2.9,28.8c0.1,6.6-0.7,14,1,20.2c-0.1,4.9-0.4,9.8,0.9,14.6
		C571.9,242.3,571.9,242.5,572.2,242.7z M25.8,341c-0.6,60.6,98.2,93.8,131.8,41.6c27.9-38.9,12.8-108.2-38.9-116.5
		C72.1,255.9,23.7,296.5,25.8,341z M595.2,397.4c90.7,0.9,100.6-132.8,7.1-139.4C507.1,252.9,494.4,391.4,595.2,397.4z M351.7,480
		c0-0.2,0-0.4,0-0.6c34.9,0,69.7,0.2,104.6-0.4c22-2.6,31.2-35.8,21.7-53.5c-7.8-14.8-21.6-22.5-38.4-19.5c-42.2,0-84.4,0-126.7-0.1
		c-21.8,1.5-44.6-2.9-65.9,1.6c-20.2,6.7-35.1,30.2-27.7,51c4.4,12.8,17.1,22.9,31.8,22.6C284.5,480.2,318.1,480.2,351.7,480z"/>
	<path class="st12" d="M385.2,115.1c-4.1,0.5-8.5,1-12.2-1.1c-0.9-1.4-1.9-1.6-2.8,0c-2,0.7-3.5,2-5.5,2.6c-0.4-0.2-0.6,0.1-0.7,0.4
		c-5.1,3.4-12.8,6-15.2-1.9c-0.4-1.5-0.4-3.2-2.3-3.8c-1.6-2.9-6.1,0.6-8.9-1c-0.2-0.3-0.6-0.6-0.7-1c0.3-2.6-1.4-1.6-2.6-1.5
		c-2.4-0.5-4.4-1.1-6.8-1.4c-1.5-0.9-3.4-1.7-4.9-2.6c-0.8-0.9-1.6-1.9-2.6-3.1c4.3-2.1,9.3,0.4,13.3-1.8c4.3,0.2,8-1.5,12.3-1
		c0.2,0.3,0.4,0.5,0.8,0.3c5.7,4.4,11,15.6,18.5,7.4c0.2,0.3,0.4,0.5,0.6-0.1c2.4-1.4,4.5-3.6,6.9-4.7c3.9-2.4,7,0.3,10.7,1
		c4.5,1.9,10.1-1.1,14.9,0.9c0,0.3,0.2,0.5,0.6,0.6c0.7,2.2-1,3.4-2.1,4.8c0,0-0.3,0.1-0.3,0.1l0,0.3c-3.5,2.2-7,2.1-10.9,3
		c0.5,1.1,1.6,2.2,0.8,3.1C385.7,114.7,385.5,114.9,385.2,115.1z"/>
	<path class="st12" d="M379.1,56.1c1,0.5,2,0.6,3.1,0.5c0.5,0.5,1,0.7,1.6,0.3c1,0.6,2.1,0.7,3.3,0.7c1.5,1,3.8,1.1,5.7,1
		c11,0.4,5.7,7.3,13.6,7.8c1,0.4,1.9,0,2.6-0.7c6.1-8.5,14.6-0.7,22.2-4.2c1.3,0.2,2.6,0,3.9-0.4c3.8,0.3,1.5,3.8-0.2,5.5
		c-1.9,1-3.8,2.3-5.9,3.3c-0.4-0.3-0.6,0-0.8,0.3c-3.2,0.7-5.2,3.6-8.4,3.9c-3.4-0.2-6.6-0.4-9.8-1c-2.2-1.5-3.2,1.4-5.2,1.8
		c-6.8,3-5.9-0.1-8.2-4.3c-2.2-0.3-4.4-0.3-6.6-0.5c-2.2-2-10.5,0.6-7.8-4.7c4.7-0.9-6.6-3.6-6.9-6.1c-1.9-1.4-2.6-6.6,0.8-4.2
		c0.6,0.5,1.3,0.9,2.1,0.8C378.4,56,378.7,56.2,379.1,56.1z"/>
	<path class="st12" d="M477,35.8c4.7,1.8,9.3,5.4,14.6,4.2c0,0.4,0,0.8,0,1.1c-3.9,2.4-7.9,4.2-12.6,3.8c-0.2-0.3-0.4-0.5-0.8-0.3
		c-5.6-3.2-10.1,3.4-15.4,3.7c-0.8-0.8-1.7-1.7-2.5-2.5c0,0-0.1-0.4-0.1-0.4c-0.6,0-1.1-0.3-1.7-0.4c-0.2-0.5-0.4-0.4-0.6,0
		c-2.3-1.5-5.3-3.1-8.1-1.1c-2,0.2-12,2-8.1-2.4c0.7,0.3,1.2,0.1,1.7-0.4c1.1,0.1,2.1,0.1,3.1-0.6c3.5-0.6,5.9-4.4,9.6-4.9
		c0,0,0.3,0.2,0.3,0.2l0.3-0.2c0.8,0.2,1.6,0.4,2.4,0.7c0,0,0.2,0.3,0.2,0.3l0.4,0c1.3,1.2,2.8,2,4.4,2.6c3.8,3.4,8.3-0.7,11.3-3.4
		C475.9,36.1,476.4,36.1,477,35.8z"/>
	<path class="st12" d="M337.4,463.7c-20.2,0-51.5,0-82.9,0c-10.6,1.4-18.7-9.3-17.1-19.2c1-11.4,10.1-22.4,22.4-21.7
		c50.4,0.2,100.7,0.2,151.1,0.3c17.4,1.9,52.8-8.6,50.9,19.2c-1.2,8.5-4.9,19.6-15,20.3C413.3,462.9,381.7,462.7,337.4,463.7z"/>
</g>
</svg>
