<?xml version="1.0" encoding="utf-8"?>
<svg version="1.1" id="Layer_1" xmlns="http://www.w3.org/2000/svg" xmlns:xlink="http://www.w3.org/1999/xlink" x="0px" y="0px"
     width="700px" height="600px" viewBox="0 0 700 600" style="enable-background:new 0 0 700 600;" xml:space="preserve">
<style type="text/css">
    .st0{fill:#DEDEDE;}
</style>
<g>
    <path class="st0" d="M236.9,134.4c20,0.4,39.9,0.8,59.9,1.3c4.8,0.1,9.5,1.1,14,2.6c6.7,3.1,3.8,12.7-0.1,16.9
        c-16.2,22.5-20.7,57.5,0.5,78.4c26.6,29.2,86.5,17.9,92-23.6c4-18.5-4.4-37.4-16-51.7c-5-5.6-3.8-11.4-1.3-17.4
        c3.2-7.7,19.7-3.3,27-4.7c31.6-0.8,63.2-1.4,94.8-0.5c7.1,0.7,15-0.6,21.4,3.5c8.8,3.4,17.7,6.6,24.7,13.3
        c15.6,12.8,13.9,35.3,16,53.6c0.5,6.7,0.4,13.4,0.7,20.1c0.1,2.5,0.9,3.3,3.2,4.2c40.9,16.5,79.1,51.6,81.4,98.1
        c1.8,39.9-17.7,78.6-49.2,102.7c-30.6,25.1-35.6,5.4-36.6,50.4c-0.6,13.2-1.7,26.4-4,39.4c-0.6,10-1.2,19.5-8.8,26.9
        c-7.8,9.2-18.4,12.3-29.8,12.7c-32.4,1.5-64.8,0.2-97.2,1.6c-13.2,1.1-26.3-2.3-39.5-2.5c-36.9-0.1-73.9-0.7-110.8,0.2
        c-15,0-29.9,1.6-44.8,2.5c-21.6-0.3-43.2,0.5-64.7,0c-13.6-1.1-32-7-33.5-22.8c-2.5-26.1-8.9-52-7.9-78.4c0.2-2.3-0.8-3.1-2.6-3.8
        c-16.7-6.1-31.4-16.7-44.8-28.1c-8.5-8-14.2-18-19.8-28.1c-38.2-69.7-4.6-132.4,62.7-165c6.2-2.8,4-11.9,5.2-17.6
        c1.2-17,2.9-34,6-50.7c4.6-23.1,31.9-30.8,52.4-31.6c16.6-0.7,33.1-2.1,49.7-1.7C236.9,134.6,236.9,134.5,236.9,134.4z
         M496.4,438.7c93.4,38.5,185.3-90.5,116.9-165.4c-28-32-73.1-43.3-113.7-32.9c-44.7,9.7-71.3,48.2-74.1,92.8
        c-0.8,5.4-1.7,11,0.4,16.8c14.6-11.5,37.2-12.2,54.1-5.2C520,359.4,519,408.9,496.4,438.7z M258.3,288.8
        c-18-33.7-75.6-59.2-113.1-50.2C95.7,251.4,52.7,298,61.9,351.5c6,46,41.4,91.1,89.9,95.5c29.9,2.4,58.3-9.3,81.3-27.8
        c1-0.7,2.3-1.2,2.4-2.9C162,384.6,186,300.8,258.3,288.8z M407.5,491.5c-1.9-10.9-15.4-16.2-25.2-18.7c-6.8-0.5-13.5,1.9-20.1,3.3
        c-15.7,4.3-25.4,15.9-34.1,28.5c-0.6,0.8-0.9,1.8,0,2.6c0.9,0.9,1.8,0,2.5-0.5c14.7-12.9,33.2-19.8,51.9-11.4
        c5.6,2.3,11.1,4.8,16.4,7.7C405,506.9,407.2,496.3,407.5,491.5z M249.7,311.2c-25-0.5-26.6,32.1-3.9,38c11.9,2.8,19-6.8,21.8-17.1
        C272.6,319.6,261.9,310.1,249.7,311.2z M479.7,392.6c-31.2,0.2-18.4,37.2-1.1,31.9C495.8,419.9,502.9,392.5,479.7,392.6z"/>
    <path class="st0" d="M371.8,50.4c0.3,9.5-2.2,18.6-4.2,27.8c-3.9,18.1-7.6,36.2-11.1,54.3c-0.9,4.4-2.2,8.7-4.4,12.6
        c-1.7,2.9-2.4,3.3-5.6,1.7c-1.3-0.6-2.6,0-3.7-0.5c-8.6-4.4-10.7-15.5-12-24.2c-2.3-18.9-5-37.9-5.9-57
        c-0.2-13.5,16.7-22.3,27.6-26.8c5.6-2,11-0.2,16.3,1.4C373.3,41.2,371.5,46.8,371.8,50.4z"/>
    <path class="st0" d="M374,188.7c-2.2,32.1-35,49.1-46.6,11.4c-4.4-15.7,8-27.1,22.3-30.3C361.7,165.7,375.2,177.2,374,188.7z"/>
    <path class="st0" d="M60.9,501.5c1.3-14.9,18.8-29.8,33.1-30.9c2.2,0,4,2.6,1.9,4c-9.1,10.3-11.6,24.4-20.6,34.8
        C69.2,517.5,60.5,509,60.9,501.5z M95.1,472.8c-11.7,2.5-24.8,18.4-23.8,29C79.2,491.9,83.5,479.5,95.1,472.8z"/>
    <path class="st0" d="M599,468.9c0.9-0.2,1.3-0.4,1.5-0.3c4.8,1.9,9.6,0.7,14.5,0.3c14.2-1.7,29.3,11.5,20.2,25.4
        c-3.1,4.4-11.6,5.3-15.2,1.3C612.5,487.1,605.5,478.1,599,468.9z M610.7,472.9c5.4,3.8,8.6,9.4,12.6,14.3c2.1,4.2,6.7,1.2,5.4-2.8
        C626.2,477.1,618.5,472.9,610.7,472.9z"/>
</g>
</svg>
