<?xml version="1.0" encoding="utf-8"?>
<svg version="1.1" id="Layer_1" xmlns="http://www.w3.org/2000/svg" xmlns:xlink="http://www.w3.org/1999/xlink" x="0px" y="0px"
     width="700px" height="600px" viewBox="0 0 700 600" style="enable-background:new 0 0 700 600;" xml:space="preserve">
<style type="text/css">
    .st0{fill:#FFFFFF;}
    .st1{fill:#2E9EBC;}
    .st2{fill:#FDFEFE;}
    .st3{fill:#BA2F5D;}
    .st4{fill:none;stroke:#BA2F5D;stroke-width:3;stroke-miterlimit:10;}
    .st5{fill:none;stroke:#BA2F5D;stroke-width:2;stroke-miterlimit:10;}
    .st6{fill:none;stroke:#BA2F5D;stroke-width:9;stroke-miterlimit:10;}
    .st7{fill:none;stroke:#BA2F5D;stroke-width:1.5;stroke-miterlimit:10;}
    .st8{fill:none;}
    .st9{fill:none;stroke:#FFFFFF;stroke-miterlimit:10;}
    .st10{fill:#FDFEFF;}
    .st11{fill:#FEFEFF;}
    .st12{fill:#DEDEDE;}
    .st13{fill:#F9F9F9;}
    .st14{fill:none;stroke:#DEDEDE;}
</style>
<g>
    <path class="st12" d="M132.6,253.9c5.6-0.4,31.8-8.9,29.1-12.3c-37.8,5.7-33,12.2-28.7-26c-1.1-44.7,18.6-59.1,61.8-60.6
        c33.6-1.9,67.1-0.4,100.8-0.2c40.9,1.1,6.4,25.4,4.1,46.7c-8.4,28.9,10.6,65.2,43.3,66.7c0,0,0,0.4,0,0.4
        c-1.3-24.5-3.8-49.5-6.5-74.1c-0.2-8.4-0.9-16.8-2.2-25.1c1.7-8.4-3.8-5.6-8.4-9.5c0,0-0.1-0.3-0.1-0.3l-0.2,0.3
        c-12.1-10.8,9.9-13.3,6.3-19.1c-1.4-21.8-3.2-43.5-5.8-65.2c-0.5-5.5,0.7-13.5-2.5-17.6c-2.5-1.9-5-3.2-6.2-6.4
        c-1.2-4.4,3.2-5.9,4-9c0.3-8.9-3.5-20.3,5.5-25.7c0,0-0.1,0.1-0.1,0.1c11.7-2,2.6,14.6,10.1,14.6c6.8,4.9,15.4,5.3,23.2,2.9
        c15.9-1.8,32.9-1.5,48.3,2.4c0,0,0.1,0.2,0.1,0.2l-0.1-0.1c3.4,1,6,3.2,9.6,3.8c1.9,1.6,5.1,1.8,7.6,2.9c0,0,0.1,0.3,0.1,0.3
        l0.2-0.1c2.8,1.4,5.4,2.8,8.6,3.7c0,0-0.1,0-0.1,0c1,0.3,1.9,0.6,2.9,0.9c6,3.5,13.9,4.5,20.2,6.7c0,0,0,0.2,0,0.2
        c23.9,8.7,52.7,12,77.4,5.4c0,0,0.2,0.3,0.2,0.3c27.4,8.2-59.3,68.2-72.7,69.6c0,0-0.3-0.1-0.3-0.1c-25.8,14.4-59.1,6.9-86.9,18.2
        c-9.3,2.7-17.1,11.4-26.7,12.6c-1.5-0.1-3.5-0.8-2.6,2.1c2.4,33.7,5.4,67.3,8.9,100.9c-1.5,4.3,4.5,5.9,7.1,3.9
        c28.2-1.9,48.7-31.9,42.4-58.8c0,0,0.1-0.2,0.1-0.2c-4.6-10.3-8.5-22.1-16.3-30.7c-5.7-6.7-5-21.8,5.1-22.5
        c21.7-0.1,43-0.7,64.7-1.3c70.8-0.6,116-4.1,113.1,81.9c-6.6,4.4-16.5,0.9-23.9,1.1c-3.1-0.6-6.4-0.1-9.1-2.1
        c-1.3-1.9-4.2-0.6-1.5,1c13.7,13.1,33.5,9.1,50.8,9.4c76.7,14.2,129.4,75.1,78.6,148c-11.5,21.2-35.4,24.9-50.9,40.2
        c-9,12.4-43.3,2.8-40.4,9.4c-4,34.1-5.8,69.6-8.9,103.8c-3.5,42.2-54.7,32.2-84.5,33.5c-28.7-0.1-58.1,2.5-85.8-1.7
        c-49,0.8-98.5-1.9-146.8,2c-34.4-2.7-76.6,10.9-106.6-9.9c-11-21.6-6.6-48.2-10.8-72c-1.9-15.6-3.6-31.9-3.3-48.2
        c0-1.5,0.1-3-2.2-2.6c-15.3,7.2-28.8-2-42-10c-24.2-5.5-39.9-24.5-54.5-43.5C0.5,359.4,14.4,297.9,53,274.9
        C77.8,261.7,105.9,257.3,132.6,253.9z M332.7,151.4c15.9,4.8,24.6-6.4,38.3-11.8c63.4-13.3,115.9-12.3,158.3-72.6
        c-46.4,5.8-89.8-5.1-132.3-22.4c-15.8-1.2-32.7-2.7-48,1c-3.6,2.7-5.1,2.3-7.9-1.3c-2.8-3.7-8.2-3.9-11.8-0.3
        c3.4,0.4,17.3,6.9,10,9.3c-4.2-1.1-4.2,0.8-3,4.4c2.1,27,5.2,54,5.7,81.2c-0.2,6.1,6,1.2,8.6,5.1
        C344.7,146.3,338.6,147.1,332.7,151.4z M561.7,403.7c61.6,43.3,132.6-21.9,109.2-89.3c-24.3-66.3-129.2-54.9-144.2,13
        C590.1,237.3,657.3,387.5,561.7,403.7z M147.1,403C53,435.2,74.8,277.1,158,313c-28.7-64.8-135.6-34.2-133.7,34.6
        C14.2,408.1,111.1,454.4,147.1,403z M301.8,503.8c32.1-8.2,72.1-0.4,100.9-4.4c-2.3-10.6,1.5-26.2-14.1-23.9
        C365.6,478,302.5,473.6,301.8,503.8z M395.5,439.1c-14.1-43.2-60.6-26.9-71.9,7.5C346.9,441.7,370.5,438.1,395.5,439.1z
         M116.2,343.4c-1.6,13.2,19.4,17.3,24,5.5C149.2,326.7,116.7,319.7,116.2,343.4z M549.8,339.7c-0.9-19-25.4-13.4-23.8,3.8
        C527.7,358.4,551,354.9,549.8,339.7z"/>
    <path class="st12" d="M646,219.6c11.9,9.3-12.6,15.2-19.7,13.8C621.3,226,639.6,219.5,646,219.6z"/>
    <path class="st12" d="M57.8,244.2c-5.9,0.3-26.4,2.1-16.3-8.7C47.8,230.2,75.7,238.5,57.8,244.2z"/>
    <path class="st12" d="M605.1,219.7c2-6.3,8.4-20.3,16.2-16.8C627.7,210.7,612.8,220.7,605.1,219.7z"/>
    <path class="st12" d="M79.9,222.8c-7.2-2.7-9-13.8-0.2-14.8c3.8,5.3,13.5,9.2,8.6,16.6C85.3,226.1,82.7,223.1,79.9,222.8z"/>
</g>
</svg>
