<?xml version="1.0" encoding="utf-8"?>
<svg version="1.1" id="Layer_1" xmlns="http://www.w3.org/2000/svg" xmlns:xlink="http://www.w3.org/1999/xlink" x="0px" y="0px"
     width="700px" height="600px" viewBox="0 0 700 600" style="enable-background:new 0 0 700 600;" xml:space="preserve">
<style type="text/css">
    .st0{fill:#FFFFFF;}
    .st1{fill:#2E9EBC;}
    .st2{fill:#FDFEFE;}
    .st3{fill:#BA2F5D;}
    .st4{fill:none;stroke:#BA2F5D;stroke-width:3;stroke-miterlimit:10;}
    .st5{fill:none;stroke:#BA2F5D;stroke-width:2;stroke-miterlimit:10;}
    .st6{fill:none;stroke:#BA2F5D;stroke-width:9;stroke-miterlimit:10;}
    .st7{fill:none;stroke:#BA2F5D;stroke-width:1.5;stroke-miterlimit:10;}
    .st8{fill:none;}
    .st9{fill:none;stroke:#FFFFFF;stroke-miterlimit:10;}
    .st10{fill:#FDFEFF;}
    .st11{fill:#FEFEFF;}
    .st12{fill:#DEDEDE;}
    .st13{fill:#F9F9F9;}
    .st14{fill:none;stroke:#DEDEDE;}
</style>
<g>
    <path class="st12" d="M513.2,129c56.9,3.3,59.1,47.6,57.8,93.4c-1.9,3.6-1.4,4.4,2.9,5.6c43.2,7.8,104.8,17.2,112,70.4
        c3.4,47.6-29.3,99.4-79.6,104.3c-29.5,2.1-33.3-6.3-32.6,27.7c-2.6,19.4-3.2,40.1-5.3,59.6c-2.5,20,1.9,43.4-16.9,57.1
        c-35.9,14-77.5,4.7-115.8,7.5c-50.7-1.1-102.9-2.9-154.8-1.9c-30.6-2.5-139.5,20.4-143.7-20.4c-4-37.7-8.2-75.6-9.7-113.7
        c-0.6-4.8-2.2-6.8-7-3.6c-58.9,8.7-111.7-40.2-106.3-99.5c7.2-73,67.1-76,125-89.9c-3.6-0.3-6.3-0.5-9-0.7
        c-0.8-10.8,1.9-20.7,2-31.3c3.1-40.3,6.5-60.9,53.8-64.5c41.8-0.4,84.7-5.4,125.6,2.1c19.6,7.8-49.2,62.7,11.8,104.5
        c35.1,20.6,89.3-5.3,81.4-48.9c0.4-19.6-23.9-32.4-19-51.6c6-11.6,27.4-3.9,38.7-6.1C454.2,127.3,483.5,128.8,513.2,129z
         M606.6,249.2c-116.1-8.2-116.5,152,2.4,139.2C686.8,380.2,697.8,239.5,606.6,249.2z M169,326.3c10.7-87.7-133.2-101.1-143.1-16.6
        C5.8,408.6,171.8,434.4,169,326.3z M331.3,459.2c0,0,0-0.1,0-0.1c7.2-1.8,21.2,3.9,24.8-2.9c-2.1-9,6.2-41.7-3.1-42.7
        c-13.7,2.2-35.5-3.6-45.3,3.6C311.8,450.3,292.3,462.8,331.3,459.2z M382.4,458.7C382.4,458.6,382.4,458.6,382.4,458.7
        c16.7-1.7,24.8,7.2,22.7-15.1c-0.9-8.7,4.6-25.6-2.4-30.4c-12.7,2.4-33.1-4.2-42.1,3.1C364.3,447.7,345.5,462.6,382.4,458.7z
         M290,459C290,459.1,290,459.1,290,459c3.9-1,12.8,2.9,13.2-2.8c-0.4-13.1,1.1-26.1,0.7-39.2c0.6-5-23.7-3.8-24.8-0.1
        C275.3,431.1,265.5,464.5,290,459z M408.5,436c1,14.4-5.8,25.9,14.4,22.6c15.6,1.3,7.7-29.4,4.4-38.5c-2.8-10-6.1-6.2-15-6.9
        C404.2,414,410.3,429.7,408.5,436z"/>
    <path class="st12" d="M326.2,60.4c-4.7-0.2-3.6-8.9,1-7.9c3.5,1.3,18.8-0.4,17.5,4.5C344.5,66.4,332,59.2,326.2,60.4z"/>
    <path class="st12" d="M310.7,50.2c5.2,0.9,5.2,0.9,4.2,6.2c-1.1,5.2-9.7-0.7-13.6,0.1c-1.6-0.6-4.3-0.6-1.8-3.5
        c1.1-1.3,0-4,2.6-4.4C304.8,49.6,307.9,50,310.7,50.2z"/>
    <path class="st12" d="M387.5,62.1c-2.8-0.9-8.5,1.8-8.6-2.7c0.4-7.5,12.9-2.9,18.3-4.1C398.9,63.3,392.9,60.5,387.5,62.1z"/>
    <path class="st12" d="M355.1,54.5c4.7,0.6,9.4,0.7,14.2,0.9c1.7,10.1-9.2,5.6-15.4,6.4C350.6,61.9,353.8,55.3,355.1,54.5z"/>
    <path class="st12" d="M208.1,93.8c7.8-2.4,5.5,6.4,6.8,11.6c-2.5,0.9-5.2,0.6-7.6,1.9C203.4,105.7,203.5,94.2,208.1,93.8z"/>
    <path class="st12" d="M210,123.6c-1.4-2.7-1.8-5.6-2.8-8.8C219.5,107.3,225.6,127.1,210,123.6z"/>
    <path class="st12" d="M431.9,50.7c4.2,0.1,8.5-0.8,12.4-1.9c2.7,0.6,1.8,4.9,0.9,6.8c-1.3,0-2.7,0-3.8,0.8
        c-5.7-0.2-14.2,4.4-11.5-5.1C430.5,51.3,431.3,51.2,431.9,50.7z"/>
    <path class="st12" d="M271.4,47.8c-0.4,9-8.1,5-14.4,4.7C254.5,43.7,267.8,43.8,271.4,47.8z"/>
    <path class="st12" d="M498.9,97.6c4.7,4.1,3.7,11.1-3.9,10.5c-3.8-0.4-3.8-0.4-3.8-4C489.7,97.6,494.4,99,498.9,97.6z"/>
    <path class="st12" d="M282.1,54.7c-4.9,0.5-4.8-3-3.6-6.7c2-3,6.2,0.5,9.2-0.6c4.4-0.1,3.4,5.1,1.7,7.7
        C287,54.5,284.5,54.4,282.1,54.7z"/>
    <path class="st12" d="M250.3,45.7c1.4,8.4-10.6,8.6-14.7,5C237.1,42.9,243.9,46,250.3,45.7z"/>
    <path class="st12" d="M494.1,90c-4.1,0-4.6-13.8,5.5-12.2C500.6,84.1,501.9,89.7,494.1,90z"/>
    <path class="st12" d="M405.8,60.2c-1.5-8.7,7.7-5.3,12.7-7.6c2.3,2,0.9,4.4,0.7,6.7C414.7,59.3,410.3,61.3,405.8,60.2z"/>
    <path class="st12" d="M455.8,54c-2.9-7.3,3.2-8.1,8.6-9.1c4-0.7,3.7,5.7,1.8,7.9C462.6,52.4,459.3,53.8,455.8,54z"/>
    <path class="st12" d="M490.3,123.8c-2.7-7.9,5.9-8.5,11.5-8c-0.3,2.5-0.7,5-1,7.6C497.3,123.5,493.8,123.7,490.3,123.8z"/>
    <path class="st12" d="M227.2,45.8c4-0.3,1.9,3,2,5.6c-4.6,0.1-11.5,1.7-15.1-1C215.6,44.7,223.2,47.6,227.2,45.8z"/>
    <path class="st12" d="M493.3,67.2c1.7-4.2-0.1-8.8,6-7.8c6.9,0.7,1,13.7-6.1,9.2C493.2,68.1,493.5,67.7,493.3,67.2z"/>
    <path class="st12" d="M492.2,51.6c0.5-2.4,0.8-4.8,2-6.9C509.2,45.3,505.7,54.3,492.2,51.6z"/>
    <path class="st12" d="M210,88c-1.3,0.2-2.6,0.3-3.9,0.3C204.2,68.3,221.2,78.3,210,88z"/>
    <path class="st12" d="M218.6,58.3c-2.3,4.6-1.9,12.1-8.4,11.6C210.3,64.3,211.6,56,218.6,58.3z"/>
    <path class="st12" d="M486.4,44c-2.4,2.8-1,8.2-5.8,7.9C472,50.6,479,40.1,486.4,44z"/>
    <path class="st12" d="M601.5,325c-14-2.8-38.8,6.2-47.9-4.6c8.7-12.5,74.2-3.7,93.6-6.1c17.2,16.2-38.1,7.6-45.8,9.6
        C601.5,324.2,601.5,324.6,601.5,325z"/>
    <path class="st12" d="M97.8,325.3c-13.3-2.6-37.2,7.3-45.2-4.1c17.5-13,58.8-2.5,82.6-6.7c29.9,11.5-29.9,10.9-37.4,10.1
        C97.8,324.8,97.8,325.1,97.8,325.3z"/>
</g>
</svg>
