<?xml version="1.0" encoding="utf-8"?>
<svg version="1.1" id="Layer_1" xmlns="http://www.w3.org/2000/svg" xmlns:xlink="http://www.w3.org/1999/xlink" x="0px" y="0px"
     width="700px" height="600px" viewBox="0 0 700 600" style="enable-background:new 0 0 700 600;" xml:space="preserve">
<style type="text/css">
    .st0{fill:#FFFFFF;}
    .st1{fill:#2E9EBC;}
    .st2{fill:#FDFEFE;}
    .st3{fill:#BA2F5D;}
    .st4{fill:none;stroke:#BA2F5D;stroke-width:3;stroke-miterlimit:10;}
    .st5{fill:none;stroke:#BA2F5D;stroke-width:2;stroke-miterlimit:10;}
    .st6{fill:none;stroke:#BA2F5D;stroke-width:9;stroke-miterlimit:10;}
    .st7{fill:none;stroke:#BA2F5D;stroke-width:1.5;stroke-miterlimit:10;}
    .st8{fill:none;}
    .st9{fill:none;stroke:#FFFFFF;stroke-miterlimit:10;}
    .st10{fill:#FDFEFF;}
    .st11{fill:#FEFEFF;}
    .st12{fill:#DEDEDE;}
    .st13{fill:#F9F9F9;}
    .st14{fill:none;stroke:#DEDEDE;}
</style>
<g>
    <path class="st12" d="M486.8,128c-20.1-26.9-54.1-3.1-81.6-10.9c-18.9-13.4-11.8-5-26,12.5c-15.1,16.3-7.8,26,2.4,42.6
        c10,18.3,18.2,40.5,30.6,56.4c11.8-20.3,13.2-45,8.3-67c-0.5-1.3-1.7-2.5-0.1-3.8c8.7-16.2,18.4-12.9,34.7-13.7
        c41.7,0.3,111.3-7.2,114.1,50.4c1.3,12.6,0.4,26.1,2.9,38.2c1.9,9.1-3.8,11.9-10.7,16c-0.2,0-0.4,0.2-0.4,0.4
        c-0.2,0-0.4,0.1-0.4,0.3c-4,3.1-8,4.9-11.3,10.3c4.3-1.9,7.3-3.8,10.3-6.1c0.7,0.1,1.2-0.2,1.5-0.8c0.2,0.1,0.4,0,0.4-0.2
        c56.4-36.2,100,1.5,123,55.1c9.2,50.8-28.2,109.4-82.7,111.5c-8-0.3-16.4,2.3-24.1,3.6c-5.2,0.3-4.9,14.2-3.7,17.5
        c-0.1,0.2-0.1,0.5,0,0.7c-13,139.8,9.6,130.7-137.9,129.8c-89.8-5-181.3,1.9-271.8,0.1c-29.6-0.7-28-30-30.7-51.2
        c-1.2-21.4-3.5-42.3-5.8-63.3c-2.4-8.1,1-20-7.2-24.8C46.2,442-20.8,343.3,34.3,283c28-30.3,67-61.6,109.3-37.1
        c14.9,13-2.8-9.9-9.8-11c-7.9-2,0-22.7-0.7-30c2.3-18.7-0.2-41.8,20.7-51.4c31.1-14.3,67.2-8.8,100.7-10.4
        c8.9,3.2,21.9-4.2,28.7,2.7c11.2,14.7,4.1,16.7,2.9,33c-2.1,11.2,6.5,53.9,18.7,47.9c16.5-25.5,33.1-51,49.6-76.4
        c1.9-18-17.7-36.8-23.8-54.4c-24.6,35.4-76,2.7-99.4,38.8c0,0,0,0,0,0c-6.6,2.4-1.7-8.4-2.5-11.4c4.1-23.6,18.3-48.1,40.4-61.1
        c0,0,0.3,0,0.3,0c3-2.9,7.8-3.5,11.6-5.1c7.1-2.6,16.4-5.4,20.7-13.3c2.5-4.2-5-9.2-0.1-14.1c11-3.8,10,13.7,16.2,19.1
        c14.1,28.8,28.9,57.1,44.1,85.1c-0.3,1.5,1.9,3.3,2.1,0.9c15.2-22.2,29.6-44.9,44-67.5c7-7.7,16.9-37,28.1-29.5
        c3.2,4.1-1.4,7.3-0.7,11c3.3,5.7,6.6,11.3,12.3,15c7.5,6.6,19.6,2.8,28.6,7.7c20.5,13.6,20.8,39.9,15.3,61.7
        c-3.3,0.9-2.4-3.2-4.6-4.5C487,128.3,487,128.1,486.8,128z M24.1,341.8c4.9,95.2,152.2,95.6,146.5-5.1
        C170.4,236.7,20.1,246.9,24.1,341.8z M672.1,323.4c-1.2-92.3-153.5-74.2-145.7,14.6C530.6,438,677.2,417.5,672.1,323.4z
         M368.4,402.2c-83.7,0-91.9,132.2,0,117.6C435.5,511.7,442.9,401.5,368.4,402.2z M362.4,156.9c-17.2,23.5-31.8,49-48.2,73.2
        c-14,16.7,26.7,22.6,37.5,24.1c13.3,1.3,53.4-4.1,50.1-21.4C388.6,207.4,375.7,182.3,362.4,156.9z M241.5,113.5
        c22.1-20.2,82.6,8.1,79.9-35.7c-4.9-5.5-8.5-25-15.4-23.7C281.4,70.6,247.1,79.1,241.5,113.5z M484.6,112.6
        c5.8-36-26.7-29.4-46.6-43c-4.8-2.3-7.2-12.2-11.8-11.6c-4.9,11.1-33.2,37.3-18.9,45C432.1,116.2,460.5,94.1,484.6,112.6z"/>
    <path class="st12" d="M127,325.2c-2.2,50.8-61,49.6-57-2.4C72.6,286.6,128,289.6,127,325.2z M94.7,306.3c-15-3.8-11.4,19.3-2,21.2
        C104.2,326.9,109.2,305.8,94.7,306.3z"/>
    <path class="st12" d="M620.1,311c5.2,51-57.5,64.3-57.9,9.4C562.7,284,615.4,269.5,620.1,311z M578.5,308.9c1.7,0.9,3.4,0.3,5-0.3
        c5.3,1.4,9.3-0.2,12.1-5.3C598.9,290.1,577.6,298.9,578.5,308.9z"/>
    <path class="st12" d="M335.8,456.9c-5.2-1.4-22.1,4.2-18.5-5.3c10.9-47.4,87.1-54.2,94.3-1.4C393.8,459.7,358.5,454.5,335.8,456.9z
        "/>
    <path class="st12" d="M367,469.7c7.8,2.4,49.7-6.6,40.8,7c-8,18.5-28.7,34.4-51,33.5c-19.9-0.8-37.2-15.4-40.7-35
        c0.2-11.2,40.9-3.1,50.9-5.1C367,470,367,469.9,367,469.7z"/>
</g>
</svg>
