<?xml version="1.0" encoding="utf-8"?>
<!-- Generator: Adobe Illustrator 24.2.0, SVG Export Plug-In . SVG Version: 6.00 Build 0)  -->
<svg version="1.1" id="Layer_1" xmlns="http://www.w3.org/2000/svg" xmlns:xlink="http://www.w3.org/1999/xlink" x="0px" y="0px"
	 width="40px" height="30px" viewBox="0 0 40 30" enable-background="new 0 0 40 30" xml:space="preserve">
<g id="Group_75_12_" transform="translate(-370.444 2847.021)">
	<g>
		<defs>
			<path id="SVGID_42_" d="M407.863-2836.046c-0.735,0.038-1.404,0.43-1.787,1.046c-0.103,0.159-0.318,0.205-0.48,0.104
				c-0.096-0.06-0.156-0.163-0.161-0.275c-0.201-3.258-0.749-6.273-1.635-9.419c-0.188-0.667-0.742-1.173-1.434-1.311
				c-2.806-0.569-5.649-0.943-8.509-1.119c-0.259-0.015-0.48,0.178-0.496,0.432c-0.008,0.139,0.048,0.273,0.153,0.367
				c0.771,0.694,1.212,1.671,1.218,2.696c-0.1,2.223-2.016,3.948-4.284,3.857c-2.269,0.091-4.185-1.634-4.284-3.857
				c0.006-1.026,0.447-2.002,1.218-2.696c0.192-0.171,0.206-0.461,0.032-0.649c-0.095-0.103-0.233-0.158-0.375-0.15
				c-2.86,0.177-5.703,0.551-8.509,1.119c-0.692,0.138-1.246,0.645-1.434,1.311c-0.885,3.146-1.433,6.162-1.635,9.419
				c-0.007,0.188-0.169,0.335-0.361,0.328c-0.114-0.004-0.219-0.063-0.28-0.157c-0.383-0.616-1.052-1.008-1.787-1.046
				c-1.43,0-2.59,1.695-2.59,3.785c0,2.091,1.16,3.786,2.59,3.786c0.734-0.038,1.402-0.429,1.785-1.043
				c0.103-0.159,0.318-0.205,0.48-0.104c0.096,0.06,0.156,0.163,0.161,0.275c0.205,3.313,0.749,6.991,1.622,10.197
				c0.195,0.715,0.808,1.245,1.555,1.346c2.958,0.403,5.742,0.664,8.468,0.783c0.259,0.01,0.478-0.187,0.489-0.441
				c0.006-0.138-0.052-0.271-0.157-0.363c-0.805-0.696-1.27-1.695-1.277-2.746c0.1-2.222,2.016-3.947,4.284-3.857
				c2.269-0.09,4.184,1.635,4.284,3.857c-0.007,1.052-0.472,2.051-1.277,2.746c-0.194,0.169-0.211,0.46-0.039,0.65
				c0.094,0.103,0.23,0.159,0.37,0.154c2.729-0.119,5.51-0.38,8.468-0.783c0.748-0.101,1.361-0.632,1.555-1.346
				c0.873-3.206,1.416-6.885,1.622-10.197c0.007-0.188,0.169-0.335,0.361-0.328c0.114,0.004,0.219,0.063,0.28,0.157
				c0.383,0.615,1.051,1.005,1.785,1.043c1.43,0,2.59-1.696,2.59-3.786S409.293-2836.046,407.863-2836.046z"/>
		</defs>
		<use xlink:href="#SVGID_42_"  overflow="visible" fill="#656565"/>
		<clipPath id="SVGID_1_">
			<use xlink:href="#SVGID_42_"  overflow="visible"/>
		</clipPath>
	</g>
</g>
</svg>
