<?xml version="1.0" encoding="utf-8"?>
<!-- Generator: Adobe Illustrator 24.2.0, SVG Export Plug-In . SVG Version: 6.00 Build 0)  -->
<svg version="1.1" id="Layer_1" xmlns="http://www.w3.org/2000/svg" xmlns:xlink="http://www.w3.org/1999/xlink" x="0px" y="0px"
	 width="256px" height="192px" viewBox="0 0 256 192" enable-background="new 0 0 256 192" xml:space="preserve">
<g id="Group_75_10_" transform="translate(-370.444 2847.021)">
	<g>
		<defs>
			<path id="SVGID_66_" d="M609.925-2776.781c-4.706,0.246-8.985,2.75-11.436,6.694c-0.661,1.016-2.038,1.315-3.075,0.667
				c-0.616-0.385-1.001-1.043-1.028-1.758c-1.289-20.85-4.795-40.147-10.462-60.284c-1.204-4.266-4.75-7.508-9.175-8.391
				c-17.958-3.64-36.155-6.034-54.457-7.163c-1.655-0.095-3.075,1.141-3.172,2.764c-0.053,0.887,0.306,1.75,0.978,2.348
				c4.934,4.441,7.758,10.693,7.795,17.256c-0.639,14.226-12.901,25.265-27.421,24.686c-14.52,0.579-26.782-10.459-27.421-24.686
				c0.037-6.564,2.861-12.816,7.795-17.256c1.227-1.092,1.318-2.951,0.203-4.154c-0.61-0.658-1.491-1.01-2.397-0.958
				c-18.302,1.129-36.499,3.523-54.457,7.163c-4.426,0.883-7.972,4.125-9.176,8.391c-5.666,20.137-9.173,39.434-10.462,60.284
				c-0.046,1.204-1.08,2.145-2.309,2.098c-0.73-0.027-1.401-0.404-1.794-1.007c-2.451-3.944-6.73-6.448-11.436-6.694
				c-9.153,0-16.575,10.846-16.575,24.228s7.422,24.228,16.575,24.228c4.699-0.245,8.972-2.744,11.425-6.678
				c0.661-1.016,2.038-1.314,3.075-0.667c0.616,0.385,1.001,1.043,1.028,1.758c1.315,21.2,4.792,44.74,10.378,65.261
				c1.247,4.572,5.17,7.968,9.955,8.615c18.93,2.58,36.746,4.25,54.195,5.013c1.659,0.066,3.059-1.196,3.128-2.823
				c0.037-0.883-0.332-1.735-1.006-2.323c-5.153-4.453-8.125-10.846-8.173-17.577c0.642-14.223,12.902-25.261,27.421-24.686
				c14.519-0.575,26.779,10.462,27.421,24.686c-0.048,6.731-3.02,13.125-8.173,17.577c-1.241,1.082-1.353,2.944-0.249,4.16
				c0.599,0.661,1.469,1.021,2.371,0.986c17.466-0.763,35.266-2.434,54.195-5.013c4.785-0.647,8.708-4.042,9.955-8.615
				c5.587-20.521,9.064-44.061,10.378-65.261c0.046-1.204,1.08-2.144,2.309-2.098c0.73,0.027,1.401,0.404,1.794,1.007
				c2.452,3.935,6.726,6.433,11.425,6.678c9.153,0,16.575-10.851,16.575-24.228S619.078-2776.781,609.925-2776.781z"/>
		</defs>
		<use xlink:href="#SVGID_66_"  overflow="visible" fill="#0F73ED"/>
		<clipPath id="SVGID_1_">
			<use xlink:href="#SVGID_66_"  overflow="visible"/>
		</clipPath>
	</g>
</g>
</svg>
