<?xml version="1.0" encoding="UTF-8"?>
<svg width="24px" height="23px" viewBox="0 0 24 23" version="1.1" xmlns="http://www.w3.org/2000/svg" xmlns:xlink="http://www.w3.org/1999/xlink">
    <!-- Generator: Sketch 54.1 (76490) - https://sketchapp.com -->
    <title>HasGeek logo-12-2 Copy 2</title>
    <desc>Created with Sketch.</desc>
    <g id="Home-Page---Fold-1" stroke="none" stroke-width="1" fill="none" fill-rule="evenodd">
        <g id="HasGeek-logo-12-2-Copy-2" fill="#E05F25" fill-rule="nonzero">
            <g id="Group">
                <path d="M11.842744,0.727610994 C5.30855443,0.715179704 0.00759377421,6.02054968 0.00759377421,12.5667653 C0.00759377421,16.9116279 2.34293247,20.7097674 5.82391857,22.7693023 C6.06033808,22.9090909 6.36510155,22.7852854 6.43673615,22.5196617 C6.6491087,21.7334461 7.0796757,21.2184355 7.0796757,21.2184355 C7.0796757,21.2184355 9.03330068,18.7309091 11.8424909,18.7304017 C14.6519342,18.7311628 16.6053061,21.2184355 16.6053061,21.2184355 C16.6053061,21.2184355 17.0358731,21.7336998 17.2482456,22.5196617 C17.3198802,22.7852854 17.6246437,22.9090909 17.8610632,22.7693023 C21.3423024,20.7097674 23.677388,16.9116279 23.677388,12.5667653 C23.6778943,6.02054968 18.3769336,0.715179704 11.842744,0.727610994 Z" id="Path"></path>
            </g>
        </g>
    </g>
</svg>