<?xml version="1.0" encoding="UTF-8"?>
<svg width="79px" height="33px" viewBox="0 0 79 33" version="1.1" xmlns="http://www.w3.org/2000/svg" xmlns:xlink="http://www.w3.org/1999/xlink">
    <!-- Generator: Sketch 54.1 (76490) - https://sketchapp.com -->
    <title>HasGeek logo-12-3 Copy 2</title>
    <desc>Created with Sketch.</desc>
    <defs>
        <radialGradient cx="50.0006951%" cy="49.999738%" fx="50.0006951%" fy="49.999738%" r="52.7087131%" gradientTransform="translate(0.500007,0.499997),scale(0.923873,1.000000),translate(-0.500007,-0.499997)" id="radialGradient-1">
            <stop stop-color="#FCC372" offset="0%"></stop>
            <stop stop-color="#FCC372" offset="22.98%"></stop>
            <stop stop-color="#F28F3F" offset="45.23%"></stop>
            <stop stop-color="#ED693C" offset="63.38%"></stop>
            <stop stop-color="#D16953" offset="72.24%"></stop>
            <stop stop-color="#9A6A7F" offset="90.94%"></stop>
            <stop stop-color="#846A90" offset="100%"></stop>
        </radialGradient>
    </defs>
    <g id="Navbar---Desktop,-Tablet" stroke="none" stroke-width="1" fill="none" fill-rule="evenodd">
        <g id="HasGeek-logo-12-3-Copy-2" fill-rule="nonzero">
            <g id="Group">
                <g transform="translate(35.094895, 0.000000)">
                    <g transform="translate(0.207458, 0.000000)" fill="#E95D25">
                        <path d="M8.95490332,15.172374 L6.27766418,15.172374 L6.27766418,8.15027313 C6.27766418,7.19732761 5.91565083,6.71999758 5.18782074,6.71999758 C4.43267541,6.71999758 3.69066906,7.03958924 2.96422202,7.67877256 L2.96422202,15.172374 L0.204345645,15.172374 L0.204345645,3.07109753 C0.204345645,1.951498 0.136576193,1.15354758 0,0.677589183 L2.78200518,0.0229749369 C2.9026763,0.59666254 2.96422202,1.45050721 2.96422202,2.58485185 L2.96422202,4.67557111 L2.96422202,5.11415237 L2.96422202,5.5554769 C3.75878428,4.82233638 4.75492608,4.45233702 5.94849827,4.45233702 C6.5255759,4.45233702 7.06047051,4.56858334 7.55421938,4.79833271 C8.13164278,5.07128868 8.50921544,5.44917495 8.68728313,5.93199154 C8.8646593,6.41275066 8.95490332,7.06153545 8.95490332,7.87594553 L8.95490332,15.172374 Z" id="Path"></path>
                        <path d="M20.6119407,14.0287708 L19.149711,15.7021692 C18.4360572,15.4038379 17.9419626,14.9834308 17.6677729,14.437176 C17.3925459,14.6953869 17.1802477,14.8809009 17.0291495,14.9889174 C16.4939091,15.3719473 15.7878621,15.5598617 14.9099711,15.5598617 C13.783131,15.5598617 12.9128468,15.2965072 12.2942777,14.7684266 C11.6228069,14.2111986 11.2853427,13.391302 11.2853427,12.3032502 C11.2853427,9.9169429 12.9671315,8.72087455 16.3320923,8.72087455 L16.9478953,8.72087455 L16.9478953,8.2970384 C16.9478953,7.74426828 16.8783971,7.36603909 16.7418209,7.16509412 C16.5775837,6.89522434 16.2363161,6.76080381 15.7173265,6.76080381 C14.8677881,6.76080381 13.8564327,7.14897737 12.6801486,7.92498158 L11.5121629,5.96456794 C12.0066033,5.65183447 12.5750368,5.36721958 13.2209212,5.10798 C14.2360799,4.69786023 15.1976455,4.49451489 16.1028517,4.49451489 C17.9419626,4.49451489 19.0743348,5.10112181 19.50066,6.31227818 C19.6372362,6.70662411 19.6994734,7.33140523 19.6856429,8.19039354 L19.6240972,11.8859293 C19.6240972,12.4301267 19.6783819,12.838189 19.7883344,13.1118308 C19.9249106,13.4231926 20.2001375,13.7300966 20.6119407,14.0287708 L20.6119407,14.0287708 Z M16.8849666,10.598647 L16.7632581,10.598647 C15.9386146,10.598647 15.3646488,10.6682576 15.0413608,10.8030211 C14.4992052,11.0361995 14.2298562,11.4974128 14.2298562,12.1924904 C14.2298562,12.5744916 14.3360053,12.8968265 14.5496865,13.1632672 C14.7619847,13.4266217 15.0610693,13.5603564 15.4455572,13.5603564 C15.9662756,13.5603564 16.4472312,13.3223772 16.8853123,12.845733 L16.8853123,10.598647 L16.8849666,10.598647 Z" id="Shape"></path>
                        <path d="M30.2711622,11.8735845 C30.2711622,13.0566223 29.8043828,13.9715049 28.8718613,14.6216613 C28.0344245,15.2066649 26.9985201,15.4998526 25.7631106,15.4998526 C24.4720334,15.4998526 23.0512952,15.0976197 21.5012419,14.2948686 L22.4904684,12.29262 C23.7933016,13.0837122 24.9599043,13.4787439 25.9885478,13.4787439 C26.3602425,13.4787439 26.6862965,13.3748424 26.9674014,13.1629243 C27.2474691,12.9503204 27.3885402,12.6650197 27.3885402,12.296392 C27.3885402,11.6297759 26.8463845,11.2031965 25.7631106,11.0139104 L24.5280469,10.7896476 C22.838997,10.4765712 21.996028,9.49927912 21.996028,7.85605677 C21.996028,6.76834782 22.4067939,5.91210279 23.2293629,5.28629294 C23.9851998,4.73146536 24.9329348,4.45233702 26.0718765,4.45233702 C27.238825,4.45233702 28.4942887,4.77741523 29.8389591,5.42517129 L28.9323698,7.25047859 C27.9313873,6.7604609 27.0662895,6.51665224 26.3401882,6.51665224 C25.4470837,6.51665224 25.0013958,6.85510393 25.0013958,7.53406475 C25.0013958,8.01036605 25.4401684,8.36287702 26.3184052,8.59262639 L27.5942689,8.92147661 C29.3784034,9.38268989 30.2711622,10.3658114 30.2711622,11.8735845" id="Path"></path>
                    </g>
                    <g transform="translate(0.000000, 13.270598)" fill="#846A90" id="Shape">
                        <path d="M11.2666715,5.85346526 C10.7048074,6.36920116 10.058923,6.6267262 9.33213022,6.6267262 C9.20834724,6.6267262 8.96769653,6.59380688 8.61156114,6.52488207 C9.02267277,7.02210086 9.2280557,7.59544555 9.2280557,8.25451762 C9.2280557,9.24552609 8.81832713,10.0256452 7.9940293,10.602419 C7.25306023,11.1229556 6.36756244,11.3849385 5.33822744,11.3849385 L4.92677005,11.3849385 C4.19790267,11.7264764 3.83519779,12.0114342 3.83519779,12.243241 C3.83519779,12.4047514 3.98629601,12.4880784 4.28780092,12.4880784 L5.76973905,12.4880784 C8.50091714,12.5281988 9.86598754,13.5843601 9.86598754,15.6527902 C9.86598754,16.8910364 9.31795396,17.8144917 8.2208495,18.4282997 C7.34088391,18.9179745 6.22337947,19.1631548 4.86418703,19.1631548 C3.62912333,19.1631548 2.57835106,18.9731829 1.71394478,18.5925534 C0.575348821,18.075103 0.00587796272,17.271666 0.00587796272,16.1822425 C0.00587796272,15.8022987 0.0874779157,15.4497878 0.252752397,15.1205947 L2.80517127,15.1205947 C2.72253403,15.3527444 2.68173405,15.5773501 2.68173405,15.7950976 C2.68173405,16.6537431 3.34041164,17.0803225 4.65776681,17.0803225 C6.26417944,17.0803225 7.06704,16.6112223 7.06704,15.672679 C7.06704,14.8970177 6.42115563,14.4745531 5.1328445,14.4066571 L3.95863501,14.4066571 C3.20348968,14.3929407 2.64197136,14.3607072 2.27027666,14.3058417 C1.54279233,14.183423 1.06391125,13.9375569 0.828101218,13.5709866 C0.691525026,13.2980306 0.623755573,13.0134157 0.623755573,12.7116554 C0.623755573,11.8540387 1.26756537,11.2686922 2.55967988,10.9569874 C1.0486977,10.5749862 0.293552373,9.60935308 0.293552373,8.05768756 C0.293552373,6.88596578 0.753762278,5.98925743 1.6731448,5.36379049 C2.48395789,4.80313345 3.50499459,4.52537675 4.74109558,4.52537675 C5.11209875,4.52537675 5.64699336,4.6066463 6.34681669,4.76952831 C7.04698577,4.93412488 7.57496513,5.01505152 7.93213781,5.01505152 C8.71321532,5.01505152 9.44035389,4.71672025 10.1138993,4.11628571 L11.2666715,5.85346526 Z M6.38830819,8.07791922 C6.38830819,7.04370416 5.83163054,6.52488207 4.72000406,6.52488207 C3.62255385,6.52488207 3.07279145,7.04404706 3.07279145,8.07791922 C3.07279145,9.07064224 3.61598436,9.56751812 4.69822102,9.56751812 C5.82436953,9.56751812 6.38830819,9.07064224 6.38830819,8.07791922 L6.38830819,8.07791922 Z"></path>
                        <path d="M20.8242389,10.8136513 L14.7305203,10.8136513 L14.7305203,10.8959495 C14.7305203,12.5827214 15.4714894,13.4269646 16.9534275,13.4269646 C17.9015083,13.4269646 18.7925383,13.0809689 19.6292836,12.3858913 L20.7001101,14.0184835 C19.5065379,14.9861741 18.1819217,15.467962 16.7269531,15.467962 C15.148893,15.467962 13.9134835,14.9491399 13.0207247,13.9162965 C12.1698032,12.9362611 11.7455526,11.648293 11.7455526,10.0558213 C11.7455526,8.46712151 12.1086032,7.17058067 12.835396,6.1758002 C13.6590023,5.06203012 14.8404728,4.50548799 16.3763499,4.50548799 C19.3405719,4.50548799 20.8242389,6.39663392 20.8242389,10.1799545 L20.8242389,10.8136513 Z M17.9630541,8.81174557 L17.9630541,8.6903556 C17.9630541,7.23230438 17.4402611,6.50465041 16.399516,6.50465041 C15.2858149,6.50465041 14.7305203,7.27379643 14.7305203,8.81174557 L17.9630541,8.81174557 Z"></path>
                        <path d="M31.8270935,10.8136513 L25.7326835,10.8136513 L25.7326835,10.8959495 C25.7326835,12.5827214 26.4736526,13.4269646 27.9559364,13.4269646 C28.9033257,13.4269646 29.795393,13.0809689 30.6321383,12.3858913 L31.7033106,14.0184835 C30.5087011,14.9861741 29.1840849,15.467962 27.7287705,15.467962 C26.1524392,15.467962 24.9156467,14.9491399 24.0235794,13.9162965 C23.1730036,12.9362611 22.7484072,11.648293 22.7484072,10.0558213 C22.7484072,8.46712151 23.1107664,7.17058067 23.8389422,6.1758002 C24.6625485,5.06203012 25.8419444,4.50548799 27.3805876,4.50548799 C30.3434266,4.50548799 31.8270935,6.39663392 31.8270935,10.1799545 L31.8270935,10.8136513 Z M28.9666003,8.81174557 L28.9666003,8.6903556 C28.9666003,7.23230438 28.4434616,6.50465041 27.4009876,6.50465041 C26.2886696,6.50465041 25.7326835,7.27379643 25.7326835,8.81174557 L28.9666003,8.81174557 Z"></path>
                        <path d="M36.7932805,15.1614009 L34.0344414,15.1614009 L34.0344414,3.39651865 C34.0344414,2.40448145 33.9728957,1.500572 33.848767,0.684790283 L36.6283518,0.0133734707 C36.7383043,0.705021944 36.7936263,1.83490876 36.7936263,3.39651865 L36.7936263,15.1614009 L36.7932805,15.1614009 Z M43.6490596,15.1614009 L40.3954344,15.1614009 L36.855172,9.24106827 L39.5510823,4.66768419 L42.8672906,4.66768419 L39.5116654,9.07681461 L43.6490596,15.1614009 Z"></path>
                    </g>
                </g>
                <path d="M16.1768449,0.983464462 C7.25133142,0.966661896 0.0103728754,8.13758548 0.0103728754,16.9856795 C0.0103728754,22.8583476 3.20037782,27.9920459 7.9553039,30.7757852 C8.27824608,30.9647284 8.69454415,30.7973885 8.79239494,30.4383623 C9.08248969,29.3756857 9.67063172,28.6795794 9.67063172,28.6795794 C9.67063172,28.6795794 12.3392268,25.3173517 16.1764992,25.3166659 C20.0141173,25.3176946 22.6823666,28.6795794 22.6823666,28.6795794 C22.6823666,28.6795794 23.2705086,29.3760286 23.5606034,30.4383623 C23.6584542,30.7973885 24.0747522,30.9647284 24.3976944,30.7757852 C29.1529663,27.9920459 32.3426254,22.8583476 32.3426254,16.9856795 C32.343317,8.13758548 25.1023584,0.966661896 16.1768449,0.983464462 Z" id="Path" fill="url(#radialGradient-1)"></path>
            </g>
        </g>
    </g>
</svg>