<?xml version="1.0" encoding="utf-8"?>
<!-- Generator: Adobe Illustrator 24.2.1, SVG Export Plug-In . SVG Version: 6.00 Build 0)  -->
<svg version="1.1" id="Layer_1" xmlns="http://www.w3.org/2000/svg" xmlns:xlink="http://www.w3.org/1999/xlink" x="0px" y="0px"
     width="40px" height="30px" viewBox="0 0 40 30" enable-background="new 0 0 40 30" xml:space="preserve">
<path fill="#0F73ED" d="M39.982,14.339c-0.179-2.049-1.662-3.592-3.312-3.448c-0.722,0.063-1.357,0.44-1.827,1.015
    c-0.099,0.121-0.262,0.171-0.41,0.12l-0.016-0.006c-0.077-0.027-0.13-0.098-0.133-0.18c-0.119-3.026-0.467-6.13-0.929-9.155
    c-0.162-1.061-1.005-1.887-2.07-2.024C28.673,0.325,26.073,0.105,23.477,0c-0.421-0.017-0.728,0.392-0.593,0.791l0,0
    c0.028,0.082,0.074,0.155,0.132,0.219c0.648,0.705,1.043,1.634,1.043,2.652c0,2.205-1.847,3.993-4.126,3.993
    s-4.126-1.788-4.126-3.993c0-1.018,0.395-1.947,1.043-2.652c0.058-0.063,0.104-0.137,0.132-0.219l0,0
    C17.117,0.392,16.809-0.017,16.389,0c-2.595,0.105-5.194,0.325-7.806,0.661c-1.064,0.137-1.908,0.963-2.07,2.024
    C6.051,5.711,5.819,8.818,5.7,11.845c-0.003,0.082-0.056,0.153-0.133,0.18h0c-0.148,0.052-0.311,0.002-0.41-0.12
    c-0.47-0.575-1.104-0.952-1.827-1.015c-1.65-0.144-3.133,1.399-3.312,3.448c-0.179,2.049,1.013,3.826,2.663,3.971
    c0.91,0.08,1.769-0.355,2.386-1.103c0.079-0.096,0.21-0.132,0.328-0.091h0c0.165,0.057,0.276,0.21,0.282,0.384
    c0.101,3.248,0.399,6.573,0.895,9.819c0.162,1.059,1.006,1.883,2.069,2.02c2.612,0.336,5.211,0.556,7.806,0.661
    c0.421,0.017,0.728-0.392,0.593-0.791v0c-0.028-0.082-0.074-0.155-0.132-0.219c-0.648-0.705-1.043-1.634-1.043-2.652
    c0-2.205,1.847-3.993,4.126-3.993s4.126,1.788,4.126,3.993c0,1.018-0.395,1.947-1.043,2.652c-0.058,0.063-0.104,0.137-0.132,0.219
    l0,0c-0.135,0.399,0.173,0.808,0.593,0.791c2.596-0.105,5.196-0.325,7.809-0.662c1.063-0.137,1.907-0.961,2.069-2.02
    c0.496-3.244,0.793-6.568,0.895-9.814c0.005-0.174,0.117-0.327,0.282-0.384l0.016-0.006c0.118-0.041,0.249-0.005,0.328,0.091
    c0.618,0.749,1.477,1.183,2.386,1.103C38.969,18.165,40.161,16.387,39.982,14.339z"/>
</svg>
