<?xml version="1.0" encoding="utf-8"?>
<!-- Generator: Adobe Illustrator 24.2.1, SVG Export Plug-In . SVG Version: 6.00 Build 0)  -->
<svg version="1.1" id="Layer_1" xmlns="http://www.w3.org/2000/svg" xmlns:xlink="http://www.w3.org/1999/xlink" x="0px" y="0px"
     width="410px" height="251px" viewBox="0 0 410 251" enable-background="new 0 0 410 251" xml:space="preserve">
<g>
    <path fill="#4491EF" d="M30.523,1.948c1.986,4.936,4.387,9.694,7.176,14.224c1.263,2.044,4.497,0.165,3.228-1.892
        c-2.629-4.244-4.895-8.702-6.773-13.327c-0.891-2.203-4.51-1.22-3.606,0.995L30.523,1.948z"/>
    <path fill="#4491EF" d="M63.787,3.388l0.824,4.021c0.282,0.99,1.306,1.572,2.301,1.306c0.987-0.29,1.565-1.311,1.306-2.307
        l-0.824-4.021c-0.22-1.011-1.217-1.653-2.228-1.433c-1.011,0.22-1.653,1.217-1.433,2.228c0.015,0.067,0.033,0.134,0.055,0.199
        V3.388z"/>
    <path fill="#4491EF" d="M99.18,4.2l1.379,7.121c0.458,2.362,4.064,1.367,3.606-0.995l-1.379-7.121
        C102.329,0.844,98.722,1.845,99.18,4.2z"/>
    <path fill="#4491EF" d="M203.601,18.669l6.102-16c0.867-2.252-2.752-3.228-3.606-0.995l-6.102,16
        C199.135,19.926,202.747,20.896,203.601,18.669z"/>
    <path fill="#4491EF" d="M253.432,22.092c1.815-2.725,3.307-5.651,4.449-8.72c0.854-2.258-2.764-3.234-3.606-0.995
        c-1.058,2.76-2.434,5.388-4.101,7.829c-1.342,2.002,1.898,3.875,3.234,1.886H253.432z"/>
    <path fill="#4491EF" d="M350.006,28.774c2.487-2.336,4.772-4.88,6.828-7.603c1.458-1.916-1.794-3.783-3.228-1.892
        c-1.883,2.457-3.973,4.748-6.249,6.847C345.594,27.767,348.243,30.397,350.006,28.774L350.006,28.774z"/>
    <path fill="#4491EF" d="M389.164,44.328c5.871-6.124,12.194-11.797,18.917-16.97c1.886-1.44,0-4.693-1.886-3.228
        c-6.986,5.347-13.556,11.216-19.655,17.556c-1.666,1.733,0.976,4.381,2.648,2.642H389.164z"/>
    <path fill="#4491EF" d="M1.812,46.232c4.007,3.283,8.167,6.365,12.479,9.245c2.008,1.342,3.881-1.898,1.886-3.228
        c-4.044-2.705-7.951-5.592-11.722-8.659C2.624,42.077-0.055,44.713,1.812,46.232z"/>
    <path fill="#4491EF" d="M15.414,88.643l-7.06-0.25c-2.441-0.085-2.404,3.661,0,3.741l7.06,0.25
        C17.819,92.463,17.819,88.722,15.414,88.643z"/>
    <path fill="#4491EF" d="M9.092,144.93c-2.297,1.033-4.765,1.633-7.28,1.77c-2.392,0.146-2.441,3.893,0,3.741
        c3.167-0.195,6.27-0.975,9.153-2.301c2.185-1.001,0.287-4.223-1.892-3.234L9.092,144.93z"/>
    <path fill="#4491EF" d="M398.098,78.562c-0.458,0.201,0.47-0.165,0.549-0.189c0.458-0.165,0.921-0.323,1.379-0.476l3.552-1.22
        c1.831-0.61,3.661-1.141,5.443-1.916c2.203-0.97,0.299-4.192-1.886-3.234c0.458-0.201-0.47,0.165-0.549,0.195l-1.379,0.476
        l-3.552,1.184c-1.831,0.61-3.661,1.147-5.443,1.916c-2.203,0.97-0.299,4.192,1.886,3.234V78.562z"/>
    <path fill="#4491EF" d="M394.126,122.962c2.813-1.601,5.979-2.481,9.214-2.563c2.404-0.073,2.441-3.814,0-3.741
        c-3.894,0.109-7.702,1.173-11.088,3.1c-2.099,1.178-0.214,4.412,1.886,3.228L394.126,122.962z"/>
    <path fill="#4491EF" d="M388.969,155.743l4.754,2.276c0.897,0.491,2.022,0.197,2.563-0.671c0.511-0.893,0.212-2.03-0.671-2.557
        l-4.76-2.282c-0.895-0.491-2.018-0.196-2.557,0.671C387.783,154.074,388.082,155.216,388.969,155.743L388.969,155.743z"/>
    <path fill="#4491EF" d="M9.361,120.863l-4.54-0.445c-1.032,0.007-1.867,0.842-1.873,1.873c0.01,1.034,0.84,1.872,1.873,1.892
        l4.54,0.445c1.029-0.01,1.861-0.844,1.867-1.873c-0.023-1.022-0.846-1.845-1.867-1.867V120.863z"/>
    <path fill="#4491EF" d="M384.643,181.269l12.29,11.869c1.733,1.672,4.381-0.97,2.648-2.648l-12.296-11.844
        c-1.733-1.672-4.381,0.97-2.642,2.648V181.269z"/>
    <path id="Path_194-2" fill="#7695BB" d="M154.515,197.66c1.576-0.801,3.482-0.559,4.809,0.61c0.52,0.39,0.88,0.956,1.013,1.593
        c0.096,0.397,0.44,0.684,0.848,0.708c1.056,0.122,2.105,0.336,3.161,0.506c0.842,0.135,1.656,0.407,2.41,0.805
        c1.296,0.635,2.05,2.02,1.879,3.454c-0.14,1.605-0.275,3.21-0.458,4.809c-0.067,0.781-0.116,0.781-0.854,0.897
        c-1.153,0.195-2.264,0.488-2.978,1.385c-1.288,1.617-1.983,3.393-1.306,5.492c0.256,0.8,0.637,1.553,1.129,2.233
        c0.418,0.567,1,0.992,1.666,1.22c0.867,0.299,0.86,0.391,0.653,1.257c-0.415,1.599-0.781,3.24-1.147,4.882
        c-0.262,1.05-0.476,2.099-0.781,3.1c-0.238,0.783-0.892,1.368-1.696,1.519c-0.603,0.125-1.223,0.137-1.831,0.037
        c-2.246-0.342-4.442-0.61-6.712-0.97c-1.422-0.226-2.789-0.61-4.204-0.812c-3.112-0.409-6.182-0.909-9.251-1.22
        c-1.513-0.134-3.051-0.36-4.534-0.61c-0.715-0.066-1.402-0.307-2.002-0.702c-0.523-0.309-0.826-0.889-0.781-1.495
        c0.067-0.867,0.049-1.739,0.122-2.661c0.027-1.748,0.167-3.493,0.421-5.224c0.055-0.366-0.122-0.555-0.488-0.61
        c-1.063-0.123-2.105-0.386-3.1-0.781c-1.175-0.349-2.183-1.112-2.838-2.148c-1.32-1.928-1.551-4.402-0.61-6.542
        c0.621-1.51,1.811-2.716,3.314-3.356c0.514-0.254,1.092-0.35,1.66-0.275c1.177-0.001,2.338,0.283,3.381,0.83
        c0.537,0.342,0.61,0.293,0.696-0.391c0.287-1.922,0.891-3.741,1.355-5.614c0.311-1.184,1.22-1.617,2.307-1.831
        c1.038-0.113,2.086-0.113,3.124,0c2.105,0.201,4.211,0.61,6.267,0.964c0.375,0.058,0.742,0.161,1.092,0.305
        c0.365,0.074,0.602,0.428,0.531,0.793c-0.024,0.175-0.13,0.327-0.287,0.409c-1.375,1.351-1.908,3.342-1.391,5.199
        c0.451,1.266,1.485,2.236,2.777,2.606c2.41,0.897,5.12-0.61,6.279-2.532c0.092-0.134,0.146-0.275,0.238-0.409
        c1.002-1.716,0.767-3.885-0.58-5.346c-0.226-0.281-0.537-0.525-0.763-0.806C156.433,198.166,155.507,197.698,154.515,197.66z
         M154.021,213.525c-0.119-0.105-0.3-0.094-0.405,0.025c-0.003,0.004-0.007,0.008-0.01,0.012c-1.369,0.732-2.798,1.344-4.272,1.831
        c-3.429,1.141-6.828,2.612-10.593,2.502c-0.275,0-0.323,0.177-0.238,0.36c0.038,0.18,0.129,0.344,0.262,0.47
        c0.219,0.22,0.329,0.527,0.299,0.836c0.067,0.69,0.067,0.69,0.714,0.665c0.873,0,1.751-0.092,2.532-0.067
        c3.307-0.049,6.621-0.226,9.941-0.61c0.405-0.011,0.743-0.313,0.799-0.714c0.159-0.641,0.269-1.281,0.421-1.873
        c0.253-1.141,0.437-2.297,0.549-3.46V213.525z M150.933,223.362c-0.228-0.2-0.515-0.32-0.818-0.342
        c-1.733-0.323-3.515-0.744-5.303-0.976c-1.655-0.166-3.324-0.12-4.967,0.134c-0.506,0.031-0.555,0.165-0.427,0.61
        c0.494,1.831,1.471,3.051,3.619,3.551c1.886,0.318,3.825,0.034,5.541-0.812c0.962-0.513,1.774-1.268,2.355-2.191V223.362z"/>
    <path id="Path_200-2" fill="#7695BB" d="M154.466,204.122c-0.098,0.708-0.404,1.37-0.879,1.904
        c-1.153,1.764-3.289,0.873-3.893-0.476c-0.604-1.349-0.116-2.392,0.696-3.381c0.724-0.796,1.858-1.074,2.868-0.702
        C154.203,201.988,154.694,203.067,154.466,204.122z M152.776,203.847c0.055-0.275-0.128-0.372-0.61-0.482
        c-0.482-0.11-0.83,0.165-0.842,0.531c0.02,0.356,0.266,0.659,0.61,0.751c0.431-0.044,0.779-0.372,0.848-0.799H152.776z"/>
    <path id="Path_204-2" fill="#FFFFFF" d="M154.021,213.501c-0.08,1.155-0.252,2.302-0.513,3.429
        c-0.159,0.641-0.268,1.281-0.421,1.873c-0.056,0.401-0.394,0.703-0.799,0.714c-3.277,0.366-6.633,0.549-9.947,0.61
        c-0.873,0-1.751,0.085-2.526,0.067s-0.69,0-0.72-0.665c0.036-0.31-0.074-0.619-0.299-0.836c-0.104-0.147-0.191-0.305-0.262-0.47
        c-0.085-0.232-0.037-0.366,0.244-0.36c3.765,0.11,7.115-1.404,10.593-2.502c1.481-0.467,2.912-1.08,4.272-1.831
        C153.697,213.397,153.838,213.403,154.021,213.501z"/>
    <path id="Path_205-2" fill="#FFFFFF" d="M150.933,223.338c-0.547,0.938-1.369,1.686-2.355,2.142
        c-1.711,0.861-3.655,1.143-5.541,0.805c-2.148-0.378-3.118-1.696-3.619-3.545c-0.128-0.464-0.073-0.61,0.433-0.61
        c1.646-0.228,3.312-0.273,4.967-0.134c1.782,0.238,3.564,0.653,5.303,0.976C150.414,223.037,150.69,223.162,150.933,223.338z"/>
    <path id="Path_235-2" fill="#FFFFFF" d="M152.776,203.817c-0.029,0.448-0.399,0.797-0.848,0.799
        c-0.344-0.092-0.591-0.395-0.61-0.751c0-0.323,0.427-0.537,0.842-0.525C152.574,203.353,152.782,203.542,152.776,203.817z"/>
    <path id="Path_198-2" fill="#7695BB" d="M265.539,197.733c-1.573-0.627-3.349-0.473-4.79,0.415c-0.896,0.49-1.586,1.284-1.947,2.24
        c-0.049,0.14-0.146,0.275,0.037,0.372c0.183,0.098,0.275,0,0.323-0.128c0.826-0.76,1.899-1.193,3.021-1.22
        c1.122-0.117,2.239,0.267,3.051,1.05c-1.861-0.787-3.539-0.055-4.992,0.915c-1.114,0.792-1.768,2.081-1.751,3.448
        c-0.105,1.796,0.468,3.567,1.605,4.961c1.22,1.507,3.887,2.27,5.748,1.446c1.237-0.555,2.127-1.677,2.386-3.008
        c0.246-1.103,0.168-2.254-0.226-3.314c-0.256-0.744,0.073-1.105,0.854-1.037c0.372,0.012,0.741,0.069,1.098,0.171
        c2.093,0.61,4.241,1.129,6.334,1.879c1.04,0.3,2.032,0.746,2.947,1.324c1.02,0.599,1.557,1.772,1.342,2.935
        c-0.049,0.183-0.055,0.366-0.11,0.61c-0.323,1.788-0.696,3.564-1.159,5.303c-0.153,0.5-0.061,0.549,0.445,0.47
        c1.223-0.065,2.444,0.159,3.564,0.653c0.688,0.211,1.29,0.639,1.715,1.22c1.324,1.831,1.916,3.777,1.22,6.053
        c-0.532,1.898-1.826,3.491-3.576,4.4c-0.954,0.531-2.058,0.726-3.137,0.555c-1.105-0.078-2.195-0.294-3.246-0.641
        c-0.409-0.153-0.61-0.067-0.702,0.348c-0.806,2.502-1.886,4.882-2.874,7.359c-0.29,0.821-1.097,1.345-1.965,1.275
        c-0.715-0.033-1.423-0.16-2.105-0.378c-3.1-0.824-6.053-2.008-9.105-2.88c-1.281-0.354-2.6-0.763-3.924-1.166
        c-2.502-0.714-5.065-1.22-7.567-2.056c-1.41-0.494-2.917-0.86-4.272-1.312c-0.789-0.216-1.452-0.751-1.831-1.477
        c-0.302-0.516-0.384-1.132-0.226-1.709c0.61-2.789,1.172-5.62,1.709-8.409c0.104-0.458,0.293-0.543,0.659-0.482
        c0.683,0.087,1.377,0.011,2.026-0.22c3.167-1.428,4.485-4.272,3.613-7.53c-0.331-0.922-0.952-1.712-1.77-2.252
        c-0.134-0.146-0.317-0.195-0.409-0.287c-0.537-0.476-0.58-0.61-0.33-1.3c0.195-0.5,0.354-1.092,0.549-1.593
        c0.543-1.22,0.805-2.502,1.391-3.728c0.352-0.73,0.98-1.29,1.745-1.556c1.164-0.381,2.417-0.394,3.588-0.037
        c0.134,0.049,0.183,0.049,0.317,0.098c0.958,0.305,0.915,0.256,1.355-0.647c1.182-2.317,3.8-3.519,6.328-2.905
        c0.957,0.286,1.871,0.697,2.722,1.22c0.134,0.238,0.317,0.336,0.354,0.519L265.539,197.733z M262.72,222.654
        c-1.699,1.806-2.568,4.239-2.398,6.712c0.131,1.466,0.701,2.859,1.635,3.997c0.33,0.55,0.811,0.995,1.385,1.281
        c1.831,0.928,3.869,1.349,5.828,1.959c0.462,0.212,0.987,0.243,1.471,0.085c0.954-0.289,1.711-1.021,2.032-1.965
        c0.075-0.331,0.192-0.651,0.348-0.952c0.238-0.269,0.055-0.458-0.214-0.561c-1.1-0.479-2.127-1.109-3.051-1.873
        c-2.46-1.757-4.487-4.053-5.925-6.712c-0.443-0.63-0.823-1.303-1.135-2.008L262.72,222.654z M274.583,229.696
        c0.403-1.184,0.403-1.184-0.317-1.709c-0.414-0.316-0.789-0.681-1.117-1.086c-0.961-1.184-1.832-2.439-2.606-3.753
        c-0.515-0.799-1.269-1.417-2.154-1.764c-1.642-0.61-3.167-0.177-4.613,0.61c-0.182,0.073-0.285,0.266-0.244,0.458
        c0,0.024,0.019,0.043,0.043,0.043l0,0c0.214,0.561,0.476,1.166,0.732,1.721c1.745,3.349,4.453,6.099,7.774,7.896
        c0.308,0.153,0.626,0.285,0.952,0.397c0.317,0.146,0.507,0.061,0.61-0.305c0.236-0.861,0.55-1.699,0.94-2.502V229.696z"/>
    <path id="Path_201-2" fill="#7695BB" d="M263.977,210.834c-0.633-0.173-1.137-0.652-1.342-1.275c-0.352-0.987-0.352-2.065,0-3.051
        c0.293-0.966,1.194-1.617,2.203-1.593c0.969,0.045,1.827,0.64,2.209,1.532c0.311,0.742,0.4,1.558,0.256,2.349
        C267.205,210.224,265.338,211.286,263.977,210.834z M265.136,207.1c-0.458-0.146-0.781-0.067-0.836,0.256
        c-0.104,0.452,0.11,1.056,0.525,1.117c0.36,0.083,0.73-0.098,0.885-0.433C265.796,207.624,265.545,207.213,265.136,207.1z"/>
    <path id="Path_203-2" fill="#7695BB" d="M265.539,197.733l0.226,0.098C265.582,197.965,265.582,197.873,265.539,197.733z"/>
    <path id="Path_219-2" fill="#FFFFFF" d="M262.72,222.654c0.325,0.704,0.689,1.388,1.092,2.05c1.433,2.661,3.458,4.958,5.919,6.712
        c0.942,0.74,1.966,1.371,3.051,1.879c0.268,0.146,0.409,0.238,0.214,0.555c-0.184,0.29-0.303,0.617-0.348,0.958
        c-0.262,1.05-1.056,1.574-2.032,1.965c-0.487,0.128-1.003,0.096-1.471-0.092c-1.959-0.561-4.015-0.989-5.828-1.959
        c-0.562-0.301-1.039-0.74-1.385-1.275c-0.836-1.22-1.587-2.484-1.635-4.003C260.124,226.944,261.002,224.482,262.72,222.654z"/>
    <path id="Path_220-2" fill="#FFFFFF" d="M274.583,229.696c-0.201,0.61-0.641,1.544-0.989,2.502
        c-0.146,0.317-0.287,0.452-0.61,0.305c-0.323-0.146-0.641-0.25-0.958-0.397c-3.348-1.76-6.063-4.52-7.768-7.896
        c-0.262-0.555-0.476-1.159-0.732-1.721c-0.111-0.161-0.07-0.381,0.091-0.492c0.004-0.003,0.008-0.006,0.013-0.008l0.049-0.049
        c1.446-0.83,2.929-1.22,4.613-0.61c0.885,0.347,1.639,0.964,2.154,1.764c0.793,1.263,1.721,2.575,2.606,3.753
        c0.314,0.417,0.691,0.784,1.117,1.086C274.961,228.47,274.961,228.47,274.583,229.696z"/>
    <path id="Path_236-2" fill="#FFFFFF" d="M265.136,207.094c0.382,0.085,0.622,0.464,0.537,0.845
        c-0.003,0.015-0.007,0.031-0.012,0.046c-0.137,0.353-0.522,0.542-0.885,0.433c-0.382-0.234-0.587-0.674-0.519-1.117
        C264.355,207.075,264.679,206.947,265.136,207.094z"/>
    <path id="Path_195-2" fill="#4491EF" d="M301.536,210.224c0.046-0.673,0.046-1.347,0-2.02c0.002-0.599,0.049-1.196,0.14-1.788
        c0.237-1.147,1.071-2.079,2.185-2.441c0.374-0.151,0.763-0.263,1.159-0.336c1.996-0.327,4.013-0.515,6.035-0.561
        c1.288,0,2.532-0.207,3.771-0.171c0.275,0,0.47-0.214,0.702-0.299c1.684-0.953,3.561-1.514,5.492-1.642
        c1.466-0.149,2.94,0.185,4.198,0.952c0.423,0.216,0.909,0.279,1.373,0.177c1.568-0.049,3.179-0.189,4.741-0.189
        c1.234-0.015,2.431,0.418,3.368,1.22c0.763,0.61,0.921,1.495,1.08,2.374c0.226,1.66,0.415,3.228,0.641,4.882
        c0.079,0.506,0.079,0.555,0.61,0.384c2.642-0.708,4.766,0.549,5.492,3.283c0.556,1.785,0.435,3.712-0.342,5.413
        c-0.714,1.603-2.204,2.724-3.942,2.966c-0.123-0.009-0.247,0.003-0.366,0.037c-0.372,0-0.513,0.171-0.476,0.494
        c0,1.422-0.037,2.892-0.079,4.314c-0.043,1.654-0.043,3.265-0.092,4.918c0,1.788-1.184,2.764-2.795,2.905
        c-2.673,0.244-5.346,0.494-8.012,0.647c-1.703,0.043-3.399,0-5.108,0.128c-2.947,0.238-5.846,0.342-8.793,0.671
        c-1.983,0.269-4.052,0.299-6.035,0.47c-0.371,0.029-0.743-0.012-1.098-0.122c-0.991-0.116-1.77-0.9-1.88-1.892
        c-0.305-2.124-0.751-4.272-0.964-6.365c-0.189-1.568-0.464-3.143-0.61-4.705c-0.079-0.421-0.262-0.513-0.61-0.433
        c-1.091,0.129-2.197,0.05-3.259-0.232c-0.776-0.213-1.479-0.635-2.032-1.22c-1.63-1.651-2.498-3.906-2.398-6.224
        c0.134-3.21,2.691-5.852,5.773-5.858C300.121,210.003,300.833,210.091,301.536,210.224z M306.925,233.602
        c0.317-0.032,0.613-0.17,0.842-0.391c2.536-1.877,5.227-3.537,8.043-4.961c3.12-1.581,6.391-2.845,9.764-3.771
        c0.464-0.067,0.83-0.428,0.903-0.891c0.159-0.775,0.409-1.55,0.61-2.325c0.153-0.5,0.11-0.61-0.445-0.519
        c-1.445,0.161-2.874,0.443-4.272,0.842c-6.129,1.766-11.661,5.168-16,9.843c-0.806,0.848-0.757,0.848-0.189,1.831
        c0.043,0.049,0.043,0.092,0.085,0.183c0.181,0.175,0.444,0.236,0.683,0.159H306.925z M294.574,215.606
        c1.544-1.104,2.331-1.22,3.692-0.677c0.662,0.246,1.151,0.816,1.294,1.507c0.195,0.751,0.235,1.534,0.116,2.301
        c-0.149,1.429-1.306,2.543-2.74,2.636c-0.14,0-0.232,0-0.189,0.177c2.008,2.215,6.102,1.135,7.378-0.799
        c1.831-2.661,1.751-6.664-1.452-8.726c-1.056-0.792-2.341-1.22-3.661-1.22c-2.398,0.207-4.272,2.13-4.455,4.79L294.574,215.606z
         M319.593,211.994c0.875,0.028,1.735-0.239,2.441-0.757c1.979-1.41,2.991-3.818,2.612-6.218c-0.268-1.831-1.745-3.405-3.442-3.454
        c-2.892-0.037-6.157,1.617-6.59,5.419c-0.273,2.175,1.038,4.238,3.124,4.912c0.595,0.171,1.221,0.205,1.831,0.098H319.593z
         M326.079,224.772c-0.183-0.098-0.323,0-0.458,0c-2.044,0.587-4.047,1.313-5.992,2.172c-3.564,1.401-6.937,3.246-10.038,5.492
        c-0.189,0.134-0.464,0.22-0.378,0.494c0.089,0.251,0.35,0.397,0.61,0.342c0.232-0.037,0.464,0,0.696-0.073
        c2.106-0.377,4.19-0.87,6.243-1.477c2.69-0.746,5.249-1.898,7.591-3.417c0.324-0.148,0.59-0.399,0.757-0.714
        c0.37-0.921,0.688-1.862,0.952-2.819L326.079,224.772z M296.581,218.004c0.034,0.463,0.388,0.837,0.848,0.897
        c0.548-0.123,0.94-0.604,0.952-1.166c-0.078-0.469-0.518-0.79-0.989-0.72c-0.484,0.039-0.847,0.461-0.812,0.946V218.004z"/>
    <path id="Path_206-2" fill="#FFFFFF" d="M306.925,233.602c-0.246,0.052-0.497-0.068-0.61-0.293
        c-0.043-0.049-0.043-0.092-0.085-0.183c-0.568-1.031-0.61-1.031,0.189-1.831c4.339-4.673,9.871-8.074,16-9.837
        c1.405-0.367,2.832-0.648,4.272-0.842c0.464-0.079,0.549,0,0.445,0.513c-0.207,0.781-0.458,1.55-0.61,2.331
        c-0.091,0.453-0.449,0.806-0.903,0.891c-3.349,0.995-6.614,2.254-9.764,3.765c-2.823,1.414-5.514,3.076-8.043,4.967
        C307.61,233.379,307.284,233.569,306.925,233.602z"/>
    <path id="Path_207-2" fill="#FFFFFF" d="M294.586,215.606c0.207-2.661,2.105-4.625,4.449-4.748c1.322-0.008,2.609,0.421,3.661,1.22
        c3.253,2.069,3.32,6.102,1.452,8.726c-1.294,1.941-5.364,2.972-7.371,0.805c0-0.189,0.098-0.183,0.189-0.183
        c1.425-0.107,2.574-1.21,2.74-2.63c0.121-0.767,0.079-1.551-0.122-2.301c-0.171-0.676-0.647-1.233-1.288-1.507
        C296.868,214.386,296.087,214.496,294.586,215.606z"/>
    <path id="Path_208-2" fill="#FFFFFF" d="M319.593,211.994c-0.614,0.045-1.231-0.003-1.831-0.14
        c-2.111-0.645-3.437-2.733-3.124-4.918c0.427-3.802,3.692-5.492,6.584-5.419c1.703,0,3.216,1.654,3.442,3.454
        c0.4,2.404-0.616,4.825-2.612,6.224C321.391,211.812,320.49,212.105,319.593,211.994z M320.734,207.478
        c0.049-1.236-0.864-2.301-2.093-2.441c-1.435-0.092-2.718,0.89-3.002,2.301c-0.151,0.781-0.047,1.59,0.299,2.307
        c0.696,1.446,3.124,1.605,3.979,0.61c0.528-0.832,0.812-1.797,0.818-2.783L320.734,207.478z"/>
    <path id="Path_209-2" fill="#FFFFFF" d="M326.079,224.772c-0.243,0.97-0.578,1.914-1.001,2.819
        c-0.166,0.316-0.432,0.567-0.757,0.714c-2.325,1.545-4.888,2.699-7.585,3.417c-2.034,0.586-4.117,1.078-6.249,1.477
        c-0.232,0.037-0.458,0.031-0.69,0.073c-0.255,0.026-0.499-0.111-0.61-0.342c-0.085-0.275,0.195-0.36,0.384-0.494
        c3.098-2.248,6.469-4.094,10.032-5.492c1.961-0.814,3.958-1.538,5.992-2.172C325.713,224.76,325.896,224.674,326.079,224.772z"/>
    <path id="Path_210-2" fill="#FFFFFF" d="M296.581,218.004c-0.066-0.454,0.225-0.883,0.671-0.989h0.092
        c0.463-0.034,0.883,0.27,0.995,0.72c0.002,0.566-0.397,1.055-0.952,1.166c-0.461-0.016-0.823-0.402-0.807-0.864
        C296.58,218.027,296.58,218.015,296.581,218.004z"/>
    <path id="Path_238-2" fill="#4491EF" d="M320.734,207.478c0.015,0.977-0.268,1.935-0.812,2.746
        c-0.812,0.989-3.198,0.873-3.985-0.61c-0.357-0.713-0.462-1.526-0.299-2.307c0.296-1.404,1.57-2.383,3.002-2.307
        C319.866,205.176,320.765,206.241,320.734,207.478z M318.079,208.698c0.539-0.013,0.975-0.443,0.995-0.982
        c-0.04-0.479-0.418-0.86-0.897-0.903c-0.564,0.076-0.988,0.554-0.995,1.123c0.026,0.426,0.379,0.757,0.806,0.757L318.079,208.698z"
        />
    <path id="Path_244-2" fill="#FFFFFF" d="M318.079,208.692c-0.419,0.043-0.797-0.254-0.854-0.671v-0.043
        c0.002-0.571,0.428-1.052,0.995-1.123c0.493,0.036,0.883,0.434,0.909,0.928C319.058,208.307,318.608,208.697,318.079,208.692z"/>
    <path id="Path_196-2" fill="#4491EF" d="M73.642,210.346c0.132-0.603,0.132-1.228,0-1.831c-0.183-1.751,0-3.539-0.037-5.285
        c0-1.22,0.836-2.002,1.861-2.52c0.581-0.283,1.196-0.488,1.831-0.61c2.166-0.262,4.339-0.799,6.548-0.738
        c0.696-0.025,1.389-0.097,2.075-0.214c0.473-0.046,0.949-0.046,1.422,0c0.418,0.003,0.756,0.339,0.763,0.757
        c-0.008,0.149-0.062,0.291-0.153,0.409c-0.117,0.154-0.213,0.322-0.287,0.5c-0.604,1.101-0.835,2.369-0.659,3.613
        c0.433,2.63,2.789,3.936,5.37,3.46c0.889-0.177,1.704-0.62,2.337-1.269c1.275-1.251,1.22-3.368,0.61-4.485
        c-0.332-0.672-0.764-1.289-1.281-1.831c-0.245-0.227-0.386-0.545-0.391-0.879c0-0.647,0.214-0.964,0.854-1.037
        c3.32-0.366,6.554-0.824,9.91-0.958c1.392-0.036,2.73,0.539,3.661,1.574c0.128,0.189,0.262,0.378,0.397,0.61
        c0.25,0.767,0.427,1.556,0.531,2.355c0.146,1.153,0.342,2.355,0.543,3.509c0.116,0.696,0.165,0.696,0.854,0.58
        c1.595-0.411,3.26-0.473,4.882-0.183c2.496,0.563,4.219,2.846,4.076,5.4c-0.013,2.118-0.808,4.157-2.233,5.724
        c-0.854,0.989-2.056,1.367-3.265,1.794c-0.681,0.192-1.377,0.325-2.081,0.397c-0.61,0.079-0.61,0.122-0.665,0.72
        c-0.055,0.598,0,1.33,0.037,1.977c0.073,2.392,0.049,4.778,0.122,7.127c0.019,0.891-0.449,1.721-1.22,2.166
        c-0.532,0.344-1.139,0.554-1.77,0.61c-2.624,0.25-5.254,0.61-7.933,0.879c-1.794,0.134-3.661,0.128-5.431,0.354
        c-3.185,0.366-6.359,0.555-9.501,1.062c-1.831,0.317-3.777,0.445-5.669,0.61c-0.684,0.062-1.374-0.036-2.014-0.287
        c-0.594-0.216-1.021-0.741-1.111-1.367c-0.561-2.819-1.22-5.638-1.55-8.5c0-0.14-0.037-0.232-0.037-0.366
        c0-0.415-0.214-0.513-0.677-0.433c-1.615,0.362-3.304,0.184-4.809-0.506c-0.357-0.131-0.68-0.339-0.946-0.61
        c-0.822-0.676-1.571-1.437-2.233-2.27c-0.917-1.084-1.373-2.484-1.269-3.899c0.015-1.222,0.316-2.424,0.879-3.509
        c0.63-1.237,1.761-2.144,3.106-2.49c1.258-0.37,2.592-0.395,3.863-0.073C73.182,210.416,73.417,210.403,73.642,210.346z
         M103.793,224.668c-0.187,0.004-0.373,0.028-0.555,0.073c-1.123,0.37-2.266,0.675-3.423,0.915
        c-1.294,0.238-2.545,0.482-3.973,0.763c1.22,0.769,2.301,1.397,3.661,1.483c0.757,0.062,1.515-0.108,2.172-0.488
        c1.102-0.523,1.884-1.545,2.099-2.746l0.049-0.043L103.793,224.668z M71.14,210.962c-0.578,0.06-1.149,0.168-1.709,0.323
        c-2.093,0.812-3.466,2.197-3.484,4.54v0.275c-0.168,2.269,0.962,4.438,2.917,5.602c1.35,0.749,2.913,1.02,4.436,0.769
        c1.393-0.147,2.613-0.997,3.234-2.252c1.051-2.147,1.122-4.643,0.195-6.847c-0.166-0.334-0.371-0.647-0.61-0.934
        c-1.295-1.307-3.168-1.864-4.967-1.477H71.14z M112.263,217.876c0.797-0.085,1.577-0.291,2.313-0.61
        c1.265-0.477,2.286-1.439,2.838-2.673c0.531-1.047,0.799-2.207,0.781-3.381c-0.11-2.575-1.123-3.985-3.173-4.595
        c-0.645-0.184-1.301-0.325-1.965-0.421c-0.305-0.045-0.616-0.045-0.921,0c-0.744,0.207-1.483,0.464-2.179,0.72
        c-2.789,1.117-3.277,3.582-3.21,6.206c0.035,0.284,0.105,0.563,0.207,0.83c0.227,0.673,0.584,1.295,1.05,1.831
        C109.061,217.055,110.61,217.816,112.263,217.876z M104.977,218.816c-1.505,0.874-3.215,1.333-4.955,1.33
        c-1.583,0.063-3.168-0.058-4.723-0.36c-1.762-0.317-3.501-0.751-5.205-1.3c-0.359-0.154-0.757-0.197-1.141-0.122
        c-0.873,0.39-1.438,1.253-1.446,2.209c0.378-0.262,0.61-0.671,1.037-0.891c0.309,0.989,0.851,1.889,1.58,2.624
        c0.327,0.434,0.82,0.712,1.361,0.769c2.035,0.411,4.106,0.616,6.182,0.61c1.609-0.099,3.204-0.361,4.76-0.781
        c0.788-0.2,1.541-0.519,2.233-0.946c0.323-0.226,0.744-0.439,0.757-0.946c0.014-0.763-0.136-1.521-0.439-2.221L104.977,218.816z"/>
    <path id="Path_211-2" fill="#FFFFFF" d="M71.14,210.962c1.743-0.413,3.574,0.15,4.784,1.471c0.283,0.254,0.494,0.578,0.61,0.94
        c0.927,2.201,0.855,4.696-0.195,6.841c-0.616,1.26-1.839,2.111-3.234,2.252c-1.523,0.254-3.088-0.017-4.436-0.769
        c-1.629-0.873-3.265-3.216-2.917-5.596c0.049-0.092,0-0.189,0-0.281c0-2.386,1.44-3.771,3.484-4.54
        C69.864,211.139,70.5,211.033,71.14,210.962z M76.815,216.552c-0.01-0.208-0.049-0.413-0.116-0.61
        c-0.61-2.496-2.777-2.563-4.18-1.678c-1.078,0.749-1.566,2.096-1.22,3.362c0.247,1.156,1.164,2.05,2.325,2.27
        c1.181,0.275,2.392-0.326,2.886-1.434c0.337-0.578,0.454-1.259,0.33-1.916L76.815,216.552z"/>
    <path id="Path_212-2" fill="#FFFFFF" d="M112.263,217.876c-1.645-0.03-3.199-0.76-4.272-2.008
        c-0.456-0.544-0.813-1.164-1.056-1.831c-0.133-0.259-0.202-0.545-0.201-0.836c0-2.569,0.464-5.04,3.204-6.2
        c0.713-0.284,1.443-0.524,2.185-0.72c0.298-0.092,0.617-0.092,0.915,0c0.641,0.159,1.33,0.268,1.965,0.427
        c2.05,0.61,3.112,2.063,3.179,4.595c-0.002,1.17-0.271,2.324-0.787,3.375c-0.522,1.253-1.551,2.227-2.831,2.679
        C113.822,217.628,113.049,217.802,112.263,217.876z M110.2,212.903c0.05,1.556,1.353,2.777,2.909,2.726
        c0.349-0.011,0.693-0.087,1.015-0.225c1.792-0.792,2.702-2.806,2.111-4.674c-0.486-1.307-1.838-2.078-3.21-1.831
        c-1.802,0.456-3.003,2.159-2.825,4.009V212.903z"/>
    <path id="Path_213-2" fill="#FFFFFF" d="M104.971,218.816c0.335,0.722,0.47,1.521,0.391,2.313c0,0.458-0.433,0.72-0.757,0.94
        c-0.688,0.436-1.442,0.758-2.233,0.952c-1.56,0.403-3.153,0.665-4.76,0.781c-2.079,0.097-4.161-0.109-6.182-0.61
        c-0.542-0.058-1.035-0.339-1.361-0.775c-0.699-0.756-1.237-1.647-1.58-2.618c-0.415,0.171-0.659,0.61-1.031,0.891
        c0.007-0.955,0.569-1.818,1.44-2.209c0.384-0.075,0.782-0.032,1.141,0.122c1.733,0.513,3.423,0.928,5.205,1.3
        c1.561,0.255,3.141,0.376,4.723,0.36C101.726,220.182,103.44,219.686,104.971,218.816z"/>
    <path id="Path_214-2" fill="#FFFFFF" d="M103.793,224.668c-0.211,1.213-0.992,2.25-2.099,2.789
        c-0.671,0.351-1.422,0.519-2.179,0.488c-1.33-0.079-2.441-0.714-3.661-1.483c1.434-0.281,2.685-0.519,3.979-0.757
        c1.159-0.234,2.302-0.54,3.423-0.915c0.176-0.075,0.364-0.117,0.555-0.122H103.793z"/>
    <path id="Path_215-2" fill="#FFFFFF" d="M103.793,224.668l0.049-0.043L103.793,224.668z"/>
    <path id="Path_239-2" fill="#4491EF" d="M76.815,216.552c0.124,0.658,0.007,1.338-0.33,1.916c-0.509,1.094-1.707,1.689-2.886,1.434
        c-1.19-0.162-2.134-1.084-2.325-2.27c-0.362-1.267,0.13-2.623,1.22-3.362c1.404-0.928,3.558-0.867,4.18,1.678
        C76.749,216.142,76.796,216.345,76.815,216.552z M73.221,217.046c0,0.506,0.256,0.647,0.671,0.61
        c0.415-0.037,0.751-0.488,0.72-1.037c-0.031-0.549-0.262-0.653-0.769-0.574c-0.506,0.079-0.702,0.391-0.61,0.995L73.221,217.046z"
        />
    <path id="Path_240-2" fill="#4491EF" d="M110.194,212.903c-0.16-1.86,1.056-3.56,2.868-4.009c1.374-0.257,2.732,0.517,3.21,1.831
        c0.582,1.866-0.322,3.874-2.105,4.674c-1.461,0.612-3.141-0.076-3.754-1.537C110.286,213.557,110.212,213.233,110.194,212.903z
         M112.849,213.342c0.603,0.02,1.108-0.452,1.129-1.055c0.001-0.021,0.001-0.041,0-0.062v-0.171
        c-0.049-0.523-0.514-0.908-1.037-0.859c-0.012,0.001-0.025,0.003-0.037,0.004c-0.647,0-1.031,0.61-0.958,1.349
        c0.079,0.586,0.348,0.873,0.928,0.793L112.849,213.342z"/>
    <path id="Path_245-2" fill="#FFFFFF" d="M73.209,217.046c-0.073-0.647,0.116-0.915,0.61-0.952c0.494-0.037,0.781,0.073,0.763,0.574
        c0.117,0.443-0.147,0.897-0.59,1.015c-0.041,0.011-0.082,0.018-0.124,0.023C73.428,217.693,73.251,217.547,73.209,217.046z"/>
    <path id="Path_246-2" fill="#FFFFFF" d="M112.873,213.342c-0.61,0.079-0.873-0.159-0.897-0.805
        c-0.13-0.606,0.257-1.203,0.864-1.333c0.031-0.007,0.063-0.012,0.095-0.016c0.528-0.044,0.998,0.33,1.074,0.854
        c0.095,0.599-0.311,1.163-0.909,1.263C113.026,213.397,112.983,213.391,112.873,213.342z"/>
    <path id="Path_199-2" fill="#4491EF" d="M188.23,203.121c0.105-0.31,0.144-0.638,0.116-0.964c0.109-2.151,0.353-4.293,0.732-6.413
        c0.177-1.281,1.159-1.892,2.319-2.319c1.064-0.305,2.172-0.429,3.277-0.366c2.618-0.11,5.187,0.098,7.805,0.22
        c0.416,0.001,0.829,0.074,1.22,0.214c0.683,0.159,0.854,0.61,0.47,1.257c-0.245,0.35-0.471,0.713-0.677,1.086
        c-0.438,0.781-0.682,1.656-0.714,2.551c-0.242,2.013,1.04,3.895,3.002,4.406c1.542,0.548,3.256,0.287,4.564-0.696
        c1.288-1.138,1.769-2.936,1.22-4.564c-0.254-0.727-0.605-1.417-1.043-2.05c-0.274-0.299-0.382-0.716-0.287-1.111
        c0.195-0.61,0.293-0.726,0.94-0.757c3.051,0.043,6.066-0.055,9.092,0.165c0.923,0.023,1.835,0.205,2.697,0.537
        c1.678,0.738,2.612,1.916,2.606,3.753c0,1.379,0.055,2.85,0.11,4.229c0.055,1.22,0.055,1.22,1.3,1.141
        c1.384-0.162,2.787-0.044,4.125,0.348c2.785,0.718,4.509,3.503,3.912,6.316c-0.277,1.86-1.131,3.587-2.441,4.937
        c-1.324,1.391-2.947,1.831-4.741,2.075c-0.566,0.049-1.136,0.049-1.703,0c-0.458-0.055-0.647,0.073-0.708,0.61
        c-0.073,1.098-0.244,2.197-0.366,3.295c-0.195,1.879-0.476,3.71-0.574,5.638s-1.465,3.051-3.307,3.051c-3.124,0-6.249,0-9.367-0.22
        c-2.844-0.22-5.687-0.256-8.543-0.378c-3.21-0.14-6.438,0.092-9.648-0.049c-0.95,0.03-1.9-0.011-2.844-0.122
        c-0.297-0.042-0.589-0.114-0.873-0.214c-1.022-0.209-1.748-1.118-1.727-2.16c-0.098-1.379-0.201-2.764-0.299-4.143
        c-0.092-1.611-0.232-3.179-0.183-4.833c0-0.69,0-0.69-0.72-0.61c-0.705,0.086-1.42,0.034-2.105-0.153
        c-1.332-0.257-2.6-0.778-3.728-1.532c-0.311-0.203-0.583-0.459-0.806-0.757c-1.141-1.733-2.014-3.551-1.904-5.706
        c0.072-1.393,0.505-2.743,1.257-3.918c1.159-1.831,2.88-2.539,4.992-2.478c0.923-0.022,1.84,0.144,2.697,0.488
        C187.632,203.06,187.858,203.249,188.23,203.121z M191.446,209.461c0.023-0.571-0.022-1.142-0.134-1.703
        c-0.403-2.032-1.324-3.533-3.417-4.143c-1.293-0.411-2.67-0.48-3.997-0.201c-2.264,0.482-3.905,1.678-4.339,4.058
        c-0.055,0.317-0.159,0.61-0.214,0.958c-0.25,2.441,0.708,4.272,2.551,5.724c0.682,0.479,1.454,0.813,2.27,0.982
        c2.148,0.427,4.125,0.256,5.736-1.397C190.982,212.622,191.354,211.115,191.446,209.461L191.446,209.461z M233.954,209.657
        c0-2.984-0.897-4.113-2.85-4.998c-0.609-0.249-1.23-0.467-1.861-0.653c-0.267-0.081-0.545-0.118-0.824-0.11
        c-1.471,0.136-2.911,0.499-4.272,1.074c-2.136,0.812-3.551,3.619-3.155,5.974c0.206,1.915,1.474,3.551,3.277,4.229
        c1.831,0.696,3.661,1.117,5.492,0.384C232.575,214.441,233.606,212.085,233.954,209.657L233.954,209.657z M200.135,221.104
        l1.886,0.055c0.275,0,0.464-0.079,0.47-0.403c0.031-0.964,0.104-1.971,0.177-2.935c0-0.275-0.079-0.464-0.403-0.47
        c-1.22-0.037-2.478-0.073-3.661-0.061c-0.156-0.044-0.318,0.047-0.361,0.202c-0.006,0.022-0.01,0.044-0.011,0.066v0.092
        l-0.085,2.941c0,0.317,0.128,0.415,0.452,0.421c0.517,0.059,1.036,0.09,1.556,0.092H200.135z M205.066,217.382L205.066,217.382
        c-0.549,0-1.098,0-1.696,0c-0.275,0-0.464,0.079-0.47,0.403c-0.031,0.964-0.061,1.971-0.134,2.935c0,0.323,0.128,0.464,0.403,0.47
        l3.216,0.092c0.226,0,0.415-0.079,0.421-0.354c0.073-0.964,0.146-1.971,0.22-2.935c0-0.323-0.073-0.506-0.439-0.519
        C206.122,217.473,205.621,217.4,205.066,217.382z M213.609,217.583L213.609,217.583c-0.549,0.031-1.105,0-1.696,0
        c-0.372,0-0.464,0.128-0.476,0.494l-0.079,2.752c0,0.323,0.079,0.513,0.445,0.519l3.307,0.098c0.275,0,0.464-0.079,0.47-0.403
        c0-0.915,0.055-1.928,0.128-2.844c0-0.415-0.171-0.513-0.537-0.525c-0.506,0-1.056-0.073-1.562-0.085V217.583z M200.184,221.519
        l-1.696-0.049c-0.323,0-0.513,0.079-0.519,0.445l-0.073,2.618c0,0.366,0.122,0.506,0.488,0.519c1.104,0.031,2.294,0,3.448,0.055
        c0.275,0,0.458-0.079,0.47-0.403c0-0.873,0.049-1.745,0.116-2.618c0-0.409-0.165-0.506-0.537-0.519L200.184,221.519z
         M195.784,221.025L195.784,221.025c0.464-0.031,0.921,0,1.379,0c0.458,0,0.513-0.122,0.519-0.488
        c0.011-0.889,0.068-1.777,0.171-2.661c0.061-0.549-0.031-0.61-0.61-0.61c-0.58,0-1.147,0-1.794,0.043
        c-2.02,0.031-2.02,0.031-1.8,2.014c0.226,1.709,0.226,1.709,1.928,1.709c0.092-0.043,0.134,0,0.226,0L195.784,221.025z
         M213.402,225.431L213.402,225.431l1.696,0.049c0.275,0,0.421-0.122,0.427-0.354c0-0.915,0.049-1.879,0.122-2.752
        c0-0.323-0.171-0.421-0.445-0.427l-3.307-0.092c-0.323,0-0.464,0.122-0.47,0.397l-0.073,2.618c0,0.366,0.122,0.506,0.488,0.476
        C212.297,225.345,212.846,225.419,213.402,225.431z M204.773,221.647l-1.513-0.043c-0.415,0-0.555,0.171-0.519,0.537l-0.073,2.526
        c0,0.366,0.122,0.513,0.494,0.519l2.935,0.085c0.323,0,0.464-0.079,0.519-0.445c0.116-0.824,0.098-1.745,0.165-2.569
        c0-0.366-0.122-0.506-0.494-0.47c-0.507-0.098-1.022-0.145-1.538-0.14L204.773,221.647z M209.307,217.504L209.307,217.504
        c-0.506,0.031-0.964,0-1.519,0c-0.226,0-0.415,0.079-0.421,0.354c-0.031,0.964-0.055,1.971-0.128,2.935
        c0,0.323,0.171,0.421,0.445,0.427l2.844,0.079c0.232,0,0.421-0.079,0.427-0.354c0-0.915,0.189-1.922,0.171-2.844
        c0-0.366-0.122-0.555-0.537-0.568l-1.281-0.037L209.307,217.504z M209.185,221.776L209.185,221.776l-1.513-0.043
        c-0.232,0-0.415,0.037-0.47,0.305c-0.073,0.873-0.098,1.794-0.171,2.661c-0.046,0.242,0.113,0.475,0.355,0.521
        c0.046,0.009,0.093,0.01,0.14,0.004l2.844,0.079c0.372,0,0.464-0.128,0.476-0.494c0-0.824,0.049-1.696,0.116-2.478
        c0-0.415-0.171-0.555-0.537-0.519l-1.22-0.037L209.185,221.776z M216.056,219.396l-0.049,1.611c0,0.317,0.122,0.458,0.445,0.421
        l2.252,0.067c0.211,0.044,0.418-0.091,0.463-0.302c0.004-0.017,0.006-0.035,0.007-0.052v-0.049
        c0.165-0.958,0.378-1.965,0.543-2.923c0.055-0.323-0.031-0.464-0.354-0.47l-1.379-0.043c-0.549,0-1.275-0.262-1.745,0.043
        C215.812,218.151,216.111,218.92,216.056,219.396L216.056,219.396z M195.778,221.348l-1.104-0.031
        c-0.549,0-0.647,0.073-0.519,0.537c0.207,0.787,0.415,1.617,0.61,2.404c0.044,0.151,0.136,0.284,0.262,0.378
        c0.721,0.31,1.518,0.397,2.288,0.25c0.513-0.171,0.214-0.915,0.275-1.373v-0.275c-0.031-0.555,0.262-1.19-0.092-1.66
        c-0.354-0.47-1.098-0.122-1.739-0.232H195.778z M218.967,222.099c-0.835-0.109-1.678-0.147-2.52-0.116
        c-0.323,0-0.421,0.171-0.427,0.445l-0.049,1.696c0,1.703-0.36,1.416,1.568,1.471h0.092c0.252-0.005,0.476-0.165,0.561-0.403
        c0.313-1.019,0.571-2.054,0.775-3.1V222.099z"/>
    <path id="Path_221-2" fill="#FFFFFF" d="M191.446,209.461c-0.092,1.605-0.452,3.161-1.544,4.32
        c-1.611,1.703-3.594,1.879-5.736,1.404c-0.82-0.157-1.595-0.492-2.27-0.982c-1.831-1.434-2.85-3.301-2.551-5.73
        c0.055-0.317,0.153-0.61,0.207-0.958c0.439-2.441,2.124-3.57,4.345-4.058c1.328-0.252,2.696-0.181,3.991,0.207
        c2.148,0.61,3.051,2.154,3.423,4.137C191.426,208.347,191.471,208.905,191.446,209.461z M187.321,210.175
        c0.017-1.103-0.549-2.132-1.489-2.709c-1.8-1.22-5.047-0.098-5.266,2.654c-0.099,1.287,0.521,2.524,1.611,3.216
        c1.176,1.034,2.968,0.919,4.003-0.256l0.049-0.043C187.003,212.323,187.26,211.444,187.321,210.175z"/>
    <path id="Path_222-2" fill="#FFFFFF" d="M233.954,209.657c-0.348,2.441-1.336,4.833-4.168,5.95
        c-1.831,0.726-3.661,0.305-5.492-0.384c-1.803-0.68-3.072-2.314-3.283-4.229c-0.348-2.355,1.019-5.12,3.161-5.98
        c1.365-0.562,2.803-0.924,4.272-1.074c0.28-0.029,0.563,0.011,0.824,0.116c0.61,0.201,1.22,0.403,1.867,0.653
        C233.087,205.495,233.948,206.673,233.954,209.657z M224.636,214.123c1.556,0.092,2.581-0.293,3.295-1.281
        c0.561-0.823,0.89-1.782,0.952-2.777c0.114-0.85-0.226-1.698-0.897-2.233c-1.015-0.851-2.37-1.179-3.661-0.885
        c-0.901,0.103-1.724,0.559-2.288,1.269c-0.818,1.236-0.898,2.82-0.207,4.131C222.359,213.417,223.442,214.102,224.636,214.123
        L224.636,214.123z"/>
    <path id="Path_223-2" fill="#FFFFFF" d="M200.135,221.104l-1.696-0.049c-0.323,0-0.458-0.146-0.445-0.427l0.079-2.935
        c-0.037-0.157,0.061-0.315,0.218-0.352c0.023-0.005,0.046-0.008,0.069-0.008h0.092c1.22,0.037,2.484,0.073,3.661,0.061
        c0.323,0,0.415,0.146,0.403,0.47c-0.073,0.964-0.104,1.971-0.177,2.935c0,0.323-0.195,0.409-0.47,0.403
        C201.319,221.141,200.746,221.123,200.135,221.104z"/>
    <path id="Path_224-2" fill="#FFFFFF" d="M205.054,217.382l1.611,0.049c0.366,0,0.5,0.195,0.445,0.519
        c-0.073,0.964-0.153,1.971-0.226,2.935c0,0.275-0.189,0.36-0.421,0.354l-3.216-0.092c-0.317,0-0.452-0.153-0.397-0.47
        c0-0.964,0.098-1.971,0.128-2.935c0-0.323,0.195-0.409,0.47-0.403C203.982,217.4,204.519,217.414,205.054,217.382L205.054,217.382z
        "/>
    <path id="Path_225-2" fill="#FFFFFF" d="M213.597,217.583l1.611,0.043c0.366,0,0.549,0.11,0.537,0.525
        c-0.031,0.915-0.104,1.922-0.128,2.844c0,0.317-0.195,0.409-0.47,0.397l-3.307-0.092c-0.366,0-0.458-0.195-0.445-0.519l0.079-2.752
        c0-0.323,0.153-0.5,0.47-0.494C212.492,217.596,213.045,217.613,213.597,217.583L213.597,217.583z"/>
    <path id="Path_226-2" fill="#FFFFFF" d="M200.135,221.519l1.696,0.049c0.372,0,0.61,0.11,0.537,0.519
        c-0.067,0.873-0.092,1.745-0.116,2.618c0,0.323-0.195,0.409-0.47,0.403c-1.105-0.031-2.301-0.067-3.448-0.055
        c-0.366,0-0.5-0.153-0.488-0.519l0.073-2.618c0-0.366,0.195-0.452,0.519-0.445L200.135,221.519z"/>
    <path id="Path_227-2" fill="#FFFFFF" d="M195.76,221.025h-0.183c-1.745,0-1.745,0-1.928-1.715c-0.22-1.977-0.22-1.977,1.831-2.014
        c0.61,0,1.147-0.061,1.794-0.043c0.647,0.018,0.683,0.067,0.61,0.61c-0.067,0.873-0.14,1.788-0.165,2.661
        c0.031,0.244-0.142,0.467-0.387,0.497c-0.044,0.006-0.089,0.004-0.132-0.003c-0.476-0.024-0.952-0.024-1.428,0L195.76,221.025z"/>
    <path id="Path_228-2" fill="#FFFFFF" d="M213.377,225.431l-1.703-0.043c-0.317,0-0.5-0.153-0.488-0.476l0.073-2.618
        c0-0.323,0.146-0.409,0.47-0.403l3.307,0.098c0.275,0,0.458,0.055,0.445,0.427c0,0.915-0.055,1.879-0.122,2.752
        c0,0.275-0.146,0.366-0.427,0.354C214.524,225.467,213.926,225.449,213.377,225.431z"/>
    <path id="Path_229-2" fill="#FFFFFF" d="M204.749,221.647l1.611,0.049c0.323,0,0.5,0.153,0.494,0.476
        c-0.073,0.824-0.055,1.739-0.171,2.569c-0.055,0.36-0.195,0.452-0.513,0.439l-2.941-0.079c-0.366,0-0.5-0.153-0.488-0.519
        l0.067-2.526c0-0.366,0.153-0.549,0.525-0.537C203.8,221.608,204.274,221.65,204.749,221.647z"/>
    <path id="Path_230-2" fill="#FFFFFF" d="M209.289,217.504l1.373,0.043c0.415,0,0.5,0.195,0.537,0.561
        c0,0.97-0.146,1.928-0.171,2.85c0,0.275-0.195,0.36-0.421,0.354l-2.85-0.079c-0.275,0-0.458-0.11-0.445-0.427
        c0-0.964,0.055-1.977,0.128-2.941c0-0.275,0.146-0.36,0.421-0.354c0.476,0.024,0.952,0.024,1.428,0L209.289,217.504z"/>
    <path id="Path_231-2" fill="#FFFFFF" d="M209.161,221.776l1.288,0.037c0.366,0,0.543,0.153,0.537,0.519
        c-0.073,0.83-0.098,1.696-0.122,2.478c0,0.323-0.146,0.506-0.47,0.494l-2.85-0.079c-0.241,0.031-0.461-0.138-0.492-0.379
        c-0.006-0.047-0.005-0.094,0.004-0.14c0.067-0.873,0.098-1.794,0.165-2.661c0-0.275,0.195-0.317,0.47-0.311L209.161,221.776
        L209.161,221.776z"/>
    <path id="Path_232-2" fill="#FFFFFF" d="M216.032,219.377c0.104-0.458-0.244-1.22,0.226-1.648c0.47-0.427,1.104-0.061,1.751-0.043
        l1.373,0.043c0.323,0,0.415,0.146,0.36,0.47c-0.214,0.958-0.378,1.965-0.543,2.923c-0.003,0.226-0.189,0.406-0.414,0.403
        c-0.004,0-0.008,0-0.013,0h-0.049l-2.246-0.067c-0.221,0.027-0.422-0.129-0.449-0.35c-0.003-0.026-0.004-0.051-0.002-0.077
        C216.001,220.543,216.001,220.043,216.032,219.377z"/>
    <path id="Path_233-2" fill="#FFFFFF" d="M195.754,221.348c0.641,0.11,1.336-0.189,1.739,0.232c0.311,0.378,0.061,1.062,0.092,1.66
        v0.275c-0.11,0.5,0.189,1.22-0.275,1.373c-0.77,0.165-1.572,0.077-2.288-0.25c-0.147-0.072-0.247-0.215-0.262-0.378
        c-0.207-0.787-0.464-1.617-0.61-2.404c-0.122-0.513-0.031-0.555,0.519-0.537L195.754,221.348z"/>
    <path id="Path_234-2" fill="#FFFFFF" d="M218.936,222.099c-0.181,1.039-0.454,2.061-0.818,3.051
        c-0.073,0.246-0.305,0.41-0.561,0.397h-0.092c-1.886-0.049-1.574,0.232-1.568-1.465l0.049-1.703c0-0.275,0.104-0.458,0.427-0.445
        C217.23,221.945,218.085,222,218.936,222.099z"/>
    <path id="Path_242-2" fill="#4491EF" d="M187.321,210.175c0.026,1.067-0.348,2.106-1.05,2.911
        c-1.035,1.163-2.807,1.295-4.003,0.299c-0.027,0-0.049-0.022-0.049-0.049c-1.031-0.812-1.739-1.831-1.605-3.216
        c0.214-2.795,3.46-3.857,5.266-2.654C186.786,208.069,187.327,209.087,187.321,210.175z M183.934,209.62
        c0.053-0.309-0.154-0.602-0.463-0.655c-0.008-0.001-0.017-0.003-0.025-0.004h-0.092c-0.472-0.052-0.91,0.249-1.031,0.708
        c-0.055,0.458,0.25,0.97,0.61,0.982c0.546,0.018,1.002-0.411,1.02-0.956c0.001-0.027,0.001-0.054-0.001-0.081L183.934,209.62z"/>
    <path id="Path_243-2" fill="#4491EF" d="M224.636,214.123c-1.169-0.018-2.232-0.683-2.758-1.727
        c-0.691-1.312-0.609-2.897,0.214-4.131c0.552-0.724,1.382-1.184,2.288-1.269c1.292-0.288,2.644,0.039,3.661,0.885
        c0.673,0.534,1.016,1.382,0.903,2.233c-0.088,0.989-0.415,1.942-0.952,2.777C227.152,213.84,225.891,214.303,224.636,214.123z
         M224.849,209.724c0-0.419-0.338-0.759-0.757-0.763c-0.493,0.029-0.911,0.371-1.037,0.848c0.048,0.466,0.429,0.827,0.897,0.848
        c0.492-0.003,0.89-0.399,0.897-0.891V209.724L224.849,209.724z"/>
    <path id="Path_248-2" fill="#FFFFFF" d="M183.952,209.614c-0.026,0.543-0.452,0.983-0.995,1.025c-0.366,0-0.671-0.525-0.61-0.982
        c0.112-0.465,0.557-0.771,1.031-0.708c0.321-0.001,0.588,0.247,0.61,0.568L183.952,209.614z"/>
    <path id="Path_249-2" fill="#FFFFFF" d="M224.849,209.724c0.039,0.491-0.316,0.925-0.806,0.982h-0.049
        c-0.463-0.037-0.838-0.393-0.897-0.854c0.095-0.496,0.533-0.851,1.037-0.842c0.377-0.017,0.697,0.274,0.714,0.652
        C224.85,209.682,224.85,209.703,224.849,209.724z"/>
    <path fill="#4491EF" d="M75.546,202.993c-5.584,1.55-5.876-6.548-5.632-10.02c0.398-4.655,1.57-9.21,3.466-13.48
        c3.606-8.397,9.288-15.707,14.859-22.871c1.458-1.879-1.172-4.546-2.648-2.648c-7.378,9.495-14.987,19.32-18.111,31.152
        c-1.275,4.833-2.258,10.703-0.665,15.567c1.361,4.162,5.285,7.14,9.727,5.913C78.859,205.959,77.877,202.334,75.546,202.993
        L75.546,202.993z"/>
    <path fill="#4491EF" d="M107.168,201.553c4.584-0.32,9.014-1.789,12.882-4.272c3.411-2.148,7.146-4.882,8.793-8.69
        c1.941-4.461,1.703-10.185,1.69-14.957c-0.031-5.663-0.555-11.313-1.568-16.885c-0.421-2.368-4.027-1.361-3.606,0.995
        c1.532,8.629,2.313,18.172,0.763,26.85c-1.373,7.689-11.844,12.723-18.954,13.193c-2.386,0.159-2.404,3.899,0,3.741V201.553z"/>
    <path fill="#7695BB" d="M166.335,206.618c15.591-9.953,16.836-29.529,17.086-46.224c0.037-2.404-3.704-2.404-3.741,0
        c-0.232,15.207-0.915,33.855-15.256,42.99c-2.026,1.294-0.153,4.534,1.886,3.234L166.335,206.618z"/>
    <path fill="#4491EF" d="M224.434,201.473c7.365,0.61,18.471-0.421,23.189-7.054c2.532-3.576,2.935-8.507,3.509-12.717
        c0.651-4.854,0.969-9.748,0.952-14.645c0-2.41-3.747-2.41-3.741,0c0.016,3.934-0.187,7.866-0.61,11.777
        c-0.415,3.747-0.769,7.976-2.166,11.515c-2.868,7.268-14.578,7.933-21.12,7.359c-2.398-0.207-2.386,3.533,0,3.741L224.434,201.473z
        "/>
    <path fill="#7695BB" d="M252.554,202.096c-4.375-1.831-8.769-3.613-13.089-5.547c-4.076-1.831-7.188-3.985-8.36-8.543
        c-2.148-8.317-1.44-18.038-0.409-26.465c0.293-2.386-3.448-2.368-3.741,0c-0.669,5.324-0.906,10.693-0.708,16.055
        c0.177,4.51,0.293,9.556,2.026,13.791c1.66,4.046,5.004,6.426,8.867,8.195c4.741,2.179,9.605,4.113,14.42,6.102
        c2.215,0.928,3.185-2.691,0.995-3.606L252.554,202.096z"/>
    <path fill="#7695BB" d="M274.332,208.943c3.857-0.433,7.97-1.312,11.368-3.283c3.1-1.8,2.52-6.389,2.831-9.483
        c0.244-2.392-3.497-2.38-3.741,0l-0.439,4.351c-0.171,1.623-0.098,1.733-1.581,2.41c-2.679,1.187-5.526,1.951-8.439,2.264
        C271.965,205.47,271.94,209.217,274.332,208.943z"/>
    <path fill="#4491EF" d="M304.429,205.116c-3.285-0.775-6.492-1.849-9.581-3.21c-1.328-0.494-2.6-1.126-3.796-1.886
        c-0.964-0.72-1.111-0.921-1.318-2.276c-0.122-0.781-0.165-1.599-0.244-2.386c-0.244-2.368-3.991-2.398-3.741,0
        c0.171,1.709,0.049,3.875,0.757,5.492c0.708,1.617,2.514,2.362,4.064,3.155c4.091,2.069,8.407,3.656,12.864,4.729
        c2.343,0.574,3.338-3.051,0.995-3.606V205.116z"/>
    <path fill="#7695BB" d="M282.021,188.213l-1.105-1.111c-0.356-0.343-0.829-0.539-1.324-0.549c-1.035,0.001-1.873,0.84-1.872,1.874
        c0,0.496,0.197,0.972,0.548,1.323l1.111,1.105c0.352,0.347,0.824,0.543,1.318,0.549c1.035-0.004,1.87-0.846,1.866-1.88
        C282.562,189.033,282.367,188.562,282.021,188.213L282.021,188.213z"/>
    <path fill="#4491EF" d="M291.724,189.196l0.555-0.555c0.347-0.354,0.544-0.828,0.549-1.324c0.01-0.25-0.047-0.499-0.165-0.72
        c-0.072-0.234-0.205-0.444-0.384-0.61c-0.352-0.349-0.828-0.544-1.324-0.543c-0.494,0.008-0.967,0.202-1.324,0.543l-0.549,0.555
        c-0.347,0.354-0.544,0.828-0.549,1.324c-0.013,0.25,0.042,0.499,0.159,0.72c0.077,0.233,0.211,0.443,0.391,0.61
        c0.352,0.347,0.824,0.543,1.318,0.549C290.895,189.736,291.368,189.54,291.724,189.196L291.724,189.196z"/>
    <path fill="#4491EF" d="M329.704,206.3c3.753-1.025,7.64-2.575,10.734-4.992c3.375-2.63,1.757-6.328,1.074-9.965
        c-1.855-9.837-3.712-19.674-5.571-29.51c-0.445-2.362-4.052-1.361-3.606,0.995l4.345,23.018l1.001,5.315
        c0.281,1.477,1.452,4.491,1.117,5.901c-0.775,3.179-7.433,4.882-10.087,5.632C326.391,203.304,327.373,206.965,329.704,206.3
        L329.704,206.3z"/>
    <path fill="#4491EF" d="M84.364,233.089c0.191,3.214,0.071,6.439-0.36,9.629c-0.33,2.355,3.271,3.368,3.606,0.995
        c0.508-3.517,0.676-7.075,0.5-10.624C87.982,230.691,84.235,230.648,84.364,233.089L84.364,233.089z"/>
    <path fill="#4491EF" d="M81.941,246.123c1.312-0.33,2.664-0.47,4.015-0.415c2.441,0.085,2.404-3.661,0-3.741
        c-1.687-0.055-3.374,0.128-5.01,0.543C78.609,243.121,79.604,246.709,81.941,246.123L81.941,246.123z"/>
    <path fill="#4491EF" d="M98.124,231.997c0.494,3.661,0.915,7.365,1.483,11.027c0.458,2.953,2.276,2.752,4.882,2.654
        c2.398-0.085,2.41-3.826,0-3.741l-1.574,0.055c-0.921-0.037-1.043,0-0.36,0.134l0.86,1.117c-0.525-1.709-0.549-3.747-0.787-5.492
        l-0.769-5.736c-0.311-2.355-4.058-2.386-3.741,0L98.124,231.997z"/>
    <path fill="#7695BB" d="M140.663,228.872c-0.792,3.962-1.344,7.968-1.654,11.997c-0.183,2.404,3.558,2.392,3.741,0
        c0.287-3.688,0.794-7.356,1.519-10.984c0.47-2.349-3.137-3.356-3.606-0.995V228.872z"/>
    <path fill="#7695BB" d="M151.079,230.123v13.425c0,2.41,3.741,2.41,3.741,0v-13.425
        C154.82,227.719,151.079,227.713,151.079,230.123z"/>
    <path fill="#7695BB" d="M140.333,240.125c-1.886-0.134-3.782-0.036-5.645,0.293c-0.99,0.282-1.572,1.306-1.306,2.301
        c0.295,0.98,1.308,1.555,2.301,1.306c1.538-0.242,3.099-0.295,4.65-0.159c1.03-0.007,1.863-0.838,1.873-1.867
        C142.187,240.972,141.36,240.145,140.333,240.125z"/>
    <path fill="#7695BB" d="M153.423,245.812c1.176,0.115,2.322,0.435,3.387,0.946c0.895,0.494,2.02,0.199,2.557-0.671
        c0.511-0.893,0.212-2.03-0.671-2.557c-1.655-0.8-3.441-1.294-5.272-1.458c-1.029,0.007-1.861,0.839-1.867,1.867
        C151.578,244.962,152.4,245.786,153.423,245.812L153.423,245.812z"/>
    <path fill="#4491EF" d="M199.525,229.19c0,2.008-0.946,3.899-1.538,5.785c-0.561,1.788-0.805,4.058-1.66,5.718l1.117-0.86
        c-1.3,0.323-2.825,0.22-4.162,0.293c-2.392,0.134-2.41,3.875,0,3.741c1.501-0.085,3.448,0.104,4.882-0.36
        c1.434-0.464,1.727-1.55,2.111-2.911c1.013-3.588,2.996-7.658,2.978-11.405c0-2.404-3.753-2.41-3.741,0L199.525,229.19z"/>
    <path fill="#4491EF" d="M212.419,229.861c0.549,3.728,0.964,7.5,1.642,11.204c0.61,3.289,2.569,3.051,5.571,3.234
        c2.404,0.153,2.398-3.594,0-3.741c-0.986,0.012-1.97-0.084-2.935-0.287l1.306,1.306c-0.696-1.831-0.72-4.156-1.007-6.102
        l-0.995-6.609c-0.348-2.374-3.954-1.361-3.606,0.995H212.419z"/>
    <path fill="#7695BB" d="M249.985,229.666c-1.111,2.215-2.124,4.479-3.008,6.792c-0.407,1.078-0.793,2.17-1.159,3.277l-0.262,0.824
        c-0.073,0.885-0.183,1.104-0.33,0.653c0.171-0.079-1.666-0.342-1.593-0.33c-2.386-0.299-2.368,3.448,0,3.741
        c3.051,0.378,4.558-0.061,5.529-3.051c1.098-3.429,2.457-6.768,4.064-9.989c1.074-2.148-2.154-4.04-3.234-1.886L249.985,229.666z"
        />
    <path fill="#7695BB" d="M256.276,232.802c0,2.923-0.281,6.011,0,8.921c0.238,2.441,2.319,2.764,4.363,3.362
        c2.313,0.677,3.301-2.935,0.989-3.613c-0.732-0.214-1.764-0.33-2.374-0.793l0.86,1.117c-0.476-1.159-0.104-2.978-0.104-4.241
        v-4.754c0-2.41-3.741-2.441-3.741,0H256.276z"/>
    <path fill="#4491EF" d="M312.02,236.201v5.834c0,0.458,0,0.921,0,1.373c0,0.452,0,0.458,0-0.073
        c0.171-0.427,0.067-0.543-0.305-0.348c-0.69-0.177-2.355,0.513-3.051,0.659c-2.355,0.513-1.361,4.119,0.995,3.613
        c2.044-0.445,5.492-0.421,6.017-2.929c0.138-1.216,0.154-2.442,0.049-3.661v-4.461c0-2.404-3.741-2.41-3.741,0L312.02,236.201z"/>
    <path fill="#4491EF" d="M325.896,233.712v7.219c0,1.519-0.378,3.661,0.262,5.095c1.111,2.478,5.169,3.979,7.494,4.931
        c2.227,0.909,3.198-2.709,0.995-3.613c-2.807-1.141-4.784-1.995-5.01-5.205c-0.201-2.783,0-5.645,0-8.427
        C329.637,231.301,325.896,231.301,325.896,233.712L325.896,233.712z"/>
    <path fill="#4491EF" d="M34.295,39.105c-7.664,34.008-16.885,65.013-15.097,99.924c0.201,3.966,1.135,8.793,5.346,10.294
        c1.975,0.802,3.908,1.704,5.791,2.703c2.343,1.141,9.501,2.252,10.484,5.779c0.61,2.276-1.971,4.235-3.454,6.102
        c-3.661,4.632-7.725,10.856-11.667,15.256c-1.458,1.623,0.433,2.13,2.191,2.38c1.702,0.174,3.422-0.004,5.053-0.525
        c9.489-2.807,15.689-9.934,23.921-14.877c8.232-4.943,8.354-7.756,18.52-5.974l0.982,0.122
        c44.595,7.817,210.051,16.092,255.074,20.784c8.146,0.848,16.372,1.696,24.482,0.989c9.001-0.787,18.478-4.107,22.328-11.253
        c1.654-3.051,2.099-6.554,2.526-9.971c1.522-12.091,3.035-24.183,4.54-36.278c2.191-17.605,4.363-35.491,0.909-53.09
        c-1.574-7.994-4.656-16.348-11.783-21.602c-3.417-2.52-7.548-4.156-11.722-5.443c-10.313-3.191-21.193-4.455-31.994-5.675
        c-55.909-6.493-200.404-14.883-256.55-18.502c-8.702-0.561-17.697-1.019-25.758,1.69S36.723,30.385,34.295,39.105z"/>
    <path fill="#FFFFFF" d="M147.558,102.715c1.269-3.362,1.66-6.944,2.386-10.447c0.818-3.93,1.666-7.805,1.916-11.826
        c0.494-7.774-1.147-15.347-5.333-21.968c-3.323-5.179-7.83-9.492-13.15-12.583c-4.979-2.935-10.758-5.626-16.525-6.31
        c-12.931-1.538-27.497,2.032-37.224,10.893c-5.541,5.047-9.098,11.68-11.448,18.722c-2.441,7.323-4.272,15.396-4.656,23.121
        c-0.495,7.423,2.085,14.723,7.134,20.186c4.967,5.431,11.753,9.275,18.392,12.247c7.652,3.417,16,5.761,24.446,4.778
        c7.445-0.867,14.261-4.18,19.948-9.001c2.519-2.078,4.735-4.498,6.584-7.188c1.562-2.349,2.551-5.126,4.32-7.323
        c1.959-2.441,4.394-1.599,7.146-0.952c4.455,1.056,8.812,2.441,13.163,3.875c17.135,5.584,34.624,10.124,52.052,14.7
        c40.177,10.545,80.655,19.84,121.435,27.887c3.661,0.732,5.272-4.925,1.562-5.657c-33.733-6.672-67.279-14.198-100.638-22.578
        c-16.147-4.068-32.236-8.319-48.269-12.754c-8.238-2.288-16.439-4.625-24.568-7.28c-3.661-1.184-7.268-2.355-10.984-3.32
        c-3.094-0.812-6.67-2.026-9.892-1.312c-5.059,1.111-7.085,6.102-9.434,10.154c-3.314,5.663-9.031,10.233-15.042,12.815
        c-13.956,5.937-31.03-0.757-42.258-9.696c-5.937-4.723-9.434-10.783-9.275-18.49c0.153-7.225,2.014-14.828,4.18-21.693
        c2.166-6.865,5.663-13.285,11.314-18.014c5.144-4.272,11.521-6.664,18.075-7.762c6.041-1.007,12.461-1.422,18.27,0.738
        c6.157,2.288,12.143,5.352,16.708,10.179c5.348,5.669,8.284,13.193,8.189,20.986c-0.107,4.06-0.651,8.097-1.623,12.04
        c-0.83,3.765-1.22,7.652-2.569,11.283c-1.336,3.533,4.339,5.065,5.663,1.556L147.558,102.715z"/>
    <path fill="#FFFFFF" d="M80.586,94.037c2.545,4.659,6.454,8.429,11.204,10.801c3.375,1.678,6.352-3.381,2.966-5.065
        c-3.866-1.881-7.047-4.924-9.098-8.702C83.827,87.758,78.774,90.718,80.586,94.037z"/>
    <path fill="#FFFFFF" d="M131.564,67.218c1.371,1.765,2.49,3.712,3.326,5.785c0.537,1.379,1.831,2.337,3.375,1.916
        c1.318-0.36,2.441-1.983,1.916-3.375c-0.952-2.536-2.256-4.925-3.875-7.097c-0.897-1.184-2.368-1.831-3.759-0.989
        C131.387,64.142,130.661,66.028,131.564,67.218L131.564,67.218z"/>
    <path fill="#4491EF" d="M150.585,3.236c0.556,3.067,1.444,6.065,2.648,8.94c0.915,2.185,4.54,1.22,3.606-0.995
        c-1.204-2.875-2.092-5.873-2.648-8.94C153.764-0.12,150.158,0.88,150.585,3.236z"/>
    <path fill="#4491EF" d="M312.111,14.049c-2.381,3.292-5.035,6.379-7.933,9.227c-1.715,1.696,0.934,4.339,2.648,2.642
        c3.114-3.082,5.963-6.419,8.519-9.977C316.749,13.982,313.515,12.109,312.111,14.049z"/>
    <path fill="#4491EF" d="M16.409,167.826l-3.271,2.801c-0.724,0.734-0.724,1.914,0,2.648c0.739,0.707,1.904,0.707,2.642,0
        l3.271-2.807c0.724-0.732,0.724-1.91,0-2.642C18.314,167.115,17.146,167.115,16.409,167.826z"/>
    <path fill="#4491EF" d="M357.097,191.624c0.873,2.871,2.327,5.532,4.272,7.817c1.55,1.831,4.18-0.812,2.642-2.648
        c-1.51-1.807-2.634-3.905-3.301-6.163c-0.696-2.301-4.308-1.324-3.606,0.995H357.097z"/>
    <path fill="#4491EF" d="M193.044,195.981c-15.561-2.899-30.438-15.634-27.491-32.891c0.403-2.355-3.204-3.368-3.606-0.995
        c-3.283,19.222,12.308,34.173,30.102,37.492C194.399,200.027,195.412,196.427,193.044,195.981z"/>
</g>
</svg>
