<?xml version="1.0" encoding="UTF-8"?>
<svg width="112px" height="39px" viewBox="0 0 112 39" version="1.1" xmlns="http://www.w3.org/2000/svg" xmlns:xlink="http://www.w3.org/1999/xlink">
    <title>zoom</title>
    <defs>
        <path d="M25.264547,4.37052301 C27.0404054,6.15255835 27.0370678,9.03628894 25.257089,10.8142087 C23.4771103,12.5921285 20.5933777,12.5921285 18.813399,10.8142087 C17.0334202,9.03628894 17.0300826,6.15255835 18.805941,4.37052301 C19.6613729,3.51211568 20.8233748,3.02961656 22.035244,3.02961656 C23.2471132,3.02961656 24.4091151,3.51211568 25.264547,4.37052301 L25.264547,4.37052301 Z M22.035244,0.0014660137 C26.2307743,0.00408822062 29.6301658,3.40666814 29.628855,7.60219902 C29.6275436,11.7977299 26.2260261,15.1981845 22.030495,15.1981845 C17.8349639,15.1981845 14.4334465,11.7977299 14.432135,7.60219902 C14.4308243,3.40666814 17.8302158,0.00408822062 22.0257461,0.0014660137 L22.035244,0.0014660137 Z M41.221103,4.37052301 C42.9969614,6.15255835 42.9936238,9.03628894 41.213645,10.8142087 C39.4336663,12.5921285 36.5499337,12.5921285 34.769955,10.8142087 C32.9899762,9.03628894 32.9866386,6.15255835 34.762497,4.37052301 C35.6179289,3.51211568 36.7799308,3.02961656 37.9918,3.02961656 C39.2036692,3.02961656 40.3656711,3.51211568 41.221103,4.37052301 L41.221103,4.37052301 Z M43.3676397,2.22398631 C45.932197,4.78569439 46.3301603,8.80220939 44.3181688,11.8173699 C42.3061773,14.8325304 38.444545,16.0066527 35.0947201,14.6217427 C31.7448952,13.2368328 29.8397611,9.6785703 30.5443371,6.12288819 C31.248913,2.56720609 34.3669835,0.00431637777 37.9918,0.0014660137 C40.0068457,0.00189636509 41.9392032,0.802717826 43.3638405,2.22778549 L43.3676397,2.22398631 Z M3.039344,15.1601942 L3.79918,15.198186 L15.19672,15.198186 L15.1587282,14.43835 C15.0561503,13.1846206 14.1709414,12.2728174 12.917212,12.1968338 L12.157376,12.158842 L5.318852,12.158842 L14.436884,3.04081001 L14.3988922,2.28097401 C14.3688713,1.05566925 13.3826808,0.0694786761 12.157376,0.0394578137 L11.39754,0.0014660137 L6.98889835e-17,0.0014660137 L0.0379918,0.761302014 C0.0962839447,1.97429182 1.0665182,2.94452607 2.279508,3.00281821 L3.039344,3.04081001 L9.877868,3.04081001 L0.759836,12.158842 L0.7978278,12.918678 C0.840020417,14.1387292 1.81929278,15.1180016 3.039344,15.1601942 L3.039344,15.1601942 Z M55.0577166,4.56048201 C55.3050679,5.02898405 55.4354142,5.55036922 55.4376346,6.08015401 L55.4756264,6.83999001 L55.4756264,12.158842 L55.5136182,12.918678 C55.5610001,14.1335492 56.5328327,15.1086873 57.747536,15.1601942 L58.507372,15.198186 L58.507372,6.83999001 L58.5453638,6.08015401 C58.5471801,5.54729444 58.6775053,5.02273553 58.9252818,4.55098406 C59.4704642,3.61369852 60.4736933,3.03784494 61.5580015,3.03980288 C62.6423096,3.04176082 63.6434526,3.62123371 64.1852465,4.56048201 C64.4268991,5.03063327 64.5532178,5.55153519 64.553767,6.08015401 L64.5917588,6.83999001 L64.5917588,12.158842 L64.6297506,12.918678 C64.6726759,14.1362183 65.6481409,15.1141697 66.865568,15.1601942 L67.625404,15.198186 L67.625404,6.08015401 C67.6257192,3.55192143 66.0611006,1.28745075 63.6962112,0.393438129 C61.3313219,-0.500574495 58.6599687,0.162547514 56.9877,2.05872198 C54.9663159,-0.233824459 51.5569997,-0.668935194 49.0246187,1.04244133 C48.439545,0.381384014 47.109832,0.0014660137 46.349996,0.0014660137 L46.349996,15.198186 L47.109832,15.1601942 C48.3787581,15.0766123 49.3019589,14.1800058 49.3513482,12.918678 L49.38934,12.158842 L49.38934,6.83999001 L49.4273318,6.08015401 C49.4307437,5.55051912 49.5610203,5.0294125 49.8072498,4.56048201 C50.350985,3.62314172 51.352652,3.04619531 52.4362824,3.04619531 C53.5199128,3.04619531 54.5215797,3.62314172 55.0653149,4.56048201 L55.0577166,4.56048201 Z" id="path-1"></path>
        <circle id="path-3" cx="19.375818" cy="19.375818" r="19.375818"></circle>
        <circle id="path-5" cx="18.9959" cy="18.9959" r="18.9959"></circle>
        <circle id="path-7" cx="17.476228" cy="17.476228" r="17.476228"></circle>
        <path d="M16.716392,3.81483418 L21.655326,0.205613182 C22.0865329,-0.145810968 22.415162,-0.0641285976 22.415162,0.585531182 L22.415162,11.5917556 C22.415162,12.3211982 22.0048506,12.2376162 21.655326,11.9716736 L16.716392,8.36245264 L16.716392,3.81483418 Z M0,0.612125442 L0,8.81835424 C0.00941933311,10.6735026 1.5204182,12.1700463 3.37557143,12.1616679 L15.3429884,12.1616679 C15.6800658,12.162686 15.954464,11.8908364 15.956556,11.5537638 L15.956556,3.34753504 C15.9471367,1.49238664 14.4361378,-0.00415696985 12.5809846,0.00422133949 L0.61356757,0.00422133949 C0.276490161,0.00320332116 0.00209201298,0.27505288 0,0.612125442 Z" id="path-9"></path>
    </defs>
    <g id="Profile-improvements-with-follow" stroke="none" stroke-width="1" fill="none" fill-rule="evenodd">
        <g id="zoom">
            <g id="Clipped" transform="translate(44.070488, 11.775992)">
                <mask id="mask-2" fill="white">
                    <use xlink:href="#path-1"></use>
                </mask>
                <g id="Shape"></g>
                <polygon id="Path" fill="#4A8CFF" fill-rule="nonzero" mask="url(#mask-2)" points="-0.949795 -0.948328986 68.575199 -0.948328986 68.575199 16.147981 -0.949795 16.147981"></polygon>
            </g>
            <g id="Clipped">
                <mask id="mask-4" fill="white">
                    <use xlink:href="#path-3"></use>
                </mask>
                <g id="Oval"></g>
                <polygon id="Path" fill="#E5E5E4" fill-rule="nonzero" mask="url(#mask-4)" points="-0.949795 -0.949795 39.701431 -0.949795 39.701431 39.701431 -0.949795 39.701431"></polygon>
            </g>
            <g id="Clipped" transform="translate(0.379918, 0.379918)">
                <mask id="mask-6" fill="white">
                    <use xlink:href="#path-5"></use>
                </mask>
                <g id="Oval"></g>
                <polygon id="Path" fill="#FFFFFF" fill-rule="nonzero" mask="url(#mask-6)" points="-0.949795 -0.949795 38.941595 -0.949795 38.941595 38.941595 -0.949795 38.941595"></polygon>
            </g>
            <g id="Clipped" transform="translate(1.899590, 1.899590)">
                <mask id="mask-8" fill="white">
                    <use xlink:href="#path-7"></use>
                </mask>
                <g id="Oval"></g>
                <polygon id="Path" fill="#4A8CFF" fill-rule="nonzero" mask="url(#mask-8)" points="-0.949795 -0.949795 35.902251 -0.949795 35.902251 35.902251 -0.949795 35.902251"></polygon>
            </g>
            <g id="Clipped" transform="translate(7.978278, 13.292873)">
                <mask id="mask-10" fill="white">
                    <use xlink:href="#path-9"></use>
                </mask>
                <g id="Shape"></g>
                <polygon id="Path" fill="#FFFFFF" fill-rule="nonzero" mask="url(#mask-10)" points="-0.949795 -0.945538358 23.364957 -0.945538358 23.364957 13.1114276 -0.949795 13.1114276"></polygon>
            </g>
        </g>
    </g>
</svg>